<?xml version="1.0" encoding="utf-8"?>
<!-- Generator: Adobe Illustrator 24.3.0, SVG Export Plug-In . SVG Version: 6.00 Build 0)  -->
<svg version="1.1" id="Layer_1" xmlns="http://www.w3.org/2000/svg" xmlns:xlink="http://www.w3.org/1999/xlink" x="0px" y="0px"
	 viewBox="0 0 636 300" style="enable-background:new 0 0 636 300;" xml:space="preserve">
<style type="text/css">
	.st0{fill:#C7E0F4;}
	.st1{fill:#FFFFFF;}
	.st2{fill:url(#SVGID_1_);}
	.st3{fill:#2B579A;}
	.st4{fill:#F7B548;}
	.st5{fill:#FFD590;}
	.st6{fill:#8DBCF4;}
	.st7{fill:#4995EE;}
	.st8{fill:#AE9CEB;}
	.st9{fill:#8A6FE8;}
	.st10{fill:url(#SVGID_2_);}
	.st11{fill:#138FAB;}
	.st12{fill:#70D6E0;}
	.st13{fill:#1DACCC;}
	.st14{fill:#28C2D1;}
	.st15{fill:#B3AFAB;}
	.st16{fill:#797672;}
</style>
<g>
	<g>
		<path class="st0" d="M113.4,228.7c0,0,298.2,40.2,306.1,41.3s39.7,2.3,42.6-19.3s26-192.9,26-192.9L142.8,11.1L113.4,228.7z"/>
		<path class="st1" d="M128.3,217.6l291,39.2c20.8,2.8,34.7-4.2,43.8-12.8c0.2-1.3,0.4-2.8,0.6-4.4c-8.4,9.1-22.1,17.4-44,14.4
			l-288.1-38.8l25-185.6L486,73.9c0.1-1,0.3-1.9,0.4-2.8L154.1,26.3L128.3,217.6z"/>
		<path class="st1" d="M347.5,122.2c3.8-27.9-15.9-53.6-43.7-57.4c-27.9-3.8-53.6,15.9-57.4,43.7c-1.3,9.8,0.2,19.5,4.4,28.4l-0.2,0
			l1.5,2.6c14.7,25.4,15,45.4,14.8,49.7l-4,29.5l7,0.9l2.1,5.7l19.9,2.7l3.5-4.9l7.2,1l3.7-27.3h0l0.2-1.4c0-0.2,3-20.6,26.5-43.6
			l2-2.1l-0.1,0C341.7,141.9,346.1,132.5,347.5,122.2z M300,220.7l-6-0.8l-3.5,4.9l-16.4-2.2l-2.1-5.7l-5.9-0.8l3.3-24.4l33.9,4.6
			L300,220.7z M284.4,190.7l0.4-74.9c3.7,0.9,7.6,1.7,11.6,2.2c4.7,0.6,9.3,0.9,13.7,0.9l-19.6,72.6L284.4,190.7z M330.7,149.5
			l-2,2.1h0c-19.1,19.6-23.9,36.6-25,41.7l-9.6-1.3l19.7-73.1c7.5-0.3,14.2-1.4,19.6-3.4c1-0.4,1.4-1.4,1.1-2.4
			c-0.4-1-1.4-1.4-2.4-1.1c-4.7,1.8-10.6,2.8-17.2,3.1l1.8-6.7c0.3-1-0.3-2-1.3-2.3c-1-0.3-2,0.3-2.3,1.3l-2.1,7.8
			c-4.6,0-9.4-0.3-14.2-0.9c-4.2-0.6-8.2-1.4-12.1-2.4l0-8.3c0-1-0.8-1.9-1.9-1.9c-1,0-1.9,0.8-1.9,1.8l0,7.3
			c-6.4-1.9-12.1-4.4-16.4-7.3c-0.9-0.6-2-0.3-2.6,0.5c-0.6,0.8-0.3,2,0.5,2.6c4.9,3.2,11.3,6,18.5,8.1l-0.4,75.4l-10.9-1.5
			c0.1-5.5-0.5-25-14.8-50l-0.4-0.7c-4.8-9-6.7-19.1-5.3-29.1c3.5-26.3,27.8-44.8,54.1-41.2c26.3,3.5,44.8,27.8,41.2,54.1
			C343.2,132.4,338.4,142,330.7,149.5z"/>
		<g>
			
				<rect x="188.5" y="71.3" transform="matrix(0.1336 -0.991 0.991 0.1336 66.7122 273.8255)" class="st1" width="2.9" height="54.9"/>
		</g>
		<g>
			
				<rect x="198.2" y="52.6" transform="matrix(0.1336 -0.991 0.991 0.1336 85.4829 274.4268)" class="st1" width="2.9" height="71.3"/>
		</g>
		<g>
			
				<rect x="200.4" y="40.6" transform="matrix(0.1336 -0.991 0.991 0.1336 98.6862 266.6017)" class="st1" width="2.9" height="72.5"/>
		</g>
		<g>
			
				<rect x="201.5" y="29.4" transform="matrix(0.1336 -0.991 0.991 0.1336 111.1847 257.7338)" class="st1" width="2.9" height="71.7"/>
		</g>
		<polygon class="st1" points="355,99 305.5,92.3 309.4,89.4 305.3,88.8 299.7,93 303.9,98.6 308.1,99.1 305.1,95.2 354.6,101.9 		
			"/>
		<polygon class="st1" points="373.9,85.1 374.4,81 370.2,75.4 364.7,79.7 364.1,83.8 368,80.8 348.6,225.1 345.6,221.2 345,225.4 
			349.2,230.9 354.8,226.7 355.4,222.6 351.4,225.5 370.9,81.2 		"/>
		<g>
			
				<rect x="369.5" y="37.9" transform="matrix(0.1336 -0.991 0.991 0.1336 249.6177 430.4488)" class="st1" width="2.9" height="69"/>
		</g>
		<g>
			<path class="st1" d="M452.4,217.7l-69.8-9.4l9.6-70.9l69.8,9.4L452.4,217.7z M385.9,205.8l64,8.6l8.8-65.2l-64-8.6L385.9,205.8z"
				/>
		</g>
		<g>
			
				<rect x="232.5" y="201.6" transform="matrix(0.1336 -0.991 0.991 0.1336 -14.6407 421.7788)" class="st1" width="2.9" height="35.3"/>
		</g>
		
			<linearGradient id="SVGID_1_" gradientUnits="userSpaceOnUse" x1="599.7845" y1="1423.6012" x2="537.9266" y2="1423.6012" gradientTransform="matrix(0.991 0.1336 0.1336 -0.991 -307.3554 1468.2098)">
			<stop  offset="0" style="stop-color:#A3C9F6"/>
			<stop  offset="0.4545" style="stop-color:#76AFF2"/>
		</linearGradient>
		<path class="st2" d="M426.2,220.4c20.2,2.7,35.6,14.4,36.2,26.9c3-22.4,23.4-173.5,25.4-188.5c2.1-15.3,1.5-25.9-23.8-34.7
			l-60.5,197.6C410.2,219.8,418,219.3,426.2,220.4z"/>
	</g>
	<g>
		<path class="st3" d="M359.4,189.6c-9.5,6.2-21.4,6-23.7,5.9c-8.3-1.3-15.6-7.2-18.2-15.9c-1.7-5.6-1.2-11.2,1.1-16.1
			c0.7-1.5,0-3.3-1.6-3.9l0,0c-1.4-0.5-2.9,0.1-3.5,1.4c-3.9,7.1-5,15.7-2.4,24.1c3.7,12.1,14,20.3,25.7,21.9
			c1.8,6.5,5.7,15.2,14.3,24.8c15.6,17.6,23.2-14.1,23.2-14.1C360.5,202.4,360.4,194.8,359.4,189.6z"/>
		<g>
			
				<rect x="277.4" y="153.9" transform="matrix(0.7152 -0.699 0.699 0.7152 -16.7617 287.6912)" class="st4" width="134.5" height="21"/>
			<g>
				<g>
					
						<rect x="301.3" y="193.6" transform="matrix(0.7152 -0.699 0.699 0.7152 -52.2276 267.8373)" class="st5" width="2.5" height="8.8"/>
				</g>
				<g>
					
						<rect x="312" y="183.1" transform="matrix(0.7152 -0.699 0.699 0.7152 -41.8037 272.3707)" class="st5" width="2.5" height="8.8"/>
				</g>
				<g>
					
						<rect x="322.8" y="172.6" transform="matrix(0.7152 -0.699 0.699 0.7152 -31.3768 276.8972)" class="st5" width="2.5" height="8.8"/>
				</g>
				<g>
					
						<rect x="333.6" y="162" transform="matrix(0.7152 -0.699 0.699 0.7152 -20.9499 281.4237)" class="st5" width="2.5" height="8.8"/>
				</g>
				<g>
					
						<rect x="344.3" y="151.5" transform="matrix(0.7152 -0.699 0.699 0.7152 -10.526 285.9572)" class="st5" width="2.5" height="8.8"/>
				</g>
				<g>
					
						<rect x="355.1" y="141" transform="matrix(0.7152 -0.699 0.699 0.7152 -9.915253e-02 290.4836)" class="st5" width="2.5" height="8.8"/>
				</g>
				<g>
					
						<rect x="365.9" y="130.5" transform="matrix(0.7152 -0.699 0.699 0.7152 10.3248 295.0171)" class="st5" width="2.5" height="8.8"/>
				</g>
				<g>
					
						<rect x="376.6" y="119.9" transform="matrix(0.7152 -0.699 0.699 0.7152 20.7517 299.5435)" class="st5" width="2.5" height="8.8"/>
				</g>
			</g>
		</g>
		<path class="st3" d="M356.8,147.7L356.8,147.7c-1,1.4-0.6,3.2,0.9,4.1c4.6,2.8,8.2,7.2,9.9,12.8c3.7,12.1-3.1,24.8-15.2,28.5
			c-0.7,0.2,1.4,11.8,1.4,11.8c0.5-0.1,0.9-0.2,1.4-0.3c16.5-5,25.9-22.5,20.8-39.1c-2.5-8.4-8.3-14.9-15.4-18.6
			C359.2,146.2,357.6,146.5,356.8,147.7z"/>
		<polygon class="st6" points="428.2,290.2 373.7,218.9 352,235.4 390,285 		"/>
		<path class="st7" d="M369,212.8l-21.7,16.6c-4.3,3.3-5.1,9.5-1.9,13.8l6.7,8.8c3.3,4.3,9.5,5.1,13.8,1.9l21.7-16.6
			c4.3-3.3,5.1-9.5,1.9-13.8l-6.7-8.8C379.5,210.3,373.3,209.5,369,212.8z"/>
	</g>
	
		<ellipse transform="matrix(0.1602 -0.9871 0.9871 0.1602 68.708 373.0366)" class="st1" cx="253.6" cy="146.1" rx="29.2" ry="29.3"/>
	<path class="st8" d="M223.7,154.5L223.7,154.5l-49.3,24c-2.6,1.2-3.6,4.3-2.4,6.9s4.3,3.6,6.9,2.4l49.3-24l0,0L223.7,154.5z"/>
	<path class="st9" d="M154.9,157.3l43.6-14.1c6-2.1,12.5,1.1,14.6,7c2.1,6-1.1,12.5-7,14.6L163,178.7L154.9,157.3z"/>
	<path class="st9" d="M168.3,167.8c-0.4,0-38.4-3-62.9-26l-3.6,26.8c28.9,19.6,63,22.3,64.9,22.4L168.3,167.8z"/>
	
		<radialGradient id="SVGID_2_" cx="-3404.3271" cy="-301.7559" r="0.9705" gradientTransform="matrix(9.4786 -35.7544 -35.7544 -9.4786 21652.082 -124397.4531)" gradientUnits="userSpaceOnUse">
		<stop  offset="0" style="stop-color:#8065E0"/>
		<stop  offset="1" style="stop-color:#512BD4"/>
	</radialGradient>
	<path class="st10" d="M156,202.6c12.8,3.4,25.9-4.2,29.3-17s-4.2-25.9-17-29.3s-25.9,4.2-29.3,17S143.2,199.2,156,202.6z"/>
	<path class="st9" d="M190.8,181.6l11.9,7.6c5.4,3.2,7.3,10.2,4.1,15.6c-3.2,5.4-10.2,7.3-15.6,4.1l-12.1-7.7
		c-5.3-3.2-9.1-10.2-4.6-16.9C178.5,178.3,185.2,178.3,190.8,181.6z"/>
	<path class="st9" d="M174.1,187.8l11.9,7.6c5.4,3.2,7.3,10.2,4.1,15.6c-3.2,5.4-10.2,7.3-15.6,4.1l-12.1-7.7
		c-5.3-3.2-9.1-10.2-4.6-16.9C161.9,184.5,168.6,184.5,174.1,187.8z"/>
	<path class="st0" d="M245.7,118c-1.7,0.5-3.3,1.1-4.9,1.8c-2,1-3.9,2.2-5.6,3.6c6.8,20.2,19.1,36.5,31.6,48.8
		c3.7-1.9,6.8-4.4,9.3-7.4C263.9,153,251.9,137.4,245.7,118z"/>
	<g>
		<path class="st8" d="M223.8,160.2c-7.9-16.3-1.1-35.9,15.1-43.8s35.9-1.1,43.8,15.2s1.1,35.9-15.1,43.9
			C251.4,183.3,231.7,176.5,223.8,160.2z M278.4,133.6c-6.8-13.9-23.5-19.7-37.4-12.9c-13.9,6.8-19.7,23.5-12.9,37.4
			c6.8,13.9,23.5,19.7,37.4,12.9C279.4,164.2,285.2,147.5,278.4,133.6z"/>
	</g>
	<g>
		<g>
			<path class="st11" d="M232.3,90.1c0.8,1.3,2.4,2.2,3.9,1.9l18-3.3c0.2-0.1,0.5-0.1,0.7-0.2l22.4-10.3c1.7-0.8,2.3-2.9,1.4-4.8
				c-0.9-1.8-3.1-2.8-4.8-2l-22.1,10.1l-17.6,3.3c-1.9,0.3-2.9,2.3-2.4,4.3C231.9,89.3,232.1,89.7,232.3,90.1z"/>
		</g>
		<g>
			<path class="st11" d="M233.8,55.3c0.9,1.4,2.6,2.2,4.1,1.8c2.8-0.8,9.5-4.6,12.4-6.3l19.2,4c1.9,0.4,3.6-0.9,3.8-2.9
				c0.2-2-1.2-4-3.2-4.4l-20.4-4.3c-0.8-0.2-1.6,0-2.3,0.4c-3.9,2.3-10.1,5.7-11.9,6.2c-1.8,0.5-2.8,2.5-2.1,4.5
				C233.5,54.8,233.7,55,233.8,55.3z"/>
		</g>
		<path class="st12" d="M376,12.4L369.6,35l-77.3,16.9c-4.8,1-7.9,5.8-6.8,10.6c0.3,1.2,0.7,2.2,1.4,3.2c2,2.9,5.6,4.4,9.2,3.6
			l82.5-18.1c3.2-0.7,5.8-3.1,6.7-6.3l8.6-30.2L376,12.4z"/>
		<path class="st13" d="M306.9,51.9l2.6,11.8c0.4,1.9-0.6,3.7-2.4,4l-9.2,1.6c-0.3,0.1-0.6,0.2-0.9,0.3l-20.3,10.7
			c-2,1-4.5-0.3-5.1-2.7l-6.8-28.9c-0.6-2.4,1.2-4.5,3.6-4l24.8,4.8c0.3,0.1,0.6,0.1,0.9,0l8.9-0.8C304.7,48.6,306.5,50,306.9,51.9z
			"/>
		<path class="st14" d="M221.1,96.7c-0.2,0.7,0,1.6,0.6,2s1.5,0.5,2.1,0c0,0,9.3-6.8,9.4-6.9l53.2-72.5c0.6-0.8,0.4-1.9-0.4-2.5
			l-5.5-4c-0.8-0.6-1.9-0.4-2.5,0.4l-53.3,72.5C224.8,85.8,221.1,96.7,221.1,96.7z"/>
		<path class="st13" d="M230.8,87.5l-9.1,11.2c0.6,0.5,1.5,0.5,2.1,0l9-6.5c0.1-0.1,0.3-0.2,0.4-0.4l53.2-72.5
			c0.6-0.8,0.4-1.9-0.4-2.5l-1.9-1.4L230.8,87.5z"/>
		<path class="st15" d="M224.6,86.1l-3.3,9.7l-2.7,3.5c-0.3,0.4-0.2,1,0.2,1.3l1.6,1.2c0.4,0.3,1,0.2,1.3-0.2l2.6-3.4l8.5-6.1
			C232.9,92.2,224.7,86,224.6,86.1z"/>
		<path class="st11" d="M268.6,64.8l-15.5,4.4l-20.9,1.2c-1.9,0.1-3.2,1.9-2.9,3.9c0.1,0.6,0.3,1.1,0.6,1.6c0.8,1.2,2.1,2,3.4,1.9
			l21.3-1.2c0.2,0,0.5-0.1,0.7-0.1l15.1-4.3L268.6,64.8z"/>
		<path class="st16" d="M221.4,95.8l-2.7,3.5c-0.3,0.4-0.2,1,0.2,1.3l1.6,1.2c0.4,0.3,1,0.2,1.3-0.2l2.6-3.4l0.1-0.1L221.4,95.8z"/>
	</g>
	<path class="st9" d="M195.8,165.6l16.5,10.3c5.4,3.2,7.3,10.2,4.1,15.6c-3.2,5.4-10.2,7.3-15.6,4.1l-16.6-10.4
		c-5.3-3.2-8.2-10.5-4.6-16.9S190.3,162.3,195.8,165.6z"/>
</g>
</svg>
