<?xml version="1.0" encoding="utf-8"?>
<!-- Generator: Adobe Illustrator 24.3.0, SVG Export Plug-In . SVG Version: 6.00 Build 0)  -->
<svg version="1.1" id="Layer_1" xmlns="http://www.w3.org/2000/svg" xmlns:xlink="http://www.w3.org/1999/xlink" x="0px" y="0px"
	 viewBox="0 0 636 300" style="enable-background:new 0 0 636 300;" xml:space="preserve">
<style type="text/css">
	.st0{fill:url(#SVGID_1_);}
	.st1{fill:#F8B84F;}
	.st2{fill:#1572E0;}
	.st3{fill:#84817D;}
	.st4{fill:#4995EE;}
	.st5{fill:#B3AFAB;}
	.st6{fill:#C4832D;}
	.st7{fill:#E29E3B;}
	.st8{fill:#FFFFFF;}
	.st9{fill:#FBC977;}
	.st10{fill:#A3C9F6;}
	.st11{fill:#9C9894;}
	.st12{fill:#56534F;}
	.st13{fill:#6D6A66;}
	.st14{fill:#81B5F3;}
	.st15{fill:#505050;}
	.st16{fill:#797673;}
	.st17{fill:#3E8EED;}
	.st18{fill:none;}
	.st19{fill:#60DEFA;}
	.st20{fill:#C5D43B;}
	.st21{fill:#F7B548;}
	.st22{fill:none;stroke:#FFFFFF;stroke-width:4.1968;stroke-linecap:round;stroke-linejoin:round;stroke-miterlimit:10;}
</style>
<g>
	
		<radialGradient id="SVGID_1_" cx="-63.6494" cy="459.7707" r="1.8359" gradientTransform="matrix(98.8806 -1.5291 1.5291 98.8806 5871.417 -45208.1211)" gradientUnits="userSpaceOnUse">
		<stop  offset="0.1159" style="stop-color:#FFFFFF"/>
		<stop  offset="0.9695" style="stop-color:#B8D6F7"/>
	</radialGradient>
	<path class="st0" d="M116.15,223.18c0.26,3.5,3.49,12.23,4.86,15.39C188.88,241.53,317,250.53,516.94,265
		c0.04-1.47-0.1-2.76-0.06-4.23c-1.12-42.09-25.67-74.61-59.39-89.21c0.06-1.84,0.11-3.67-0.02-5.51
		c-1.71-22.46-20.98-41.22-42.82-41.88c-7.35-0.04-14.2,1.78-19.81,5.28c-12.58-33.44-44.53-58.28-80.13-59.35
		c-36.34-0.91-64.98,23.21-71.88,57.16c-9.2-5.42-19.58-8.67-30.59-9c-33.4-0.82-58.46,26.16-55.82,60.58
		c-0.01,0.18-0.01,0.37-0.02,0.55C132.37,178.67,114.14,198.33,116.15,223.18z"/>
	<g>
		<path class="st1" d="M231.95,191.46c-0.01,19.24-14.92,34.17-32.84,33.38c-17.43-0.77-31.2-16.2-31.19-34.48
			c0.01-18.28,13.79-33.24,31.22-33.41C217.06,156.78,231.96,172.23,231.95,191.46z"/>
		<g>
			<path class="st2" d="M204.98,166.37l-11.06,1.41c-0.18,0.02-0.32,0.19-0.32,0.39l-0.02,42.62c0,0.2,0.14,0.38,0.33,0.4
				l10.98,1.41c0.22,0.03,0.41-0.15,0.41-0.38l0.1-45.46C205.4,166.52,205.21,166.34,204.98,166.37z"/>
			<path class="st3" d="M197.7,171.99l-7.85,0.91c-0.25,0.03-0.43,0.25-0.43,0.52l-0.01,36.74c0,0.26,0.17,0.48,0.41,0.53l8.81,1.67
				c0.29,0.06,0.55-0.16,0.57-0.46c0.24-4.23,0.62-30.63,0.32-33.86c-0.25-2.73-0.99-4.9-1.3-5.72
				C198.13,172.1,197.92,171.97,197.7,171.99z"/>
			<path class="st4" d="M205.3,212.61l8.42,0.29c1,0.03,1.81-0.79,1.81-1.84l0.02-42.82c0-1.05-0.81-1.9-1.81-1.9l-8.43,0.02
				c-0.99,0-1.79,0.85-1.79,1.89l-0.02,42.42C203.52,211.7,204.32,212.58,205.3,212.61z"/>
			<path class="st5" d="M198.76,212.39l3.75,0.13c0.55,0.02,1-0.44,1-1.02l0.01-38.53c0-0.58-0.45-1.06-1-1.06l-3.75-0.01
				c-0.55,0-0.99,0.47-0.99,1.05l-0.01,38.35C197.77,211.88,198.21,212.37,198.76,212.39z"/>
			<g>
				<path class="st6" d="M191.25,211.51l-7.31-0.1c-0.19-0.01-0.38-0.04-0.56-0.09l-6.48-1.93l12.51,0.01L191.25,211.51z"/>
				<path class="st7" d="M189.01,180.11l-5.73,0.57c-0.2,0.02-0.37,0.18-0.42,0.39l-6.32,27.66c-0.07,0.33,0.16,0.65,0.47,0.66
					l7.28,0.15c0.23,0,0.43-0.17,0.47-0.41l4.78-28.39C189.6,180.39,189.34,180.08,189.01,180.11z"/>
				<path class="st8" d="M184.5,209.9l6.07,1.57c0.7,0.18,1.39-0.28,1.54-1.02l5.4-27.14c0.15-0.75-0.3-1.5-1.01-1.66l-6.13-1.43
					c-0.7-0.16-1.39,0.31-1.54,1.06l-5.32,26.96C183.36,208.97,183.81,209.72,184.5,209.9z"/>
				<path class="st9" d="M188.18,194.33l4.79,1.18c0.31,0.08,0.62-0.13,0.68-0.46l1.9-9.47c0.07-0.33-0.13-0.66-0.45-0.73
					l-4.81-1.14c-0.31-0.07-0.61,0.14-0.68,0.46l-1.89,9.42C187.68,193.92,187.87,194.25,188.18,194.33z"/>
			</g>
			<polygon class="st10" points="203.53,180.96 203.53,169.79 215.56,169.79 215.55,181.07 			"/>
			<polygon class="st8" points="198.96,185.18 198.97,178.89 202.45,178.92 202.45,185.22 			"/>
		</g>
	</g>
	<g>
		<path class="st3" d="M413.8,70.41l-71.81,7.15c-2.56,0.25-4.63,2.62-4.63,5.28v146.19c0,2.66,2.07,4.9,4.63,4.99l71.81,2.66
			c2.91,0.11,5.27-2.12,5.27-4.97V75.05C419.07,72.19,416.7,70.12,413.8,70.41z"/>
		<g>
			<path class="st11" d="M414.71,57.28l-73.16,8.07c-1.87,0.21-3.38,1.95-3.38,3.89v10.05l80.38-7.91V60.63
				C418.55,58.55,416.83,57.05,414.71,57.28z"/>
			<g>
				<path class="st12" d="M409.46,53.44l-63.86,7.28c-6.61,0.75-11.91,6.9-11.91,13.73v148.62c0,6.84,5.3,12.58,11.91,12.84
					l63.86,2.46c7.45,0.29,13.56-5.45,13.56-12.83V65.25C423.03,57.88,416.92,52.6,409.46,53.44z M417.35,224.63
					c0,4.57-3.78,8.15-8.4,7.99l-62.88-2.13c-4.13-0.14-7.45-3.72-7.45-7.99V74.67c0-4.27,3.32-8.1,7.45-8.55l62.88-6.87
					c4.63-0.51,8.4,2.79,8.4,7.36V224.63z"/>
				<path class="st12" d="M355.61,64.84V66c0,2.8,2.21,4.85,4.95,4.56l33.27-3.46c2.91-0.3,5.28-2.91,5.28-5.82v-1.2L355.61,64.84z"
					/>
				<path class="st13" d="M387.93,63.8c0,0.79-0.64,1.49-1.42,1.57c-0.78,0.08-1.42-0.49-1.42-1.27c0-0.78,0.63-1.49,1.42-1.57
					C387.29,62.44,387.93,63.01,387.93,63.8z"/>
				<path class="st13" d="M372.37,66.66l8.98-0.95c0.55-0.06,0.99-0.56,0.99-1.13V64.5c0-0.57-0.44-0.98-0.99-0.92l-8.98,0.97
					c-0.54,0.06-0.97,0.56-0.97,1.12v0.08C371.4,66.31,371.83,66.72,372.37,66.66z"/>
				<g>
					<path class="st11" d="M391.06,229.96l-28.17-0.9c-0.45-0.01-0.82-0.4-0.82-0.86c0-0.46,0.36-0.82,0.82-0.81l28.17,0.86
						c0.47,0.01,0.86,0.41,0.86,0.88C391.92,229.6,391.54,229.97,391.06,229.96z"/>
				</g>
			</g>
		</g>
	</g>
	<g>
		<polygon class="st14" points="290.26,174.92 223.1,175.33 223.1,50.25 290.26,42.01 		"/>
		<g>
			<path class="st15" d="M288.52,31.2c-3.88-2.32-8.97-2.75-32.39,0.42v0c-0.06,0.01-0.12,0.02-0.18,0.02
				c-0.06,0.01-0.12,0.02-0.17,0.02v0c-22.46,3.06-27.09,4.75-30.58,7.91c-2.66,2.41-3.61,5.78-3.61,8.71c0,4.42,0,28.51,0,49.13
				c0,16.61,0,30.98,0,30.98c0,20.62,0,44.71,0,49.13c0,2.93,0.95,6.18,3.61,8.24c3.49,2.71,8.12,3.8,30.58,3.98v0
				c0.06,0,0.12,0,0.18,0c0.06,0,0.12,0,0.17,0v0c23.42,0.15,28.51-0.93,32.39-3.75c3-2.18,4.08-5.64,4.08-8.76
				c0-4.71,0-30.39,0-52.38c0,0,0-15.31,0-33.03c0-21.99,0-47.67,0-52.38C292.6,36.32,291.52,33,288.52,31.2z M287.91,172.81
				l-62.07,0.49V52.48l62.07-7.46V172.81z"/>
			<path class="st16" d="M263.86,42.13l-16.01,2.01c-0.74,0.09-1.33-0.5-1.33-1.32v0c0-0.82,0.6-1.56,1.33-1.65l16.01-2.05
				c0.76-0.1,1.37,0.5,1.37,1.33l0,0C265.23,41.28,264.62,42.03,263.86,42.13z"/>
			<path class="st16" d="M284.49,36.63c0.55,0.69,0.43,1.81-0.28,2.49c-0.71,0.68-1.72,0.68-2.27-0.02
				c-0.55-0.69-0.42-1.8,0.28-2.49C282.92,35.93,283.94,35.93,284.49,36.63z"/>
			<path class="st16" d="M272.6,181.69c0,1.04-0.77,1.88-1.72,1.88c-0.95,0-1.72-0.84-1.72-1.88c0-1.03,0.77-1.88,1.72-1.88
				C271.83,179.81,272.6,180.65,272.6,181.69z"/>
			<path class="st16" d="M259.41,181.67c0,1.45-1.07,2.62-2.38,2.62c-1.31,0-2.37-1.18-2.37-2.62s1.06-2.62,2.37-2.62
				C258.35,179.05,259.41,180.22,259.41,181.67z"/>
			<polygon class="st16" points="240.45,182.78 245.4,182.79 245.4,179.84 240.45,179.85 			"/>
		</g>
	</g>
	<g>
		<polygon class="st17" points="281.05,103.63 231.38,107.06 231.38,86.92 281.05,82.56 		"/>
		<polygon class="st17" points="281.05,77.34 231.38,81.93 231.38,58.67 281.05,53.01 		"/>
		<polygon class="st17" points="281.05,159.02 231.38,160.03 231.38,111.28 281.05,108.04 		"/>
		<g>
			<path class="st10" d="M262.92,64.41l-23.11,2.44c-0.67,0.07-1.22-0.48-1.22-1.24s0.54-1.42,1.22-1.49l23.11-2.5
				c0.7-0.08,1.27,0.49,1.27,1.26C264.19,63.65,263.62,64.34,262.92,64.41z"/>
		</g>
		<g>
			<path class="st10" d="M272.88,69.72l-33.08,3.3c-0.67,0.07-1.22-0.49-1.22-1.24s0.54-1.42,1.22-1.49l33.08-3.38
				c0.71-0.07,1.29,0.5,1.29,1.28C274.17,68.96,273.59,69.64,272.88,69.72z"/>
		</g>
		<g>
			<path class="st10" d="M268.57,92.56l-28.77,2.3c-0.67,0.05-1.22-0.51-1.22-1.27s0.54-1.41,1.22-1.46l28.77-2.37
				c0.71-0.06,1.28,0.52,1.28,1.3C269.85,91.83,269.28,92.5,268.57,92.56z"/>
		</g>
		<g>
			<path class="st10" d="M260.64,99.48l-20.84,1.54c-0.67,0.05-1.22-0.52-1.22-1.27s0.54-1.41,1.22-1.46l20.84-1.6
				c0.7-0.05,1.26,0.53,1.26,1.3C261.9,98.76,261.34,99.43,260.64,99.48z"/>
		</g>
		<g>
			<path class="st18" d="M262.92,116.58l-23.11,1.36c-0.67,0.04-1.22-0.54-1.22-1.29s0.54-1.4,1.22-1.44l23.11-1.41
				c0.7-0.04,1.27,0.55,1.27,1.32C264.19,115.88,263.62,116.54,262.92,116.58z"/>
		</g>
		<g>
			<path class="st18" d="M267.14,122.66l-27.34,1.45c-0.67,0.04-1.22-0.55-1.22-1.3s0.54-1.39,1.22-1.43l27.34-1.52
				c0.71-0.04,1.28,0.56,1.28,1.33S267.85,122.62,267.14,122.66z"/>
		</g>
		<g>
			<path class="st18" d="M274.08,128.65l-34.28,1.62c-0.67,0.03-1.22-0.55-1.22-1.31s0.54-1.39,1.22-1.42l34.28-1.71
				c0.71-0.04,1.3,0.57,1.3,1.34C275.38,127.95,274.8,128.61,274.08,128.65z"/>
		</g>
		<g>
			<path class="st18" d="M267.86,135.27l-28.05,1.17c-0.67,0.03-1.22-0.56-1.22-1.31s0.54-1.39,1.22-1.42l28.05-1.24
				c0.71-0.03,1.28,0.57,1.28,1.35S268.56,135.24,267.86,135.27z"/>
		</g>
		<g>
			<path class="st18" d="M255.03,141.85l-15.22,0.55c-0.67,0.02-1.22-0.57-1.22-1.32s0.54-1.38,1.22-1.41l15.22-0.59
				c0.69-0.03,1.25,0.57,1.25,1.34S255.72,141.83,255.03,141.85z"/>
		</g>
	</g>
	<g>
		<polygon class="st19" points="407.32,142.53 347.54,144.95 347.54,122.29 407.32,118.69 		"/>
		<polygon class="st19" points="407.32,112.78 347.54,116.67 347.54,90.49 407.32,85.24 		"/>
		<polygon class="st19" points="407.32,205.23 347.54,204.55 347.54,149.7 407.32,147.52 		"/>
		<g>
			<path class="st8" d="M385.41,97.71l-27.79,2.2c-0.8,0.06-1.46-0.57-1.46-1.42c0-0.85,0.65-1.59,1.46-1.65l27.79-2.27
				c0.84-0.07,1.53,0.58,1.53,1.45S386.26,97.65,385.41,97.71z"/>
		</g>
		<g>
			<path class="st8" d="M397.44,103.94l-39.81,2.91c-0.8,0.06-1.46-0.58-1.46-1.43c0-0.85,0.65-1.58,1.46-1.65l39.81-3.01
				c0.86-0.07,1.56,0.6,1.56,1.47C399,103.12,398.3,103.88,397.44,103.94z"/>
		</g>
		<g>
			<path class="st8" d="M392.24,129.66l-34.61,1.79c-0.8,0.04-1.46-0.61-1.46-1.46c0-0.85,0.65-1.57,1.46-1.61l34.61-1.89
				c0.85-0.05,1.55,0.63,1.55,1.5C393.78,128.87,393.09,129.61,392.24,129.66z"/>
		</g>
		<g>
			<path class="st8" d="M382.67,137.25l-25.04,1.15c-0.8,0.04-1.46-0.62-1.46-1.47c0-0.85,0.65-1.57,1.46-1.61l25.04-1.21
				c0.84-0.04,1.52,0.63,1.52,1.5S383.51,137.21,382.67,137.25z"/>
		</g>
		<g>
			<path class="st8" d="M385.41,156.63l-27.79,0.82c-0.8,0.02-1.46-0.64-1.46-1.49c0-0.85,0.65-1.56,1.46-1.58l27.79-0.89
				c0.84-0.03,1.53,0.66,1.53,1.53S386.26,156.61,385.41,156.63z"/>
		</g>
		<g>
			<path class="st8" d="M390.51,163.63l-32.88,0.77c-0.8,0.02-1.46-0.65-1.46-1.5c0-0.85,0.65-1.55,1.46-1.57l32.88-0.86
				c0.85-0.02,1.54,0.67,1.54,1.54S391.36,163.61,390.51,163.63z"/>
		</g>
		<g>
			<path class="st8" d="M398.89,170.62l-41.27,0.72c-0.8,0.01-1.46-0.66-1.46-1.51s0.65-1.55,1.46-1.56l41.27-0.83
				c0.86-0.02,1.57,0.68,1.57,1.56C400.46,169.88,399.76,170.61,398.89,170.62z"/>
		</g>
		<g>
			<path class="st8" d="M391.37,177.9l-33.75,0.39c-0.8,0.01-1.46-0.67-1.46-1.52s0.65-1.54,1.46-1.56l33.75-0.48
				c0.85-0.01,1.55,0.69,1.55,1.56S392.23,177.89,391.37,177.9z"/>
		</g>
		<g>
			<path class="st8" d="M375.91,184.9l-18.29,0.1c-0.8,0-1.46-0.68-1.46-1.53s0.65-1.54,1.46-1.55l18.29-0.15
				c0.83-0.01,1.51,0.69,1.51,1.55C377.42,184.2,376.74,184.9,375.91,184.9z"/>
		</g>
	</g>
	<path class="st20" d="M195.82,114.11l-41.02,2.46c-4.28,0.26-7.71-3.69-7.71-8.82v-27.4c0-5.12,3.44-9.64,7.71-10.09l41.02-4.32
		c4.67-0.49,8.48,3.5,8.48,8.91v28.95C204.3,109.21,200.48,113.83,195.82,114.11z"/>
	<polygon class="st20" points="195.81,101.38 223.1,92.32 195.75,84.69 	"/>
	<path class="st21" d="M441.2,172.72l65.75-1c7.58-0.12,13.79-5.97,13.79-13.09v-38.02c0-7.11-6.21-12.48-13.79-12l-65.75,4.17
		c-6.76,0.43-12.19,6.14-12.19,12.76v35.39C429.01,167.54,434.43,172.82,441.2,172.72z"/>
	<polygon class="st21" points="436.95,163.03 407.32,167.54 432.59,143.46 	"/>
	<g>
		<path class="st8" d="M496.34,129.16l-50.67,2.43c-1.43,0.07-2.59-1.01-2.59-2.41c0-1.4,1.16-2.59,2.59-2.67l50.67-2.64
			c1.55-0.08,2.81,1.04,2.81,2.5C499.15,127.84,497.89,129.09,496.34,129.16z"/>
	</g>
	<g>
		<path class="st8" d="M496.34,141.5l-50.67,1.95c-1.43,0.06-2.59-1.03-2.59-2.43c0-1.4,1.16-2.58,2.59-2.64l50.67-2.16
			c1.55-0.07,2.81,1.07,2.81,2.53S497.89,141.44,496.34,141.5z"/>
	</g>
	<g>
		<path class="st8" d="M477.06,154.4l-31.38,0.91c-1.43,0.04-2.59-1.06-2.59-2.46c0-1.4,1.16-2.57,2.59-2.62l31.38-1.04
			c1.51-0.05,2.73,1.08,2.73,2.52S478.56,154.36,477.06,154.4z"/>
	</g>
	<path class="st22" d="M472.01,127.74"/>
	<g>
		<path class="st8" d="M191.02,87.3l-31.75,2.72c-0.9,0.08-1.64-0.74-1.64-1.82s0.73-2.03,1.64-2.11l31.75-2.84
			c0.96-0.09,1.75,0.75,1.75,1.87S191.98,87.22,191.02,87.3z"/>
	</g>
	<g>
		<path class="st8" d="M180.55,97.56l-21.28,1.63c-0.9,0.07-1.64-0.75-1.64-1.83c0-1.08,0.73-2.02,1.64-2.09l21.28-1.71
			c0.94-0.08,1.71,0.76,1.71,1.87C182.26,96.53,181.49,97.49,180.55,97.56z"/>
	</g>
	<g>
		<g>
			<path class="st17" d="M357.51,209.36l-52.08-1.32c-1.61-0.1-2.92-1.54-2.92-3.21l-0.35-68.16c0-1.67,1.31-3.02,2.92-3.01
				l33.91-1.24c0.79,0.01,1.56,0.32,2.13,0.88l18.61,18.11c0.63,0.61,0.98,1.44,0.98,2.31l-0.02,52.67
				C360.68,208.14,359.26,209.47,357.51,209.36z"/>
			<path class="st14" d="M359.72,151.42l-18.61-18.11c-0.27-0.26-0.58-0.46-0.91-0.61l-0.24,17.03c0,1.73,1.39,3.16,3.11,3.2
				l17.33-0.52C360.24,152.05,360.01,151.71,359.72,151.42z"/>
		</g>
		<g>
			<path class="st8" d="M321.24,182.72c0,1.18,0.33,2.03,0.99,2.55c0.66,0.53,1.63,0.8,2.91,0.82l0,2.43
				c-2.15-0.02-3.81-0.51-4.98-1.49c-1.17-0.97-1.75-2.35-1.75-4.12l0-5.23c0-1.2-0.35-2.05-1.06-2.55c-0.7-0.5-1.73-0.74-3.06-0.72
				l0-2.43c1.45-0.05,2.5-0.34,3.15-0.88c0.65-0.54,0.98-1.36,0.98-2.47l0-5.28c0-1.78,0.61-3.18,1.82-4.21
				c1.22-1.02,2.85-1.56,4.91-1.62l0,2.41c-2.6,0.13-3.9,1.31-3.9,3.54l0,5.1c0,2.48-1.26,3.96-3.76,4.45l0,0.21
				c2.5,0.41,3.75,1.86,3.75,4.34L321.24,182.72z"/>
			<path class="st8" d="M328.95,165.66c0-1.57,0.67-2.36,2.02-2.39c1.41-0.03,2.11,0.74,2.11,2.31c0,0.76-0.19,1.34-0.57,1.76
				c-0.38,0.41-0.89,0.63-1.54,0.64c-0.58,0.01-1.07-0.16-1.45-0.52C329.14,167.09,328.95,166.49,328.95,165.66z M328.94,181.02
				c0-0.78,0.17-1.37,0.52-1.77c0.35-0.4,0.85-0.61,1.5-0.62c0.66-0.01,1.18,0.19,1.55,0.59c0.37,0.4,0.56,0.99,0.56,1.77
				c0,0.76-0.19,1.34-0.57,1.75c-0.38,0.41-0.89,0.62-1.54,0.62c-0.58,0-1.07-0.18-1.45-0.54
				C329.13,182.46,328.94,181.86,328.94,181.02z"/>
			<path class="st8" d="M344.76,172.63c-2.6-0.42-3.89-1.88-3.89-4.4l0-5.18c0-2.26-1.31-3.39-3.94-3.4l0-2.43
				c2.12-0.06,3.8,0.41,5.02,1.4c1.23,0.99,1.84,2.38,1.84,4.18l0,5.38c0,1.14,0.34,1.97,1.03,2.49c0.69,0.52,1.79,0.78,3.31,0.78
				l0,2.49c-1.43,0.02-2.51,0.3-3.24,0.83c-0.73,0.53-1.1,1.41-1.1,2.63l0,5.33c0,1.79-0.6,3.2-1.79,4.2
				c-1.19,1.01-2.88,1.52-5.08,1.55l0-2.45c1.28-0.03,2.26-0.32,2.93-0.86c0.67-0.54,1.01-1.41,1.01-2.6l0-5.21
				c0-1.33,0.32-2.36,0.96-3.07c0.64-0.71,1.62-1.19,2.93-1.45L344.76,172.63z"/>
		</g>
	</g>
</g>
</svg>
