<?xml version="1.0" encoding="utf-8"?>
<!-- Generator: Adobe Illustrator 24.3.0, SVG Export Plug-In . SVG Version: 6.00 Build 0)  -->
<svg version="1.1" id="Layer_1" xmlns="http://www.w3.org/2000/svg" xmlns:xlink="http://www.w3.org/1999/xlink" x="0px" y="0px"
	 viewBox="0 0 636 300" style="enable-background:new 0 0 636 300;" xml:space="preserve">
<style type="text/css">
	.st0{fill:#FBC977;}
	.st1{fill:#57AA9A;}
	.st2{fill:#F7B548;}
	.st3{fill:#6BA8F1;}
	.st4{fill:#BDD8F9;}
	.st5{fill:#8065E0;}
	.st6{fill:#FFFFFF;}
	.st7{fill:#1572E0;}
	.st8{fill:#B0D1F7;}
	.st9{fill:#FFD590;}
	.st10{fill:#7FD5CA;}
	.st11{fill:#D8E8FB;}
	.st12{fill:#C2E8E3;}
	.st13{fill:#FFECCD;}
	.st14{fill:#FEDEA7;}
	.st15{fill:#D1C5F4;}
	.st16{fill:#70D6E0;}
	.st17{fill:#25BACA;}
	.st18{fill:#1BA1B5;}
	.st19{fill:#8A6FE8;}
	.st20{fill:url(#SVGID_1_);}
	.st21{fill:#522CD5;}
	.st22{fill:url(#SVGID_2_);}
	.st23{fill:url(#SVGID_3_);}
	.st24{fill:url(#SVGID_4_);}
	.st25{fill:url(#SVGID_5_);}
	.st26{fill:#D8CFF7;}
	.st27{fill:#512BD4;}
	.st28{fill:url(#SVGID_6_);}
	.st29{fill:#A08BE8;}
	.st30{fill:url(#SVGID_7_);}
	.st31{fill:url(#SVGID_8_);}
	.st32{fill:url(#SVGID_9_);}
	.st33{fill:url(#SVGID_10_);}
	.st34{fill:url(#SVGID_11_);}
	.st35{fill:url(#SVGID_12_);}
	.st36{fill:#98C2F5;}
	.st37{fill:#0064DA;}
	.st38{fill:#3E8EED;}
	.st39{fill:#C7E0F4;}
	.st40{fill:#B3AFAB;}
	.st41{fill:#A7A4A0;}
	.st42{fill:#957EE6;}
	.st43{fill:#E5F0FC;}
	.st44{fill:#1DACCC;}
	.st45{fill:#76AFF2;}
	.st46{fill:#FCCF84;}
	.st47{fill:#8DBCF4;}
	.st48{fill:#E1DFDD;}
	.st49{fill:url(#SVGID_13_);}
	.st50{fill:url(#SVGID_14_);}
	.st51{fill:url(#SVGID_15_);}
	.st52{fill:url(#SVGID_16_);}
	.st53{fill:url(#SVGID_17_);}
	.st54{fill:url(#SVGID_18_);}
	.st55{fill:url(#SVGID_19_);}
	.st56{fill:url(#SVGID_20_);}
	.st57{fill:#C8C6C4;}
	.st58{fill:#605D5A;}
	.st59{fill:#797673;}
	.st60{fill:#64BFAF;}
	.st61{fill:#2CC7EA;}
	.st62{fill:url(#SVGID_21_);}
	.st63{fill:url(#SVGID_22_);}
	.st64{fill:url(#SVGID_23_);}
	.st65{fill:url(#SVGID_24_);}
	.st66{fill:url(#SVGID_25_);}
	.st67{fill:url(#SVGID_26_);}
	.st68{fill:#B6E3DE;}
	.st69{fill:#6FCFCE;}
	.st70{fill:#1FB1D1;}
	.st71{fill:url(#SVGID_27_);}
	.st72{fill:#FAC369;}
	.st73{fill:#E29E3B;}
	.st74{fill:#33D5F9;}
	.st75{fill:url(#SVGID_28_);}
	.st76{fill:url(#SVGID_29_);}
	.st77{fill:url(#SVGID_30_);}
	.st78{fill:url(#SVGID_31_);}
	.st79{fill:url(#SVGID_32_);}
	.st80{fill:url(#SVGID_33_);}
	.st81{fill:url(#SVGID_34_);}
	.st82{fill:url(#SVGID_35_);}
	.st83{fill:url(#SVGID_36_);}
	.st84{fill:url(#SVGID_37_);}
	.st85{fill:url(#SVGID_38_);}
	.st86{fill:#D0C5F3;}
	.st87{fill:url(#SVGID_39_);}
	.st88{fill:url(#SVGID_40_);}
	.st89{fill:url(#SVGID_41_);}
	.st90{fill:url(#SVGID_42_);}
	.st91{fill:#EEAB42;}
	.st92{fill:#E8A53F;}
	.st93{fill:#A3C9F6;}
	.st94{fill:url(#SVGID_43_);}
	.st95{fill:url(#SVGID_44_);}
	.st96{fill:url(#SVGID_45_);}
	.st97{fill:url(#SVGID_46_);}
	.st98{fill:url(#SVGID_47_);}
	.st99{fill:url(#SVGID_48_);}
	.st100{fill:url(#SVGID_49_);}
	.st101{fill:url(#SVGID_50_);}
	.st102{fill:#84817D;}
	.st103{fill:url(#SVGID_51_);}
	.st104{fill:url(#SVGID_52_);}
	.st105{fill:url(#SVGID_53_);}
	.st106{fill:url(#SVGID_54_);}
	.st107{fill:url(#SVGID_55_);}
	.st108{fill:url(#SVGID_56_);}
	.st109{fill:url(#SVGID_57_);}
	.st110{fill:url(#SVGID_58_);}
	.st111{fill:#BBACEF;}
	.st112{fill:url(#SVGID_59_);}
	.st113{fill:url(#SVGID_60_);}
	.st114{fill:url(#SVGID_61_);}
	.st115{fill:url(#SVGID_62_);}
	.st116{fill:url(#SVGID_63_);}
	.st117{fill:url(#SVGID_64_);}
	.st118{fill:url(#SVGID_65_);}
	.st119{fill:url(#SVGID_66_);}
	.st120{fill:url(#SVGID_67_);}
	.st121{fill:url(#SVGID_68_);}
	.st122{fill:url(#SVGID_69_);}
	.st123{fill:url(#SVGID_70_);}
	.st124{fill:url(#SVGID_71_);}
	.st125{fill:#CEDB59;}
	.st126{fill:#CCCAC7;}
	.st127{fill:#78881B;}
	.st128{fill:#9C9894;}
	.st129{fill:#EEF3C4;}
	.st130{fill:#B2C133;}
	.st131{fill:#D5E06D;}
	.st132{fill:#A4ECFC;}
	.st133{fill:#0B7891;}
	.st134{fill:#908D89;}
	.st135{fill:#DDDBDA;}
	.st136{fill:url(#SVGID_72_);}
	.st137{fill:url(#SVGID_73_);}
	.st138{fill:#56534F;}
	.st139{fill:#CAE0FA;}
	.st140{fill:#4995EE;}
	.st141{fill:#A7CBF6;}
	.st142{fill:#E86E58;}
	.st143{fill:#FAE969;}
	.st144{fill:#56A84F;}
	.st145{fill:none;stroke:#3085E9;stroke-width:2;stroke-miterlimit:10;}
	.st146{fill:#B2D5F8;}
	.st147{fill:#B2B2B2;}
	.st148{fill:url(#SVGID_74_);}
	.st149{fill:url(#SVGID_75_);}
	.st150{fill:url(#SVGID_76_);}
	.st151{fill:url(#SVGID_77_);}
	.st152{fill:url(#SVGID_78_);}
	.st153{fill:url(#SVGID_79_);}
	.st154{fill:url(#SVGID_80_);}
	.st155{fill:url(#SVGID_81_);}
	.st156{fill:url(#SVGID_82_);}
	.st157{fill:url(#SVGID_83_);}
	.st158{fill:url(#SVGID_84_);}
	.st159{fill:url(#SVGID_85_);}
	.st160{fill:url(#SVGID_86_);}
	.st161{fill:url(#SVGID_87_);}
	.st162{fill:url(#SVGID_88_);}
	.st163{fill:url(#SVGID_89_);}
	.st164{fill:#FFB900;}
	.st165{fill:#D5D3D0;}
	.st166{fill:none;stroke:#FF00FF;stroke-width:1.0976;stroke-miterlimit:10;}
	.st167{fill:url(#SVGID_90_);}
	.st168{fill:#EA7F6B;}
	.st169{fill:#22B2C3;}
	.st170{fill:#DF6551;}
	.st171{fill:#F8BB55;}
	.st172{fill:#F8B84F;}
	.st173{fill:#40C9D6;}
	.st174{fill:#CC5444;}
	.st175{fill:#CFEFEB;}
	.st176{fill:#D3E7F8;}
	.st177{fill:#81B5F3;}
	.st178{fill:#4D4D4D;}
	.st179{fill:url(#SVGID_91_);}
	.st180{fill:#2980E7;}
	.st181{fill:#CFF1F5;}
	.st182{fill:#58D0DB;}
	.st183{fill:#28C2D1;}
	.st184{fill:#9FE4EB;}
	.st185{fill:#3097D8;}
	.st186{fill:url(#SVGID_92_);}
	.st187{fill:#939393;}
	.st188{fill:url(#SVGID_93_);}
	.st189{fill:#FEDBA1;}
	.st190{fill:#FAC670;}
	.st191{fill:#625F5B;}
	.st192{fill:#D69521;}
	.st193{fill:#7F7F7F;}
	.st194{fill:#505050;}
	.st195{fill:#D2D2D2;}
	.st196{fill:#848484;}
	.st197{fill:url(#SVGID_94_);}
	.st198{fill:#444444;}
	.st199{fill:#737373;}
	.st200{fill:url(#SVGID_95_);}
	.st201{fill:#549BEF;}
	.st202{fill:#6D6A66;}
	.st203{fill:#38776B;}
	.st204{fill:#9FE0D7;}
	.st205{fill:#45897C;}
	.st206{fill:#CFECE9;}
	.st207{fill:url(#SVGID_96_);}
	.st208{fill:url(#SVGID_97_);}
	.st209{fill:url(#SVGID_98_);}
	.st210{fill:url(#SVGID_99_);}
	.st211{fill:url(#SVGID_100_);}
	.st212{fill:url(#SVGID_101_);}
	.st213{fill:url(#SVGID_102_);}
	.st214{fill:url(#SVGID_103_);}
	.st215{fill:url(#SVGID_104_);}
	.st216{fill:url(#SVGID_105_);}
	.st217{fill:url(#SVGID_106_);}
	.st218{fill:url(#SVGID_107_);}
	.st219{fill:#29C3E5;}
	.st220{fill:#60DEFA;}
	.st221{fill:#0F849E;}
	.st222{fill:#D2F6FE;}
	.st223{fill:#179BB8;}
	.st224{fill:#AFE5DE;}
	.st225{fill:#AE9CEB;}
	.st226{fill:url(#SVGID_108_);}
	.st227{fill:#D6CDF5;}
	.st228{fill:none;stroke:#D6CDF5;stroke-width:2;stroke-miterlimit:10;}
	.st229{fill:#7354DD;}
	.st230{fill:#A8B82F;}
	.st231{fill:#C9BDF2;}
	.st232{fill:#8970E2;}
	.st233{fill:url(#SVGID_109_);}
	.st234{fill:#72ACF1;}
	.st235{fill:#57CACF;}
	.st236{fill:#FAF9F8;}
	.st237{fill:#4A4844;}
	.st238{fill:#797672;}
	.st239{fill:none;stroke:#72ACF1;stroke-width:2;stroke-miterlimit:10;}
	.st240{fill:url(#SVGID_110_);}
	.st241{fill:url(#SVGID_111_);}
	.st242{fill:url(#SVGID_112_);}
	.st243{fill:#C5D43B;}
	.st244{fill:#3085E9;}
	.st245{fill:none;stroke:#FFFFFF;stroke-width:2;stroke-miterlimit:10;}
	.st246{fill:url(#SVGID_113_);}
	.st247{fill:#42403C;}
	.st248{fill:url(#SVGID_114_);stroke:#625F5B;stroke-width:3;stroke-miterlimit:10;}
	.st249{fill:#E6E4E3;}
	.st250{fill:url(#SVGID_115_);}
	.st251{fill:url(#SVGID_116_);}
	.st252{fill:#8EE8FC;}
	.st253{fill:#927BE5;}
	.st254{fill:url(#SVGID_117_);}
	.st255{fill:url(#SVGID_118_);}
	.st256{fill:url(#SVGID_119_);}
	.st257{fill:url(#SVGID_120_);}
	.st258{fill:url(#SVGID_121_);}
	.st259{fill:url(#SVGID_122_);}
	.st260{fill:url(#SVGID_123_);}
	.st261{fill:url(#SVGID_124_);}
	.st262{fill:url(#SVGID_125_);}
	.st263{fill:url(#SVGID_126_);}
	.st264{fill:url(#SVGID_127_);}
	.st265{fill:#22B5D6;}
	.st266{fill-rule:evenodd;clip-rule:evenodd;fill:#848484;}
	.st267{fill-rule:evenodd;clip-rule:evenodd;fill:#29C3E5;}
	.st268{fill-rule:evenodd;clip-rule:evenodd;fill:#0078D7;}
	.st269{fill:#BBB8B4;}
	.st270{fill:none;}
	.st271{fill:#FDC9B5;}
	.st272{fill:#EB8875;}
	.st273{fill:url(#SVGID_128_);}
	.st274{fill:url(#SVGID_129_);}
	.st275{fill:url(#SVGID_130_);}
	.st276{fill:url(#SVGID_131_);}
	.st277{fill:url(#SVGID_132_);}
	.st278{fill:url(#SVGID_133_);}
	.st279{fill:url(#SVGID_134_);}
	.st280{fill:url(#SVGID_135_);}
	.st281{fill:url(#SVGID_136_);}
	.st282{fill:url(#SVGID_137_);}
	.st283{fill:url(#SVGID_138_);}
	.st284{fill:url(#SVGID_139_);}
	.st285{fill:url(#SVGID_140_);}
	.st286{fill:url(#SVGID_141_);}
	.st287{fill:url(#SVGID_142_);}
	.st288{fill:none;stroke:#FFFFFF;stroke-width:2.2678;stroke-miterlimit:10;}
	.st289{fill:#FFEED0;}
	.st290{fill:#27BEE0;}
	.st291{fill:#BBF1FD;}
	.st292{fill:#24BADB;}
	.st293{fill:#77E3FB;}
	.st294{fill:#666666;}
	.st295{fill:#AACDF6;}
	.st296{fill:#E6E6E6;}
	.st297{fill:#7E62DF;}
	.st298{fill:url(#SVGID_143_);}
	.st299{fill:url(#SVGID_144_);}
	.st300{fill:#FCD18A;}
	.st301{fill:#D8E377;}
	.st302{fill:#DBE581;}
	.st303{fill:#81921F;}
	.st304{fill:#95A527;}
	.st305{fill-rule:evenodd;clip-rule:evenodd;fill:#A7A4A0;}
	.st306{fill:url(#SVGID_145_);}
	.st307{fill:url(#SVGID_146_);}
	.st308{fill:url(#SVGID_147_);}
	.st309{fill:#FDD490;}
	.st310{fill:#B3B3B3;}
	.st311{fill:#F09250;}
	.st312{fill:url(#SVGID_148_);}
	.st313{fill:url(#SVGID_149_);}
	.st314{fill:url(#SVGID_150_);}
	.st315{fill:url(#SVGID_151_);}
	.st316{fill:url(#SVGID_152_);}
	.st317{fill:#F2A694;}
	.st318{fill:#DC624F;}
	.st319{fill:#FDFDFD;}
	.st320{fill:#D0EDFD;}
	.st321{fill:none;stroke:#8065E0;stroke-width:3.5361;stroke-miterlimit:10;}
	.st322{fill:url(#SVGID_153_);}
	.st323{fill:url(#SVGID_154_);}
	.st324{fill:url(#SVGID_155_);}
	.st325{fill:url(#SVGID_156_);}
	.st326{fill:url(#SVGID_157_);}
	.st327{fill:url(#SVGID_158_);}
	.st328{fill:url(#SVGID_159_);}
	.st329{fill:url(#SVGID_160_);}
	.st330{fill:none;stroke:#C8C6C4;stroke-width:0.1949;stroke-miterlimit:10;}
	.st331{fill:url(#SVGID_161_);}
	.st332{fill:url(#SVGID_162_);}
	.st333{fill:url(#SVGID_163_);}
	.st334{fill:url(#SVGID_164_);}
	.st335{fill:url(#SVGID_165_);}
	.st336{fill:url(#SVGID_166_);}
	.st337{fill:url(#SVGID_167_);}
	.st338{fill:url(#SVGID_168_);}
	.st339{fill:url(#SVGID_169_);}
	.st340{fill:url(#SVGID_170_);}
	.st341{fill:url(#SVGID_171_);}
	.st342{fill:url(#SVGID_172_);}
	.st343{fill:url(#SVGID_173_);}
	.st344{fill:#0769DC;}
	.st345{fill:#60A2F0;}
	.st346{fill:#B5D5EA;}
	.st347{fill:#FFE5B9;}
	.st348{fill:#88DDE5;}
	.st349{fill:#1189A5;}
	.st350{fill:#222222;}
	.st351{fill:#00D8FF;}
	.st352{fill:url(#SVGID_174_);}
	.st353{fill:#F2F7FE;}
	.st354{fill:#DD0031;}
	.st355{fill:#C3002F;}
	.st356{fill:#EBA841;}
	.st357{fill:#ED9583;}
	.st358{fill:url(#SVGID_175_);}
	.st359{fill:#106EBE;}
	.st360{fill:url(#SVGID_176_);}
	.st361{fill:url(#SVGID_177_);}
	.st362{fill:#2B579A;}
	.st363{fill:url(#SVGID_178_);}
	.st364{fill:url(#SVGID_179_);}
	.st365{fill:url(#SVGID_180_);}
	.st366{fill:url(#SVGID_181_);}
	.st367{fill:url(#SVGID_182_);}
	.st368{fill:url(#SVGID_183_);}
	.st369{fill:url(#SVGID_184_);}
	.st370{fill:url(#SVGID_185_);}
	.st371{fill:url(#SVGID_186_);}
	.st372{fill:url(#SVGID_187_);}
	.st373{fill:url(#SVGID_188_);}
	.st374{fill:url(#SVGID_189_);}
	.st375{fill:url(#SVGID_190_);}
	.st376{fill:url(#SVGID_191_);}
	.st377{fill:#52A898;}
	.st378{fill:#BADBF9;}
	.st379{fill:#E1EFF9;}
	.st380{fill:#6FD0C3;}
	.st381{fill:#EFFAF8;}
	.st382{fill:url(#SVGID_192_);}
	.st383{fill:url(#SVGID_193_);}
	.st384{fill:url(#SVGID_194_);}
	.st385{fill:url(#SVGID_195_);}
	.st386{fill:url(#SVGID_196_);}
	.st387{fill:url(#SVGID_197_);}
	.st388{fill:url(#SVGID_198_);}
	.st389{fill:url(#SVGID_199_);}
	.st390{fill:url(#SVGID_200_);}
	.st391{fill:url(#SVGID_201_);}
	.st392{fill:url(#SVGID_202_);}
	.st393{fill:url(#SVGID_203_);}
	.st394{fill:url(#SVGID_204_);}
	.st395{fill:#C4C1BE;}
	.st396{fill:#9B86E7;}
	.st397{fill:#DF9B39;}
	.st398{fill:none;stroke:#FFFFFF;stroke-width:4;stroke-miterlimit:10;}
	.st399{fill:none;stroke:#FFFFFF;stroke-width:4;stroke-miterlimit:10;stroke-dasharray:4.2217,6.3326;}
	.st400{fill:none;stroke:#FFFFFF;stroke-width:4;stroke-miterlimit:10;stroke-dasharray:4.1698,6.2547;}
	.st401{fill:none;stroke:#FFFFFF;stroke-width:4;stroke-miterlimit:10;stroke-dasharray:4.2266,6.3399;}
	.st402{fill:none;stroke:#FFFFFF;stroke-width:4;stroke-miterlimit:10;stroke-dasharray:4.459,6.6886;}
	.st403{fill:#4ADAFA;}
	.st404{fill:#EA7B66;}
	.st405{fill:#D8604D;}
	.st406{fill:#F6B29F;}
	.st407{fill:url(#SVGID_205_);}
	.st408{fill:#FFFFFF;stroke:#C5D43B;stroke-width:2;stroke-miterlimit:10;}
	.st409{fill-rule:evenodd;clip-rule:evenodd;fill:#BDD8F9;}
	.st410{fill-rule:evenodd;clip-rule:evenodd;fill:#76AFF2;}
	.st411{fill:url(#SVGID_206_);}
	.st412{fill:url(#SVGID_207_);}
	.st413{fill:url(#SVGID_208_);}
	.st414{fill:url(#SVGID_209_);}
	.st415{fill:url(#SVGID_210_);}
	.st416{fill:url(#SVGID_211_);}
	.st417{fill:url(#SVGID_212_);}
	.st418{fill:url(#SVGID_213_);}
	.st419{fill:url(#SVGID_214_);}
	.st420{fill:url(#SVGID_215_);}
	.st421{fill:url(#SVGID_216_);}
	.st422{fill:url(#SVGID_217_);}
	.st423{fill:url(#SVGID_218_);}
	.st424{fill:url(#SVGID_219_);}
	.st425{fill:url(#SVGID_220_);}
	.st426{fill:url(#SVGID_221_);}
	.st427{fill:#EC917E;}
	.st428{fill:#B53C33;}
	.st429{fill:url(#SVGID_222_);}
	.st430{fill:#F1A18E;}
	.st431{fill:url(#SVGID_223_);}
	.st432{fill:url(#SVGID_224_);}
	.st433{fill:url(#SVGID_225_);}
	.st434{fill:url(#SVGID_226_);}
	.st435{fill:url(#SVGID_227_);}
	.st436{fill:url(#SVGID_228_);}
	.st437{fill:url(#SVGID_229_);}
	.st438{fill:url(#SVGID_230_);}
	.st439{fill:url(#SVGID_231_);}
	.st440{fill:url(#SVGID_232_);}
	.st441{fill:url(#SVGID_233_);}
	.st442{fill:url(#SVGID_234_);}
	.st443{fill:url(#SVGID_235_);}
	.st444{fill:url(#SVGID_236_);}
	.st445{fill:url(#SVGID_237_);}
	.st446{fill:url(#SVGID_238_);}
	.st447{fill:url(#SVGID_239_);}
	.st448{fill:url(#SVGID_240_);}
	.st449{fill:url(#SVGID_241_);}
	.st450{fill:url(#SVGID_242_);}
	.st451{fill:url(#SVGID_243_);}
	.st452{fill:url(#SVGID_244_);}
	.st453{fill:url(#SVGID_245_);}
	.st454{fill:url(#SVGID_246_);}
	.st455{fill:url(#SVGID_247_);}
	.st456{fill:url(#SVGID_248_);}
	.st457{fill:url(#SVGID_249_);}
	.st458{fill:url(#SVGID_250_);}
	.st459{fill:url(#SVGID_251_);}
	.st460{fill:url(#SVGID_252_);}
	.st461{fill:#1BA6C5;}
	.st462{fill:url(#SVGID_253_);}
	.st463{fill-rule:evenodd;clip-rule:evenodd;fill:#BBF1FD;}
	.st464{fill:url(#SVGID_254_);}
	.st465{fill-rule:evenodd;clip-rule:evenodd;fill:#FFFFFF;}
	.st466{fill-rule:evenodd;clip-rule:evenodd;fill:#B2B2B2;}
	.st467{fill-rule:evenodd;clip-rule:evenodd;fill:#1DACCC;}
	.st468{fill:url(#SVGID_255_);}
	.st469{fill:url(#SVGID_256_);}
	.st470{fill:url(#SVGID_257_);}
	.st471{fill:url(#SVGID_258_);}
	.st472{fill:url(#SVGID_259_);}
	.st473{fill:url(#SVGID_260_);}
	.st474{fill:url(#SVGID_261_);}
	.st475{fill:url(#SVGID_262_);}
	.st476{fill:url(#SVGID_263_);}
	.st477{fill:url(#SVGID_264_);}
	.st478{fill:url(#SVGID_265_);}
	.st479{fill:url(#SVGID_266_);}
	.st480{fill:url(#SVGID_267_);}
	.st481{fill:url(#SVGID_268_);}
	.st482{fill:url(#SVGID_269_);}
	.st483{fill:#D55D4B;}
	.st484{fill:#FDD696;}
	.st485{fill:url(#SVGID_270_);}
	.st486{fill:url(#SVGID_271_);}
	.st487{fill:url(#SVGID_272_);}
	.st488{fill:url(#SVGID_273_);}
	.st489{fill:#5F5F5F;}
	.st490{fill:#F2F6D0;}
	.st491{fill:#227BE5;}
	.st492{fill:#E8FAFE;}
	.st493{fill:url(#SVGID_274_);}
	.st494{fill:url(#SVGID_275_);}
	.st495{fill:url(#SVGID_276_);}
	.st496{fill:url(#SVGID_277_);}
	.st497{fill:url(#SVGID_278_);}
	.st498{fill:url(#SVGID_279_);}
	.st499{fill:url(#SVGID_280_);}
	.st500{fill:url(#SVGID_281_);}
	.st501{fill:url(#SVGID_282_);}
	.st502{fill:url(#SVGID_283_);}
	.st503{fill:url(#SVGID_284_);}
	.st504{fill:url(#SVGID_285_);}
	.st505{fill:url(#SVGID_286_);}
	.st506{fill:url(#SVGID_287_);}
	.st507{fill:url(#SVGID_288_);}
	.st508{fill:url(#SVGID_289_);}
	.st509{fill:#0D7E98;}
	.st510{fill:#E56B56;}
	.st511{fill:#F9BE5C;}
	.st512{fill:#CB8930;}
	.st513{fill:none;stroke:#FFFFFF;stroke-width:2.8606;stroke-miterlimit:10;}
	.st514{fill:none;stroke:#B3AFAB;stroke-width:1.4303;stroke-linecap:round;stroke-linejoin:round;stroke-miterlimit:10;}
	.st515{fill-rule:evenodd;clip-rule:evenodd;fill:#F7B548;}
	.st516{fill:url(#SVGID_290_);}
	.st517{fill:url(#SVGID_291_);}
	.st518{fill:url(#SVGID_292_);}
	.st519{fill:url(#SVGID_293_);}
	.st520{fill:url(#SVGID_294_);}
	.st521{fill:url(#SVGID_295_);}
	.st522{fill:url(#SVGID_296_);}
	.st523{fill:url(#SVGID_297_);}
	.st524{fill:url(#SVGID_298_);}
	.st525{fill:url(#SVGID_299_);}
	.st526{fill:url(#SVGID_300_);}
	.st527{fill:url(#SVGID_301_);}
	.st528{fill:url(#SVGID_302_);}
	.st529{fill:url(#SVGID_303_);}
	.st530{fill:url(#SVGID_304_);}
	.st531{fill:url(#SVGID_305_);}
	.st532{fill:url(#SVGID_306_);}
	.st533{fill:url(#SVGID_307_);}
	.st534{fill:url(#SVGID_308_);}
	.st535{fill:url(#SVGID_309_);}
	.st536{fill:url(#SVGID_310_);}
	.st537{fill:url(#SVGID_311_);}
	.st538{fill:url(#SVGID_312_);}
	.st539{fill:url(#SVGID_313_);}
	.st540{fill:url(#SVGID_314_);}
	.st541{fill:url(#SVGID_315_);}
	.st542{fill:#138FAB;}
	.st543{fill:#B1E9EE;}
	.st544{fill:none;stroke:#FF00FF;stroke-width:37.7526;stroke-miterlimit:10;}
	.st545{clip-path:url(#SVGID_317_);fill:#8065E0;}
	.st546{clip-path:url(#SVGID_317_);fill:#7F64E0;}
	.st547{clip-path:url(#SVGID_317_);fill:#7F63E0;}
	.st548{clip-path:url(#SVGID_317_);fill:#7E63DF;}
	.st549{clip-path:url(#SVGID_317_);fill:#7D62DF;}
	.st550{clip-path:url(#SVGID_317_);fill:#7D61DF;}
	.st551{clip-path:url(#SVGID_317_);fill:#7C60DF;}
	.st552{clip-path:url(#SVGID_317_);fill:#7B5FDF;}
	.st553{clip-path:url(#SVGID_317_);fill:#7B5EDF;}
	.st554{clip-path:url(#SVGID_317_);fill:#7A5DDE;}
	.st555{clip-path:url(#SVGID_317_);fill:#795CDE;}
	.st556{clip-path:url(#SVGID_317_);fill:#785BDE;}
	.st557{clip-path:url(#SVGID_317_);fill:#775ADE;}
	.st558{clip-path:url(#SVGID_317_);fill:#7659DD;}
	.st559{clip-path:url(#SVGID_317_);fill:#7658DD;}
	.st560{clip-path:url(#SVGID_317_);fill:#7557DD;}
	.st561{clip-path:url(#SVGID_317_);fill:#7456DD;}
	.st562{clip-path:url(#SVGID_317_);fill:#7355DC;}
	.st563{clip-path:url(#SVGID_317_);fill:#7254DC;}
	.st564{clip-path:url(#SVGID_317_);fill:#7153DC;}
	.st565{clip-path:url(#SVGID_317_);fill:#7051DC;}
	.st566{clip-path:url(#SVGID_317_);fill:#6F50DB;}
	.st567{clip-path:url(#SVGID_317_);fill:#6E4FDB;}
	.st568{clip-path:url(#SVGID_317_);fill:#6D4EDB;}
	.st569{clip-path:url(#SVGID_317_);fill:#6C4DDB;}
	.st570{clip-path:url(#SVGID_317_);fill:#6B4BDA;}
	.st571{clip-path:url(#SVGID_317_);fill:#6A4ADA;}
	.st572{clip-path:url(#SVGID_317_);fill:#6949DA;}
	.st573{clip-path:url(#SVGID_317_);fill:#6848DA;}
	.st574{clip-path:url(#SVGID_317_);fill:#6746D9;}
	.st575{clip-path:url(#SVGID_317_);fill:#6645D9;}
	.st576{clip-path:url(#SVGID_317_);fill:#6544D9;}
	.st577{clip-path:url(#SVGID_317_);fill:#6443D9;}
	.st578{clip-path:url(#SVGID_317_);fill:#6442D8;}
	.st579{clip-path:url(#SVGID_317_);fill:#6341D8;}
	.st580{clip-path:url(#SVGID_317_);fill:#6240D8;}
	.st581{clip-path:url(#SVGID_317_);fill:#613FD8;}
	.st582{clip-path:url(#SVGID_317_);fill:#603ED8;}
	.st583{clip-path:url(#SVGID_317_);fill:#603DD7;}
	.st584{clip-path:url(#SVGID_317_);fill:#5F3CD7;}
	.st585{clip-path:url(#SVGID_317_);fill:#5E3BD7;}
	.st586{clip-path:url(#SVGID_317_);fill:#5D3AD7;}
	.st587{clip-path:url(#SVGID_317_);fill:#5C39D7;}
	.st588{clip-path:url(#SVGID_317_);fill:#5B38D6;}
	.st589{clip-path:url(#SVGID_317_);fill:#5A37D6;}
	.st590{clip-path:url(#SVGID_317_);fill:#5A36D6;}
	.st591{clip-path:url(#SVGID_317_);fill:#5935D6;}
	.st592{clip-path:url(#SVGID_317_);fill:#5834D6;}
	.st593{clip-path:url(#SVGID_317_);fill:#5732D5;}
	.st594{clip-path:url(#SVGID_317_);fill:#5631D5;}
	.st595{clip-path:url(#SVGID_317_);fill:#5530D5;}
	.st596{clip-path:url(#SVGID_317_);fill:#542FD5;}
	.st597{clip-path:url(#SVGID_317_);fill:#542ED5;}
	.st598{clip-path:url(#SVGID_317_);fill:#532DD4;}
	.st599{clip-path:url(#SVGID_317_);fill:#522CD4;}
	.st600{clip-path:url(#SVGID_317_);fill:#512BD4;}
	.st601{fill:#63D3DE;}
	.st602{fill:url(#SVGID_318_);}
	.st603{fill:url(#SVGID_319_);}
	.st604{fill:url(#SVGID_320_);}
	.st605{fill:none;stroke:#FF00FF;stroke-width:39.6641;stroke-miterlimit:10;}
	.st606{fill:url(#SVGID_321_);}
	.st607{fill:url(#SVGID_322_);}
	.st608{fill:url(#SVGID_323_);}
	.st609{fill:url(#SVGID_324_);}
	.st610{fill:url(#SVGID_325_);}
	.st611{fill:url(#SVGID_326_);}
	.st612{fill:url(#SVGID_327_);}
	.st613{fill:url(#SVGID_328_);}
	.st614{fill:url(#SVGID_329_);}
	.st615{fill:url(#SVGID_330_);}
	.st616{fill:url(#SVGID_331_);}
	.st617{fill:#9EAE2B;}
	.st618{fill:url(#SVGID_332_);}
	.st619{fill:url(#SVGID_333_);}
	.st620{fill:url(#SVGID_334_);}
	.st621{fill:url(#SVGID_335_);}
	.st622{fill:url(#SVGID_336_);}
	.st623{fill:url(#SVGID_337_);}
	.st624{fill:url(#SVGID_338_);}
	.st625{fill:url(#SVGID_339_);}
	.st626{fill:url(#SVGID_340_);}
	.st627{fill:url(#SVGID_341_);}
	.st628{fill:url(#SVGID_342_);}
	.st629{fill:url(#SVGID_343_);}
	.st630{fill:url(#SVGID_344_);}
	.st631{fill:url(#SVGID_345_);}
	.st632{fill:url(#SVGID_346_);}
	.st633{fill:url(#SVGID_347_);}
	.st634{fill:#D8F3FE;}
	.st635{fill:#085A7E;}
	.st636{fill:#E1EA95;}
	.st637{fill:#FEE0AD;}
	.st638{fill:#8E7A6F;}
	.st639{fill:#191717;}
	.st640{fill:#F0DB4F;}
	.st641{fill:#323330;}
	.st642{fill:url(#SVGID_348_);}
	.st643{fill:url(#SVGID_349_);}
	.st644{fill:url(#SVGID_350_);}
	.st645{fill:url(#SVGID_351_);}
	.st646{fill:url(#SVGID_352_);}
	.st647{fill:url(#SVGID_353_);}
	.st648{fill:url(#SVGID_354_);}
	.st649{fill:url(#SVGID_355_);}
	.st650{fill:url(#SVGID_356_);}
	.st651{fill:url(#SVGID_357_);}
	.st652{fill:url(#SVGID_358_);}
	.st653{fill:url(#SVGID_359_);}
	.st654{fill:#8577E5;}
	.st655{fill:url(#SVGID_360_);}
	.st656{fill:#263619;}
	.st657{fill:#6E7F17;}
	.st658{fill:#EEEDEC;}
	.st659{fill:#DEE88B;}
	.st660{fill:url(#SVGID_361_);}
	.st661{fill:none;stroke:#FFFFFF;stroke-width:3.0081;stroke-linecap:round;stroke-linejoin:round;stroke-miterlimit:10;}
	.st662{fill:none;stroke:#FFFFFF;stroke-width:3.567;stroke-linecap:round;stroke-linejoin:round;stroke-miterlimit:10;}
	.st663{fill:#F7F6F6;}
	.st664{fill:#CBD94F;}
	.st665{fill:#CF5746;}
	.st666{fill:#ED8422;}
	.st667{fill-rule:evenodd;clip-rule:evenodd;fill:#A3C9F6;}
	.st668{fill:url(#SVGID_362_);}
	.st669{fill-rule:evenodd;clip-rule:evenodd;fill:#549BEF;}
	.st670{fill:#FDD99C;}
	.st671{fill:#C4832D;}
	.st672{fill:#FFF2DC;}
	.st673{fill:#1595B2;}
	.st674{fill:url(#SVGID_363_);}
	.st675{fill:url(#SVGID_364_);}
	.st676{fill:url(#SVGID_365_);}
	.st677{fill:url(#SVGID_366_);}
	.st678{fill:url(#SVGID_367_);}
	.st679{fill:url(#SVGID_368_);}
	.st680{fill:url(#SVGID_369_);}
	.st681{fill:url(#SVGID_370_);}
	.st682{fill:url(#SVGID_371_);}
	.st683{fill:url(#SVGID_372_);}
	.st684{fill:url(#SVGID_373_);}
	.st685{fill:url(#SVGID_374_);}
	.st686{fill:url(#SVGID_375_);}
	.st687{fill:#EDF7F6;}
	.st688{fill:url(#SVGID_376_);}
	.st689{fill:url(#SVGID_377_);}
	.st690{fill:#E97762;}
	.st691{fill:url(#SVGID_378_);}
	.st692{fill:url(#SVGID_379_);}
	.st693{fill:url(#SVGID_380_);}
	.st694{fill:url(#SVGID_381_);}
	.st695{fill:url(#SVGID_382_);}
	.st696{fill:url(#SVGID_383_);}
	.st697{fill:url(#SVGID_384_);}
	.st698{fill:url(#SVGID_385_);}
	.st699{fill:url(#SVGID_386_);}
	.st700{fill:url(#SVGID_387_);}
	.st701{fill:url(#SVGID_388_);}
	.st702{fill:#A2AD6D;}
	.st703{fill:#E3646A;}
	.st704{fill:#889643;}
	.st705{fill:#EE8F94;}
	.st706{fill:url(#SVGID_389_);}
	.st707{fill:url(#SVGID_390_);}
	.st708{fill:#1C77E2;}
	.st709{fill:#D18F33;}
	.st710{fill:none;stroke:#C740B6;stroke-width:2.0654;stroke-miterlimit:10;}
	.st711{fill:#E26854;}
	.st712{fill:#F9BDAA;}
	.st713{fill:url(#SVGID_391_);}
	.st714{fill:url(#SVGID_392_);}
	.st715{fill:#519F90;}
	.st716{fill:#4E9A8B;}
	.st717{fill:none;stroke:#C2E8E3;stroke-width:1.5759;stroke-miterlimit:10;}
	.st718{fill:url(#SVGID_393_);}
	.st719{fill:url(#SVGID_394_);}
	.st720{fill:url(#SVGID_395_);}
	.st721{fill:url(#SVGID_396_);}
	.st722{fill:url(#SVGID_397_);}
	.st723{fill:none;stroke:#FF00FF;stroke-width:29.9084;stroke-miterlimit:10;}
	.st724{fill:url(#SVGID_398_);}
	.st725{fill:url(#SVGID_399_);}
	.st726{fill:url(#SVGID_400_);}
	.st727{fill:url(#SVGID_401_);}
	.st728{fill:url(#SVGID_402_);}
	.st729{fill:url(#SVGID_403_);}
	.st730{fill:url(#SVGID_404_);}
	.st731{fill:url(#SVGID_405_);}
	.st732{fill:url(#SVGID_406_);}
	.st733{fill:#2B88D8;}
	.st734{fill:url(#SVGID_407_);}
	.st735{fill:url(#SVGID_408_);}
	.st736{fill:url(#SVGID_409_);}
	.st737{fill:url(#SVGID_410_);}
	.st738{fill:url(#SVGID_411_);}
	.st739{fill:url(#SVGID_412_);}
	.st740{fill:url(#SVGID_413_);}
	.st741{fill:url(#SVGID_414_);}
	.st742{fill:url(#SVGID_415_);}
	.st743{fill:url(#SVGID_416_);}
	.st744{fill:url(#SVGID_417_);}
	.st745{fill:url(#SVGID_418_);}
	.st746{fill:url(#SVGID_419_);}
	.st747{fill:url(#SVGID_420_);}
	.st748{fill:url(#SVGID_421_);}
	.st749{fill:url(#SVGID_422_);}
	.st750{fill:url(#SVGID_423_);}
	.st751{fill:#F0AE00;}
	.st752{fill:#3F3C38;}
	.st753{fill:#BBCB37;}
	.st754{fill:url(#SVGID_424_);}
	.st755{fill:url(#SVGID_425_);}
	.st756{fill:url(#SVGID_426_);}
	.st757{fill:url(#SVGID_427_);}
	.st758{fill:url(#SVGID_428_);}
	.st759{fill:url(#SVGID_429_);}
	.st760{fill:url(#SVGID_430_);}
	.st761{fill:url(#SVGID_431_);}
	.st762{fill:url(#SVGID_432_);}
	.st763{fill:url(#SVGID_433_);}
	.st764{fill:url(#SVGID_434_);}
	.st765{fill:url(#SVGID_435_);}
	.st766{fill:url(#SVGID_436_);}
	.st767{fill:url(#SVGID_437_);}
	.st768{fill:url(#SVGID_438_);}
	.st769{fill:url(#SVGID_439_);}
	.st770{fill:#F4AC99;}
	.st771{fill:url(#SVGID_440_);}
	.st772{fill:url(#SVGID_441_);}
	.st773{fill:url(#SVGID_442_);}
	.st774{fill:url(#SVGID_443_);}
	.st775{fill:url(#SVGID_444_);}
	.st776{fill:url(#SVGID_445_);}
	.st777{clip-path:url(#SVGID_447_);fill:#8065E0;}
	.st778{clip-path:url(#SVGID_447_);fill:#7F64E0;}
	.st779{clip-path:url(#SVGID_447_);fill:#7F63E0;}
	.st780{clip-path:url(#SVGID_447_);fill:#7E63DF;}
	.st781{clip-path:url(#SVGID_447_);fill:#7D62DF;}
	.st782{clip-path:url(#SVGID_447_);fill:#7D61DF;}
	.st783{clip-path:url(#SVGID_447_);fill:#7C60DF;}
	.st784{clip-path:url(#SVGID_447_);fill:#7B5FDF;}
	.st785{clip-path:url(#SVGID_447_);fill:#7B5EDF;}
	.st786{clip-path:url(#SVGID_447_);fill:#7A5DDE;}
	.st787{clip-path:url(#SVGID_447_);fill:#795CDE;}
	.st788{clip-path:url(#SVGID_447_);fill:#785BDE;}
	.st789{clip-path:url(#SVGID_447_);fill:#775ADE;}
	.st790{clip-path:url(#SVGID_447_);fill:#7659DD;}
	.st791{clip-path:url(#SVGID_447_);fill:#7658DD;}
	.st792{clip-path:url(#SVGID_447_);fill:#7557DD;}
	.st793{clip-path:url(#SVGID_447_);fill:#7456DD;}
	.st794{clip-path:url(#SVGID_447_);fill:#7355DC;}
	.st795{clip-path:url(#SVGID_447_);fill:#7254DC;}
	.st796{clip-path:url(#SVGID_447_);fill:#7153DC;}
	.st797{clip-path:url(#SVGID_447_);fill:#7051DC;}
	.st798{clip-path:url(#SVGID_447_);fill:#6F50DB;}
	.st799{clip-path:url(#SVGID_447_);fill:#6E4FDB;}
	.st800{clip-path:url(#SVGID_447_);fill:#6D4EDB;}
	.st801{clip-path:url(#SVGID_447_);fill:#6C4DDB;}
	.st802{clip-path:url(#SVGID_447_);fill:#6B4BDA;}
	.st803{clip-path:url(#SVGID_447_);fill:#6A4ADA;}
	.st804{clip-path:url(#SVGID_447_);fill:#6949DA;}
	.st805{clip-path:url(#SVGID_447_);fill:#6848DA;}
	.st806{clip-path:url(#SVGID_447_);fill:#6746D9;}
	.st807{clip-path:url(#SVGID_447_);fill:#6645D9;}
	.st808{clip-path:url(#SVGID_447_);fill:#6544D9;}
	.st809{clip-path:url(#SVGID_447_);fill:#6443D9;}
	.st810{clip-path:url(#SVGID_447_);fill:#6442D8;}
	.st811{clip-path:url(#SVGID_447_);fill:#6341D8;}
	.st812{clip-path:url(#SVGID_447_);fill:#6240D8;}
	.st813{clip-path:url(#SVGID_447_);fill:#613FD8;}
	.st814{clip-path:url(#SVGID_447_);fill:#603ED8;}
	.st815{clip-path:url(#SVGID_447_);fill:#603DD7;}
	.st816{clip-path:url(#SVGID_447_);fill:#5F3CD7;}
	.st817{clip-path:url(#SVGID_447_);fill:#5E3BD7;}
	.st818{clip-path:url(#SVGID_447_);fill:#5D3AD7;}
	.st819{clip-path:url(#SVGID_447_);fill:#5C39D7;}
	.st820{clip-path:url(#SVGID_447_);fill:#5B38D6;}
	.st821{clip-path:url(#SVGID_447_);fill:#5A37D6;}
	.st822{clip-path:url(#SVGID_447_);fill:#5A36D6;}
	.st823{clip-path:url(#SVGID_447_);fill:#5935D6;}
	.st824{clip-path:url(#SVGID_447_);fill:#5834D6;}
	.st825{clip-path:url(#SVGID_447_);fill:#5732D5;}
	.st826{clip-path:url(#SVGID_447_);fill:#5631D5;}
	.st827{clip-path:url(#SVGID_447_);fill:#5530D5;}
	.st828{clip-path:url(#SVGID_447_);fill:#542FD5;}
	.st829{clip-path:url(#SVGID_447_);fill:#542ED5;}
	.st830{clip-path:url(#SVGID_447_);fill:#532DD4;}
	.st831{clip-path:url(#SVGID_447_);fill:#522CD4;}
	.st832{clip-path:url(#SVGID_447_);fill:#512BD4;}
	.st833{fill:url(#SVGID_448_);}
	.st834{clip-path:url(#SVGID_450_);fill:#8065E0;}
	.st835{clip-path:url(#SVGID_450_);fill:#7F64E0;}
	.st836{clip-path:url(#SVGID_450_);fill:#7F63E0;}
	.st837{clip-path:url(#SVGID_450_);fill:#7E63DF;}
	.st838{clip-path:url(#SVGID_450_);fill:#7D62DF;}
	.st839{clip-path:url(#SVGID_450_);fill:#7D61DF;}
	.st840{clip-path:url(#SVGID_450_);fill:#7C60DF;}
	.st841{clip-path:url(#SVGID_450_);fill:#7B5FDF;}
	.st842{clip-path:url(#SVGID_450_);fill:#7B5EDF;}
	.st843{clip-path:url(#SVGID_450_);fill:#7A5DDE;}
	.st844{clip-path:url(#SVGID_450_);fill:#795CDE;}
	.st845{clip-path:url(#SVGID_450_);fill:#785BDE;}
	.st846{clip-path:url(#SVGID_450_);fill:#775ADE;}
	.st847{clip-path:url(#SVGID_450_);fill:#7659DD;}
	.st848{clip-path:url(#SVGID_450_);fill:#7658DD;}
	.st849{clip-path:url(#SVGID_450_);fill:#7557DD;}
	.st850{clip-path:url(#SVGID_450_);fill:#7456DD;}
	.st851{clip-path:url(#SVGID_450_);fill:#7355DC;}
	.st852{clip-path:url(#SVGID_450_);fill:#7254DC;}
	.st853{clip-path:url(#SVGID_450_);fill:#7153DC;}
	.st854{clip-path:url(#SVGID_450_);fill:#7051DC;}
	.st855{clip-path:url(#SVGID_450_);fill:#6F50DB;}
	.st856{clip-path:url(#SVGID_450_);fill:#6E4FDB;}
	.st857{clip-path:url(#SVGID_450_);fill:#6D4EDB;}
	.st858{clip-path:url(#SVGID_450_);fill:#6C4DDB;}
	.st859{clip-path:url(#SVGID_450_);fill:#6B4BDA;}
	.st860{clip-path:url(#SVGID_450_);fill:#6A4ADA;}
	.st861{clip-path:url(#SVGID_450_);fill:#6949DA;}
	.st862{clip-path:url(#SVGID_450_);fill:#6848DA;}
	.st863{clip-path:url(#SVGID_450_);fill:#6746D9;}
	.st864{clip-path:url(#SVGID_450_);fill:#6645D9;}
	.st865{clip-path:url(#SVGID_450_);fill:#6544D9;}
	.st866{clip-path:url(#SVGID_450_);fill:#6443D9;}
	.st867{clip-path:url(#SVGID_450_);fill:#6442D8;}
	.st868{clip-path:url(#SVGID_450_);fill:#6341D8;}
	.st869{clip-path:url(#SVGID_450_);fill:#6240D8;}
	.st870{clip-path:url(#SVGID_450_);fill:#613FD8;}
	.st871{clip-path:url(#SVGID_450_);fill:#603ED8;}
	.st872{clip-path:url(#SVGID_450_);fill:#603DD7;}
	.st873{clip-path:url(#SVGID_450_);fill:#5F3CD7;}
	.st874{clip-path:url(#SVGID_450_);fill:#5E3BD7;}
	.st875{clip-path:url(#SVGID_450_);fill:#5D3AD7;}
	.st876{clip-path:url(#SVGID_450_);fill:#5C39D7;}
	.st877{clip-path:url(#SVGID_450_);fill:#5B38D6;}
	.st878{clip-path:url(#SVGID_450_);fill:#5A37D6;}
	.st879{clip-path:url(#SVGID_450_);fill:#5A36D6;}
	.st880{clip-path:url(#SVGID_450_);fill:#5935D6;}
	.st881{clip-path:url(#SVGID_450_);fill:#5834D6;}
	.st882{clip-path:url(#SVGID_450_);fill:#5732D5;}
	.st883{clip-path:url(#SVGID_450_);fill:#5631D5;}
	.st884{clip-path:url(#SVGID_450_);fill:#5530D5;}
	.st885{clip-path:url(#SVGID_450_);fill:#542FD5;}
	.st886{clip-path:url(#SVGID_450_);fill:#542ED5;}
	.st887{clip-path:url(#SVGID_450_);fill:#532DD4;}
	.st888{clip-path:url(#SVGID_450_);fill:#522CD4;}
	.st889{clip-path:url(#SVGID_450_);fill:#512BD4;}
	.st890{fill:url(#SVGID_451_);}
	.st891{fill:url(#SVGID_452_);}
	.st892{fill:url(#SVGID_453_);}
	.st893{fill:url(#SVGID_454_);}
	.st894{fill:url(#SVGID_455_);}
	.st895{fill:url(#SVGID_456_);}
	.st896{fill:url(#SVGID_457_);}
	.st897{fill:url(#SVGID_458_);}
	.st898{fill:url(#SVGID_459_);}
	.st899{fill:url(#SVGID_460_);}
	.st900{fill:url(#SVGID_461_);}
	.st901{fill:url(#SVGID_462_);}
	.st902{fill:url(#SVGID_463_);}
	.st903{fill:url(#SVGID_464_);}
	.st904{fill:url(#SVGID_465_);}
	.st905{fill:url(#SVGID_466_);}
	.st906{fill:url(#SVGID_467_);}
	.st907{fill:url(#SVGID_468_);}
	.st908{fill:url(#SVGID_469_);}
	.st909{fill:#EB8470;}
	.st910{fill:url(#SVGID_470_);}
	.st911{fill:url(#SVGID_471_);}
	.st912{fill:url(#SVGID_472_);}
	.st913{fill:url(#SVGID_473_);}
	.st914{fill:url(#SVGID_474_);}
	.st915{fill:url(#SVGID_475_);}
	.st916{fill:url(#SVGID_476_);}
	.st917{fill:url(#SVGID_477_);}
	.st918{fill:url(#SVGID_478_);}
	.st919{fill:url(#SVGID_479_);}
	.st920{fill:url(#SVGID_480_);}
	.st921{fill:url(#SVGID_481_);}
	.st922{fill:url(#SVGID_482_);}
	.st923{fill:url(#SVGID_483_);}
	.st924{fill:url(#SVGID_484_);}
	.st925{fill:url(#SVGID_485_);}
	.st926{fill:url(#SVGID_486_);}
	.st927{fill:url(#SVGID_487_);}
	.st928{fill:url(#SVGID_488_);}
	.st929{fill:url(#SVGID_489_);}
	.st930{fill:url(#SVGID_490_);}
	.st931{fill:url(#SVGID_491_);}
	.st932{fill:url(#SVGID_492_);}
	.st933{fill:url(#SVGID_493_);}
	.st934{fill:url(#SVGID_494_);}
	.st935{fill:url(#SVGID_495_);}
	.st936{fill:url(#SVGID_496_);}
	.st937{fill:url(#SVGID_497_);}
	.st938{fill:url(#SVGID_498_);}
	.st939{fill:url(#SVGID_499_);}
	.st940{fill:url(#SVGID_500_);}
	.st941{fill:url(#SVGID_501_);}
	.st942{fill:url(#SVGID_502_);}
	.st943{fill:url(#SVGID_503_);}
	.st944{fill:url(#SVGID_504_);}
	.st945{fill:url(#SVGID_505_);}
	.st946{fill:url(#SVGID_506_);}
	.st947{fill:url(#SVGID_507_);}
	.st948{fill:url(#SVGID_508_);}
	.st949{fill:url(#SVGID_509_);}
	.st950{fill:url(#SVGID_510_);}
	.st951{fill:url(#SVGID_511_);}
	.st952{fill:url(#SVGID_512_);}
	.st953{fill:url(#SVGID_513_);}
	.st954{fill:url(#SVGID_514_);}
	.st955{fill:url(#SVGID_515_);}
	.st956{fill:url(#SVGID_516_);}
	.st957{fill:url(#SVGID_517_);}
	.st958{fill:url(#SVGID_518_);}
	.st959{fill:url(#SVGID_519_);}
	.st960{fill:url(#SVGID_520_);}
	.st961{fill:url(#SVGID_521_);}
	.st962{fill:url(#SVGID_522_);}
	.st963{fill:url(#SVGID_523_);}
	.st964{fill:url(#SVGID_524_);}
	.st965{fill:url(#SVGID_525_);}
	.st966{fill:url(#SVGID_526_);}
	.st967{fill:url(#SVGID_527_);}
	.st968{fill:url(#SVGID_528_);}
	.st969{fill:url(#SVGID_529_);}
	.st970{fill:url(#SVGID_530_);}
	.st971{fill:url(#SVGID_531_);}
	.st972{fill:url(#SVGID_532_);}
	.st973{fill:url(#SVGID_533_);}
	.st974{fill:url(#SVGID_534_);}
	.st975{fill:url(#SVGID_535_);}
	.st976{fill:url(#SVGID_536_);}
	.st977{fill:url(#SVGID_537_);}
	.st978{fill:url(#SVGID_538_);}
	.st979{fill:url(#SVGID_539_);}
	.st980{fill:url(#SVGID_540_);}
	.st981{fill:url(#SVGID_541_);}
	.st982{fill:url(#SVGID_542_);}
	.st983{fill:#F9C163;}
	.st984{fill:url(#SVGID_543_);}
	.st985{fill:#E6F2FC;}
	.st986{fill:url(#SVGID_544_);}
	.st987{fill:url(#SVGID_545_);}
	.st988{fill:url(#SVGID_546_);}
	.st989{fill:url(#SVGID_547_);}
	.st990{fill:url(#SVGID_548_);}
	.st991{fill:url(#SVGID_549_);}
	.st992{fill:none;stroke:#908D89;stroke-width:2;stroke-miterlimit:10;}
	.st993{fill:url(#SVGID_550_);}
	.st994{fill:url(#SVGID_551_);}
	.st995{fill:url(#SVGID_552_);}
	.st996{fill:url(#SVGID_553_);}
	.st997{fill:url(#SVGID_554_);}
	.st998{fill:url(#SVGID_555_);}
	.st999{fill:url(#SVGID_556_);}
	.st1000{fill:url(#SVGID_557_);}
	.st1001{fill:url(#SVGID_558_);}
	.st1002{fill:url(#SVGID_559_);}
	.st1003{fill:url(#SVGID_560_);}
	.st1004{fill:url(#SVGID_561_);}
	.st1005{fill:url(#SVGID_562_);}
	.st1006{fill:url(#SVGID_563_);}
	.st1007{fill:url(#SVGID_564_);}
	.st1008{fill:url(#SVGID_565_);}
	.st1009{fill:#2ECCEF;}
	.st1010{fill:url(#SVGID_566_);}
	.st1011{fill:#DDF3FF;}
	.st1012{fill:#DF972B;}
	.st1013{fill:#F2F1F0;}
	.st1014{fill:#F4F3F2;}
	.st1015{fill:#6BAFE9;}
	.st1016{fill:#E96F5F;}
	.st1017{fill:#F2D850;}
	.st1018{fill:#8DE265;}
	.st1019{fill:url(#SVGID_567_);}
	.st1020{fill:url(#SVGID_570_);}
	.st1021{fill:url(#SVGID_573_);}
</style>
<g>
	<path class="st93" d="M225.32,93.12l-39.96,3.16c-0.81,0.06-1.41,0.68-1.41,1.43V259.4c0,0.77,0.63,1.37,1.45,1.41l40.99,1.59
		c0.91,0.04,1.69-0.68,1.68-1.54l-1.04-166.24C227.03,93.75,226.23,93.05,225.32,93.12z"/>
	<path class="st357" d="M201.66,112.6l-34.22,2.76c-1.1,0.09-1.94,0.93-1.94,1.95v141.13c0,0.98,0.78,1.78,1.84,1.89l33.53,3.23
		c1.23,0.12,2.36-0.78,2.43-1.94c1.03-15.9,7.32-114.27,6.07-126.31c-1.06-10.2-4.19-18.33-5.53-21.45
		C203.49,113.03,202.6,112.53,201.66,112.6z"/>
	<path class="st7" d="M228.17,262.46l43.79-2.3c1.1-0.06,1.99-0.97,1.99-2.03V95.92c0-1.06-0.89-1.96-1.99-1.99l-43.79-1.48
		c-1.15-0.04-2.08,0.81-2.08,1.9v166.24C226.09,261.68,227.02,262.52,228.17,262.46z"/>
	<path class="st142" d="M203.21,263.77l21.65-1.14c0.65-0.03,1.17-0.56,1.17-1.17V113.93c0-0.61-0.52-1.12-1.17-1.13l-21.65-0.51
		c-0.66-0.02-1.2,0.47-1.2,1.09v149.33C202.01,263.33,202.55,263.81,203.21,263.77z"/>
	<g>
		<path class="st165" d="M174.44,263.51l-33.8,1.71c-0.87,0.04-1.74-0.01-2.59-0.15l-30.69-5.26l58.19-4.32L174.44,263.51z"/>
		<path class="st171" d="M163.68,143.01l-26.16,2.21c-0.95,0.08-1.74,0.7-1.97,1.53l-29.96,110.59c-0.36,1.33,0.77,2.54,2.28,2.46
			l34.36-2.01c1.08-0.06,1.99-0.81,2.18-1.78l21.65-110.63C166.32,144.07,165.13,142.88,163.68,143.01z"/>
		<path class="st73" d="M140.38,258.74l33.05,4.7c1.6,0.23,3.17-0.8,3.5-2.29l24.49-108.62c0.33-1.45-0.67-2.88-2.23-3.2l-32.2-6.48
			c-1.61-0.32-3.2,0.61-3.54,2.09l-25.44,110.63C137.67,257.08,138.73,258.5,140.38,258.74z"/>
		<path class="st172" d="M159.97,197.81l21.31,3.7c1.36,0.24,2.7-0.6,2.98-1.86l8.25-36.02c0.28-1.25-0.58-2.48-1.93-2.74
			l-21.11-4.11c-1.38-0.27-2.73,0.54-3.03,1.81l-8.47,36.47C157.68,196.33,158.57,197.57,159.97,197.81z"/>
	</g>
	<polygon class="st140" points="226.09,146.17 226.09,104.99 273.95,106.31 273.95,146.48 	"/>
	<polygon class="st665" points="207.04,219.7 221.61,219.26 221.61,138.62 207.04,138.47 	"/>
	<polygon class="st6" points="207.04,161.96 207.04,138.47 221.61,138.62 221.61,161.94 	"/>
	<path class="st40" d="M486.57,213.04l-195.13,6.17c-3.36,0.11-6.08-2.47-6.08-5.76V69.33c0-3.29,2.73-5.82,6.08-5.65l195.13,9.78
		c2.69,0.13,4.87,2.62,4.87,5.55v128.57C491.44,210.51,489.26,212.96,486.57,213.04z"/>
	<path class="st191" d="M488.94,212.97l-194.56,6.16c-3.34,0.11-6.07-2.47-6.07-5.75V69.47c0-3.28,2.72-5.81,6.07-5.64l194.56,9.75
		c2.69,0.13,4.86,2.62,4.86,5.55v128.39C493.8,210.44,491.63,212.88,488.94,212.97z"/>
	<path class="st238" d="M483.61,199.8l-182.64,4.36c-0.91,0.02-1.65-0.69-1.65-1.59V74.81c0-0.9,0.74-1.59,1.65-1.55l182.64,8.27
		c0.74,0.03,1.35,0.72,1.35,1.53V198.3C484.95,199.11,484.35,199.78,483.61,199.8z"/>
	<path class="st128" d="M544.68,233.51c0-1.66,0-2.74,0-3.3c0-0.45-52.27-14.56-52.27-14.56l-201.84,2.49v2.28
		c0,0,0.05,2.01,2.2,2.71c2.15,0.7,59.56,19.24,59.56,19.24c2.94,0.95,6.03,1.36,9.14,1.22l181.8-8.39
		C544.43,235.14,544.7,234.55,544.68,233.51z"/>
	<path class="st126" d="M543.66,231.47l-182.18,8c-3.11,0.14-6.2-0.28-9.14-1.24l-61.87-20.13l201.95-6.27l51.58,17.35
		C545.09,229.57,544.82,231.42,543.66,231.47z"/>
	<g>
		<g>
			<path class="st142" d="M355.45,107.57l-21.13-0.59c-1.24-0.03-2.24-1.07-2.24-2.3c0-1.24,1-2.21,2.24-2.17l21.13,0.64
				c1.21,0.04,2.18,1.06,2.18,2.28S356.66,107.61,355.45,107.57z"/>
		</g>
		<g>
			<path class="st147" d="M450.59,120.2l-19.69-0.44c-1.11-0.02-2.01-1-2.01-2.17s0.9-2.1,2.01-2.07l19.69,0.49
				c1.08,0.03,1.96,0.99,1.96,2.14S451.67,120.22,450.59,120.2z"/>
		</g>
		<g>
			<path class="st658" d="M420.75,119.53l-40.03-0.89c-1.17-0.03-2.13-1.03-2.13-2.23s0.95-2.16,2.13-2.13l40.03,0.99
				c1.12,0.03,2.03,1,2.03,2.18C422.78,118.62,421.87,119.56,420.75,119.53z"/>
		</g>
		<g>
			<path class="st142" d="M369.38,118.39l-21.73-0.48c-1.22-0.03-2.21-1.05-2.21-2.27c0-1.23,0.99-2.2,2.21-2.17l21.73,0.54
				c1.19,0.03,2.15,1.03,2.15,2.25C371.52,117.46,370.56,118.42,369.38,118.39z"/>
		</g>
		<g>
			<path class="st658" d="M464.19,130.39l-64.98-1.08c-1.15-0.02-2.08-1-2.08-2.2c0-1.19,0.93-2.14,2.08-2.12l64.98,1.23
				c1.07,0.02,1.93,0.97,1.93,2.12C466.12,129.49,465.26,130.41,464.19,130.39z"/>
		</g>
		<g>
			<path class="st147" d="M387.51,129.12l-26.74-0.44c-1.2-0.02-2.18-1.02-2.18-2.24s0.97-2.19,2.18-2.17l26.74,0.51
				c1.16,0.02,2.11,1.01,2.11,2.21C389.62,128.18,388.68,129.14,387.51,129.12z"/>
		</g>
		<g>
			<path class="st147" d="M450.59,140.13l-30.12-0.33c-1.12-0.01-2.04-0.98-2.04-2.16s0.91-2.12,2.04-2.11l30.12,0.4
				c1.08,0.01,1.96,0.96,1.96,2.12C452.55,139.21,451.67,140.14,450.59,140.13z"/>
		</g>
		<g>
			<path class="st172" d="M409.33,139.68l-48.55-0.53c-1.2-0.01-2.18-1.01-2.18-2.23s0.97-2.2,2.18-2.18l48.55,0.64
				c1.14,0.02,2.06,0.99,2.06,2.17S410.46,139.69,409.33,139.68z"/>
		</g>
		<g>
			<path class="st658" d="M404.43,149.91c-1.14-0.01-2.07-0.97-2.07-2.17c0-1.19,0.93-2.15,2.07-2.14l69.42,0.47c0,0,0,0,0,0
				c1.06,0.01,1.91,0.94,1.91,2.08c0,1.14-0.85,2.06-1.91,2.06L404.43,149.91C404.43,149.91,404.43,149.91,404.43,149.91z"/>
		</g>
		<g>
			<path class="st147" d="M394.84,149.81l-21.12-0.11c-1.18-0.01-2.14-0.99-2.14-2.2s0.96-2.19,2.14-2.18l21.12,0.16
				c1.15,0.01,2.09,0.98,2.09,2.18C396.93,148.85,396,149.81,394.84,149.81z"/>
		</g>
		<g>
			<path class="st147" d="M466.88,160.05l-65.93,0.04c-1.15,0-2.08-0.97-2.08-2.16s0.93-2.16,2.08-2.16l65.93,0.12
				c1.06,0,1.93,0.93,1.93,2.08C468.81,159.12,467.95,160.05,466.88,160.05z"/>
		</g>
		<g>
			<path class="st172" d="M388.98,160.1l-15.26,0.01c-1.18,0-2.14-0.98-2.14-2.19c0-1.21,0.96-2.19,2.14-2.19l15.26,0.03
				c1.16,0,2.1,0.98,2.1,2.17S390.15,160.1,388.98,160.1z"/>
		</g>
		<g>
			<path class="st658" d="M432.86,170.14l-55.11,0.35c-1.18,0.01-2.14-0.97-2.14-2.17c0-1.21,0.96-2.19,2.14-2.2l55.11-0.22
				c1.11,0,2,0.94,2,2.11S433.97,170.13,432.86,170.14z"/>
		</g>
		<g>
			<path class="st142" d="M366.07,170.56l-18.42,0.12c-1.22,0.01-2.21-0.98-2.21-2.21s0.99-2.23,2.21-2.23l18.42-0.07
				c1.19,0,2.16,0.98,2.16,2.19S367.26,170.55,366.07,170.56z"/>
		</g>
		<g>
			<path class="st658" d="M452.23,179.97l-53.31,0.64c-1.15,0.01-2.09-0.94-2.09-2.14s0.93-2.17,2.09-2.18l53.31-0.51
				c1.08-0.01,1.96,0.92,1.96,2.07C454.19,179.01,453.31,179.96,452.23,179.97z"/>
		</g>
		<g>
			<path class="st172" d="M388.69,180.73l-27.91,0.34c-1.2,0.01-2.18-0.96-2.18-2.18s0.97-2.22,2.18-2.23l27.91-0.27
				c1.16-0.01,2.1,0.95,2.1,2.15S389.85,180.72,388.69,180.73z"/>
		</g>
		<g>
			<path class="st147" d="M419.04,190.51l-35.96,0.64c-1.17,0.02-2.12-0.94-2.12-2.14s0.95-2.2,2.12-2.21l35.96-0.55
				c1.12-0.02,2.03,0.92,2.03,2.1C421.08,189.52,420.17,190.49,419.04,190.51z"/>
		</g>
		<g>
			<path class="st142" d="M371.77,191.35l-37.45,0.66c-1.24,0.02-2.24-0.96-2.24-2.2c0-1.24,1-2.26,2.24-2.27l37.45-0.57
				c1.18-0.02,2.14,0.95,2.14,2.16S372.96,191.33,371.77,191.35z"/>
		</g>
	</g>
	<path class="st134" d="M325.08,74.35l-24.11-1.09c-0.91-0.04-1.65,0.65-1.65,1.55v127.77c0,0.9,0.74,1.61,1.65,1.58l24.11-0.57
		V74.35z"/>
	<path class="st93" d="M462.83,91.12v-9.4c0-0.77-0.58-1.41-1.29-1.45l-161.05-7.32c-0.85-0.04-1.55,0.61-1.55,1.45v10.29
		L462.83,91.12z"/>
	<g>
		<g>
			<polygon class="st658" points="314.94,106.44 309.4,106.28 309.4,101.75 314.94,101.92 			"/>
		</g>
		<g>
			<polygon class="st658" points="314.94,117.18 309.4,117.06 309.4,112.52 314.94,112.66 			"/>
		</g>
		<g>
			<polygon class="st658" points="314.94,127.92 309.4,127.83 309.4,123.29 314.94,123.4 			"/>
		</g>
		<g>
			<polygon class="st658" points="314.94,138.66 309.4,138.6 309.4,134.06 314.94,134.14 			"/>
		</g>
		<g>
			<polygon class="st658" points="314.94,149.4 309.4,149.37 309.4,144.84 314.94,144.88 			"/>
		</g>
		<g>
			<polygon class="st658" points="314.94,160.14 309.4,160.14 309.4,155.61 314.94,155.62 			"/>
		</g>
		<g>
			<polygon class="st658" points="314.94,170.88 309.4,170.92 309.4,166.38 314.94,166.36 			"/>
		</g>
		<g>
			<polygon class="st658" points="314.94,181.62 309.4,181.69 309.4,177.15 314.94,177.1 			"/>
		</g>
		<g>
			<polygon class="st658" points="314.94,192.36 309.4,192.46 309.4,187.92 314.94,187.84 			"/>
		</g>
	</g>
	<g>
		<g>
			<path class="st7" d="M525.83,59.81l-39.5,7.69l-0.07,45.05c-1-1.02-2.43-0.62-3.9-0.68c-1.44-0.05-2.62-1.68-3.63-0.78
				l0.06-44.02L437.61,54.4l0.05,54.06l39.34,8.95c1.29,2.26,2.87,3.06,5.32,3.14c2.44,0.08,4.1-0.72,5.31-2.76l38.25-6.03
				L525.83,59.81z"/>
			<path class="st139" d="M520,54.82c0,0-28.55,3.74-32.29,4.79c-3.75,1.05-5.3,3.68-5.21,8.87c0.09,5.18-0.16,43.79-0.16,43.79
				l37.93-6.5L520,54.82z"/>
		</g>
		<path class="st93" d="M444.23,50.01c0,0,29.45,7.48,33.23,8.99c3.77,1.51,5.3,4.32,5.17,9.49c-0.13,5.17-0.31,43.78-0.31,43.78
			l-39.08-9.47L444.23,50.01z"/>
		<g>
			<g>
				<path class="st40" d="M475.38,68.45c-0.05,0-0.09-0.01-0.14-0.02l-23.79-6.26c-0.4-0.11-0.67-0.53-0.59-0.96
					c0.08-0.42,0.48-0.68,0.87-0.57l23.79,6.28c0.39,0.1,0.65,0.53,0.57,0.94C476.02,68.23,475.72,68.47,475.38,68.45z"/>
			</g>
			<g>
				<path class="st40" d="M475.35,75.77c-0.05,0-0.09-0.01-0.14-0.02l-23.78-6.18c-0.4-0.1-0.66-0.53-0.59-0.95
					c0.08-0.42,0.48-0.68,0.87-0.57l23.77,6.19c0.39,0.1,0.65,0.52,0.57,0.94C476,75.54,475.69,75.78,475.35,75.77z"/>
			</g>
			<g>
				<path class="st40" d="M475.33,83.08c-0.05,0-0.09-0.01-0.14-0.02l-23.76-6.09c-0.4-0.1-0.66-0.53-0.59-0.95
					c0.08-0.42,0.48-0.68,0.87-0.57l23.76,6.11c0.39,0.1,0.65,0.52,0.57,0.94C475.97,82.85,475.67,83.09,475.33,83.08z"/>
			</g>
			<g>
				<path class="st40" d="M475.31,90.38c-0.05,0-0.09-0.01-0.14-0.02l-23.75-6.01c-0.4-0.1-0.66-0.53-0.59-0.95
					c0.08-0.42,0.48-0.68,0.87-0.58l23.74,6.02c0.39,0.1,0.65,0.52,0.57,0.93C475.95,90.15,475.65,90.39,475.31,90.38z"/>
			</g>
		</g>
		<g>
			<g>
				<path class="st40" d="M489.58,69.24c0.05,0,0.09,0,0.14-0.01l23.02-3.5c0.38-0.06,0.63-0.44,0.56-0.86
					c-0.07-0.42-0.45-0.71-0.82-0.65l-23.03,3.49c-0.39,0.06-0.65,0.45-0.57,0.87C488.95,68.95,489.25,69.23,489.58,69.24z"/>
			</g>
			<g>
				<path class="st40" d="M489.55,76.52c0.05,0,0.09,0,0.14-0.01l23.01-3.57c0.38-0.06,0.63-0.45,0.56-0.86
					c-0.07-0.42-0.45-0.71-0.82-0.65l-23.02,3.56c-0.39,0.06-0.64,0.45-0.57,0.87C488.92,76.23,489.22,76.5,489.55,76.52z"/>
			</g>
			<g>
				<path class="st40" d="M489.52,83.78c0.05,0,0.09,0,0.14-0.01l22.99-3.65c0.38-0.06,0.63-0.45,0.56-0.86
					c-0.07-0.42-0.45-0.71-0.82-0.65l-23,3.63c-0.39,0.06-0.64,0.45-0.57,0.87C488.89,83.49,489.18,83.76,489.52,83.78z"/>
			</g>
			<g>
				<path class="st40" d="M489.49,91.03c0.05,0,0.09,0,0.14-0.01l22.98-3.72c0.38-0.06,0.63-0.45,0.56-0.86
					c-0.07-0.42-0.45-0.71-0.82-0.64l-22.99,3.7c-0.39,0.06-0.64,0.45-0.57,0.87C488.85,90.75,489.15,91.01,489.49,91.03z"/>
			</g>
		</g>
		<path class="st140" d="M479.64,113.15c0.86-0.53,1.87-0.82,2.94-0.78c1,0.04,1.92,0.36,2.73,0.87l36.53-5.84l-0.01-47.05
			l-1.94-5.54l-0.05,49.25c0,0-29.89,4.82-32.57,5.38c-2.68,0.56-4.89,2.78-4.89,2.78s-1.05-1.96-4.43-3.01
			c-3.39-1.05-33.74-7.7-33.74-7.7l0.11-51.38l-2.19,5.75l0.11,49.06L479.64,113.15z"/>
	</g>
</g>
</svg>
