<svg xmlns="http://www.w3.org/2000/svg" viewBox="0 0 636 300"><title>swimlane-brand-github-octocat</title><path d="M294.072,167.051c-16.513-1.806-32.347-5.513-45.584-16.4a45.591,45.591,0,0,1-10.585-12.69c-.482-.841-.884-1.4-2.05-1.347a295.806,295.806,0,0,0-54.772,6.988c-2.406.559-4.777,1.27-7.184,1.829-.453.105-1.2.745-1.481-.127-.289-.9.656-.8,1.126-.925,6.336-1.751,12.747-3.18,19.219-4.337a293.416,293.416,0,0,1,41.554-4.408c2.192-.075,1.905-.031,1.367-2.1-.754-2.906-2.47-3.4-5.188-3.457-18.949-.434-37.782.55-56.442,4.042a1.089,1.089,0,0,1-.387.046c-.622-.122-1.628.78-1.8-.27-.15-.9,1.013-.727,1.613-.839a268.056,268.056,0,0,1,57.023-4.036,10.53,10.53,0,0,1,1.367.039c1.756.285,1.775-.343,1.342-1.874-3.974-14.05-5.358-28.273-2.023-42.65a48.773,48.773,0,0,1,11.44-21.491,2.4,2.4,0,0,0,.574-2.727c-3.751-11.535-2.552-22.851,1.587-34.038.47-1.27,1.406-1.2,2.355-1.23,5.452-.181,10.551,1.346,15.539,3.324A99.562,99.562,0,0,1,281.666,38.7a3.185,3.185,0,0,0,2.871.489,132.781,132.781,0,0,1,62.507-.771,3.581,3.581,0,0,0,3.065-.536c7.762-5.072,15.822-9.537,24.9-11.855A31.525,31.525,0,0,1,383.318,25a2.5,2.5,0,0,1,2.719,1.907c3.589,10.252,4.81,20.638,1.98,31.281a1.874,1.874,0,0,0,.515,2.058c10.629,11.121,15.413,24.457,15.208,39.761-.13,9.73-.642,19.4-3.084,28.879a3.159,3.159,0,0,0,1.91.175,297.528,297.528,0,0,1,44.319,1.6c5.177.587,10.331,1.347,15.444,2.356.674.133,1.954-.066,1.812.848-.177,1.14-1.346.35-1.959.235-17.432-3.273-35.037-4.275-52.733-4.111-2.607.024-5.214.246-7.818.21-1.158-.016-1.546.445-1.866,1.435-1.262,3.9-1.29,3.866,2.823,4.035,20.1.829,39.96,3.327,59.42,8.591a4.863,4.863,0,0,1,.76.174c.369.169,1.027.13.88.788-.194.868-.849.366-1.256.27-3.988-.938-7.948-2-11.951-2.871a268.141,268.141,0,0,0-38.868-5.337c-4.1-.276-8.2-.451-12.3-.685-.731-.042-1.346-.088-1.742.783-5.993,13.164-16.872,20.447-30.114,24.774A103.512,103.512,0,0,1,342,167.064a37.779,37.779,0,0,1-7.764.349C320.847,167.254,307.453,167.849,294.072,167.051Zm88.37-49.667c.249-.744-.172-1.408-.3-2.094-2.294-12.471-14.362-23.068-26.982-23.751-8.861-.48-17.679.347-26.5.908a207.051,207.051,0,0,1-27.894-.251c-7.788-.555-15.559-1.116-23.366-.3-12.573,1.318-24.166,12.918-25.384,25.488-.037,2.213-.21,4.434-.091,6.639.815,15.046,7.876,25.7,22.115,31.291,7.718,3.031,15.794,4.348,23.988,5.036a304.554,304.554,0,0,0,38.689.357,90.622,90.622,0,0,0,21.214-3.091c11.126-3.194,19.2-9.671,22.627-21.1A51.824,51.824,0,0,0,382.442,117.384Z" fill="#212020"/><path d="M283.583,183.865c1.286-4.011,2.551-8.032,5.25-11.392a51.123,51.123,0,0,1,16.6-2.591c9.4-.093,18.857-.912,28.215.692,7.165,1.228,13.131,4.39,16.736,11.078.409.759.679,1.744,1.8,1.848a37.453,37.453,0,0,1,.863,9.259c.054,8.322.016,16.646.024,24.969,0,.711.071,1.421.109,2.132-.034,1.882-.077,3.764-.1,5.647-.086,6.405,2.49,11.164,8.484,13.877a3.008,3.008,0,0,1,1.768,4.2l-.68.542-.484.241a29.161,29.161,0,0,1-13.641-1.792c-5.934-2.7-9.175-7.247-9.351-13.825-.094-3.5-.076-7.012-.109-10.519.008-6.579.121-13.16-.023-19.736a19.194,19.194,0,0,0-2.248-9.011c-.442-.794-.788-1.736-1.908-2.026v30.408c-.015,7.2-.177,14.412.01,21.611.107,4.122,1.229,7.991,5.327,10.153,1.41,2.8,1.058,3.919-1.654,5.269l-1.776.212a25.931,25.931,0,0,1-11.685-4.86c-4-3.523-5.457-7.985-5.326-13.249.165-6.632,0-13.272-.016-19.909q.039-8.878.076-17.759c.015-4.555.031-9.11.018-13.665,0-1.306-.442-2.343-2.008-2.3-1.525.039-1.715,1.111-1.713,2.312q.021,15.712.039,31.427c-.024,6.555-.166,13.113-.034,19.665.106,5.283-1.351,9.831-5.228,13.508a25.169,25.169,0,0,1-11.32,4.857l-2.713-.042c-2.461-1.6-2.614-2.986-.644-5.844,3.452-1.539,4.847-4.438,4.888-7.972.091-7.792.015-15.586.007-23.379V186.924a4.559,4.559,0,0,0-2.2,2.37,15.365,15.365,0,0,0-1.665,5.572c-.808,7.793-.284,15.609-.335,23.415-.022,2.722-.156,5.449-.042,8.165.311,7.413-2.456,12.975-9.385,16.15-.49.16-.984.311-1.47.481a29.757,29.757,0,0,1-11.523,1.451c-1.153-.061-2.273-.372-2.616-1.628a2.658,2.658,0,0,1,1.382-2.974,15.421,15.421,0,0,1,2.1-1c4.083-1.917,6.916-4.875,7.415-9.516a52.736,52.736,0,0,0,.042-9.149c.158-6.789.232-13.579-.037-20.367a6.257,6.257,0,0,0,.36-1.487C283.136,193.551,283.19,188.7,283.583,183.865Z" fill="#212020"/><path d="M296.241,249.251c-1.97,2.858-1.817,4.244.644,5.844l-.006,18.707a84.715,84.715,0,0,1-13.5-1.7,154.745,154.745,0,0,1-18.927-4.533c-8.009-2.626-15.863-5.572-22.214-11.4-7.959-7.307-6.381-15.177,1.314-21.349,7.36-5.9,16.109-8.885,25.029-11.425a137.231,137.231,0,0,1,14.253-3.136,52.736,52.736,0,0,1-.042,9.149c-.5,4.641-3.332,7.6-7.415,9.516a15.421,15.421,0,0,0-2.1,1A2.658,2.658,0,0,0,271.9,242.9c.343,1.256,1.463,1.567,2.616,1.628a29.757,29.757,0,0,0,11.523-1.451c.486-.17.98-.321,1.47-.481,2.937,1.712,5.887,3.4,7.858,6.326C295.507,249.133,295.942,249.146,296.241,249.251Z" fill="#95d2ed"/><path d="M362.168,244.368l.484-.241c.357-.016.622-.15.68-.542a3.008,3.008,0,0,0-1.768-4.2c-5.994-2.713-8.57-7.472-8.484-13.877.025-1.883.068-3.765.1-5.647,12.351,2.074,24.484,4.887,35.6,10.951a28.96,28.96,0,0,1,9.791,7.911c3.93,5.29,3.59,11.058-.95,15.953-4.363,4.7-9.9,7.594-15.683,9.992-8.981,3.723-18.408,5.911-27.966,7.561a4.072,4.072,0,0,1-.779-.016c.008-4.884-.146-9.776.066-14.652a13.028,13.028,0,0,1,7.7-11.917C361.531,245.364,362.253,245.26,362.168,244.368Z" fill="#9cd9ef"/><path d="M282.017,199.9c-15.646,3.619-31.183.788-40.064-15.187q-1.706-3.066-3.529-6.067a25.449,25.449,0,0,0-10.872-10.066,13.562,13.562,0,0,1-4.479-3.074c-1.39-1.569-1.1-2.84.868-3.6,3.146-1.215,6.293-.728,9.364.3,5.864,1.955,10.2,5.845,13.559,10.934a60.755,60.755,0,0,0,3.672,5.282c7.066,8.557,16.91,11.038,28.437,7.248,1.291-.424,2.557-.927,3.834-1.393l-.438,2.388c-1.38-.317-2.637-.011-2.736,1.522-.094,1.455,1.193,1.589,2.366,1.512Zm-32.93-20.157a1.259,1.259,0,0,0-1.285,1.583,2.766,2.766,0,0,0,2.571,2.524c.982.095,1.421-.543,1.421-1.451A3.08,3.08,0,0,0,249.087,179.742Zm15.328,11.981c1.173-.028,2.3-.257,2.218-1.491-.1-1.409-1.342-1.795-2.6-1.8-.945,0-2,.173-1.976,1.374C262.086,191.323,263.336,191.564,264.415,191.723Zm-8.759-6.007c-.881-.027-1.578.256-1.7,1.222-.135,1.106,1.5,2.425,2.877,2.4.9-.02,1.534-.416,1.6-1.349C258.517,186.94,256.973,185.724,255.656,185.716Zm17.417,2.8c-.875.236-2.1.342-2.056,1.728.046,1.363,1.218,1.551,2.289,1.559,1.089.008,2.307-.269,2.315-1.551C275.63,188.877,274.385,188.618,273.073,188.52ZM244.02,173.25c-.914-.031-1.249.532-1.3,1.325A2.726,2.726,0,0,0,245,177.259c.907.016,1.262-.538,1.325-1.321A2.806,2.806,0,0,0,244.02,173.25Zm-4.84-5.352c-.762.059-1.311.456-1.191,1.226A2.2,2.2,0,0,0,240.1,171.1c.754.065,1.312-.345,1.188-1.169A2.456,2.456,0,0,0,239.18,167.9Zm-2.955-1.852a1.775,1.775,0,0,0-1.793-1.431c-.625-.034-1.284.134-1.217.876.087.968.879,1.379,1.76,1.488A1.028,1.028,0,0,0,236.225,166.046Z" fill="#232222"/><path d="M362.168,244.368c.085.892-.637,1-1.213,1.275a13.028,13.028,0,0,0-7.7,11.917c-.212,4.876-.058,9.768-.066,14.652a90.259,90.259,0,0,1-14.058,1.647c0-5.6.011-11.206,0-16.809,0-.75.245-1.6-.559-2.15,2.712-1.35,3.064-2.472,1.654-5.27,1.683-1.6,3.063-3.493,5.027-4.825,1.091-.74,2.652-.809,3.275-2.229A29.161,29.161,0,0,0,362.168,244.368Z" fill="#7cb9e5"/><path d="M319.768,217.094c.02,6.637.181,13.277.016,19.909-.131,5.264,1.327,9.726,5.326,13.249a2.422,2.422,0,0,1-.705,1.356,17.3,17.3,0,0,0-2.941,6.09c-1.747,5.673-.929,11.489-1.089,17.251l-4.368-.1a51.217,51.217,0,0,1-.322-9.121,23.2,23.2,0,0,0-4.767-15.447c3.877-3.677,5.334-8.225,5.228-13.508-.132-6.552.01-13.11.034-19.666Z" fill="#9bd3e7"/><path d="M320.375,274.949c.16-5.762-.658-11.578,1.089-17.251a17.3,17.3,0,0,1,2.941-6.09,2.422,2.422,0,0,0,.705-1.356,25.931,25.931,0,0,0,11.685,4.86c-.4,1.363-.829,2.715-1.178,4.089-1.265,4.97-.664,10.038-.757,15.07A96.7,96.7,0,0,1,320.375,274.949Z" fill="#7cb9e5"/><path d="M310.918,250.28a23.2,23.2,0,0,1,4.767,15.447,51.217,51.217,0,0,0,.322,9.121,126.728,126.728,0,0,1-14.8-.683c-.042-6.384.364-12.807-1.612-19.028A25.169,25.169,0,0,0,310.918,250.28Z" fill="#7cb9e5"/><path d="M352.186,183.5c-1.122-.1-1.392-1.089-1.8-1.848-3.605-6.688-9.571-9.85-16.736-11.078-9.358-1.6-18.812-.785-28.215-.692a51.123,51.123,0,0,0-16.6,2.591c1.34-2.2,3.534-3.575,5.239-5.422,13.381.8,26.775.2,40.162.362a37.779,37.779,0,0,0,7.764-.349c.157.721.828.951,1.309,1.358A25.529,25.529,0,0,1,352.186,183.5Z" fill="#030303"/><path d="M299.6,255.137c1.976,6.221,1.57,12.644,1.612,19.028l-4.331-.363.006-18.707Z" fill="#9cd9ef"/><path d="M334.86,274.271c.093-5.032-.508-10.1.757-15.07.349-1.374.783-2.726,1.178-4.089l1.776-.212c.8.554.557,1.4.559,2.15.015,5.6.006,11.206,0,16.809C337.765,274.578,336.277,274.05,334.86,274.271Z" fill="#9cd9ef"/><path d="M225.541,168.509c.723,2.544,1.39,5.107,2.192,7.627a2.951,2.951,0,0,1-.868,3.337,2.161,2.161,0,0,1-2.554.188,2.6,2.6,0,0,1-1.329-3.151c.617-2.686,1.424-5.329,2.153-7.989Z" fill="#9cd9ef"/><path d="M282.369,186.658l.438-2.388a.847.847,0,0,1,.776-.405c-.393,4.839-.447,9.686-.423,14.537a6.257,6.257,0,0,1-.36,1.487l-.783.01L282,189.692Q282.184,188.176,282.369,186.658Z" fill="#030303"/><path d="M382.442,117.384a51.824,51.824,0,0,1-1.883,19.139c-3.422,11.425-11.5,17.9-22.627,21.1a90.622,90.622,0,0,1-21.214,3.091,304.554,304.554,0,0,1-38.689-.357c-8.194-.688-16.27-2-23.988-5.036-14.239-5.591-21.3-16.245-22.115-31.291-.119-2.2.054-4.426.091-6.639a.767.767,0,0,0,.634-.641,28.12,28.12,0,0,1,6.028-11.682c3.45-4.082,7.2-7.767,12.657-9.34,7.958-2.3,15.989-1.553,23.99-.92,6.331.5,12.664.984,19,1.349,6.3.362,12.6-.274,18.866-.822,7.316-.64,14.619-1.357,21.962-1.029,4.564.2,9.037,1.077,12.962,3.655a33.5,33.5,0,0,1,13.593,18.213C381.863,116.639,381.725,117.263,382.442,117.384Zm-13.962,7.108c.06-6.756-1.051-11.379-3.805-15.509-5.137-7.707-13.445-8.027-19.016-.7-3.589,4.717-4.562,10.155-4.27,15.981a23.662,23.662,0,0,0,4.322,12.925c4.407,6.186,11.563,6.842,16.908,1.522A20.825,20.825,0,0,0,368.48,124.492Zm-73.1-2.588a21.259,21.259,0,0,0-4.87-14.444c-2.707-3.271-6.136-5.095-10.624-4.223-3.479.676-5.79,2.929-7.667,5.618-5.729,8.208-5.239,20.8.986,28.9,4.236,5.516,11.438,6.091,16.305,1.187C293.951,134.472,295.416,128.851,295.378,121.9Zm22.08,32.441A8.56,8.56,0,0,0,325,149.5c.376-.721.706-1.513-.208-2.056-1.009-.6-1.344.247-1.743.934-2.908,5-8.361,5-11.274-.008-.362-.623-.665-1.424-1.581-1.008-1.075.487-.789,1.342-.366,2.15A8.463,8.463,0,0,0,317.458,154.345Zm3.319-14.236a3.354,3.354,0,1,0-6.7-.048,3.354,3.354,0,1,0,6.7.048Z" fill="#f3c9b0"/><path d="M382.442,117.384c-.717-.121-.579-.745-.733-1.214a33.5,33.5,0,0,0-13.593-18.213c-3.925-2.578-8.4-3.45-12.962-3.655-7.343-.328-14.646.389-21.962,1.029-6.264.548-12.567,1.184-18.866.822-6.336-.365-12.669-.847-19-1.349-8-.633-16.032-1.375-23.99.92-5.456,1.573-9.207,5.258-12.657,9.34a28.12,28.12,0,0,0-6.028,11.682.767.767,0,0,1-.634.641c1.218-12.57,12.811-24.17,25.384-25.488,7.807-.819,15.578-.258,23.366.3a207.051,207.051,0,0,0,27.894.251c8.822-.561,17.64-1.388,26.5-.908,12.62.683,24.688,11.28,26.982,23.751C382.27,115.976,382.691,116.64,382.442,117.384Z" fill="#c29a85"/><path d="M348.527,242.576c-.623,1.42-2.184,1.489-3.275,2.229-1.964,1.332-3.344,3.228-5.027,4.825-4.1-2.161-5.22-6.03-5.327-10.152-.187-7.2-.025-14.407-.01-21.611a15.949,15.949,0,0,1,4.179.365c.033,3.507.015,7.014.109,10.519C339.352,235.329,342.593,239.872,348.527,242.576Z" fill="#9bd8ee"/><path d="M296.241,249.251c-.3-.105-.734-.118-.876-.329-1.971-2.923-4.921-4.614-7.858-6.326,6.929-3.175,9.7-8.737,9.385-16.15-.114-2.716.02-5.443.042-8.165a17.2,17.2,0,0,0,4.2-.381c.008,7.793.084,15.587-.007,23.379C301.088,244.813,299.693,247.712,296.241,249.251Z" fill="#9bd8ee"/><path d="M363.332,243.585c-.058.392-.323.526-.68.542Z" fill="#7cb9e5"/><path d="M249.087,179.742a3.08,3.08,0,0,1,2.707,2.656c0,.908-.439,1.546-1.421,1.451a2.766,2.766,0,0,1-2.571-2.524A1.259,1.259,0,0,1,249.087,179.742Z" fill="#96d1e6"/><path d="M264.415,191.723c-1.079-.159-2.329-.4-2.356-1.915-.02-1.2,1.031-1.376,1.976-1.374,1.256,0,2.5.389,2.6,1.8C266.719,191.466,265.588,191.7,264.415,191.723Z" fill="#96d1e6"/><path d="M255.655,185.714c1.318.01,2.862,1.226,2.785,2.27-.07.933-.7,1.329-1.6,1.349-1.382.03-3.012-1.289-2.877-2.4C254.078,185.972,254.775,185.689,255.655,185.714Z" fill="#96d1e6"/><path d="M273.073,188.52c1.312.1,2.557.357,2.548,1.736-.008,1.282-1.226,1.559-2.315,1.551-1.071-.008-2.243-.2-2.289-1.559C270.971,188.862,272.2,188.756,273.073,188.52Z" fill="#96d1e6"/><path d="M244.02,173.251a2.8,2.8,0,0,1,2.3,2.687c-.063.783-.418,1.337-1.325,1.321a2.726,2.726,0,0,1-2.278-2.684C242.771,173.782,243.106,173.219,244.02,173.251Z" fill="#96d1e6"/><path d="M239.18,167.9a2.456,2.456,0,0,1,2.1,2.03c.124.824-.434,1.234-1.188,1.169a2.2,2.2,0,0,1-2.107-1.973C237.869,168.354,238.418,167.957,239.18,167.9Z" fill="#96d1e6"/><path d="M282.369,186.658q-.185,1.518-.37,3.034c-1.173.077-2.46-.057-2.366-1.512C279.732,186.647,280.989,186.341,282.369,186.658Z" fill="#96d1e6"/><path d="M236.225,166.046a1.028,1.028,0,0,1-1.25.933c-.881-.109-1.673-.52-1.76-1.488-.067-.742.592-.91,1.217-.876A1.775,1.775,0,0,1,236.225,166.046Z" fill="#96d1e6"/><path d="M368.48,124.492a20.825,20.825,0,0,1-5.861,14.216c-5.345,5.32-12.5,4.664-16.908-1.522a23.662,23.662,0,0,1-4.322-12.925c-.292-5.826.681-11.264,4.27-15.981,5.571-7.324,13.879-7,19.016.7C367.429,113.113,368.54,117.736,368.48,124.492Zm-5.869-1.473a16.6,16.6,0,0,0-2.743-9.432c-3.462-4.965-9.075-5.024-12.644-.155-3.775,5.152-3.71,14,.141,19.1,3.48,4.6,8.832,4.612,12.284-.013A16.21,16.21,0,0,0,362.611,123.019Z" fill="#fdfcfc"/><path d="M295.378,121.9c.038,6.947-1.427,12.568-5.87,17.043-4.867,4.9-12.069,4.329-16.305-1.187-6.225-8.1-6.715-20.7-.986-28.9,1.877-2.689,4.188-4.942,7.667-5.618,4.488-.872,7.917.952,10.624,4.223A21.259,21.259,0,0,1,295.378,121.9Zm-21.285,1.024a15.171,15.171,0,0,0,3.34,10.156c3.1,3.723,7.7,3.858,11.041.381,4.984-5.189,4.969-16.008-.029-21.183-3.133-3.244-7.381-3.316-10.512-.083C275.05,115.177,274.1,118.9,274.093,122.928Z" fill="#fdfcfc"/><path d="M317.458,154.345a8.463,8.463,0,0,1-7.635-4.836c-.423-.808-.709-1.663.366-2.15.916-.416,1.219.385,1.581,1.008,2.913,5.007,8.366,5.011,11.274.008.4-.687.734-1.533,1.743-.934.914.543.584,1.335.208,2.056A8.56,8.56,0,0,1,317.458,154.345Z" fill="#ac5e53"/><path d="M320.777,140.109a3.354,3.354,0,1,1-6.7-.048,3.354,3.354,0,1,1,6.7.048Z" fill="#ac5e53"/><path d="M362.611,123.019a16.21,16.21,0,0,1-2.962,9.5c-3.452,4.625-8.8,4.617-12.284.013-3.851-5.094-3.916-13.947-.141-19.1,3.569-4.869,9.182-4.81,12.644.155A16.6,16.6,0,0,1,362.611,123.019Zm-9.655-5.922a2.162,2.162,0,0,0-2.121-2.383,2.29,2.29,0,1,0-.1,4.577A2.122,2.122,0,0,0,352.956,117.1Z" fill="#ac5e53"/><path d="M274.093,122.928c0-4.033.957-7.751,3.84-10.729,3.131-3.233,7.379-3.161,10.512.083,5,5.175,5.013,15.994.029,21.183-3.339,3.477-7.938,3.342-11.041-.381A15.171,15.171,0,0,1,274.093,122.928Zm5.283-3.3a2.722,2.722,0,0,0,2.524-2.711,2.619,2.619,0,0,0-5.234.185A2.712,2.712,0,0,0,279.376,119.633Z" fill="#ac5e53"/><path d="M352.956,117.1a2.122,2.122,0,0,1-2.222,2.194,2.29,2.29,0,1,1,.1-4.577A2.162,2.162,0,0,1,352.956,117.1Z" fill="#fdfcfc"/><path d="M279.376,119.633a2.712,2.712,0,0,1-2.71-2.526,2.619,2.619,0,0,1,5.234-.185A2.722,2.722,0,0,1,279.376,119.633Z" fill="#fdfcfc"/></svg>