<?xml version="1.0" encoding="utf-8"?>
<!-- Generator: Adobe Illustrator 23.0.4, SVG Export Plug-In . SVG Version: 6.00 Build 0)  -->
<svg version="1.1" id="Layer_1" xmlns="http://www.w3.org/2000/svg" xmlns:xlink="http://www.w3.org/1999/xlink" x="0px" y="0px"
	 viewBox="0 0 636 300" style="enable-background:new 0 0 636 300;" xml:space="preserve">
<style type="text/css">
	
		.st0{fill:none;stroke:#939393;stroke-width:1.5;stroke-linecap:round;stroke-linejoin:round;stroke-miterlimit:10;stroke-dasharray:3,5;}
	.st1{fill:#0090DB;}
	.st2{fill:#939393;}
	.st3{fill:#82B941;}
	.st4{fill:#FFFFFF;}
	.st5{fill:#D2D2D2;}
	.st6{fill:#505050;}
</style>
<g>
	<path class="st0" d="M561.5,89.44v15.32c0,7-5.68,12.68-12.68,12.68H88.81c-7.63,0-13.81-6.18-13.81-13.81V85.44"/>
	<circle class="st1" cx="561.15" cy="47.67" r="44.23"/>
	<circle class="st2" cx="74.98" cy="47.67" r="44.23"/>
	<circle class="st3" cx="315.93" cy="47.67" r="44.23"/>
	<line class="st0" x1="315.93" y1="91.9" x2="315.93" y2="141.84"/>
	<g>
		<path class="st4" d="M54.81,36.61c-0.49,0-0.91-0.17-1.25-0.5c-0.34-0.33-0.52-0.75-0.52-1.27c0-0.51,0.17-0.94,0.52-1.27
			c0.34-0.34,0.76-0.51,1.25-0.51c0.5,0,0.92,0.17,1.27,0.51c0.35,0.34,0.52,0.76,0.52,1.27c0,0.49-0.17,0.91-0.52,1.25
			C55.74,36.44,55.31,36.61,54.81,36.61z M56.14,58h-2.73V40.94h2.73V58z"/>
		<path class="st4" d="M71.67,58.4c-3.39,0-6.1-1.12-8.14-3.35c-2.04-2.23-3.06-5.14-3.06-8.71c0-3.84,1.04-6.91,3.12-9.2
			c2.08-2.29,4.9-3.43,8.48-3.43c3.3,0,5.96,1.11,7.97,3.33c2.02,2.22,3.02,5.13,3.02,8.71c0,3.9-1.03,6.98-3.1,9.25
			C77.9,57.27,75.13,58.4,71.67,58.4z M71.87,36.24c-2.51,0-4.55,0.91-6.11,2.72c-1.57,1.81-2.35,4.19-2.35,7.13
			c0,2.94,0.76,5.31,2.29,7.1c1.53,1.79,3.52,2.69,5.97,2.69c2.62,0,4.69-0.85,6.2-2.57c1.51-1.71,2.27-4.1,2.27-7.18
			c0-3.15-0.73-5.59-2.2-7.31C76.47,37.11,74.45,36.24,71.87,36.24z"/>
		<path class="st4" d="M86.65,57.03v-3.3c0.38,0.33,0.83,0.63,1.36,0.9c0.53,0.27,1.08,0.49,1.67,0.67
			c0.58,0.18,1.17,0.32,1.76,0.42c0.59,0.1,1.13,0.15,1.63,0.15c1.72,0,3.01-0.32,3.86-0.96c0.85-0.64,1.27-1.56,1.27-2.76
			c0-0.64-0.14-1.2-0.42-1.68c-0.28-0.48-0.67-0.91-1.17-1.31c-0.5-0.39-1.09-0.77-1.77-1.13c-0.68-0.36-1.42-0.74-2.21-1.14
			c-0.83-0.42-1.61-0.85-2.33-1.28c-0.72-0.43-1.35-0.91-1.88-1.43c-0.53-0.52-0.95-1.11-1.26-1.77c-0.31-0.66-0.46-1.44-0.46-2.32
			c0-1.09,0.24-2.03,0.72-2.84c0.48-0.8,1.1-1.47,1.88-1.99c0.78-0.52,1.66-0.91,2.66-1.17c0.99-0.26,2.01-0.38,3.04-0.38
			c2.35,0,4.07,0.28,5.15,0.85v3.15c-1.41-0.98-3.22-1.47-5.43-1.47c-0.61,0-1.22,0.06-1.83,0.19c-0.61,0.13-1.16,0.34-1.63,0.62
			c-0.48,0.29-0.87,0.66-1.17,1.12c-0.3,0.46-0.45,1.01-0.45,1.67c0,0.61,0.11,1.14,0.34,1.58c0.23,0.44,0.56,0.85,1.01,1.22
			c0.44,0.37,0.99,0.72,1.62,1.07c0.64,0.34,1.37,0.72,2.21,1.13c0.85,0.42,1.67,0.87,2.43,1.33c0.77,0.47,1.44,0.98,2.02,1.55
			c0.58,0.57,1.04,1.19,1.37,1.88c0.34,0.69,0.51,1.48,0.51,2.37c0,1.18-0.23,2.17-0.69,2.99c-0.46,0.82-1.08,1.48-1.87,1.99
			c-0.78,0.51-1.69,0.88-2.71,1.11c-1.02,0.23-2.1,0.34-3.23,0.34c-0.38,0-0.84-0.03-1.4-0.09c-0.56-0.06-1.12-0.15-1.7-0.27
			c-0.58-0.12-1.12-0.26-1.64-0.43C87.37,57.44,86.96,57.25,86.65,57.03z"/>
	</g>
	<g>
		<path class="st4" d="M320.94,26.63l2.18-4.07c0.12-0.22,0.04-0.52-0.19-0.64c-0.07-0.04-0.14-0.07-0.22-0.07
			c-0.16,0-0.32,0.08-0.4,0.24l-2.19,4.04c-1.68-0.78-3.56-1.22-5.54-1.22c-1.97,0-3.84,0.43-5.52,1.21l-2.18-4.04
			c-0.12-0.22-0.4-0.31-0.62-0.19c-0.22,0.12-0.31,0.4-0.19,0.62l2.17,4.1c-3.82,2.11-6.2,6.03-6.49,10.77h26.37
			C327.85,32.65,324.75,28.74,320.94,26.63z M308.53,32.26c-0.71,0-1.29-0.58-1.29-1.29c0-0.71,0.58-1.29,1.29-1.29
			s1.29,0.58,1.29,1.29C309.81,31.68,309.24,32.26,308.53,32.26z M320.66,32.26c-0.71,0-1.29-0.58-1.29-1.29
			c0-0.71,0.58-1.29,1.29-1.29s1.29,0.58,1.29,1.29C321.95,31.68,321.37,32.26,320.66,32.26z"/>
		<path class="st4" d="M300.89,40.53c0-1.62-1.4-2.81-2.96-2.81c-1.56,0-2.96,1.35-2.96,2.7v12.63c0,1.35,1.4,2.66,2.96,2.66
			c1.56,0,2.96-1.31,2.96-2.86V40.53z"/>
		<path class="st4" d="M335.26,40.53c0-1.61-1.4-2.81-2.96-2.81s-2.96,1.35-2.96,2.7v12.63c0,1.35,1.4,2.66,2.96,2.66
			s2.96-1.31,2.96-2.86V40.53z"/>
		<path class="st4" d="M302.08,38.57v18.64c0,2.39,1.03,3.88,3.83,3.88h1.98l0.01,6.13c0.1,1.35,1.45,2.55,3.02,2.55
			c1.56,0,3.02-1.41,3.02-2.96v-4.9l3.96,0.01l-0.04,5.1c0.1,1.35,1.22,2.65,2.78,2.65c1.56,0,2.78-1.32,2.78-2.87v-5.72h1.02
			c1.75,0,3.72-0.69,3.72-3.88V38.57H302.08z"/>
	</g>
	<g>
		<path class="st4" d="M529.57,59.45c-0.51,0-0.95-0.18-1.31-0.55c-0.36-0.37-0.54-0.8-0.54-1.32c0-0.51,0.18-0.95,0.54-1.32
			c0.36-0.37,0.8-0.56,1.31-0.56c0.52,0,0.97,0.19,1.33,0.56c0.37,0.37,0.55,0.81,0.55,1.32c0,0.51-0.18,0.95-0.55,1.32
			C530.54,59.27,530.09,59.45,529.57,59.45z"/>
		<path class="st4" d="M555.64,59.08h-3.43l-12.29-19.04c-0.31-0.48-0.57-0.98-0.77-1.5h-0.1c0.09,0.51,0.13,1.6,0.13,3.28v17.26
			h-2.8V35.2h3.63l11.96,18.74c0.5,0.78,0.82,1.31,0.97,1.6h0.07c-0.11-0.69-0.17-1.86-0.17-3.52V35.2h2.8V59.08z"/>
		<path class="st4" d="M574.57,59.08h-12.66V35.2h12.13v2.53h-9.33v7.95h8.63v2.52h-8.63v8.36h9.86V59.08z"/>
		<path class="st4" d="M593.36,37.73h-6.9v21.36h-2.8V37.73h-6.88V35.2h16.58V37.73z"/>
	</g>
	<path class="st5" d="M440.63,296.44H189.82c-10.82,0-19.59-8.77-19.59-19.59V158.24c0-10.82,8.77-19.59,19.59-19.59h250.81
		c10.82,0,19.59,8.77,19.59,19.59v118.61C460.22,287.67,451.45,296.44,440.63,296.44z"/>
	<g>
		<path class="st6" d="M241.54,184.59v-3.3c0.38,0.33,0.83,0.63,1.36,0.9c0.53,0.27,1.08,0.49,1.67,0.67
			c0.58,0.18,1.17,0.32,1.76,0.42c0.59,0.1,1.13,0.15,1.63,0.15c1.72,0,3.01-0.32,3.86-0.96c0.85-0.64,1.27-1.56,1.27-2.76
			c0-0.64-0.14-1.21-0.42-1.68s-0.67-0.91-1.17-1.31c-0.5-0.39-1.09-0.77-1.77-1.13s-1.42-0.74-2.21-1.14
			c-0.83-0.42-1.61-0.85-2.33-1.28c-0.72-0.43-1.35-0.91-1.88-1.43c-0.53-0.52-0.95-1.11-1.26-1.77c-0.31-0.66-0.46-1.44-0.46-2.32
			c0-1.09,0.24-2.04,0.72-2.84s1.1-1.47,1.88-1.99c0.78-0.52,1.66-0.91,2.66-1.17c0.99-0.26,2.01-0.38,3.04-0.38
			c2.35,0,4.07,0.28,5.15,0.85v3.15c-1.41-0.98-3.22-1.47-5.43-1.47c-0.61,0-1.22,0.06-1.83,0.19c-0.61,0.13-1.16,0.34-1.63,0.62
			c-0.48,0.29-0.87,0.66-1.17,1.12c-0.3,0.46-0.45,1.01-0.45,1.67c0,0.61,0.11,1.14,0.34,1.58c0.23,0.44,0.56,0.85,1.01,1.22
			c0.44,0.37,0.99,0.72,1.62,1.07c0.64,0.34,1.37,0.72,2.21,1.13c0.85,0.42,1.67,0.87,2.43,1.33c0.77,0.47,1.44,0.98,2.02,1.55
			c0.58,0.57,1.04,1.19,1.37,1.88c0.34,0.69,0.51,1.48,0.51,2.37c0,1.18-0.23,2.17-0.69,2.99c-0.46,0.82-1.08,1.48-1.87,1.99
			c-0.78,0.51-1.69,0.88-2.71,1.11c-1.02,0.23-2.1,0.34-3.23,0.34c-0.38,0-0.84-0.03-1.4-0.09s-1.12-0.15-1.7-0.27
			c-0.58-0.12-1.12-0.26-1.64-0.43C242.26,184.99,241.85,184.8,241.54,184.59z"/>
		<path class="st6" d="M274.57,185.56h-2.73v-9.83c0-3.55-1.32-5.33-3.96-5.33c-1.33,0-2.45,0.51-3.37,1.54
			c-0.91,1.03-1.37,2.35-1.37,3.96v9.66h-2.73V160.3h2.73v11.03h0.07c1.31-2.15,3.18-3.23,5.6-3.23c3.84,0,5.76,2.32,5.76,6.95
			V185.56z"/>
		<path class="st6" d="M291.93,185.56h-2.73v-2.67h-0.07c-1.19,2.04-2.94,3.07-5.25,3.07c-1.7,0-3.03-0.45-3.99-1.35
			c-0.96-0.9-1.44-2.09-1.44-3.58c0-3.19,1.88-5.04,5.63-5.56l5.11-0.72c0-2.9-1.17-4.35-3.52-4.35c-2.05,0-3.91,0.7-5.56,2.1v-2.8
			c1.68-1.07,3.61-1.6,5.8-1.6c4.01,0,6.01,2.12,6.01,6.36V185.56z M289.2,176.93l-4.11,0.57c-1.27,0.18-2.22,0.49-2.87,0.94
			s-0.97,1.25-0.97,2.39c0,0.83,0.3,1.51,0.89,2.04c0.59,0.53,1.39,0.79,2.37,0.79c1.35,0,2.47-0.48,3.36-1.42
			c0.88-0.95,1.32-2.15,1.32-3.61V176.93z"/>
		<path class="st6" d="M305.98,171.26c-0.48-0.37-1.17-0.55-2.07-0.55c-1.17,0-2.14,0.55-2.92,1.65c-0.78,1.1-1.17,2.6-1.17,4.5v8.7
			h-2.73V168.5h2.73v3.52h0.07c0.39-1.2,0.98-2.14,1.78-2.81c0.8-0.67,1.69-1.01,2.68-1.01c0.71,0,1.25,0.08,1.63,0.23V171.26z"/>
		<path class="st6" d="M322.2,177.71h-12.04c0.04,1.9,0.56,3.36,1.53,4.4c0.98,1.03,2.32,1.55,4.03,1.55c1.92,0,3.69-0.63,5.3-1.9
			v2.57c-1.5,1.09-3.48,1.63-5.95,1.63c-2.41,0-4.3-0.77-5.68-2.32c-1.38-1.55-2.07-3.73-2.07-6.54c0-2.65,0.75-4.82,2.26-6.49
			s3.37-2.51,5.61-2.51c2.23,0,3.96,0.72,5.18,2.17c1.22,1.44,1.83,3.45,1.83,6.01V177.71z M319.4,175.4
			c-0.01-1.58-0.39-2.8-1.14-3.68c-0.75-0.88-1.79-1.32-3.12-1.32c-1.29,0-2.38,0.46-3.28,1.38s-1.46,2.13-1.67,3.61H319.4z"/>
		<path class="st6" d="M340.89,185.56h-2.73v-2.9h-0.07c-1.27,2.2-3.22,3.3-5.86,3.3c-2.14,0-3.86-0.76-5.14-2.29
			s-1.92-3.61-1.92-6.24c0-2.82,0.71-5.08,2.13-6.78s3.32-2.55,5.68-2.55c2.34,0,4.05,0.92,5.11,2.77h0.07V160.3h2.73V185.56z
			 M338.16,177.84v-2.52c0-1.38-0.46-2.54-1.37-3.5c-0.91-0.95-2.07-1.43-3.46-1.43c-1.67,0-2.98,0.61-3.93,1.83
			s-1.43,2.91-1.43,5.06c0,1.97,0.46,3.52,1.37,4.66c0.92,1.14,2.15,1.71,3.69,1.71c1.52,0,2.76-0.55,3.71-1.65
			C337.69,180.91,338.16,179.52,338.16,177.84z"/>
		<path class="st6" d="M372.39,184.56c-1.77,0.93-3.96,1.4-6.6,1.4c-3.4,0-6.12-1.09-8.16-3.28c-2.04-2.19-3.07-5.06-3.07-8.61
			c0-3.82,1.15-6.91,3.45-9.26s5.21-3.53,8.75-3.53c2.27,0,4.14,0.33,5.63,0.98v2.98c-1.71-0.96-3.6-1.43-5.66-1.43
			c-2.74,0-4.97,0.92-6.67,2.75c-1.71,1.83-2.56,4.28-2.56,7.35c0,2.91,0.8,5.23,2.39,6.96s3.68,2.59,6.27,2.59
			c2.4,0,4.48-0.53,6.23-1.6V184.56z"/>
		<path class="st6" d="M393.55,168.37l-0.38,1.77h-4.35l-1.05,5h4.68l-0.45,1.77h-4.58l-1.47,6.61h-2.1l1.43-6.61h-4.17l-1.4,6.61
			h-2.08l1.4-6.61h-4.36l0.33-1.77h4.41l1.02-5h-4.61l0.35-1.77h4.61l1.4-6.7h2.1l-1.4,6.7h4.2l1.43-6.7h2.05l-1.4,6.7H393.55z
			 M386.75,170.13h-4.2l-1.1,5h4.23L386.75,170.13z"/>
	</g>
	<g>
		<path class="st6" d="M264.45,221.81v-11.94h3.79c1.15,0,2.07,0.25,2.74,0.76c0.67,0.51,1.01,1.16,1.01,1.97
			c0,0.68-0.19,1.27-0.57,1.77c-0.38,0.5-0.91,0.85-1.59,1.07v0.03c0.82,0.09,1.48,0.4,1.97,0.91c0.49,0.51,0.74,1.18,0.74,2
			c0,1.02-0.4,1.85-1.21,2.48c-0.81,0.63-1.82,0.95-3.05,0.95H264.45z M266.43,211.45v3.4h1.28c0.69,0,1.23-0.16,1.62-0.49
			s0.59-0.78,0.59-1.38c0-1.02-0.68-1.53-2.05-1.53H266.43z M266.43,216.44v3.78h1.69c0.74,0,1.31-0.17,1.71-0.51
			c0.4-0.34,0.6-0.81,0.6-1.41c0-1.24-0.86-1.86-2.57-1.86H266.43z"/>
		<path class="st6" d="M281.98,221.81h-1.93v-1.35h-0.03c-0.56,1.03-1.43,1.55-2.62,1.55c-2.02,0-3.02-1.21-3.02-3.63v-5.1h1.93v4.9
			c0,1.53,0.59,2.3,1.77,2.3c0.57,0,1.04-0.21,1.41-0.63c0.37-0.42,0.55-0.97,0.55-1.66v-4.91h1.93V221.81z"/>
		<path class="st6" d="M283.96,221.54v-1.79c0.72,0.55,1.52,0.82,2.39,0.82c1.17,0,1.75-0.34,1.75-1.03c0-0.19-0.05-0.36-0.15-0.5
			c-0.1-0.14-0.23-0.26-0.4-0.36s-0.37-0.2-0.6-0.28c-0.23-0.08-0.49-0.18-0.77-0.28c-0.35-0.14-0.67-0.29-0.95-0.44
			c-0.28-0.16-0.51-0.33-0.7-0.53c-0.19-0.2-0.33-0.42-0.42-0.67c-0.09-0.25-0.14-0.54-0.14-0.87c0-0.41,0.1-0.77,0.29-1.09
			c0.19-0.31,0.46-0.58,0.78-0.79s0.7-0.38,1.12-0.48s0.85-0.16,1.29-0.16c0.79,0,1.49,0.12,2.12,0.36v1.69
			c-0.6-0.41-1.29-0.62-2.07-0.62c-0.24,0-0.47,0.02-0.66,0.07c-0.2,0.05-0.37,0.12-0.5,0.21c-0.14,0.09-0.25,0.2-0.32,0.32
			c-0.08,0.12-0.12,0.26-0.12,0.41c0,0.18,0.04,0.34,0.12,0.47c0.08,0.13,0.19,0.24,0.35,0.34c0.15,0.1,0.34,0.19,0.55,0.27
			s0.46,0.17,0.74,0.26c0.37,0.15,0.7,0.3,0.99,0.46c0.29,0.16,0.54,0.33,0.75,0.53c0.21,0.2,0.36,0.42,0.48,0.68
			c0.11,0.26,0.17,0.57,0.17,0.92c0,0.43-0.1,0.81-0.3,1.13c-0.2,0.32-0.47,0.59-0.8,0.8s-0.72,0.37-1.15,0.47s-0.9,0.15-1.38,0.15
			C285.45,222.01,284.64,221.85,283.96,221.54z"/>
		<path class="st6" d="M292.82,211.49c-0.32,0-0.59-0.1-0.81-0.31c-0.22-0.21-0.34-0.47-0.34-0.78c0-0.32,0.11-0.58,0.34-0.79
			c0.23-0.21,0.5-0.32,0.81-0.32c0.33,0,0.6,0.11,0.83,0.32c0.23,0.21,0.34,0.47,0.34,0.79c0,0.3-0.11,0.56-0.34,0.77
			C293.43,211.38,293.15,211.49,292.82,211.49z M293.78,221.81h-1.93v-8.53h1.93V221.81z"/>
		<path class="st6" d="M303.9,221.81h-1.93V217c0-1.59-0.56-2.39-1.69-2.39c-0.59,0-1.07,0.22-1.46,0.66
			c-0.38,0.44-0.57,1-0.57,1.67v4.86h-1.94v-8.53h1.94v1.42h0.03c0.64-1.08,1.56-1.62,2.77-1.62c0.93,0,1.64,0.3,2.12,0.9
			c0.49,0.6,0.73,1.47,0.73,2.61V221.81z"/>
		<path class="st6" d="M313.48,218.07h-5.81c0.02,0.79,0.27,1.4,0.73,1.82c0.46,0.43,1.1,0.64,1.91,0.64c0.91,0,1.75-0.27,2.51-0.82
			v1.56c-0.78,0.49-1.8,0.73-3.08,0.73c-1.25,0-2.24-0.39-2.95-1.16c-0.71-0.77-1.07-1.86-1.07-3.27c0-1.33,0.39-2.41,1.18-3.24
			c0.79-0.84,1.76-1.25,2.93-1.25s2.07,0.37,2.71,1.12c0.64,0.75,0.96,1.79,0.96,3.12V218.07z M311.62,216.7
			c-0.01-0.69-0.17-1.23-0.49-1.62c-0.32-0.39-0.77-0.58-1.33-0.58c-0.56,0-1.03,0.2-1.41,0.61c-0.39,0.41-0.62,0.94-0.71,1.59
			H311.62z"/>
		<path class="st6" d="M314.79,221.54v-1.79c0.72,0.55,1.52,0.82,2.39,0.82c1.17,0,1.75-0.34,1.75-1.03c0-0.19-0.05-0.36-0.15-0.5
			c-0.1-0.14-0.23-0.26-0.4-0.36s-0.37-0.2-0.6-0.28c-0.23-0.08-0.49-0.18-0.77-0.28c-0.35-0.14-0.67-0.29-0.95-0.44
			c-0.28-0.16-0.51-0.33-0.7-0.53c-0.19-0.2-0.33-0.42-0.42-0.67c-0.09-0.25-0.14-0.54-0.14-0.87c0-0.41,0.1-0.77,0.29-1.09
			c0.19-0.31,0.46-0.58,0.78-0.79s0.7-0.38,1.12-0.48s0.85-0.16,1.29-0.16c0.79,0,1.49,0.12,2.12,0.36v1.69
			c-0.6-0.41-1.29-0.62-2.07-0.62c-0.24,0-0.47,0.02-0.66,0.07c-0.2,0.05-0.37,0.12-0.5,0.21c-0.14,0.09-0.25,0.2-0.32,0.32
			c-0.08,0.12-0.12,0.26-0.12,0.41c0,0.18,0.04,0.34,0.12,0.47c0.08,0.13,0.19,0.24,0.35,0.34c0.15,0.1,0.34,0.19,0.55,0.27
			s0.46,0.17,0.74,0.26c0.37,0.15,0.7,0.3,0.99,0.46c0.29,0.16,0.54,0.33,0.75,0.53c0.21,0.2,0.36,0.42,0.48,0.68
			c0.11,0.26,0.17,0.57,0.17,0.92c0,0.43-0.1,0.81-0.3,1.13c-0.2,0.32-0.47,0.59-0.8,0.8s-0.72,0.37-1.15,0.47s-0.9,0.15-1.38,0.15
			C316.28,222.01,315.47,221.85,314.79,221.54z"/>
		<path class="st6" d="M322.14,221.54v-1.79c0.72,0.55,1.52,0.82,2.39,0.82c1.17,0,1.75-0.34,1.75-1.03c0-0.19-0.05-0.36-0.15-0.5
			c-0.1-0.14-0.23-0.26-0.4-0.36s-0.37-0.2-0.6-0.28c-0.23-0.08-0.49-0.18-0.77-0.28c-0.35-0.14-0.67-0.29-0.95-0.44
			c-0.28-0.16-0.51-0.33-0.7-0.53c-0.19-0.2-0.33-0.42-0.42-0.67c-0.09-0.25-0.14-0.54-0.14-0.87c0-0.41,0.1-0.77,0.29-1.09
			c0.19-0.31,0.46-0.58,0.78-0.79s0.7-0.38,1.12-0.48s0.85-0.16,1.29-0.16c0.79,0,1.49,0.12,2.12,0.36v1.69
			c-0.6-0.41-1.29-0.62-2.07-0.62c-0.24,0-0.47,0.02-0.66,0.07c-0.2,0.05-0.37,0.12-0.5,0.21c-0.14,0.09-0.25,0.2-0.32,0.32
			c-0.08,0.12-0.12,0.26-0.12,0.41c0,0.18,0.04,0.34,0.12,0.47c0.08,0.13,0.19,0.24,0.35,0.34c0.15,0.1,0.34,0.19,0.55,0.27
			s0.46,0.17,0.74,0.26c0.37,0.15,0.7,0.3,0.99,0.46c0.29,0.16,0.54,0.33,0.75,0.53c0.21,0.2,0.36,0.42,0.48,0.68
			c0.11,0.26,0.17,0.57,0.17,0.92c0,0.43-0.1,0.81-0.3,1.13c-0.2,0.32-0.47,0.59-0.8,0.8s-0.72,0.37-1.15,0.47s-0.9,0.15-1.38,0.15
			C323.63,222.01,322.83,221.85,322.14,221.54z"/>
		<path class="st6" d="M341.55,221.81h-6.61v-11.94h1.98v10.27h4.63V221.81z"/>
		<path class="st6" d="M346.84,222.01c-1.32,0-2.37-0.4-3.15-1.2c-0.79-0.8-1.18-1.85-1.18-3.17c0-1.43,0.41-2.55,1.23-3.36
			s1.92-1.21,3.31-1.21c1.33,0,2.37,0.39,3.12,1.17c0.74,0.78,1.12,1.87,1.12,3.26c0,1.36-0.4,2.45-1.2,3.27
			C349.27,221.6,348.2,222.01,346.84,222.01z M346.93,214.62c-0.76,0-1.35,0.26-1.79,0.79c-0.44,0.53-0.66,1.25-0.66,2.18
			c0,0.89,0.22,1.6,0.67,2.11c0.44,0.51,1.04,0.77,1.78,0.77c0.76,0,1.35-0.25,1.75-0.76c0.41-0.5,0.61-1.22,0.61-2.16
			c0-0.94-0.2-1.66-0.61-2.17S347.69,214.62,346.93,214.62z"/>
		<path class="st6" d="M361.01,221.12c0,3.13-1.57,4.7-4.72,4.7c-1.11,0-2.08-0.19-2.91-0.56v-1.77c0.93,0.53,1.82,0.8,2.66,0.8
			c2.03,0,3.04-1,3.04-2.99v-0.93h-0.03c-0.64,1.09-1.6,1.63-2.88,1.63c-1.04,0-1.88-0.38-2.51-1.14s-0.95-1.78-0.95-3.05
			c0-1.45,0.34-2.6,1.02-3.46c0.68-0.86,1.62-1.28,2.82-1.28c1.13,0,1.96,0.46,2.51,1.38h0.03v-1.18h1.93V221.12z M359.09,217.9
			v-1.11c0-0.6-0.2-1.11-0.6-1.54s-0.89-0.64-1.49-0.64c-0.73,0-1.31,0.27-1.72,0.81c-0.41,0.54-0.62,1.3-0.62,2.27
			c0,0.84,0.2,1.51,0.6,2.01c0.4,0.5,0.92,0.75,1.58,0.75c0.67,0,1.21-0.24,1.62-0.72S359.09,218.65,359.09,217.9z"/>
		<path class="st6" d="M364.5,211.49c-0.32,0-0.59-0.1-0.81-0.31c-0.22-0.21-0.34-0.47-0.34-0.78c0-0.32,0.11-0.58,0.34-0.79
			c0.23-0.21,0.5-0.32,0.81-0.32c0.33,0,0.6,0.11,0.83,0.32c0.23,0.21,0.34,0.47,0.34,0.79c0,0.3-0.11,0.56-0.34,0.77
			C365.1,211.38,364.83,211.49,364.5,211.49z M365.46,221.81h-1.93v-8.53h1.93V221.81z"/>
		<path class="st6" d="M374.09,221.42c-0.68,0.39-1.49,0.59-2.42,0.59c-1.27,0-2.29-0.4-3.07-1.19c-0.78-0.79-1.17-1.82-1.17-3.08
			c0-1.4,0.42-2.53,1.25-3.39c0.84-0.85,1.95-1.28,3.35-1.28c0.78,0,1.46,0.14,2.06,0.41v1.8c-0.59-0.44-1.23-0.67-1.9-0.67
			c-0.82,0-1.49,0.28-2.01,0.83c-0.52,0.55-0.78,1.28-0.78,2.17c0,0.88,0.25,1.58,0.74,2.09c0.49,0.51,1.15,0.77,1.98,0.77
			c0.69,0,1.35-0.25,1.97-0.74V221.42z"/>
		<path class="st6" d="M266.43,243.06v4.33h-1.97v-11.94h3.62c1.37,0,2.44,0.32,3.19,0.96c0.76,0.64,1.13,1.54,1.13,2.7
			s-0.39,2.11-1.18,2.85c-0.79,0.74-1.85,1.11-3.2,1.11H266.43z M266.43,237.08v4.36h1.28c0.85,0,1.5-0.2,1.94-0.59
			c0.44-0.39,0.67-0.95,0.67-1.67c0-1.4-0.82-2.11-2.45-2.11H266.43z"/>
		<path class="st6" d="M276.15,247.4h-1.94v-12.63h1.94V247.4z"/>
		<path class="st6" d="M285.21,247.4h-1.87v-1.33h-0.03c-0.59,1.02-1.45,1.53-2.59,1.53c-0.84,0-1.5-0.23-1.97-0.68
			c-0.47-0.46-0.71-1.06-0.71-1.81c0-1.61,0.93-2.55,2.78-2.82l2.53-0.36c0-1.22-0.58-1.82-1.73-1.82c-1.02,0-1.93,0.35-2.75,1.05
			v-1.69c0.9-0.53,1.94-0.8,3.12-0.8c2.15,0,3.23,1.06,3.23,3.18V247.4z M283.34,243.21l-1.79,0.25c-0.56,0.07-0.97,0.21-1.25,0.4
			c-0.28,0.2-0.42,0.54-0.42,1.04c0,0.36,0.13,0.66,0.39,0.89c0.26,0.23,0.6,0.35,1.04,0.35c0.59,0,1.08-0.21,1.46-0.62
			c0.39-0.41,0.58-0.93,0.58-1.56V243.21z"/>
		<path class="st6" d="M292.07,247.3c-0.38,0.19-0.88,0.28-1.49,0.28c-1.65,0-2.48-0.79-2.48-2.38v-4.82h-1.42v-1.52h1.42v-1.97
			l1.93-0.55v2.52h2.04v1.52h-2.04v4.26c0,0.51,0.09,0.87,0.27,1.08c0.18,0.22,0.49,0.33,0.92,0.33c0.33,0,0.61-0.09,0.85-0.28
			V247.3z"/>
		<path class="st6" d="M298.55,236.34c-0.26-0.15-0.56-0.22-0.89-0.22c-0.94,0-1.41,0.53-1.41,1.59v1.16h1.98v1.52h-1.97v7.01h-1.93
			v-7.01h-1.46v-1.52h1.46v-1.38c0-0.9,0.29-1.61,0.88-2.13c0.59-0.52,1.32-0.78,2.21-0.78c0.48,0,0.85,0.05,1.13,0.16V236.34z"/>
		<path class="st6" d="M303.39,247.6c-1.32,0-2.37-0.4-3.15-1.2c-0.79-0.8-1.18-1.85-1.18-3.17c0-1.43,0.41-2.55,1.23-3.36
			s1.92-1.21,3.31-1.21c1.33,0,2.37,0.39,3.12,1.17c0.74,0.78,1.12,1.87,1.12,3.26c0,1.36-0.4,2.45-1.2,3.27
			C305.83,247.19,304.75,247.6,303.39,247.6z M303.48,240.21c-0.76,0-1.35,0.26-1.79,0.79c-0.44,0.53-0.66,1.25-0.66,2.18
			c0,0.89,0.22,1.6,0.67,2.11c0.44,0.51,1.04,0.77,1.78,0.77c0.76,0,1.35-0.25,1.75-0.76c0.41-0.5,0.61-1.22,0.61-2.16
			c0-0.94-0.2-1.66-0.61-2.17S304.25,240.21,303.48,240.21z"/>
		<path class="st6" d="M314.75,240.71c-0.23-0.18-0.57-0.27-1.01-0.27c-0.57,0-1.05,0.26-1.43,0.77c-0.38,0.52-0.58,1.22-0.58,2.11
			v4.08h-1.93v-8.53h1.93v1.76h0.03c0.19-0.6,0.48-1.07,0.87-1.4c0.39-0.34,0.83-0.5,1.31-0.5c0.35,0,0.62,0.05,0.8,0.16V240.71z"/>
		<path class="st6" d="M328.86,247.4h-1.93v-4.65c0-0.89-0.13-1.54-0.38-1.94c-0.25-0.4-0.68-0.6-1.28-0.6
			c-0.51,0-0.93,0.25-1.29,0.76c-0.35,0.51-0.53,1.11-0.53,1.82v4.61h-1.94v-4.81c0-1.59-0.56-2.38-1.68-2.38
			c-0.52,0-0.95,0.24-1.29,0.72c-0.34,0.48-0.5,1.1-0.5,1.86v4.61h-1.93v-8.53h1.93v1.35h0.03c0.62-1.03,1.51-1.55,2.69-1.55
			c0.59,0,1.1,0.16,1.54,0.49c0.44,0.33,0.74,0.75,0.9,1.28c0.63-1.18,1.58-1.77,2.83-1.77c1.88,0,2.82,1.16,2.82,3.47V247.4z"/>
		<path class="st6" d="M345.94,247.4h-2.17l-1.07-3.04h-4.7l-1.03,3.04h-2.17l4.47-11.94h2.23L345.94,247.4z M342.17,242.74
			l-1.66-4.76c-0.05-0.16-0.1-0.41-0.16-0.75h-0.03c-0.05,0.32-0.11,0.57-0.17,0.75l-1.64,4.76H342.17z"/>
		<path class="st6" d="M349.55,243.06v4.33h-1.97v-11.94h3.62c1.37,0,2.44,0.32,3.19,0.96c0.76,0.64,1.13,1.54,1.13,2.7
			s-0.39,2.11-1.18,2.85c-0.79,0.74-1.85,1.11-3.2,1.11H349.55z M349.55,237.08v4.36h1.28c0.85,0,1.5-0.2,1.94-0.59
			c0.44-0.39,0.67-0.95,0.67-1.67c0-1.4-0.82-2.11-2.45-2.11H349.55z"/>
		<path class="st6" d="M359.58,247.4h-2.04v-11.94h2.04V247.4z"/>
		<path class="st6" d="M361.77,247.13v-1.79c0.72,0.55,1.52,0.82,2.39,0.82c1.17,0,1.75-0.34,1.75-1.03c0-0.19-0.05-0.36-0.15-0.5
			c-0.1-0.14-0.23-0.26-0.4-0.36s-0.37-0.2-0.6-0.28c-0.23-0.08-0.49-0.18-0.77-0.28c-0.35-0.14-0.67-0.29-0.95-0.44
			c-0.28-0.16-0.51-0.33-0.7-0.53c-0.19-0.2-0.33-0.42-0.42-0.67c-0.09-0.25-0.14-0.54-0.14-0.87c0-0.41,0.1-0.77,0.29-1.09
			c0.19-0.31,0.46-0.58,0.78-0.79s0.7-0.38,1.12-0.48s0.85-0.16,1.29-0.16c0.79,0,1.49,0.12,2.12,0.36v1.69
			c-0.6-0.41-1.29-0.62-2.07-0.62c-0.24,0-0.47,0.02-0.66,0.07c-0.2,0.05-0.37,0.12-0.5,0.21c-0.14,0.09-0.25,0.2-0.32,0.32
			c-0.08,0.12-0.12,0.26-0.12,0.41c0,0.18,0.04,0.34,0.12,0.47c0.08,0.13,0.19,0.24,0.35,0.34c0.15,0.1,0.34,0.19,0.55,0.27
			s0.46,0.17,0.74,0.26c0.37,0.15,0.7,0.3,0.99,0.46c0.29,0.16,0.54,0.33,0.75,0.53c0.21,0.2,0.36,0.42,0.48,0.68
			c0.11,0.26,0.17,0.57,0.17,0.92c0,0.43-0.1,0.81-0.3,1.13c-0.2,0.32-0.47,0.59-0.8,0.8s-0.72,0.37-1.15,0.47s-0.9,0.15-1.38,0.15
			C363.27,247.6,362.46,247.44,361.77,247.13z"/>
		<path class="st6" d="M273.64,268.15c0,3.35-1.59,5.03-4.76,5.03c-3.04,0-4.56-1.61-4.56-4.84v-7.3h1.98v6.9
			c0,2.34,0.91,3.52,2.73,3.52c1.75,0,2.63-1.13,2.63-3.39v-7.02h1.98V268.15z"/>
		<path class="st6" d="M275.7,272.72v-1.79c0.72,0.55,1.52,0.82,2.39,0.82c1.17,0,1.75-0.34,1.75-1.03c0-0.19-0.05-0.36-0.15-0.5
			c-0.1-0.14-0.23-0.26-0.4-0.36s-0.37-0.2-0.6-0.28c-0.23-0.08-0.49-0.18-0.77-0.28c-0.35-0.14-0.67-0.29-0.95-0.44
			c-0.28-0.16-0.51-0.33-0.7-0.53c-0.19-0.2-0.33-0.42-0.42-0.67c-0.09-0.25-0.14-0.54-0.14-0.87c0-0.41,0.1-0.77,0.29-1.09
			c0.19-0.31,0.46-0.58,0.78-0.79s0.7-0.38,1.12-0.48s0.85-0.16,1.29-0.16c0.79,0,1.49,0.12,2.12,0.36v1.69
			c-0.6-0.41-1.29-0.62-2.07-0.62c-0.24,0-0.47,0.02-0.66,0.07c-0.2,0.05-0.37,0.12-0.5,0.21c-0.14,0.09-0.25,0.2-0.32,0.32
			c-0.08,0.12-0.12,0.26-0.12,0.41c0,0.18,0.04,0.34,0.12,0.47c0.08,0.13,0.19,0.24,0.35,0.34c0.15,0.1,0.34,0.19,0.55,0.27
			s0.46,0.17,0.74,0.26c0.37,0.15,0.7,0.3,0.99,0.46c0.29,0.16,0.54,0.33,0.75,0.53c0.21,0.2,0.36,0.42,0.48,0.68
			c0.11,0.26,0.17,0.57,0.17,0.92c0,0.43-0.1,0.81-0.3,1.13c-0.2,0.32-0.47,0.59-0.8,0.8s-0.72,0.37-1.15,0.47s-0.9,0.15-1.38,0.15
			C277.19,273.18,276.38,273.03,275.7,272.72z"/>
		<path class="st6" d="M290.81,269.24h-5.81c0.02,0.79,0.27,1.4,0.73,1.82c0.46,0.43,1.1,0.64,1.91,0.64c0.91,0,1.75-0.27,2.51-0.82
			v1.56c-0.78,0.49-1.8,0.73-3.08,0.73c-1.25,0-2.24-0.39-2.95-1.16c-0.71-0.77-1.07-1.86-1.07-3.27c0-1.33,0.39-2.41,1.18-3.24
			c0.79-0.84,1.76-1.25,2.93-1.25s2.07,0.37,2.71,1.12c0.64,0.75,0.96,1.79,0.96,3.12V269.24z M288.94,267.88
			c-0.01-0.69-0.17-1.23-0.49-1.62c-0.32-0.39-0.77-0.58-1.33-0.58c-0.56,0-1.03,0.2-1.41,0.61c-0.39,0.41-0.62,0.94-0.71,1.59
			H288.94z"/>
		<path class="st6" d="M297.6,266.29c-0.23-0.18-0.57-0.27-1.01-0.27c-0.57,0-1.05,0.26-1.43,0.77c-0.38,0.52-0.58,1.22-0.58,2.11
			v4.08h-1.93v-8.53h1.93v1.76h0.03c0.19-0.6,0.48-1.07,0.87-1.4c0.39-0.34,0.83-0.5,1.31-0.5c0.35,0,0.62,0.05,0.8,0.16V266.29z"/>
		<path class="st6" d="M305.9,272.98h-2.04v-11.94h2.04V272.98z"/>
		<path class="st6" d="M316.22,272.98h-1.93v-4.81c0-1.59-0.56-2.39-1.69-2.39c-0.59,0-1.07,0.22-1.46,0.66
			c-0.38,0.44-0.57,1-0.57,1.67v4.86h-1.94v-8.53h1.94v1.42h0.03c0.64-1.08,1.56-1.62,2.77-1.62c0.93,0,1.64,0.3,2.12,0.9
			c0.49,0.6,0.73,1.47,0.73,2.61V272.98z"/>
		<path class="st6" d="M323.08,272.89c-0.38,0.19-0.88,0.28-1.49,0.28c-1.65,0-2.48-0.79-2.48-2.38v-4.82h-1.42v-1.52h1.42v-1.97
			l1.93-0.55v2.52h2.04v1.52h-2.04v4.26c0,0.51,0.09,0.87,0.27,1.08c0.18,0.22,0.49,0.33,0.92,0.33c0.33,0,0.61-0.09,0.85-0.28
			V272.89z"/>
		<path class="st6" d="M331.86,269.24h-5.81c0.02,0.79,0.27,1.4,0.73,1.82c0.46,0.43,1.1,0.64,1.91,0.64c0.91,0,1.75-0.27,2.51-0.82
			v1.56c-0.78,0.49-1.8,0.73-3.08,0.73c-1.25,0-2.24-0.39-2.95-1.16c-0.71-0.77-1.07-1.86-1.07-3.27c0-1.33,0.39-2.41,1.18-3.24
			c0.79-0.84,1.76-1.25,2.93-1.25s2.07,0.37,2.71,1.12c0.64,0.75,0.96,1.79,0.96,3.12V269.24z M330,267.88
			c-0.01-0.69-0.17-1.23-0.49-1.62c-0.32-0.39-0.77-0.58-1.33-0.58c-0.56,0-1.03,0.2-1.41,0.61c-0.39,0.41-0.62,0.94-0.71,1.59H330z
			"/>
		<path class="st6" d="M338.65,266.29c-0.23-0.18-0.57-0.27-1.01-0.27c-0.57,0-1.05,0.26-1.43,0.77c-0.38,0.52-0.58,1.22-0.58,2.11
			v4.08h-1.93v-8.53h1.93v1.76h0.03c0.19-0.6,0.48-1.07,0.87-1.4c0.39-0.34,0.83-0.5,1.31-0.5c0.35,0,0.62,0.05,0.8,0.16V266.29z"/>
		<path class="st6" d="M345.21,261.93c-0.26-0.15-0.56-0.22-0.89-0.22c-0.94,0-1.41,0.53-1.41,1.59v1.16h1.98v1.52h-1.97v7.01h-1.93
			v-7.01h-1.46v-1.52h1.46v-1.38c0-0.9,0.29-1.61,0.88-2.13c0.59-0.52,1.32-0.78,2.21-0.78c0.48,0,0.85,0.05,1.13,0.16V261.93z"/>
		<path class="st6" d="M352.81,272.98h-1.87v-1.33h-0.03c-0.59,1.02-1.45,1.53-2.59,1.53c-0.84,0-1.5-0.23-1.97-0.68
			c-0.47-0.46-0.71-1.06-0.71-1.81c0-1.61,0.93-2.55,2.78-2.82l2.53-0.36c0-1.22-0.58-1.82-1.73-1.82c-1.02,0-1.93,0.35-2.75,1.05
			v-1.69c0.9-0.53,1.94-0.8,3.12-0.8c2.15,0,3.23,1.06,3.23,3.18V272.98z M350.95,268.79l-1.79,0.25c-0.56,0.07-0.97,0.21-1.25,0.4
			c-0.28,0.2-0.42,0.54-0.42,1.04c0,0.36,0.13,0.66,0.39,0.89c0.26,0.23,0.6,0.35,1.04,0.35c0.59,0,1.08-0.21,1.46-0.62
			c0.39-0.41,0.58-0.93,0.58-1.56V268.79z"/>
		<path class="st6" d="M361.27,272.59c-0.68,0.39-1.49,0.59-2.42,0.59c-1.27,0-2.29-0.4-3.07-1.19c-0.78-0.79-1.17-1.82-1.17-3.08
			c0-1.4,0.42-2.53,1.25-3.39c0.84-0.85,1.95-1.28,3.35-1.28c0.78,0,1.46,0.14,2.06,0.41v1.8c-0.59-0.44-1.23-0.67-1.9-0.67
			c-0.82,0-1.49,0.28-2.01,0.83c-0.52,0.55-0.78,1.28-0.78,2.17c0,0.88,0.25,1.58,0.74,2.09c0.49,0.51,1.15,0.77,1.98,0.77
			c0.69,0,1.35-0.25,1.97-0.74V272.59z"/>
		<path class="st6" d="M370.41,269.24h-5.81c0.02,0.79,0.27,1.4,0.73,1.82c0.46,0.43,1.1,0.64,1.91,0.64c0.91,0,1.75-0.27,2.51-0.82
			v1.56c-0.78,0.49-1.8,0.73-3.08,0.73c-1.25,0-2.24-0.39-2.95-1.16c-0.71-0.77-1.07-1.86-1.07-3.27c0-1.33,0.39-2.41,1.18-3.24
			c0.79-0.84,1.76-1.25,2.93-1.25s2.07,0.37,2.71,1.12c0.64,0.75,0.96,1.79,0.96,3.12V269.24z M368.55,267.88
			c-0.01-0.69-0.17-1.23-0.49-1.62c-0.32-0.39-0.77-0.58-1.33-0.58c-0.56,0-1.03,0.2-1.41,0.61c-0.39,0.41-0.62,0.94-0.71,1.59
			H368.55z"/>
	</g>
	<path class="st4" d="M243.31,220.74h2.57c1.89,0,3.43-1.53,3.43-3.43v-2.57c0-1.89-1.53-3.43-3.43-3.43h-2.57
		c-1.89,0-3.43,1.53-3.43,3.43v2.57C239.88,219.21,241.41,220.74,243.31,220.74z"/>
	<path class="st4" d="M243.5,246.33h2.19c2,0,3.62-1.62,3.62-3.62v-2.19c0-2-1.62-3.62-3.62-3.62h-2.19c-2,0-3.62,1.62-3.62,3.62
		v2.19C239.88,244.71,241.5,246.33,243.5,246.33z"/>
	<path class="st4" d="M242.67,271.92h3.83c1.54,0,2.79-1.25,2.79-2.79v-3.83c0-1.54-1.25-2.79-2.79-2.79h-3.83
		c-1.54,0-2.79,1.25-2.79,2.79v3.83C239.88,270.67,241.13,271.92,242.67,271.92z"/>
</g>
</svg>
