<?xml version="1.0" encoding="utf-8"?>
<!-- Generator: Adobe Illustrator 24.3.0, SVG Export Plug-In . SVG Version: 6.00 Build 0)  -->
<svg version="1.1" id="Layer_1" xmlns="http://www.w3.org/2000/svg" xmlns:xlink="http://www.w3.org/1999/xlink" x="0px" y="0px"
	 viewBox="0 0 636 300" style="enable-background:new 0 0 636 300;" xml:space="preserve">
<style type="text/css">
	.st0{fill:#C5D43B;}
	.st1{fill:#8B9B23;}
	.st2{fill:#78881B;}
	.st3{fill:#FFFFFF;}
	.st4{fill:#95A258;}
	.st5{fill:#819041;}
	.st6{fill:#2ECCEF;}
	.st7{fill:#0B7891;}
	.st8{fill:#1595B2;}
	.st9{fill:#B3AFAB;}
	.st10{fill:#797672;}
	.st11{fill:#908D89;}
	.st12{fill:#DDDBDA;}
	.st13{fill:#BBB8B4;}
	.st14{fill:#CC5444;}
	.st15{fill:#BBACEF;}
	.st16{fill:#3E8EED;}
	.st17{fill:#7354DD;}
	.st18{fill:#A3C9F6;}
	.st19{fill:#0064DA;}
	.st20{fill:#FCCF84;}
	.st21{fill:#F7B548;}
	.st22{fill:#E29E3B;}
	.st23{fill:#BDD8F9;}
	.st24{fill:#8DBCF4;}
	.st25{fill:#549BEF;}
	.st26{fill:#F4AC99;}
	.st27{fill:#E86E58;}
	.st28{fill:#A08BE8;}
	.st29{fill:#70D6E0;}
	.st30{fill:#28C2D1;}
	.st31{fill:#CFF1F5;}
	.st32{fill:#FDC9B5;}
	.st33{fill:#EA7F6B;}
	.st34{fill:#98C2F5;}
	.st35{fill:#D8E8FB;}
	.st36{fill:#FEDEA7;}
	.st37{fill:#A7A4A0;}
	.st38{fill:#6D6A66;}
	.st39{fill:#56534F;}
	.st40{fill:#8A6FE8;}
	.st41{fill:url(#SVGID_1_);}
	.st42{fill:url(#SVGID_2_);}
	.st43{fill:url(#SVGID_3_);}
	.st44{fill:#522CD5;}
	.st45{fill:url(#SVGID_4_);}
	.st46{fill:url(#SVGID_5_);}
	.st47{fill:url(#SVGID_6_);}
	.st48{fill:url(#SVGID_7_);}
	.st49{fill:url(#SVGID_8_);}
	.st50{fill:url(#SVGID_9_);}
	.st51{fill:url(#SVGID_10_);}
	.st52{fill:url(#SVGID_11_);}
	.st53{fill:#512BD4;}
	.st54{fill:#D8CFF7;}
	.st55{fill:url(#SVGID_12_);}
	.st56{fill:#8065E0;}
	.st57{fill:url(#SVGID_13_);}
	.st58{fill:url(#SVGID_14_);}
	.st59{fill:url(#SVGID_15_);}
	.st60{fill:#E6E4E3;}
	.st61{fill:#4995EE;}
	.st62{fill:#76AFF2;}
	.st63{fill:#FAF9F8;}
	.st64{fill:#60DEFA;}
	.st65{fill:#19A0BF;}
	.st66{fill:#ED9583;}
	.st67{fill:#BF453C;}
	.st68{fill:#33D5F9;}
	.st69{fill:url(#SVGID_16_);}
	.st70{fill:#57AA9A;}
	.st71{fill:url(#SVGID_17_);}
	.st72{fill:url(#SVGID_18_);}
	.st73{fill:#C4832D;}
	.st74{fill:url(#SVGID_19_);}
	.st75{fill:#1DACCC;}
	.st76{fill:#BBF1FD;}
	.st77{fill:url(#SVGID_20_);}
	.st78{fill:url(#SVGID_21_);}
	.st79{fill:url(#SVGID_22_);}
	.st80{fill:url(#SVGID_23_);}
	.st81{fill:url(#SVGID_24_);}
	.st82{fill:url(#SVGID_25_);}
	.st83{fill:url(#SVGID_26_);}
	.st84{fill:url(#SVGID_27_);}
	.st85{fill:url(#SVGID_28_);}
	.st86{fill:url(#SVGID_29_);}
	.st87{fill:url(#SVGID_30_);}
	.st88{fill:url(#SVGID_31_);}
	.st89{fill:url(#SVGID_32_);}
	.st90{fill:url(#SVGID_33_);}
	.st91{fill:#A36623;}
	.st92{fill:#FFE5B9;}
	.st93{fill:#92D5CD;}
	.st94{fill:#45897C;}
	.st95{fill:#D5D3D0;}
	.st96{fill:url(#SVGID_34_);}
	.st97{fill:#9C9894;}
	.st98{fill:#4A4844;}
	.st99{fill:url(#SVGID_35_);}
	.st100{fill:url(#SVGID_36_);}
	.st101{fill:url(#SVGID_37_);}
	.st102{fill:url(#SVGID_38_);}
	.st103{fill:url(#SVGID_39_);}
	.st104{fill:url(#SVGID_40_);}
	.st105{fill:url(#SVGID_41_);}
	.st106{fill:url(#SVGID_42_);}
	.st107{fill:url(#SVGID_43_);}
	.st108{fill:url(#SVGID_44_);}
	.st109{fill:url(#SVGID_45_);}
	.st110{fill:#8577E5;}
	.st111{fill:url(#SVGID_46_);}
	.st112{fill:url(#SVGID_47_);}
	.st113{fill:#605D5A;}
	.st114{fill:url(#SVGID_48_);}
	.st115{fill:#CCCAC7;}
	.st116{fill:#625F5B;}
</style>
<g>
	<g>
		<polygon class="st29" points="546.39,154.55 582.18,155.42 582.18,120.52 552.67,118.89 546.39,118.54 		"/>
		<polygon class="st30" points="546.39,154.55 552.73,154.7 552.73,118.89 546.39,118.54 		"/>
		<polygon class="st31" points="545.51,118.5 554.09,118.97 583.39,120.58 583.39,111.45 554.08,109.6 545.51,109.06 		"/>
		<polygon class="st29" points="545.51,119.55 554.11,118.97 554.11,109.6 545.51,110.11 		"/>
		<polygon class="st27" points="501.94,153.47 550.05,154.64 550.05,118.75 518.61,117.01 501.94,119.78 		"/>
		<polygon class="st14" points="501.94,153.47 518.87,153.88 518.87,117.03 501.94,118.78 		"/>
		<polygon class="st32" points="501,119.73 520.29,117.11 551.32,118.82 551.32,109.43 520.16,107.46 501,109.93 		"/>
		<polygon class="st33" points="501,119.73 520.34,117.11 520.34,107.47 501,109.93 		"/>
	</g>
	<polygon class="st29" points="546.36,199.46 582.15,198.94 582.15,164.04 546.36,163.45 	"/>
	<polygon class="st30" points="546.36,199.46 552.7,199.37 552.7,163.55 546.36,163.45 	"/>
	<polygon class="st31" points="545.48,163.43 583.36,164.06 583.36,154.93 545.48,154 	"/>
	<polygon class="st29" points="545.48,163.43 554.08,163.58 554.08,154.21 545.48,154 	"/>
	<g>
		<polygon class="st27" points="552.67,244.48 582.11,242.92 582.11,208.03 546.35,208.83 		"/>
		<polygon class="st14" points="546.35,243.8 552.68,244.48 552.68,207.9 546.35,208.04 		"/>
		<polygon class="st32" points="553.79,208.66 583.32,208 583.32,198.88 553.88,199.29 		"/>
		<polygon class="st33" points="545.47,208.4 554.06,208.66 554.06,199.29 545.47,198.96 		"/>
	</g>
	<polygon class="st34" points="512.39,199.94 550.27,199.4 550.27,163.51 512.39,162.88 	"/>
	<polygon class="st16" points="512.39,199.94 519.11,199.84 519.11,163 512.39,162.88 	"/>
	<polygon class="st35" points="511.46,162.87 551.54,163.53 551.54,154.15 511.46,153.16 	"/>
	<polygon class="st34" points="511.46,162.87 520.57,163.02 520.57,153.38 511.46,153.16 	"/>
	<g>
		<polygon class="st27" points="519.11,246.27 550.26,244.61 550.26,208.74 512.41,209.59 		"/>
		<polygon class="st14" points="512.41,245.57 519.12,246.27 519.12,208.77 511.89,208.4 		"/>
		<polygon class="st32" points="520.29,209.41 551.53,208.71 551.53,199.33 520.39,199.77 		"/>
		<polygon class="st33" points="511.48,209.14 520.58,209.4 520.58,199.77 511.48,199.43 		"/>
	</g>
	<polygon class="st34" points="465.26,200.61 516.27,199.89 516.27,162.95 465.26,162.1 	"/>
	<polygon class="st16" points="465.26,200.61 483.23,200.36 483.23,162.4 465.26,162.1 	"/>
	<polygon class="st35" points="464.26,162.09 484.68,162.42 517.62,162.97 517.62,153.31 484.69,152.49 464.26,154.89 	"/>
	<polygon class="st34" points="464.26,163.12 484.78,162.43 484.78,152.5 464.26,153.02 	"/>
	<g>
		<polygon class="st29" points="483.26,248.18 516.28,246.42 516.28,209.5 465.33,210.64 		"/>
		<polygon class="st30" points="465.33,246.27 483.27,248.18 483.27,210.24 465.33,208.48 		"/>
		<polygon class="st31" points="484.52,210.21 517.63,209.47 517.63,199.81 484.62,200.28 		"/>
		<polygon class="st29" points="464.32,210.18 484.82,210.2 484.82,200.28 464.32,200.09 		"/>
	</g>
	<g>
		<g>
			<polygon class="st34" points="164.33,141.1 228.68,142.67 228.68,105.97 190.69,103.88 164.33,108.29 			"/>
			<polygon class="st16" points="164.33,141.1 188.82,141.7 188.82,103.98 164.33,108.29 			"/>
			<polygon class="st35" points="163.11,108.23 190.56,104.07 230.3,106.05 230.3,96.44 190.44,94.19 163.11,98.18 			"/>
			<polygon class="st34" points="163.11,108.23 190.69,104.07 190.69,94.21 163.11,98.18 			"/>
		</g>
		<g>
			<polygon class="st21" points="264.99,188.2 308.2,187.9 308.2,153.2 264.99,152.41 			"/>
			<polygon class="st22" points="264.99,188.2 272.64,188.15 272.64,152.55 264.99,152.41 			"/>
			<polygon class="st36" points="263.93,152.39 309.65,153.23 309.65,144.15 263.93,143.01 			"/>
			<polygon class="st20" points="263.93,152.39 274.31,152.58 274.31,143.27 263.93,143.01 			"/>
		</g>
		<polygon class="st29" points="224,188.49 269.71,188.17 269.71,152.5 224,151.66 		"/>
		<polygon class="st30" points="224,188.49 232.1,188.43 232.1,151.81 224,151.66 		"/>
		<polygon class="st31" points="222.88,151.64 271.25,152.52 271.25,143.19 222.88,141.99 		"/>
		<polygon class="st29" points="222.88,151.64 233.86,151.84 233.86,142.26 222.88,141.99 		"/>
		<polygon class="st27" points="164.33,188.9 228.68,188.45 228.68,151.75 164.33,150.57 		"/>
		<polygon class="st14" points="164.33,188.9 188.82,188.73 188.82,151.02 164.33,150.57 		"/>
		<polygon class="st32" points="163.11,150.55 230.3,151.78 230.3,142.17 163.11,140.5 		"/>
		<polygon class="st33" points="163.11,150.55 190.69,151.05 190.69,141.19 163.11,140.5 		"/>
	</g>
	<polygon class="st37" points="316.72,187.58 178.66,188.51 178.66,207.67 316.72,204.97 	"/>
	<g>
		<path class="st38" d="M107.57,215.24l-5.95,0.15l0,0.06c-9.32,0.83-16.8,10.3-16.8,21.68c0,11.77,7.99,20.88,17.73,20.37
			l5.01-0.26V215.24z"/>
		<path class="st39" d="M124.81,235.56c0,11.47-7.67,21.17-17.23,21.67c-9.68,0.51-17.62-8.58-17.62-20.31
			c0-11.73,7.94-21.44,17.62-21.69C117.14,214.99,124.81,224.09,124.81,235.56z"/>
	</g>
	<g>
		<path class="st38" d="M225.65,212.19l-5.09,0.13l0,0.05c-7.96,0.75-14.36,9.48-14.36,20c0,10.87,6.82,19.32,15.15,18.89l4.29-0.23
			V212.19z"/>
		<path class="st39" d="M240.41,231.03c0,10.62-6.57,19.57-14.76,20c-8.28,0.43-15.06-8-15.06-18.83s6.78-19.8,15.06-20.01
			C233.84,211.98,240.41,220.41,240.41,231.03z"/>
	</g>
	<g>
		<path class="st40" d="M442.66,134.33c-1.36,5.43-9.48,15.9-17.05,18.87c-4.64,1.81-7.05-4.14-2.32-5.98
			c5.1-1.97,12.48-10.62,13.56-14.87L442.66,134.33z"/>
		<path class="st40" d="M432.3,126.14l1.48,9.29c0.26,1.65,1.68,2.8,3.17,2.55c1.48-0.24,2.47-1.77,2.21-3.42l-1.46-9.26
			c-0.26-1.65-1.67-2.81-3.17-2.58C433.04,122.96,432.04,124.48,432.3,126.14z"/>
		<path class="st40" d="M443.56,139.81l5.07-2.53c1.34-0.68,1.9-2.46,1.25-3.98c-0.65-1.51-2.27-2.2-3.61-1.52l-5.21,2.58
			L443.56,139.81z"/>
		<path class="st40" d="M444.4,136.59l4.97-6.42c0.95-1.24,0.8-3.14-0.34-4.25c-1.15-1.11-2.86-1.01-3.81,0.23l-3.73,4.76
			L444.4,136.59z"/>
		<path class="st40" d="M441.4,134.89l3.52-7.58c0.68-1.46,0.15-3.3-1.18-4.11c-1.34-0.82-2.98-0.29-3.66,1.16l-3.61,7.73
			L441.4,134.89z"/>
		
			<radialGradient id="SVGID_1_" cx="-663.5526" cy="572.7458" r="0.7899" gradientTransform="matrix(-9.0288 -25.2535 -28.5315 7.9915 10785.1689 -21198.0566)" gradientUnits="userSpaceOnUse">
			<stop  offset="0" style="stop-color:#8065E0"/>
			<stop  offset="0.8628" style="stop-color:#512BD4"/>
		</radialGradient>
		<path class="st41" d="M439.68,141.69c3.16,0.09,5.7-2.66,5.7-6.15c0-3.49-2.55-6.41-5.7-6.53c-3.17-0.12-5.75,2.63-5.75,6.15
			C433.93,138.67,436.51,141.6,439.68,141.69z"/>
	</g>
	<g>
		<polygon class="st21" points="447.83,159.88 488.82,144.85 476.96,104.95 435.24,118.91 		"/>
		<polygon class="st22" points="447.83,159.88 452.98,158.12 440.49,117.28 435.24,118.91 		"/>
		<polygon class="st36" points="434.01,121.95 479.25,106.73 476.14,96.28 430.7,111.19 		"/>
		<polygon class="st20" points="434.01,121.95 442.1,119.19 438.83,108.49 430.7,111.19 		"/>
	</g>
	
		<linearGradient id="SVGID_2_" gradientUnits="userSpaceOnUse" x1="398.4677" y1="340.5711" x2="383.7631" y2="315.5395" gradientTransform="matrix(1 0 0 -1 0 532)">
		<stop  offset="0" style="stop-color:#522CD5"/>
		<stop  offset="0.4397" style="stop-color:#8A6FE8"/>
	</linearGradient>
	<path class="st42" d="M386.85,218.32c3.85-4.52,10.92-14.26,13.05-26l-6.49-1.32c-1.94,10.69-8.5,19.13-11.6,22.63
		C381.56,213.92,383.89,216.61,386.85,218.32z"/>
	
		<linearGradient id="SVGID_3_" gradientUnits="userSpaceOnUse" x1="398.4677" y1="340.5711" x2="383.7631" y2="315.5395" gradientTransform="matrix(1 0 0 -1 0 532)">
		<stop  offset="0" style="stop-color:#522CD5"/>
		<stop  offset="0.4397" style="stop-color:#8A6FE8"/>
	</linearGradient>
	<path class="st43" d="M386.85,218.32c3.85-4.52,10.92-14.26,13.05-26l-6.49-1.32c-1.94,10.69-8.5,19.13-11.6,22.63
		C381.56,213.92,383.89,216.61,386.85,218.32z"/>
	<path class="st44" d="M381.86,213.58l3.96,3.71l-9.37,32.24l-14.36-13.03c-0.62-0.57-0.64-1.54-0.03-2.17L381.86,213.58z"/>
	
		<linearGradient id="SVGID_4_" gradientUnits="userSpaceOnUse" x1="386.3912" y1="316.3738" x2="377.9344" y2="279.7462" gradientTransform="matrix(1 0 0 -1 0 532)">
		<stop  offset="0" style="stop-color:#522CD5"/>
		<stop  offset="0.4397" style="stop-color:#8A6FE8"/>
	</linearGradient>
	<path class="st45" d="M385.13,246.65c0.3,1.19-0.49,2.27-1.29,3.13l-2.47,2.64c-0.44,0.47-1.18,0.52-1.63,0.11l-5.01-4.56
		c-0.52-0.47-0.54-1.29-0.02-1.83l2.46-2.85c0.94-0.99,1.39-1.75,1.01-3.36c-2.26-9.53-0.54-18.06,5.11-25.03l3.61,3.39
		C384.22,222.05,381.23,230.88,385.13,246.65z"/>
	
		<radialGradient id="SVGID_5_" cx="-566.0683" cy="672.4511" r="0.8182" gradientTransform="matrix(11.616 9.2668 10.4697 -10.2814 -78.3406 12399.3379)" gradientUnits="userSpaceOnUse">
		<stop  offset="0.034" style="stop-color:#522CD5"/>
		<stop  offset="0.9955" style="stop-color:#8A6FE8"/>
	</radialGradient>
	<path class="st46" d="M379.74,252.52c0.45,0.41,1.19,0.37,1.63-0.11l2.47-2.64c0.53-0.56,1.04-1.22,1.25-1.94l-6.85-6.28
		c-0.15,0.64-0.53,1.14-1.07,1.73l-2.46,2.85c-0.5,0.54-0.5,1.36,0.02,1.83L379.74,252.52z"/>
	
		<linearGradient id="SVGID_6_" gradientUnits="userSpaceOnUse" x1="402.8417" y1="339.7427" x2="408.3897" y2="312.0224" gradientTransform="matrix(1 0 0 -1 0 532)">
		<stop  offset="0" style="stop-color:#522CD5"/>
		<stop  offset="0.4397" style="stop-color:#8A6FE8"/>
	</linearGradient>
	<path class="st47" d="M409.9,219.72c0.76-5.97,1.4-18.07-3.08-28.19l-6.02,3.69c4.1,9.21,3.22,19.99,2.55,24.69
		C403.29,220.3,406.59,220.58,409.9,219.72z"/>
	
		<linearGradient id="SVGID_7_" gradientUnits="userSpaceOnUse" x1="402.8417" y1="339.7427" x2="408.3897" y2="312.0224" gradientTransform="matrix(1 0 0 -1 0 532)">
		<stop  offset="0" style="stop-color:#522CD5"/>
		<stop  offset="0.4397" style="stop-color:#8A6FE8"/>
	</linearGradient>
	<path class="st48" d="M409.9,219.72c0.76-5.97,1.4-18.07-3.08-28.19l-6.02,3.69c4.1,9.21,3.22,19.99,2.55,24.69
		C403.29,220.3,406.59,220.58,409.9,219.72z"/>
	<path class="st44" d="M403.35,219.84l5.16-0.13l9.21,29.38l-18.29,0.87c-0.8,0.04-1.31-0.63-1.16-1.5L403.35,219.84z"/>
	
		<linearGradient id="SVGID_8_" gradientUnits="userSpaceOnUse" x1="405.832" y1="312.5383" x2="421.3379" y2="282.6926" gradientTransform="matrix(1 0 0 -1 0 532)">
		<stop  offset="0" style="stop-color:#522CD5"/>
		<stop  offset="0.4397" style="stop-color:#8A6FE8"/>
	</linearGradient>
	<path class="st49" d="M423.23,241.05c0.86,0.63,0.77,1.93,0.57,3.09l-0.62,3.56c-0.11,0.63-0.68,1.18-1.26,1.2l-6.37,0.3
		c-0.66,0.03-1.09-0.53-0.97-1.26l0.5-3.71c0.24-1.35,0.22-2.19-0.93-3.06c-6.78-5.15-9.86-12.41-8.95-21.37l4.71-0.12
		C409.72,224.25,411.92,232.64,423.23,241.05z"/>
	
		<radialGradient id="SVGID_9_" cx="-549.8739" cy="606.7697" r="0.7955" gradientTransform="matrix(15.638 0 0 -13.8414 9018.96 8634.1816)" gradientUnits="userSpaceOnUse">
		<stop  offset="0.034" style="stop-color:#522CD5"/>
		<stop  offset="0.9955" style="stop-color:#8A6FE8"/>
	</radialGradient>
	<path class="st50" d="M421.92,248.9c0.58-0.03,1.14-0.57,1.26-1.2l0.62-3.56c0.13-0.76,0.21-1.58,0.01-2.23l-8.76,0.36
		c0.21,0.55,0.17,1.17,0.03,1.97l-0.5,3.71c-0.12,0.73,0.31,1.29,0.97,1.26L421.92,248.9L421.92,248.9z"/>
	
		<radialGradient id="SVGID_10_" cx="-616.6329" cy="597.6321" r="0.7309" gradientTransform="matrix(39.4874 -19.4677 -21.9946 -34.9506 37884.5547 9026.0957)" gradientUnits="userSpaceOnUse">
		<stop  offset="0.4744" style="stop-color:#A08BE8"/>
		<stop  offset="0.8618" style="stop-color:#8065E0"/>
	</radialGradient>
	<path class="st51" d="M432.91,160.59c-0.65-9.92-4.3-16.78-4.3-16.78l1.95-0.67l0.04-0.05c-7.99-16.01-25.64-24.55-42.43-19.13
		c-19.4,6.26-30,28.54-23.26,49.46c6.68,20.73,27.63,31.48,46.42,24.37c14.48-5.49,23.5-20.05,23.66-35.66
		C434.94,161.47,434.6,160.41,432.91,160.59z"/>
	
		<radialGradient id="SVGID_11_" cx="-608.9429" cy="592.021" r="0.7375" gradientTransform="matrix(30.3359 -14.9559 -16.8972 -26.8506 28897.9805 6941.9224)" gradientUnits="userSpaceOnUse">
		<stop  offset="0.2022" style="stop-color:#E1DFDD"/>
		<stop  offset="0.7337" style="stop-color:#FFFFFF"/>
	</radialGradient>
	<path class="st52" d="M432.91,160.59c-0.64-9.81-4.2-16.61-4.29-16.77l-15.3,5.22c0,0-2.26,0.52-1.58,2.7
		c0.68,2.19,2.68,8.34,4.8,15.14C416.97,168.29,432.95,161.99,432.91,160.59z"/>
	<path class="st28" d="M432.91,160.55c-0.03-0.37-0.06-0.74-0.09-1.11c-0.16-1.84-0.43-3.57-0.75-5.16
		c-0.75-0.05-1.36,0.38-1.92,1.25c-0.76,1.2-4.59,7.65-4.59,7.65L432.91,160.55z"/>
	<path class="st53" d="M434.99,162.57c0,0,0.31-2.24-2.07-1.99c0-0.01,0-0.02,0-0.03l-14.63,5.18c-0.79,0.29-1.97,0.13-2.31-0.67
		c0.19,0.6,0.37,1.21,0.56,1.82c0.4,1.27,1.46,1.63,2.27,1.46c0.08-0.02,0.16-0.04,0.24-0.06l2.31-0.84L434.99,162.57z"/>
	<path class="st54" d="M434.27,169.34l-58.36,21.31c2.14,1.95,4.49,3.62,6.97,4.98l48.95-18.12
		C432.92,174.9,433.74,172.17,434.27,169.34z"/>
	<path class="st53" d="M430.85,179.67c1.92-3.9,3.2-8.16,3.79-12.58l-6.89,2.51L430.85,179.67z"/>
	<path class="st40" d="M390,121.78l-6.72,2.11l-1.36-7.79l4.85-1.49L390,121.78z"/>
	
		<radialGradient id="SVGID_12_" cx="-490.3206" cy="504.5511" r="0.7237" gradientTransform="matrix(6.8366 -3.3705 -3.808 -6.0511 5660.125 1525.1595)" gradientUnits="userSpaceOnUse">
		<stop  offset="0" style="stop-color:#8065E0"/>
		<stop  offset="0.8628" style="stop-color:#512BD4"/>
	</radialGradient>
	<path class="st55" d="M393.95,125.51c0.3-0.09,0.45-0.45,0.33-0.77c-1.4-3.32-4.92-5.16-8.2-4.14c-3.29,1.03-5.19,4.58-4.48,8.15
		c0.07,0.34,0.4,0.55,0.71,0.45L393.95,125.51z"/>
	<path class="st53" d="M424.97,159.87c1.43-0.47,1.98-3,1.23-5.65c-0.76-2.65-2.53-4.43-3.97-3.97c-1.44,0.46-2,3-1.23,5.66
		C421.75,158.57,423.53,160.34,424.97,159.87z"/>
	<path class="st56" d="M422.8,152.53c-0.63,1.36-0.12,3.05,1.13,3.77c0.86,0.49,1.85,0.4,2.59-0.15c-0.03-0.62-0.14-1.27-0.33-1.94
		c-0.37-1.3-0.98-2.39-1.69-3.11C423.79,151.27,423.15,151.76,422.8,152.53z"/>
	<path class="st54" d="M383.25,117.07c2.83,0.13,5.12-2.21,5.12-5.23s-2.29-5.58-5.12-5.73c-2.85-0.15-5.16,2.19-5.16,5.23
		S380.41,116.94,383.25,117.07z"/>
	<g>
		
			<linearGradient id="SVGID_13_" gradientUnits="userSpaceOnUse" x1="402.0251" y1="380.5413" x2="441.0121" y2="356.0341" gradientTransform="matrix(1 0 0 -1 0 532)">
			<stop  offset="0.3344" style="stop-color:#9780E6"/>
			<stop  offset="0.8488" style="stop-color:#8A6FE8"/>
		</linearGradient>
		<path class="st57" d="M446.6,161.34l-4.69-4.81c-4.95,5.51-9.6,10.28-14.75,12.46c-10.37,4.39-21.36-4.45-24.28-7.11l-5.29,6.57
			C406.76,174.65,424.5,189.05,446.6,161.34z"/>
		<path class="st40" d="M444.99,154.97l0.44-6.69c0.11-1.78-1.15-3.26-2.81-3.31c-1.66-0.04-3.09,1.36-3.2,3.16l-0.45,6.89
			L444.99,154.97z"/>
		
			<radialGradient id="SVGID_14_" cx="-551.1921" cy="572.4195" r="0.7281" gradientTransform="matrix(13.6968 -4.1559 -4.6954 -12.1231 10635.4805 4809.7695)" gradientUnits="userSpaceOnUse">
			<stop  offset="0" style="stop-color:#8065E0"/>
			<stop  offset="0.8628" style="stop-color:#512BD4"/>
		</radialGradient>
		<path class="st58" d="M399.01,170.97c3.65,0.03,6.59-3.12,6.59-7.04c0-3.92-2.94-7.15-6.59-7.22c-3.67-0.07-6.65,3.09-6.65,7.04
			S395.34,170.94,399.01,170.97z"/>
		<path class="st40" d="M444.82,165.27l5.93-2.31c1.56-0.62,2.38-2.46,1.82-4.09c-0.56-1.64-2.28-2.46-3.86-1.85l-6.09,2.35
			L444.82,165.27z"/>
		<path class="st40" d="M446.6,158.16l3.71-5.59c0.98-1.49,0.73-3.53-0.55-4.56c-1.29-1.03-3.13-0.66-4.11,0.84l-3.83,5.74
			L446.6,158.16z"/>
		<path class="st40" d="M447.11,161.42l5.09-4.03c1.34-1.08,1.66-3.09,0.72-4.49c-0.95-1.41-2.8-1.67-4.15-0.6l-5.24,4.13
			L447.11,161.42z"/>
		
			<radialGradient id="SVGID_15_" cx="-714.0898" cy="668.941" r="0.7488" gradientTransform="matrix(-15.0626 6.8256 7.1969 12.4422 -15129.6582 -3293.1379)" gradientUnits="userSpaceOnUse">
			<stop  offset="0" style="stop-color:#8065E0"/>
			<stop  offset="0.8628" style="stop-color:#512BD4"/>
		</radialGradient>
		<path class="st59" d="M437.02,157.06c1.22-3.55,4.86-5.48,8.14-4.32c3.26,1.16,4.92,4.93,3.73,8.46c-1.2,3.54-4.81,5.49-8.1,4.36
			C437.5,164.43,435.81,160.62,437.02,157.06z"/>
	</g>
	<path class="st38" d="M137.74,218.14l-5.72,0.15l0,0.06c-8.96,0.81-16.16,10.09-16.16,21.25c0,11.54,7.68,20.49,17.05,19.99
		l4.82-0.25V218.14z"/>
	<path class="st38" d="M256.24,215.09l-4.87,0.13l0,0.05c-7.63,0.73-13.75,9.27-13.75,19.57c0,10.64,6.54,18.92,14.52,18.5
		l4.11-0.22V215.09z"/>
	<path class="st38" d="M286.34,214.31l-4.67,0.12l0,0.05c-7.31,0.71-13.17,9.07-13.17,19.14c0,10.41,6.26,18.52,13.91,18.12
		l3.94-0.21V214.31z"/>
	<path class="st22" d="M60.36,198.15c0,0,0.07-1.11,0.14-2.37c0.41-7.2,21.96-13.91,25.18-22.05c4.53-11.46,8.8-29.99,13.08-42.4
		c1.08-3.13,4-5.17,7.31-5.12l43.24-1.05c3.17,0.04,11.93,2.57,11.93,5.85l6.1,95.97l-106.41-4.92L60.36,198.15z"/>
	<path class="st16" d="M95.67,141.79c-3.43,11.42-6.7,23.63-9.99,31.95c-0.11,0.28-0.28,0.55-0.43,0.82l33.35,0.08
		c2.28,0.01,4.31-1.45,5.06-3.64l9.06-26.37c0.51-1.48-0.57-3.07-2.12-3.11L95.67,141.79z"/>
	<path class="st20" d="M316.62,204.85l-136.5,2.65v-75.9c0-3.25-2.53-5.95-5.62-5.99l-25.1-0.33c-3.13-0.04-5.9,1.95-6.92,4.99
		c-4.05,12.08-9.12,32.43-13.41,43.58c-3.04,7.92-22.61,14.53-23.82,21.44c-1.21,6.92,0,21.57,0,21.57l9.75,15.29l65.11-4.82v-3.87
		l136.5-4.11V204.85z"/>
	<path class="st16" d="M139.26,176.67l2.59,0c0.77,0,1.51-0.24,2.14-0.69l5.72-4.13c0.62-0.45,1.36-0.69,2.12-0.68l16.6,0.08
		c1.99,0.01,3.6-1.68,3.6-3.76v-23.14c0-2.09-1.61-3.82-3.6-3.87l-20.37-0.51c-1.62-0.04-3.06,1.02-3.55,2.61l-8.84,29.07
		C134.92,174.14,136.73,176.67,139.26,176.67z"/>
	<path class="st34" d="M168.73,167.46v-23.19c0-2.09-1.62-3.83-3.62-3.88l-17.05-0.43c-1.63-0.04-3.06,1.02-3.55,2.61l-8.84,29.07
		c-0.71,2.33,0.84,4.66,3.11,4.97c0.63-0.07,1.25-0.26,1.78-0.64l5.75-4.14c0.62-0.45,1.37-0.69,2.13-0.68l3.39,0.02l13.28,0.06
		C167.11,171.24,168.73,169.56,168.73,167.46z"/>
	<g>
		<path class="st37" d="M107.91,195.41l-45.26,0.49c-1.27,0.01-2.29,1.03-2.29,2.27l0.29,12.08l44.35-0.87v-1.86
			c0-2.19-0.73-3.95,1.44-3.98l1.48-0.02c1.19-0.02,2.16-1.01,2.16-2.21v-3.73C110.07,196.36,109.1,195.4,107.91,195.41z"/>
		<polygon class="st3" points="92.61,201.3 102.24,201.16 102.24,197.64 92.61,197.76 		"/>
		<polygon class="st3" points="63.8,201.72 73.79,201.57 73.79,197.99 63.8,198.11 		"/>
	</g>
	<g>
		<path class="st38" d="M115.04,239.6c-20.63,0.68-46.03-0.01-54.73,0.37c-2.12,0.09-3.93-1.33-4.29-3.36l-1.33-23
			c-0.38-2.11,1.29-4.08,3.49-4.12l67.09-1.29c2.98-0.06,4.37,3.6,2.22,5.75c-4,4-7.71,10.57-8.11,21.22
			C119.28,237.54,117.39,239.52,115.04,239.6z"/>
		<path class="st39" d="M91.2,231.3l-20.35,0.06c-1.64,0.05-2.97-1.21-2.97-2.83l-0.83-11.83c0-1.62,1.33-2.96,2.97-3l20.88-0.45
			c1.59-0.04,2.88,1.23,2.88,2.82l0.3,12.25C94.09,229.91,92.8,231.25,91.2,231.3z"/>
	</g>
	<polygon class="st38" points="312.58,219.5 147.11,224.48 147.11,232.38 312.58,226.55 	"/>
	<g>
		<path class="st39" d="M299.9,232.39c0,10.18-6.04,18.75-13.56,19.14c-7.6,0.4-13.83-7.69-13.83-18.07
			c0-10.38,6.22-18.96,13.83-19.16C293.86,214.11,299.9,222.21,299.9,232.39z"/>
		<path class="st60" d="M294.06,232.62c0,5.8-3.45,10.66-7.72,10.86c-4.3,0.2-7.81-4.39-7.81-10.25s3.51-10.73,7.81-10.86
			C290.61,222.23,294.06,226.82,294.06,232.62z"/>
		<path class="st37" d="M286.34,224.55c-0.34,0.01-0.66,0.09-0.98,0.17c2.93,0.54,5.16,3.89,5.16,8.04c0,4.15-2.23,7.67-5.16,8.44
			c0.32,0.06,0.65,0.11,0.98,0.09c3.39-0.15,6.13-4.01,6.13-8.61C292.47,228.08,289.73,224.44,286.34,224.55z"/>
	</g>
	<g>
		<path class="st39" d="M270.39,233.55c0,10.4-6.3,19.16-14.15,19.57c-7.94,0.42-14.43-7.84-14.43-18.45s6.5-19.38,14.43-19.58
			C264.09,214.88,270.39,223.15,270.39,233.55z"/>
		<path class="st60" d="M264.3,233.79c0,5.92-3.6,10.89-8.06,11.1c-4.49,0.21-8.15-4.48-8.15-10.47c0-5.99,3.66-10.96,8.15-11.1
			C260.71,223.17,264.3,227.86,264.3,233.79z"/>
		<path class="st37" d="M256.24,225.55c-0.35,0.01-0.69,0.09-1.03,0.17c3.06,0.55,5.39,3.97,5.39,8.21s-2.33,7.84-5.39,8.63
			c0.34,0.06,0.67,0.11,1.03,0.09c3.54-0.16,6.4-4.1,6.4-8.8C262.64,229.15,259.78,225.43,256.24,225.55z"/>
	</g>
	<g>
		<path class="st39" d="M154.33,238.09c0,11.25-7.38,20.76-16.58,21.25c-9.31,0.49-16.95-8.43-16.95-19.93
			c0-11.5,7.63-21.02,16.95-21.26C146.95,217.91,154.33,226.84,154.33,238.09z"/>
		<path class="st60" d="M147.19,238.37c0,6.41-4.22,11.81-9.45,12.05c-5.27,0.25-9.57-4.82-9.57-11.31s4.3-11.89,9.57-12.06
			C142.98,226.89,147.19,231.96,147.19,238.37z"/>
		<path class="st37" d="M137.74,229.48c-0.41,0.01-0.81,0.1-1.2,0.19c3.59,0.59,6.32,4.28,6.32,8.87c0,4.59-2.73,8.5-6.32,9.37
			c0.39,0.06,0.79,0.11,1.2,0.09c4.15-0.19,7.5-4.47,7.5-9.56C145.25,233.36,141.9,229.34,137.74,229.48z"/>
	</g>
	<g>
		<polygon class="st38" points="268.21,186.97 263.84,187.04 263.46,138.44 267.83,138.52 		"/>
	</g>
	<path class="st61" d="M274.61,187.86l-11,0.09c-0.79,0.01-1.4-0.77-1.27-1.64l1.44-10.22l4.2-0.19c0,0,3.98,1.1,6.08,3.73
		c1.24,1.55,1.56,5.11,1.64,6.96C275.72,187.22,275.17,187.85,274.61,187.86z"/>
	<g>
		<polygon class="st38" points="255.98,186.85 251.54,186.92 251.15,137.9 255.6,137.98 		"/>
	</g>
	<path class="st61" d="M244.79,188.05l11.44-0.13c0.8-0.01,1.4-0.98,1.26-1.86l-1.61-10.23l-4.27-0.12c0,0-4.08,1.19-6.21,3.9
		c-1.27,1.62-1.55,5.26-1.6,7.15C243.77,187.42,244.2,188.06,244.79,188.05z"/>
	<path class="st62" d="M281.48,86.28l-45.69-2.55c-0.98-0.05-1.76,0.77-1.75,1.84l0.07,8.54c0.01,1.07,0.81,1.98,1.78,2.03
		l45.68,2.16c0.91,0.04,1.65-0.76,1.64-1.8l-0.06-8.25C283.14,87.21,282.4,86.33,281.48,86.28z"/>
	<path class="st61" d="M233.74,93.7c-0.75-0.04-1.38,0.55-1.47,1.37c-0.34,3.14-0.51,6.39-0.49,9.74
		c0.12,15.41,5.81,29.26,12.63,38.25c2.43,3.2,8.38,3.08,14.43,3.29c6.48,0.22,13.05,0.51,15.51-2.79
		c6.35-8.52,11.43-21.66,11.32-36.53c-0.02-3.22-0.23-6.37-0.59-9.42c-0.1-0.79-0.69-1.42-1.39-1.45L233.74,93.7z"/>
	<g>
		<path class="st19" d="M255.08,59.54l-7.44-13.96c-0.34-0.63-1.17-0.36-1.07,0.34l1.9,13.14c0.1,0.66,0.66,1.15,1.25,1.09
			L255.08,59.54z"/>
		<path class="st19" d="M260.31,59.01l3.12-14.87c0.14-0.67,1.01-0.55,1.12,0.14l1.94,12.97c0.1,0.65-0.29,1.23-0.87,1.29
			L260.31,59.01z"/>
		<path class="st61" d="M237.47,81.84l45.18-5.22c0.72-0.08,1.11-0.96,0.76-1.71c-6.59-14.26-16.77-23.45-26.92-22.47
			c-10.3,0.99-17.86,12.18-20.32,27.88C236.03,81.15,236.7,81.93,237.47,81.84z"/>
		<path class="st3" d="M266.41,66.1c0.68,4.67-2.1,8.83-6.25,9.3c-4.17,0.47-8.13-2.97-8.83-7.69c-0.7-4.73,2.14-8.9,6.33-9.32
			C261.81,57.97,265.72,61.42,266.41,66.1z"/>
		<path class="st38" d="M264.34,66.32c0.5,3.38-1.53,6.39-4.52,6.73c-3.01,0.34-5.87-2.15-6.37-5.56c-0.5-3.41,1.55-6.43,4.57-6.74
			C261.01,60.44,263.84,62.94,264.34,66.32z"/>
	</g>
	<path class="st38" d="M219.86,102.41c0.25-3.34,3.84-4.97,12.23-5.49c-0.14,1.53-0.23,3.56-0.25,4.89
		c-4.48,0.34-6.38,0.96-7.17,1.35c0.93,0.97,3.94,3.34,13.33,7.24c6.52,2.71,12.79,4.77,12.85,4.79l-1.07,4.58
		c-0.29-0.09-7.22-2.35-14.31-5.33C221.43,108.52,219.66,105.15,219.86,102.41z"/>
	<g>
		<polygon class="st27" points="250.9,133.93 301.52,135.5 301.52,95.26 259.81,92.74 250.9,92.21 		"/>
		<polygon class="st14" points="250.9,133.93 259.9,134.21 259.9,92.75 250.9,92.21 		"/>
		<polygon class="st32" points="258.96,92.81 303.21,95.36 303.21,84.83 261.73,82.02 		"/>
		<polygon class="st33" points="249.65,94.38 261.86,92.87 261.86,82.02 249.65,83.96 		"/>
	</g>
	<g>
		<polygon class="st62" points="246.88,116.04 250.9,112.12 250.9,117.7 251.75,121.91 259.96,125.25 256.6,128.2 248.54,124.95 		
			"/>
	</g>
	<g>
		<polygon class="st62" points="303.8,119.82 298.62,125.96 294.2,124.6 292.97,120.11 297.46,121.5 299.91,118.61 301.57,111.41 		
			"/>
	</g>
	<polygon class="st37" points="161.95,179.43 171.37,179.43 171.37,176.74 161.95,176.73 	"/>
</g>
</svg>
