<?xml version="1.0" encoding="utf-8"?>
<!-- Generator: Adobe Illustrator 24.3.0, SVG Export Plug-In . SVG Version: 6.00 Build 0)  -->
<svg version="1.1" id="Layer_1" xmlns="http://www.w3.org/2000/svg" xmlns:xlink="http://www.w3.org/1999/xlink" x="0px" y="0px"
	 viewBox="0 0 636 300" style="enable-background:new 0 0 636 300;" xml:space="preserve">
<style type="text/css">
	.st0{fill:url(#SVGID_1_);}
	.st1{fill:url(#SVGID_2_);}
	.st2{fill:url(#SVGID_3_);}
	.st3{fill:url(#SVGID_4_);}
	.st4{fill:url(#SVGID_5_);}
	.st5{fill:url(#SVGID_6_);}
	.st6{fill:url(#SVGID_7_);}
	.st7{fill:url(#SVGID_8_);}
	.st8{fill:url(#SVGID_9_);}
	.st9{fill:url(#SVGID_10_);}
	.st10{fill:url(#SVGID_11_);}
	.st11{fill:url(#SVGID_12_);}
	.st12{fill:url(#SVGID_13_);}
	.st13{fill:#522CD5;}
	.st14{fill:url(#SVGID_14_);}
	.st15{fill:url(#SVGID_15_);}
	.st16{fill:url(#SVGID_16_);}
	.st17{fill:url(#SVGID_17_);}
	.st18{fill:url(#SVGID_18_);}
	.st19{fill:url(#SVGID_19_);}
	.st20{fill:#D8CFF7;}
	.st21{fill:url(#SVGID_20_);}
	.st22{fill:url(#SVGID_21_);}
	.st23{fill:#512BD4;}
	.st24{fill:#FFFFFF;}
	.st25{fill:#D0C5F3;}
	.st26{fill:url(#SVGID_22_);}
	.st27{fill:url(#SVGID_23_);}
	.st28{fill:url(#SVGID_24_);}
	.st29{fill:#505050;}
	.st30{fill:#F7B548;}
	.st31{fill:#969696;}
	.st32{fill:#FFD590;}
	.st33{fill:url(#SVGID_25_);}
	.st34{fill:url(#SVGID_26_);}
	.st35{fill:url(#SVGID_27_);}
	.st36{fill:url(#SVGID_28_);}
	.st37{fill:url(#SVGID_29_);}
	.st38{fill:url(#SVGID_30_);}
	.st39{fill:url(#SVGID_31_);}
	.st40{fill:url(#SVGID_32_);}
	.st41{fill:url(#SVGID_33_);}
	.st42{fill:url(#SVGID_34_);}
	.st43{fill:url(#SVGID_35_);}
	.st44{fill:url(#SVGID_36_);}
	.st45{fill:url(#SVGID_37_);}
	.st46{fill:url(#SVGID_38_);}
	.st47{fill:url(#SVGID_39_);}
	.st48{fill:#72ACF1;}
	.st49{fill:#A7CBF6;}
	.st50{fill:#7BDDEF;}
	.st51{fill:#28C2D1;}
	.st52{fill:#C7E0F4;}
	.st53{fill:url(#SVGID_40_);}
	.st54{fill:url(#SVGID_41_);}
	.st55{fill:url(#SVGID_42_);}
	.st56{fill:url(#SVGID_43_);}
	.st57{fill:#FEFFFF;}
	.st58{fill:#B3AFAB;}
	.st59{fill:#77D672;}
	.st60{fill:url(#SVGID_44_);}
	.st61{fill:url(#SVGID_45_);}
	.st62{fill:url(#SVGID_46_);}
	.st63{fill:#E5E5E1;}
	.st64{fill:url(#SVGID_47_);}
	.st65{fill:url(#SVGID_48_);}
	.st66{fill:url(#SVGID_49_);}
	.st67{fill:url(#SVGID_50_);}
	.st68{fill:url(#SVGID_51_);}
	.st69{fill:#605D5A;}
	.st70{fill:url(#SVGID_52_);}
	.st71{fill:url(#SVGID_53_);}
	.st72{fill:url(#SVGID_54_);}
	.st73{fill:url(#SVGID_55_);}
	.st74{fill:url(#SVGID_56_);}
	.st75{fill:url(#SVGID_57_);}
	.st76{fill:url(#SVGID_58_);}
	.st77{fill:url(#SVGID_59_);}
	.st78{fill:#33312D;}
	.st79{fill:#A08BE8;}
	.st80{fill:#8065E0;}
</style>
<g>
	<g>
		<linearGradient id="SVGID_1_" gradientUnits="userSpaceOnUse" x1="171.2858" y1="177.1253" x2="258.3689" y2="138.6086">
			<stop  offset="0.2495" style="stop-color:#967FE6"/>
			<stop  offset="1" style="stop-color:#8A6FE8"/>
		</linearGradient>
		<path class="st0" d="M205.88,176.35c-14,0-27.56-3.92-40.13-11.72l6.11-9.85c43.51,27.01,84.82-9.65,85.23-10.02l7.78,8.59
			c-0.49,0.44-12.14,10.89-30.06,17.57C225.09,174.55,215.38,176.35,205.88,176.35z"/>
	</g>
	<g>
		<linearGradient id="SVGID_2_" gradientUnits="userSpaceOnUse" x1="259.6391" y1="133.1404" x2="171.9056" y2="107.5844">
			<stop  offset="0.2495" style="stop-color:#967FE6"/>
			<stop  offset="1" style="stop-color:#8A6FE8"/>
		</linearGradient>
		<path class="st1" d="M245.68,144.06c-15.5,0-44.67-5.92-71.56-44.1l9.48-6.67c33.24,47.21,68.73,38.77,70.22,38.39l2.98,11.2
			C256.27,143.02,252.17,144.06,245.68,144.06z"/>
	</g>
	
		<linearGradient id="SVGID_3_" gradientUnits="userSpaceOnUse" x1="366.1405" y1="25.9543" x2="417.2214" y2="25.9543" gradientTransform="matrix(1 0 0 -1 0 212)">
		<stop  offset="0.2495" style="stop-color:#967FE6"/>
		<stop  offset="1" style="stop-color:#8A6FE8"/>
	</linearGradient>
	<path class="st2" d="M374.22,204.12l-2.78-10.59c19.14-5.04,27.96-8.63,31.98-10.74c-4.64-1.27-14.87-3-37.27-3.89l0.44-10.93
		c41.48,1.65,49.78,5.98,50.59,13.35C417.94,188.4,411.15,194.4,374.22,204.12z"/>
	
		<linearGradient id="SVGID_4_" gradientUnits="userSpaceOnUse" x1="223.0831" y1="21.6014" x2="283.1647" y2="21.6014" gradientTransform="matrix(1 0 0 -1 0 212)">
		<stop  offset="0.2495" style="stop-color:#967FE6"/>
		<stop  offset="1" style="stop-color:#8A6FE8"/>
	</linearGradient>
	<path class="st3" d="M282.8,212.68c-8.58-0.28-21.71-1.34-32.88-3.45c-17.15-3.25-25.38-7.95-26.67-15.22
		c-1.57-8.86,7.59-16.61,30.6-25.9l4.1,10.15c-20.06,8.1-23.32,12.8-23.83,13.87c0.67,0.79,4.17,3.92,19.32,6.61
		c10.25,1.83,22.07,2.74,29.72,2.99L282.8,212.68z"/>
	
		<linearGradient id="SVGID_5_" gradientUnits="userSpaceOnUse" x1="231.1091" y1="154.2404" x2="265.2776" y2="98.115" gradientTransform="matrix(1 0 0 -1 0 212)">
		<stop  offset="0.2495" style="stop-color:#967FE6"/>
		<stop  offset="1" style="stop-color:#8A6FE8"/>
	</linearGradient>
	<path class="st4" d="M248.8,123.91c-0.81-0.71-20-19.25-19.24-41.4c0.44-12.79,5.73-25.27,18.79-35.25l7.17,9.38
		c-10.1,7.71-13.79,18.65-14.11,27.71c-0.61,16.54,15.04,30.56,15.2,30.7L248.8,123.91z"/>
	
		<linearGradient id="SVGID_6_" gradientUnits="userSpaceOnUse" x1="368.4831" y1="95.4351" x2="416.4372" y2="123.2761" gradientTransform="matrix(1 0 0 -1 0 212)">
		<stop  offset="0.2495" style="stop-color:#967FE6"/>
		<stop  offset="1" style="stop-color:#8A6FE8"/>
	</linearGradient>
	<path class="st5" d="M374.91,127.64l0.89-11.89c11.01,0.82,19.2-1.92,23.08-7.71c4.61-6.88,3.39-18.15-3.43-31.75l10.66-5.34
		c11.32,22.56,7.7,36.24,2.68,43.72C402.41,124.18,390.38,128.8,374.91,127.64z"/>
	
		<linearGradient id="SVGID_7_" gradientUnits="userSpaceOnUse" x1="376.9404" y1="69.4607" x2="448.5336" y2="104.2657" gradientTransform="matrix(1 0 0 -1 0 212)">
		<stop  offset="0.2495" style="stop-color:#967FE6"/>
		<stop  offset="1" style="stop-color:#8A6FE8"/>
	</linearGradient>
	<path class="st6" d="M446.35,103.24L435,99.45c-5.51,12.81-12.96,22.77-22.24,28.27c-8.16,4.83-21.6,6.95-32.69,6.13l-1.94,11.14
		C398.76,146.52,428.65,143.25,446.35,103.24z"/>
	
		<linearGradient id="SVGID_8_" gradientUnits="userSpaceOnUse" x1="375.0138" y1="49.6313" x2="453.2116" y2="49.6313" gradientTransform="matrix(1 0 0 -1 0 212)">
		<stop  offset="0.2495" style="stop-color:#967FE6"/>
		<stop  offset="1" style="stop-color:#8A6FE8"/>
	</linearGradient>
	<path class="st7" d="M451.56,173.71l-76.55-11.56l1.67-11.13l76.52,11.56L451.56,173.71z"/>
	
		<radialGradient id="SVGID_9_" cx="-8.0838" cy="490.9476" r="1.2878" gradientTransform="matrix(-8.6754 0.2708 0.2708 8.6754 167.3821 -4140.0454)" gradientUnits="userSpaceOnUse">
		<stop  offset="0" style="stop-color:#8065E0"/>
		<stop  offset="1" style="stop-color:#512BD4"/>
	</radialGradient>
	<path class="st8" d="M368.69,134.31c-6.17,0-11.18-5.01-11.18-11.18c0-6.17,5.01-11.18,11.18-11.18c6.17,0,11.18,5.01,11.18,11.18
		C379.87,129.31,374.86,134.31,368.69,134.31z"/>
	
		<radialGradient id="SVGID_10_" cx="-8.1253" cy="491.3547" r="1.2878" gradientTransform="matrix(-8.6754 0.2708 0.2708 8.6754 169.0161 -4127.812)" gradientUnits="userSpaceOnUse">
		<stop  offset="0" style="stop-color:#8065E0"/>
		<stop  offset="1" style="stop-color:#512BD4"/>
	</radialGradient>
	<path class="st9" d="M370.79,150.06c-6.17,0-11.18-5.01-11.18-11.18c0-6.17,5.01-11.18,11.18-11.18c6.17,0,11.18,5.01,11.18,11.18
		C381.97,145.06,376.96,150.06,370.79,150.06z"/>
	
		<radialGradient id="SVGID_11_" cx="-8.0764" cy="491.7536" r="1.2878" gradientTransform="matrix(-8.6754 0.2708 0.2708 8.6754 167.9171 -4115.7446)" gradientUnits="userSpaceOnUse">
		<stop  offset="0" style="stop-color:#8065E0"/>
		<stop  offset="1" style="stop-color:#512BD4"/>
	</radialGradient>
	<path class="st10" d="M369.37,165.6c-6.17,0-11.18-5.01-11.18-11.18c0-6.17,5.01-11.18,11.18-11.18c6.17,0,11.18,5.01,11.18,11.18
		C380.55,160.61,375.55,165.6,369.37,165.6z"/>
	
		<radialGradient id="SVGID_12_" cx="-27.3296" cy="466.6613" r="1.2878" gradientTransform="matrix(-6.153 -6.1226 -6.1226 6.153 3056.8789 -2871.7905)" gradientUnits="userSpaceOnUse">
		<stop  offset="0" style="stop-color:#8065E0"/>
		<stop  offset="1" style="stop-color:#512BD4"/>
	</radialGradient>
	<path class="st11" d="M362.19,181.16c-6.17,0-11.18-5.01-11.18-11.18c0-6.17,5.01-11.18,11.18-11.18s11.18,5.01,11.18,11.18
		C373.37,176.16,368.37,181.16,362.19,181.16z"/>
	
		<linearGradient id="SVGID_13_" gradientUnits="userSpaceOnUse" x1="329.0642" y1="24.0541" x2="338.7204" y2="-21.9347" gradientTransform="matrix(1 0 0 -1 0 212)">
		<stop  offset="0.252" style="stop-color:#522CD5"/>
		<stop  offset="0.5558" style="stop-color:#8A6FE8"/>
	</linearGradient>
	<path class="st12" d="M343.6,232.91c0.1-9.66-1.26-29.25-11.23-45.65l-9.75,5.91c9.04,14.89,9.72,32.25,9.5,39.83
		C332.12,233.63,337.96,234.19,343.6,232.91z"/>
	<path class="st13" d="M332.14,232.89l9.03-0.04l8.42,48.26l-18.11,0.08c-1.38,0-2.42-1.11-2.33-2.49L332.14,232.89z"/>
	
		<linearGradient id="SVGID_14_" gradientUnits="userSpaceOnUse" x1="334.8933" y1="-20.5695" x2="363.5788" y2="-71.7109" gradientTransform="matrix(1 0 0 -1 0 212)">
		<stop  offset="0" style="stop-color:#522CD5"/>
		<stop  offset="0.4397" style="stop-color:#8A6FE8"/>
	</linearGradient>
	<path class="st14" d="M368.9,268.41c1.56,1.24,1.53,3.03,1.42,4.91l-0.37,5.78c-0.06,1.03-0.97,1.88-2.01,1.89l-18.87,0.09
		c-1.17,0-2.06-0.94-1.98-2.11l0.13-5.99c0.14-2.18-0.59-2.97-2.28-5.02c-2.88-3.5-11.42-22.61-10.61-35.07l9.3-0.04
		C344.22,240.23,353.97,256.64,368.9,268.41z"/>
	
		<radialGradient id="SVGID_15_" cx="23.6021" cy="436.1519" r="1.2878" gradientTransform="matrix(15.4392 -0.0703 -0.0703 -15.4392 24.0295 6995.5698)" gradientUnits="userSpaceOnUse">
		<stop  offset="0.034" style="stop-color:#522CD5"/>
		<stop  offset="0.9955" style="stop-color:#8A6FE8"/>
	</radialGradient>
	<path class="st15" d="M370.31,273.32c0.09-1.31,0.12-2.58-0.41-3.64l-23.54,0.1c0.66,0.95,0.93,1.79,0.84,3.19l-0.13,5.99
		c-0.08,1.17,0.81,2.12,1.98,2.11l18.87-0.09c1.03,0,1.93-0.85,2.01-1.89L370.31,273.32z"/>
	
		<linearGradient id="SVGID_16_" gradientUnits="userSpaceOnUse" x1="310.1258" y1="23.968" x2="300.886" y2="-22.1097" gradientTransform="matrix(1 0 0 -1 0 212)">
		<stop  offset="0.258" style="stop-color:#522CD5"/>
		<stop  offset="0.5602" style="stop-color:#8A6FE8"/>
	</linearGradient>
	<path class="st16" d="M295.99,233.12c-0.19-9.65,1-29.26,10.82-45.76l9.8,5.83c-8.9,14.96-9.43,32.34-9.14,39.91
		C307.48,233.73,301.65,234.36,295.99,233.12z"/>
	
		<linearGradient id="SVGID_17_" gradientUnits="userSpaceOnUse" x1="301.7692" y1="-21.0449" x2="301.9894" y2="-69.3382" gradientTransform="matrix(1 0 0 -1 0 212)">
		<stop  offset="0" style="stop-color:#522CD5"/>
		<stop  offset="0.4397" style="stop-color:#8A6FE8"/>
	</linearGradient>
	<path class="st17" d="M286.13,272.03c-0.01-1.29,0.18-2.42,0.72-4.3c8.42-23.04,9.14-34.66,9.14-34.66l11.49-0.05
		c0,0,0.79,11.4,9.43,34.35c0.68,1.64,0.76,3.13,0.85,4.51l0.05,7.37c0,1.11-0.9,2.02-2.01,2.03h-0.55l-26.5,0.12h-0.55
		c-1.12,0-2.02-0.89-2.03-2.01L286.13,272.03z"/>
	
		<radialGradient id="SVGID_18_" cx="2.1471" cy="476.0157" r="1.2878" gradientTransform="matrix(-16.9264 0.0771 0.0771 16.9264 302.1596 -7797.1499)" gradientUnits="userSpaceOnUse">
		<stop  offset="0.034" style="stop-color:#522CD5"/>
		<stop  offset="0.9955" style="stop-color:#8A6FE8"/>
	</radialGradient>
	<path class="st18" d="M286.13,272.03c0-0.21,0-0.41,0.01-0.62c0.06-0.64,0.35-1.37,1.75-1.37l28.35-0.13
		c1.02,0.04,1.37,0.82,1.47,1.31c0.01,0.22,0.03,0.44,0.05,0.66l0.05,7.37c0,0.7-0.35,1.31-0.89,1.67
		c-0.32,0.22-0.71,0.35-1.12,0.35h-0.55l-26.5,0.12h-0.55c-0.55,0-1.07-0.22-1.43-0.58s-0.59-0.86-0.59-1.43L286.13,272.03z"/>
	
		<radialGradient id="SVGID_19_" cx="15.3802" cy="451.3958" r="1.2878" gradientTransform="matrix(50.8747 0 0 -50.8747 -463.2814 23063.834)" gradientUnits="userSpaceOnUse">
		<stop  offset="0.186" style="stop-color:#A08BE8"/>
		<stop  offset="0.7272" style="stop-color:#8065E0"/>
	</radialGradient>
	<path class="st19" d="M315.32,200.41c33.74,0,61.1-27.35,61.1-61.1c0-33.74-27.35-61.1-61.1-61.1c-33.74,0-61.1,27.35-61.1,61.1
		C254.23,173.06,281.58,200.41,315.32,200.41z"/>
	<path class="st20" d="M262.65,170.25h105.36c-2.37,4.02-5.18,7.74-8.37,11.1h-88.63C267.83,177.99,265.01,174.27,262.65,170.25z"/>
	
		<linearGradient id="SVGID_20_" gradientUnits="userSpaceOnUse" x1="309.3337" y1="143.1287" x2="321.1433" y2="143.1287" gradientTransform="matrix(1 0 0 -1 0 212)">
		<stop  offset="0.2495" style="stop-color:#967FE6"/>
		<stop  offset="1" style="stop-color:#8A6FE8"/>
	</linearGradient>
	<path class="st21" d="M321.14,74.94h-11.81L311,62.81h8.49L321.14,74.94z"/>
	
		<radialGradient id="SVGID_21_" cx="26.8559" cy="432.7443" r="1.2878" gradientTransform="matrix(11.5245 0 0 -11.5245 6.288 5061.417)" gradientUnits="userSpaceOnUse">
		<stop  offset="0" style="stop-color:#8065E0"/>
		<stop  offset="1" style="stop-color:#512BD4"/>
	</radialGradient>
	<path class="st22" d="M325.66,82.34c0.53,0,0.95-0.46,0.9-0.99c-0.63-5.6-5.37-9.97-11.15-9.97c-5.77,0-10.52,4.35-11.15,9.97
		c-0.06,0.53,0.36,0.99,0.9,0.99H325.66z"/>
	<path class="st23" d="M337.14,165.81h-19.72v19.72h19.72V165.81z"/>
	<path class="st24" d="M320.94,178.4c-0.14,0-0.26-0.05-0.36-0.14s-0.14-0.21-0.14-0.33s0.05-0.24,0.14-0.35
		c0.1-0.09,0.22-0.14,0.36-0.14s0.26,0.05,0.36,0.14c0.1,0.09,0.15,0.21,0.15,0.35c0,0.13-0.05,0.24-0.15,0.33
		C321.19,178.36,321.08,178.4,320.94,178.4z"/>
	<path class="st24" d="M326.5,178.33h-0.9l-2.38-3.76c-0.06-0.09-0.12-0.19-0.15-0.3h-0.03c0.01,0.12,0.03,0.35,0.03,0.71v3.36h-0.8
		v-5.13h0.97l2.31,3.67c0.1,0.15,0.15,0.26,0.19,0.31h0.01c-0.03-0.14-0.04-0.36-0.04-0.7v-3.3h0.8V178.33z"/>
	<path class="st24" d="M330.4,178.33h-2.81v-5.13h2.69v0.72h-1.87v1.46h1.71v0.72h-1.71v1.52h1.97v0.71H330.4z"/>
	<path class="st24" d="M334.4,173.92h-1.43v4.4h-0.82v-4.4h-1.43v-0.72h3.7v0.72H334.4z"/>
	<path class="st25" d="M315.39,65.31c4.65,0,8.41-3.77,8.41-8.41c0-4.64-3.76-8.41-8.41-8.41c-4.64,0-8.41,3.77-8.41,8.41
		C306.98,61.54,310.74,65.31,315.39,65.31z"/>
	
		<linearGradient id="SVGID_22_" gradientUnits="userSpaceOnUse" x1="254.021" y1="156.7099" x2="271.9059" y2="156.7099" gradientTransform="matrix(1 0 0 -1 0 212)">
		<stop  offset="0.2495" style="stop-color:#967FE6"/>
		<stop  offset="1" style="stop-color:#8A6FE8"/>
	</linearGradient>
	<path class="st26" d="M255,49.36l11.63,0.63c3.09,0.19,5.45,2.85,5.27,5.95c-0.19,3.09-2.85,5.45-5.95,5.27l-11.93-0.63L255,49.36z
		"/>
	
		<radialGradient id="SVGID_23_" cx="40.9689" cy="468.4706" r="1.2878" gradientTransform="matrix(1.4653 10.0577 10.0577 -1.4653 -4515.8984 326.3664)" gradientUnits="userSpaceOnUse">
		<stop  offset="0" style="stop-color:#8065E0"/>
		<stop  offset="1" style="stop-color:#512BD4"/>
	</radialGradient>
	<path class="st27" d="M252.66,61.57c6.44-0.88,10.95-6.8,10.07-13.24s-6.8-10.95-13.24-10.07c-6.44,0.88-10.95,6.8-10.07,13.24
		C240.29,57.94,246.22,62.44,252.66,61.57z"/>
	
		<linearGradient id="SVGID_24_" gradientUnits="userSpaceOnUse" x1="246.4354" y1="176.7553" x2="258.3881" y2="176.7553" gradientTransform="matrix(1 0 0 -1 0 212)">
		<stop  offset="0.2495" style="stop-color:#967FE6"/>
		<stop  offset="1" style="stop-color:#8A6FE8"/>
	</linearGradient>
	<path class="st28" d="M246.44,43.11l0.73-11.62c0.22-3.1,2.9-5.42,6-5.2c3.1,0.22,5.42,2.9,5.2,6l-0.76,11.91L246.44,43.11z"/>
	<path class="st25" d="M253.25,44.79l5.04-10.5c1.37-2.78,4.73-3.94,7.51-2.58c2.78,1.37,3.94,4.73,2.58,7.51l-5.16,10.75
		L253.25,44.79z"/>
	<path class="st29" d="M239.3,44.84l6.85,12.94c0.89,1.69,2.99,2.33,4.67,1.43l27.88-14.77c1.69-0.89,2.33-2.99,1.43-4.67
		l-6.85-12.93c-0.89-1.69-2.99-2.33-4.67-1.43l-27.87,14.77C239.06,41.07,238.41,43.15,239.3,44.84z"/>
	<path class="st30" d="M271.61,28.9c-0.09,0.08-0.19,0.15-0.27,0.26l-0.62,0.88c-0.46,0.66-0.53,1.52-0.15,2.23l3.72,7.03
		c0.37,0.71,1.12,1.15,1.92,1.13l1.07-0.03c0.13,0,0.24-0.04,0.36-0.08l0.54,1.02c0.26,0.48,0.06,1.07-0.4,1.33l-28.15,14.91
		c-0.48,0.26-1.07,0.06-1.33-0.4l-7.11-13.42c-0.26-0.48-0.06-1.07,0.4-1.33l28.17-14.93c0.48-0.26,1.07-0.06,1.33,0.4L271.61,28.9z
		"/>
	<path class="st31" d="M254.02,55.24l-4.38,2.32c-0.48,0.26-1.07,0.06-1.33-0.4l-7.11-13.42c-0.26-0.48-0.06-1.07,0.4-1.33
		l4.38-2.32L254.02,55.24z"/>
	<path class="st32" d="M269.06,42.72l0.63,1.2c0.39,0.73,1.3,1.02,2.03,0.63l0.91-0.48c0.73-0.39,1.02-1.3,0.63-2.03l-0.63-1.2
		c-0.39-0.73-1.3-1.02-2.03-0.63l-0.91,0.48C268.96,41.07,268.68,41.98,269.06,42.72z"/>
	<path class="st32" d="M266.6,38.05l0.63,1.2c0.39,0.73,1.3,1.02,2.03,0.63l0.91-0.48c0.73-0.39,1.02-1.3,0.63-2.03l-0.63-1.2
		c-0.39-0.73-1.3-1.02-2.03-0.63l-0.91,0.48C266.49,36.42,266.22,37.33,266.6,38.05z"/>
	<path class="st32" d="M264.74,45.01l0.63,1.2c0.39,0.73,1.3,1.02,2.03,0.63l0.91-0.48c0.73-0.39,1.02-1.3,0.63-2.03l-0.63-1.2
		c-0.39-0.73-1.3-1.02-2.03-0.63l-0.91,0.48C264.63,43.36,264.35,44.27,264.74,45.01z"/>
	<path class="st32" d="M262.28,40.35l0.63,1.2c0.39,0.73,1.3,1.02,2.03,0.63l0.91-0.48c0.73-0.39,1.02-1.3,0.63-2.03l-0.63-1.2
		c-0.39-0.73-1.3-1.02-2.03-0.63l-0.91,0.48C262.17,38.7,261.89,39.63,262.28,40.35z"/>
	<path class="st32" d="M260.42,47.3l0.63,1.2c0.39,0.73,1.3,1.02,2.03,0.63l0.91-0.48c0.73-0.39,1.02-1.3,0.63-2.03l-0.63-1.2
		c-0.39-0.73-1.3-1.02-2.03-0.63l-0.91,0.48C260.31,45.65,260.02,46.56,260.42,47.3z"/>
	<path class="st32" d="M257.95,42.64l0.63,1.2c0.39,0.73,1.3,1.02,2.03,0.63l0.91-0.48c0.73-0.39,1.02-1.3,0.63-2.03l-0.63-1.2
		c-0.39-0.73-1.3-1.02-2.03-0.63l-0.91,0.48C257.85,40.99,257.55,41.9,257.95,42.64z"/>
	<path class="st32" d="M264.13,33.4l0.63,1.2c0.39,0.73,1.3,1.02,2.03,0.63l0.91-0.48c0.73-0.39,1.02-1.3,0.63-2.03l-0.63-1.2
		c-0.39-0.73-1.3-1.02-2.03-0.63l-0.91,0.48C264.03,31.76,263.74,32.67,264.13,33.4z"/>
	<path class="st32" d="M259.8,35.7l0.63,1.2c0.39,0.73,1.3,1.02,2.03,0.63l0.91-0.48c0.73-0.39,1.02-1.3,0.63-2.03l-0.63-1.2
		c-0.39-0.73-1.3-1.02-2.03-0.63l-0.91,0.48C259.7,34.03,259.42,34.96,259.8,35.7z"/>
	<path class="st32" d="M255.49,37.99l0.63,1.2c0.39,0.73,1.3,1.02,2.03,0.63l0.91-0.48c0.73-0.39,1.02-1.3,0.63-2.03l-0.63-1.2
		c-0.39-0.73-1.3-1.02-2.03-0.63l-0.91,0.48C255.37,36.33,255.1,37.26,255.49,37.99z"/>
	
		<linearGradient id="SVGID_25_" gradientUnits="userSpaceOnUse" x1="234.9133" y1="173.3225" x2="246.802" y2="173.3225" gradientTransform="matrix(1 0 0 -1 0 212)">
		<stop  offset="0.2495" style="stop-color:#967FE6"/>
		<stop  offset="1" style="stop-color:#8A6FE8"/>
	</linearGradient>
	<path class="st33" d="M234.97,37.05l0.71,4.87c0.44,3.05,3.28,5.16,6.34,4.73c3.05-0.44,5.16-3.28,4.73-6.34l-0.71-4.87
		c-0.44-3.05-3.28-5.16-6.34-4.73C236.65,31.16,234.52,34,234.97,37.05z"/>
	
		<linearGradient id="SVGID_26_" gradientUnits="userSpaceOnUse" x1="243.2202" y1="179.0272" x2="255.1088" y2="179.0272" gradientTransform="matrix(1 0 0 -1 0 212)">
		<stop  offset="0.2495" style="stop-color:#967FE6"/>
		<stop  offset="1" style="stop-color:#8A6FE8"/>
	</linearGradient>
	<path class="st34" d="M243.28,31.34l0.71,4.87c0.44,3.05,3.28,5.16,6.34,4.73c3.05-0.44,5.16-3.28,4.73-6.34l-0.71-4.87
		c-0.44-3.05-3.28-5.16-6.34-4.73S242.83,28.28,243.28,31.34z"/>
	
		<linearGradient id="SVGID_27_" gradientUnits="userSpaceOnUse" x1="375.1231" y1="144.4168" x2="399.3404" y2="144.4168" gradientTransform="matrix(1 0 0 -1 0 212)">
		<stop  offset="0.2495" style="stop-color:#967FE6"/>
		<stop  offset="1" style="stop-color:#8A6FE8"/>
	</linearGradient>
	<path class="st35" d="M377.33,67.03l13.47,9.8c2.41,1.75,5.76,1.21,7.51-1.18c1.75-2.41,1.21-5.76-1.18-7.51l-13.47-9.8
		c-2.41-1.75-5.76-1.21-7.51,1.18C374.41,61.93,374.94,65.29,377.33,67.03z"/>
	<path class="st25" d="M410.02,74.56l8.19-7.64c2.16-2.05,2.27-5.47,0.22-7.64s-5.47-2.27-7.64-0.22l-8.4,7.83L410.02,74.56z"/>
	<path class="st25" d="M409.85,68.51l5.91-14.27c1.13-2.77-0.19-5.91-2.95-7.06c-2.77-1.13-5.91,0.19-7.06,2.95l-4.43,10.59
		L409.85,68.51z"/>
	<path class="st25" d="M403.31,67.58l2.52-15.25c0.49-2.95-1.49-5.73-4.43-6.22c-2.95-0.49-5.73,1.49-6.22,4.43l-2.58,15.53
		L403.31,67.58z"/>
	
		<radialGradient id="SVGID_28_" cx="14.0692" cy="429.5698" r="1.2878" gradientTransform="matrix(10.5634 -6.1331 -6.1331 -10.5634 2886.2527 4687.2383)" gradientUnits="userSpaceOnUse">
		<stop  offset="0" style="stop-color:#8065E0"/>
		<stop  offset="1" style="stop-color:#512BD4"/>
	</radialGradient>
	<path class="st36" d="M400.35,80.81c6.25,0,11.32-5.06,11.32-11.32c0-6.25-5.06-11.32-11.32-11.32c-6.25,0-11.32,5.06-11.32,11.32
		C389.03,75.74,394.09,80.81,400.35,80.81z"/>
	
		<radialGradient id="SVGID_29_" cx="31.2061" cy="424.2789" r="1.2878" gradientTransform="matrix(8.6754 0.2708 0.2708 -8.6754 -129.9876 3789.2285)" gradientUnits="userSpaceOnUse">
		<stop  offset="0" style="stop-color:#8065E0"/>
		<stop  offset="1" style="stop-color:#512BD4"/>
	</radialGradient>
	<path class="st37" d="M257.41,134.31c6.17,0,11.18-5.01,11.18-11.18c0-6.17-5.01-11.18-11.18-11.18c-6.17,0-11.18,5.01-11.18,11.18
		C246.23,129.31,251.23,134.31,257.41,134.31z"/>
	
		<radialGradient id="SVGID_30_" cx="31.1646" cy="423.8717" r="1.2878" gradientTransform="matrix(8.6754 0.2708 0.2708 -8.6754 -131.6199 3801.4619)" gradientUnits="userSpaceOnUse">
		<stop  offset="0" style="stop-color:#8065E0"/>
		<stop  offset="1" style="stop-color:#512BD4"/>
	</radialGradient>
	<path class="st38" d="M255.3,150.06c6.17,0,11.18-5.01,11.18-11.18c0-6.17-5.01-11.18-11.18-11.18s-11.18,5.01-11.18,11.18
		C244.13,145.06,249.13,150.06,255.3,150.06z"/>
	
		<radialGradient id="SVGID_31_" cx="31.2135" cy="423.4728" r="1.2878" gradientTransform="matrix(8.6754 0.2708 0.2708 -8.6754 -130.5226 3813.5305)" gradientUnits="userSpaceOnUse">
		<stop  offset="0" style="stop-color:#8065E0"/>
		<stop  offset="1" style="stop-color:#512BD4"/>
	</radialGradient>
	<path class="st39" d="M256.71,165.6c6.17,0,11.18-5.01,11.18-11.18c0-6.17-5.01-11.18-11.18-11.18c-6.17,0-11.18,5.01-11.18,11.18
		C245.53,160.61,250.54,165.6,256.71,165.6z"/>
	
		<linearGradient id="SVGID_32_" gradientUnits="userSpaceOnUse" x1="455.2851" y1="55.4748" x2="472.8087" y2="55.4748" gradientTransform="matrix(1 0 0 -1 0 212)">
		<stop  offset="0.2495" style="stop-color:#967FE6"/>
		<stop  offset="1" style="stop-color:#8A6FE8"/>
	</linearGradient>
	<path class="st40" d="M463.48,165.25l7.84-8.22c2.07-2.2,1.97-5.68-0.23-7.75c-2.2-2.07-5.68-1.97-7.75,0.23l-8.05,8.42
		L463.48,165.25z"/>
	
		<linearGradient id="SVGID_33_" gradientUnits="userSpaceOnUse" x1="455.6586" y1="37.0603" x2="473.648" y2="37.0603" gradientTransform="matrix(1 0 0 -1 0 212)">
		<stop  offset="0.2495" style="stop-color:#967FE6"/>
		<stop  offset="1" style="stop-color:#8A6FE8"/>
	</linearGradient>
	<path class="st41" d="M455.66,176.32l9.67,5.96c2.59,1.57,5.96,0.75,7.52-1.84c1.57-2.59,0.75-5.96-1.84-7.52l-9.92-6.12
		L455.66,176.32z"/>
	
		<linearGradient id="SVGID_34_" gradientUnits="userSpaceOnUse" x1="459.8054" y1="44.0267" x2="477.8274" y2="44.0267" gradientTransform="matrix(1 0 0 -1 0 212)">
		<stop  offset="0.2495" style="stop-color:#967FE6"/>
		<stop  offset="1" style="stop-color:#8A6FE8"/>
	</linearGradient>
	<path class="st42" d="M459.81,169.59l9.81,5.71c2.63,1.51,5.98,0.59,7.48-2.03s0.59-5.98-2.03-7.48L465,159.92L459.81,169.59z"/>
	
		<linearGradient id="SVGID_35_" gradientUnits="userSpaceOnUse" x1="450.0049" y1="33.8635" x2="467.5005" y2="33.8635" gradientTransform="matrix(1 0 0 -1 0 212)">
		<stop  offset="0.2495" style="stop-color:#967FE6"/>
		<stop  offset="1" style="stop-color:#8A6FE8"/>
	</linearGradient>
	<path class="st43" d="M450,177.7l8.32,7.73c2.23,2.03,5.71,1.89,7.74-0.33c2.03-2.23,1.89-5.71-0.33-7.74l-8.54-7.93L450,177.7z"/>
	
		<radialGradient id="SVGID_36_" cx="31.5536" cy="478.1212" r="1.2878" gradientTransform="matrix(-2.9017 12.2274 12.2274 2.9017 -5303.2168 -1605.6798)" gradientUnits="userSpaceOnUse">
		<stop  offset="0" style="stop-color:#8065E0"/>
		<stop  offset="1" style="stop-color:#512BD4"/>
	</radialGradient>
	<path class="st44" d="M457.23,180.43c6.34,0,11.47-5.14,11.47-11.47c0-6.34-5.14-11.47-11.47-11.47s-11.47,5.14-11.47,11.47
		C445.76,175.29,450.89,180.43,457.23,180.43z"/>
	
		<radialGradient id="SVGID_37_" cx="0.5094" cy="419.6374" r="1.2878" gradientTransform="matrix(6.153 -6.1226 -6.1226 -6.153 2823.1042 2752.062)" gradientUnits="userSpaceOnUse">
		<stop  offset="0" style="stop-color:#8065E0"/>
		<stop  offset="1" style="stop-color:#512BD4"/>
	</radialGradient>
	<path class="st45" d="M262.61,181.16c6.17,0,11.18-5.01,11.18-11.18c0-6.17-5.01-11.18-11.18-11.18c-6.17,0-11.18,5.01-11.18,11.18
		C251.43,176.16,256.44,181.16,262.61,181.16z"/>
	<path class="st25" d="M191.99,82.7l6.7-9.18c1.79-2.43,5.23-2.95,7.66-1.15c2.43,1.79,2.95,5.23,1.15,7.66l-6.86,9.41L191.99,82.7z
		"/>
	<path class="st25" d="M174.74,92.59l-11.33-0.84c-3.01-0.24-5.27-2.88-5.02-5.9c0.24-3.01,2.88-5.27,5.9-5.02l11.62,0.86
		L174.74,92.59z"/>
	<path class="st25" d="M175.97,88.49l-7.35-8.65c-1.94-2.32-1.64-5.78,0.7-7.73c2.32-1.94,5.78-1.64,7.73,0.7l7.53,8.89
		L175.97,88.49z"/>
	
		<linearGradient id="SVGID_38_" gradientUnits="userSpaceOnUse" x1="159.8292" y1="115.3784" x2="177.4349" y2="115.3784" gradientTransform="matrix(1 0 0 -1 0 212)">
		<stop  offset="0.2495" style="stop-color:#967FE6"/>
		<stop  offset="1" style="stop-color:#8A6FE8"/>
	</linearGradient>
	<path class="st46" d="M176.08,102.6l-11.31-1.03c-3.01-0.3-5.22-2.97-4.92-5.99c0.3-3.01,2.97-5.22,5.99-4.92l11.59,1.06
		L176.08,102.6z"/>
	
		<radialGradient id="SVGID_39_" cx="23.0612" cy="479.6828" r="1.2878" gradientTransform="matrix(-7.9734 9.7132 9.7132 7.9734 -4296.1514 -3958.9258)" gradientUnits="userSpaceOnUse">
		<stop  offset="0" style="stop-color:#8065E0"/>
		<stop  offset="1" style="stop-color:#512BD4"/>
	</radialGradient>
	<path class="st47" d="M171.96,102.05c5.04,3.85,12.23,2.88,16.07-2.15c3.85-5.04,2.88-12.23-2.15-16.07
		c-5.04-3.85-12.23-2.88-16.07,2.15C165.96,91,166.93,98.2,171.96,102.05z"/>
	<path class="st29" d="M215.59,95.39h-69.62c-10.2,0.18-10.97-1.27-11.24-1.62h89.63C224.11,94.07,223.55,95.57,215.59,95.39z"/>
	<path class="st29" d="M215.32,92.59V46.93c0-1.97-1.6-3.57-3.57-3.57h-64.39c-1.97,0-3.57,1.6-3.57,3.57v45.65H215.32z"/>
	<path class="st48" d="M210.15,86.13h-61.19c-1.07,0-1.93-0.86-1.93-1.93V48.22c0-1.07,0.86-1.93,1.93-1.93h61.19
		c1.07,0,1.93,0.86,1.93,1.93v36C212.07,85.27,211.22,86.13,210.15,86.13z"/>
	<path class="st31" d="M224.26,93.77h-89.43c-0.45,0-0.81-0.36-0.81-0.81c0-0.45,0.36-0.81,0.81-0.81h89.43
		c0.45,0,0.81,0.36,0.81,0.81C225.09,93.41,224.71,93.77,224.26,93.77z"/>
	<path class="st49" d="M148.96,86.13h24.1c-0.23-5-4.35-8.98-9.39-8.98c-2.03,0-3.94,0.66-5.47,1.76
		c-0.68-6.3-5.19-11.45-11.15-13.11V84.2C147.03,85.27,147.89,86.13,148.96,86.13z"/>
	<path class="st50" d="M173.31,86.13h4.64C176.28,85.37,174.64,85.48,173.31,86.13z"/>
	<path class="st24" d="M161.63,73.5c-0.37,0-0.68-0.12-0.95-0.37c-0.26-0.26-0.4-0.55-0.4-0.91s0.13-0.66,0.4-0.93
		c0.26-0.26,0.58-0.39,0.95-0.39s0.7,0.13,0.97,0.39s0.4,0.55,0.4,0.93c0,0.35-0.14,0.66-0.4,0.91S162.02,73.5,161.63,73.5z"/>
	<path class="st24" d="M176.6,73.29h-2.43l-6.4-10.1c-0.17-0.26-0.3-0.52-0.4-0.8h-0.06c0.05,0.3,0.08,0.93,0.08,1.88v9h-2.15V59.55
		h2.59l6.19,9.86c0.26,0.41,0.42,0.68,0.5,0.85h0.04c-0.06-0.36-0.09-0.98-0.09-1.85v-8.86h2.14V73.29z"/>
	<path class="st24" d="M186.15,73.35h-7.52V59.6h7.22v1.93h-5v3.89h4.61v1.93h-4.61v4.07h5.31v1.92H186.15z"/>
	<path class="st24" d="M196.84,61.54h-3.85v11.81h-2.23V61.54h-3.82V59.6h9.92L196.84,61.54z"/>
	<path class="st51" d="M410.83,64.96h-27.65c-2.67,0-4.84-2.16-4.84-4.84v-24.6c0-2.67,2.16-4.84,4.84-4.84h27.65
		c2.67,0,4.84,2.16,4.84,4.84v24.6C415.67,62.79,413.51,64.96,410.83,64.96z"/>
	<path class="st24" d="M410.61,45.56l-12.41-11.4c-0.3-0.27-0.76-0.27-1.06,0l-3.76,3.44c-0.5,0.45-1.31,0.1-1.31-0.58v-0.75
		c0-0.43-0.35-0.79-0.79-0.79h-1.93c-0.42,0-0.79,0.35-0.79,0.79v5.4c0,0.22-0.09,0.42-0.24,0.58l-3.59,3.31
		c-0.53,0.48-0.18,1.37,0.53,1.37h0.55c0.42,0,0.79,0.35,0.79,0.79v11.04c0,0.42,0.35,0.79,0.79,0.79h20.58
		c0.42,0,0.79-0.35,0.79-0.79V47.7c0-0.42,0.35-0.79,0.79-0.79h0.55C410.79,46.91,411.12,46.04,410.61,45.56z"/>
	<path class="st31" d="M395.28,46.53v-2.46c0-1.35,1.11-2.46,2.46-2.46c1.35,0,2.46,1.11,2.46,2.46v2.46h1.65v-2.46
		c0-2.27-1.84-4.1-4.1-4.1s-4.1,1.84-4.1,4.1v2.46H395.28z"/>
	<path class="st31" d="M402.23,55.62h-9.13c-1.24,0-2.24-1-2.24-2.25v-5.1c0-1.24,1-2.25,2.24-2.25h9.13c1.24,0,2.24,1,2.24,2.25
		v5.1C404.47,54.63,403.46,55.62,402.23,55.62z"/>
	<path class="st24" d="M398.81,49.93c0-0.66-0.53-1.18-1.18-1.18c-0.66,0-1.18,0.53-1.18,1.18c0,0.48,0.28,0.9,0.7,1.08l-0.26,2.11
		h1.55L398.17,51C398.54,50.79,398.81,50.39,398.81,49.93z"/>
	<path class="st52" d="M410.27,24.44c6.32-0.01,11.51,5.07,11.55,11.37c0,0.06-0.01,0.14-0.01,0.22l1.34-0.01l0.01-0.01
		c0.06-7.13-5.77-12.93-12.9-12.9L410.27,24.44z"/>
	<path class="st52" d="M410.31,29l0.01,1.34c3.05,0.01,5.55,2.47,5.58,5.52c0,0.06-0.01,0.14-0.01,0.22l1.34-0.01l0.01-0.01
		C417.33,32.18,414.19,29,410.31,29z"/>
	<path class="st52" d="M410.3,26.05l0.01,1.34c4.69,0,8.54,3.77,8.56,8.45c0,0.06-0.01,0.14-0.01,0.22l1.34-0.01l0.01-0.01
		C420.29,30.52,415.8,26.05,410.3,26.05z"/>
	<path class="st52" d="M411.65,37.12c1.22,0,2.22-0.99,2.22-2.22c0-1.22-0.99-2.22-2.22-2.22c-1.22,0-2.22,0.99-2.22,2.22
		C409.44,36.13,410.43,37.12,411.65,37.12z"/>
	
		<linearGradient id="SVGID_40_" gradientUnits="userSpaceOnUse" x1="407.4116" y1="149.5484" x2="422.5671" y2="149.5484" gradientTransform="matrix(1 0 0 -1 0 212)">
		<stop  offset="0.2495" style="stop-color:#967FE6"/>
		<stop  offset="1" style="stop-color:#8A6FE8"/>
	</linearGradient>
	<path class="st53" d="M421,56.64c-2.05-2.07-5.37-2.14-7.51-0.17l-4.38,4.06c-2.18,2.03-2.28,5.46-0.24,7.64s5.46,2.28,7.64,0.24
		l4.33-4.01C423.08,62.33,423.15,58.8,421,56.64z"/>
	
		<linearGradient id="SVGID_41_" gradientUnits="userSpaceOnUse" x1="403.561" y1="159.0915" x2="418.7164" y2="159.0915" gradientTransform="matrix(1 0 0 -1 0 212)">
		<stop  offset="0.2495" style="stop-color:#967FE6"/>
		<stop  offset="1" style="stop-color:#8A6FE8"/>
	</linearGradient>
	<path class="st54" d="M417.15,47.09c-2.05-2.07-5.37-2.14-7.51-0.17l-4.38,4.06c-2.18,2.03-2.28,5.46-0.24,7.64
		s5.46,2.28,7.64,0.24l4.33-4.01C419.23,52.79,419.3,49.27,417.15,47.09z"/>
	<g>
		
			<linearGradient id="SVGID_42_" gradientUnits="userSpaceOnUse" x1="170.2558" y1="54.6771" x2="194.4767" y2="54.6771" gradientTransform="matrix(1 0 0 -1 0 212)">
			<stop  offset="0.2495" style="stop-color:#967FE6"/>
			<stop  offset="1" style="stop-color:#8A6FE8"/>
		</linearGradient>
		<path class="st55" d="M192.26,156.77l-13.47,9.8c-2.41,1.75-5.76,1.21-7.51-1.18c-1.75-2.41-1.21-5.76,1.18-7.51l13.47-9.8
			c2.41-1.75,5.76-1.21,7.51,1.18C195.19,151.67,194.67,155.03,192.26,156.77z"/>
		
			<radialGradient id="SVGID_43_" cx="-9.6352" cy="473.2876" r="1.2878" gradientTransform="matrix(-10.5634 -6.133 -6.133 10.5634 2970.1357 -4905.6865)" gradientUnits="userSpaceOnUse">
			<stop  offset="0" style="stop-color:#8065E0"/>
			<stop  offset="1" style="stop-color:#512BD4"/>
		</radialGradient>
		<path class="st56" d="M169.26,170.55c6.25,0,11.32-5.06,11.32-11.32c0-6.25-5.06-11.32-11.32-11.32
			c-6.26,0-11.32,5.06-11.32,11.32C157.96,165.49,163.02,170.55,169.26,170.55z"/>
		<path class="st51" d="M160.06,154.79h27.65c2.67,0,4.84-2.16,4.84-4.84v-24.61c0-2.67-2.16-4.84-4.84-4.84h-27.65
			c-2.67,0-4.84,2.16-4.84,4.84v24.6C155.21,152.61,157.38,154.79,160.06,154.79z"/>
		<path class="st57" d="M176,134.03h5.41v-2.28H176V134.03z"/>
		<path class="st24" d="M177.97,138.6h1.49v-4.69h-1.49V138.6z"/>
		<path class="st29" d="M163.29,125.91h20.72c0.91,0,1.66,0.75,1.66,1.66v3.77c0,0.91-0.75,1.66-1.66,1.66h-11.17
			c-0.91,0-1.66,0.75-1.66,1.66v10.08c0,1.29,1.04,2.33,2.33,2.33h12.14v1.53c0,0.9-0.72,1.62-1.62,1.62h-14.51h-5.96h-0.27
			c-0.91,0-1.66-0.75-1.66-1.66v-0.27v-1.21v-19.52C161.64,126.66,162.37,125.91,163.29,125.91z"/>
		<path class="st58" d="M179.57,128.91h2.41c0.35,0,0.63-0.28,0.63-0.63s-0.28-0.63-0.63-0.63h-2.41c-0.35,0-0.63,0.28-0.63,0.63
			S179.22,128.91,179.57,128.91z"/>
		<path class="st48" d="M163.92,131.68h5.16c0.33,0,0.61-0.27,0.61-0.61v-2.64c0-0.33-0.27-0.61-0.61-0.61h-5.16
			c-0.33,0-0.61,0.27-0.61,0.61v2.64C163.31,131.41,163.58,131.68,163.92,131.68z"/>
		<path class="st59" d="M168.22,135.37c0.58,0,1.06-0.48,1.06-1.06s-0.48-1.06-1.06-1.06s-1.06,0.48-1.06,1.06
			C167.16,134.9,167.63,135.37,168.22,135.37z"/>
		<path class="st30" d="M164.69,135.37c0.58,0,1.06-0.48,1.06-1.06s-0.48-1.06-1.06-1.06s-1.06,0.48-1.06,1.06
			C163.65,134.9,164.11,135.37,164.69,135.37z"/>
		<path class="st24" d="M173.54,139.41l1.39,7.02c0.08,0.4,0.42,0.68,0.82,0.68h6.04c0.4,0,0.75-0.28,0.82-0.68l0.32-1.6h1.65
			c0.95,0,1.71-0.77,1.71-1.71v-1.52c0-0.95-0.77-1.71-1.71-1.71h-0.67l0.09-0.48c0.1-0.53-0.3-1-0.82-1h-8.82
			C173.85,138.39,173.44,138.88,173.54,139.41z"/>
		<path class="st24" d="M183.12,143.97l0.63-3.22h0.85c0.48,0,0.85,0.37,0.85,0.85v1.52c0,0.48-0.37,0.85-0.85,0.85H183.12z"/>
		<path class="st52" d="M160.92,114.86c-6.32-0.01-11.51,5.07-11.55,11.37c0,0.06,0.01,0.14,0.01,0.22l-1.34-0.01l-0.01-0.01
			c-0.06-7.13,5.77-12.93,12.9-12.9L160.92,114.86z"/>
		<path class="st52" d="M160.89,119.42l-0.01,1.33c-3.05,0.01-5.55,2.47-5.58,5.52c0,0.06,0.01,0.14,0.01,0.22l-1.34-0.01
			l-0.01-0.01C153.87,122.6,157.02,119.42,160.89,119.42z"/>
		<path class="st52" d="M160.91,116.47l-0.01,1.34c-4.69,0-8.54,3.77-8.56,8.45c0,0.06,0.01,0.14,0.01,0.22l-1.34-0.01l-0.01-0.01
			C150.91,120.95,155.41,116.47,160.91,116.47z"/>
		<path class="st52" d="M159.55,127.56c1.22,0,2.22-0.99,2.22-2.22c0-1.22-0.99-2.22-2.22-2.22s-2.22,0.99-2.22,2.22
			C157.34,126.57,158.33,127.56,159.55,127.56z"/>
		
			<linearGradient id="SVGID_44_" gradientUnits="userSpaceOnUse" x1="147.0293" y1="59.811" x2="162.1848" y2="59.811" gradientTransform="matrix(1 0 0 -1 0 212)">
			<stop  offset="0.2495" style="stop-color:#967FE6"/>
			<stop  offset="1" style="stop-color:#8A6FE8"/>
		</linearGradient>
		<path class="st60" d="M148.59,146.37c2.05-2.07,5.37-2.14,7.51-0.17l4.38,4.06c2.18,2.03,2.28,5.46,0.24,7.64
			c-2.03,2.18-5.46,2.28-7.64,0.24l-4.33-4.01C146.52,152.07,146.44,148.54,148.59,146.37z"/>
		
			<linearGradient id="SVGID_45_" gradientUnits="userSpaceOnUse" x1="150.8896" y1="69.3516" x2="166.0354" y2="69.3516" gradientTransform="matrix(1 0 0 -1 0 212)">
			<stop  offset="0.2495" style="stop-color:#967FE6"/>
			<stop  offset="1" style="stop-color:#8A6FE8"/>
		</linearGradient>
		<path class="st61" d="M152.44,136.83c2.05-2.07,5.37-2.14,7.51-0.17l4.38,4.06c2.18,2.03,2.28,5.46,0.24,7.64
			c-2.03,2.18-5.46,2.28-7.64,0.24l-4.33-4.01C150.38,142.53,150.31,139.01,152.44,136.83z"/>
	</g>
	<path class="st30" d="M425.37,172.01l3.68,0.55c0.58,0.09,1.12-0.31,1.2-0.89l2.01-13.32c0.09-0.58-0.31-1.12-0.89-1.2l-3.68-0.55
		c-0.58-0.09-1.12,0.31-1.2,0.89l-2.01,13.32C424.39,171.38,424.8,171.92,425.37,172.01z"/>
	<path class="st29" d="M425.63,168.61l4.2,0.63c0.17,0.03,0.32-0.09,0.33-0.26l1.22-8.1c0.03-0.17-0.09-0.32-0.26-0.33l-4.2-0.63
		c-0.17-0.03-0.32,0.09-0.33,0.26l-1.22,8.1C425.33,168.43,425.46,168.59,425.63,168.61z"/>
	<path class="st31" d="M426.31,165.68l-0.12,0.75l3.89,0.59l0.12-0.75L426.31,165.68z"/>
	<path class="st31" d="M426.12,166.93l-0.12,0.75l3.89,0.59l0.12-0.75L426.12,166.93z"/>
	<path class="st31" d="M428.65,164.51c-0.94,0-1.7-0.77-1.7-1.7s0.77-1.7,1.7-1.7s1.7,0.77,1.7,1.7S429.59,164.51,428.65,164.51z"/>
	
		<linearGradient id="SVGID_46_" gradientUnits="userSpaceOnUse" x1="441.4794" y1="107.4795" x2="460.4359" y2="107.4795" gradientTransform="matrix(1 0 0 -1 0 212)">
		<stop  offset="0.2495" style="stop-color:#967FE6"/>
		<stop  offset="1" style="stop-color:#8A6FE8"/>
	</linearGradient>
	<path class="st62" d="M441.48,109.45l12.16,1.88c3.25,0.48,6.26-1.76,6.74-5.01c0.48-3.25-1.76-6.26-5.01-6.74l-12.47-1.93
		L441.48,109.45z"/>
	<path class="st50" d="M457.83,78.89c-0.46,0-0.85,0.37-0.85,0.85v14.54c0,0.46,0.37,0.85,0.85,0.85h31.73
		c0.46,0,0.85-0.37,0.85-0.85V79.72c0-0.46-0.37-0.85-0.85-0.85h-31.73V78.89z"/>
	<path class="st63" d="M448.15,89.24c0,0,1.26,11.46,3.22,14.84c0.67,1.16,1.91,1.85,3.25,1.85h38.92c1.34,0,2.58-0.71,3.25-1.85
		c1.96-3.37,3.22-14.84,3.22-14.84s-1.26-11.46-3.22-14.84c-0.67-1.16-1.91-1.85-3.25-1.85h-38.92c-1.34,0-2.58,0.71-3.25,1.85
		C449.43,77.77,448.15,89.24,448.15,89.24z"/>
	<path class="st31" d="M451.38,104.07c0.67,1.16,1.91,1.85,3.25,1.85h38.92c1.34,0,2.58-0.71,3.25-1.85
		c1.96-3.37,3.22-14.84,3.22-14.84h-51.85C448.15,89.24,449.43,100.7,451.38,104.07z"/>
	<path class="st29" d="M489.57,97.52h-31.73c-1.8,0-3.26-1.47-3.26-3.26V79.72c0-1.8,1.47-3.26,3.26-3.26h31.73
		c1.8,0,3.26,1.47,3.26,3.26v14.54C492.84,96.06,491.37,97.52,489.57,97.52z"/>
	<path class="st29" d="M462.73,102.81c0.81,0,1.47-0.66,1.47-1.47c0-0.81-0.66-1.47-1.47-1.47s-1.47,0.66-1.47,1.47
		C461.26,102.16,461.92,102.81,462.73,102.81z"/>
	<path class="st29" d="M470.1,102.81c0.81,0,1.47-0.66,1.47-1.47c0-0.81-0.66-1.47-1.47-1.47c-0.81,0-1.47,0.66-1.47,1.47
		C468.63,102.16,469.28,102.81,470.1,102.81z"/>
	<path class="st29" d="M477.47,102.81c0.81,0,1.47-0.66,1.47-1.47c0-0.81-0.66-1.47-1.47-1.47c-0.81,0-1.47,0.66-1.47,1.47
		C476.01,102.16,476.66,102.81,477.47,102.81z"/>
	<path class="st29" d="M484.84,102.81c0.81,0,1.47-0.66,1.47-1.47c0-0.81-0.66-1.47-1.47-1.47s-1.47,0.66-1.47,1.47
		C483.37,102.16,484.03,102.81,484.84,102.81z"/>
	<path class="st48" d="M457.83,78.89c-0.46,0-0.85,0.37-0.85,0.85v14.54c0,0.46,0.37,0.85,0.85,0.85h31.73
		c0.46,0,0.85-0.37,0.85-0.85V79.72c0-0.46-0.37-0.85-0.85-0.85h-31.73V78.89z"/>
	<path class="st49" d="M462.07,78.89h-4.24c-0.46,0-0.85,0.37-0.85,0.85v14.54c0,0.46,0.37,0.85,0.85,0.85h11.05L462.07,78.89z"/>
	<path class="st24" d="M479.12,82.72v0.79l-3.84,8.02h-1.24l3.82-7.79v-0.03h-4.31v-0.99H479.12z"/>
	<path class="st24" d="M482.94,83.83h-0.03l-1.53,0.82l-0.23-0.9l1.92-1.03h1.02v8.81h-1.15V83.83z"/>
	<path class="st24" d="M487.58,85.8c-0.97,0-1.76-0.79-1.76-1.76c0-0.97,0.79-1.76,1.76-1.76c0.97,0,1.76,0.79,1.76,1.76
		C489.34,85.01,488.55,85.8,487.58,85.8z M487.58,83.13c-0.5,0-0.91,0.41-0.91,0.91s0.41,0.91,0.91,0.91s0.91-0.41,0.91-0.91
		S488.09,83.13,487.58,83.13z"/>
	
		<linearGradient id="SVGID_47_" gradientUnits="userSpaceOnUse" x1="431.9622" y1="124.9114" x2="452.1017" y2="124.9114" gradientTransform="matrix(1 0 0 -1 0 212)">
		<stop  offset="0.2495" style="stop-color:#967FE6"/>
		<stop  offset="1" style="stop-color:#8A6FE8"/>
	</linearGradient>
	<path class="st64" d="M444.4,96.81l6.75-10.29c1.78-2.76,0.99-6.43-1.76-8.2c-2.76-1.78-6.43-0.99-8.2,1.76l-9.22,13.74
		L444.4,96.81z"/>
	
		<radialGradient id="SVGID_48_" cx="37.5855" cy="456.8337" r="1.2866" gradientTransform="matrix(7.9764 11.0328 11.0328 -7.9764 -4904.2153 3323.1616)" gradientUnits="userSpaceOnUse">
		<stop  offset="0" style="stop-color:#8065E0"/>
		<stop  offset="1" style="stop-color:#512BD4"/>
	</radialGradient>
	<path class="st65" d="M440.94,113.81c6.86,0,12.43-5.56,12.43-12.43c0-6.86-5.56-12.43-12.43-12.43c-6.86,0-12.43,5.56-12.43,12.43
		C428.51,108.25,434.07,113.81,440.94,113.81z"/>
	
		<linearGradient id="SVGID_49_" gradientUnits="userSpaceOnUse" x1="291.51" y1="17.5486" x2="311.2706" y2="17.5486" gradientTransform="matrix(1 0 0 -1 0 212)">
		<stop  offset="0.2495" style="stop-color:#967FE6"/>
		<stop  offset="1" style="stop-color:#8A6FE8"/>
	</linearGradient>
	<path class="st66" d="M300.78,204.31l8.82-9.31c2.33-2.5,2.2-6.41-0.3-8.74s-6.41-2.2-8.74,0.3l-9.05,9.55L300.78,204.31z"/>
	
		<linearGradient id="SVGID_50_" gradientUnits="userSpaceOnUse" x1="344.726" y1="23.2775" x2="365.4322" y2="23.2775" gradientTransform="matrix(1 0 0 -1 0 212)">
		<stop  offset="0.2495" style="stop-color:#967FE6"/>
		<stop  offset="1" style="stop-color:#8A6FE8"/>
	</linearGradient>
	<path class="st67" d="M358.67,197.77l-10.99-6.62c-2.92-1.78-3.84-5.6-2.03-8.51c1.78-2.92,5.6-3.84,8.51-2.05l11.27,6.8
		L358.67,197.77z"/>
	
		<radialGradient id="SVGID_51_" cx="16.4259" cy="449.0173" r="1.2878" gradientTransform="matrix(39.2562 0 0 -39.2562 -317.6774 17852.3516)" gradientUnits="userSpaceOnUse">
		<stop  offset="0.2667" style="stop-color:#605D5A"/>
		<stop  offset="1" style="stop-color:#33312D"/>
	</radialGradient>
	<path class="st68" d="M360.04,195.96c-4.53-11.62-9.89-16-15.15-15.36c-3.21,0.37-33.46,3.97-36.66,4.35
		c-5.27,0.62-9.54,6.14-11.44,18.52c-1.91,12.38,0.97,20.03,7.43,19.27c4.82-0.57,9.38-8.29,14.59-10.69
		c3.39-1.57,10.34-2.15,10.34-2.15s7.64-1.15,11.27-0.41c5.6,1.12,11.71,7.57,16.54,7.01C363.44,215.7,364.57,207.57,360.04,195.96z
		"/>
	<path class="st69" d="M306.89,188.23c3.5-0.41,36.5-4.33,40-4.74c2.63-0.31,5.27,0.44,7.82,2.43c-3.16-4.13-6.5-5.73-9.83-5.34
		c-3.21,0.37-33.46,3.97-36.66,4.35c-3.31,0.4-6.23,2.73-8.42,7.5C301.86,189.9,304.26,188.55,306.89,188.23z"/>
	
		<linearGradient id="SVGID_52_" gradientUnits="userSpaceOnUse" x1="289.2057" y1="6.2117" x2="311.7926" y2="6.2117" gradientTransform="matrix(1 0 0 -1 0 212)">
		<stop  offset="0.2495" style="stop-color:#967FE6"/>
		<stop  offset="1" style="stop-color:#8A6FE8"/>
	</linearGradient>
	<path class="st70" d="M290,199.97l0.42-0.72c1.62-2.74,5.15-3.66,7.88-2.03l10.65,6.5c2.74,1.62,3.64,5.15,2.03,7.88l-0.42,0.72
		c-1.62,2.74-5.15,3.66-7.88,2.03l-10.65-6.5C289.29,206.25,288.39,202.72,290,199.97z"/>
	
		<linearGradient id="SVGID_53_" gradientUnits="userSpaceOnUse" x1="288.1897" y1="-1.1728" x2="307.0719" y2="-1.1728" gradientTransform="matrix(1 0 0 -1 0 212)">
		<stop  offset="0.2495" style="stop-color:#967FE6"/>
		<stop  offset="1" style="stop-color:#8A6FE8"/>
	</linearGradient>
	<path class="st71" d="M289.05,208.11c1.73-2.95,5.52-3.92,8.46-2.19l6.52,3.85c2.95,1.73,3.92,5.52,2.19,8.46
		c-1.73,2.95-5.52,3.92-8.46,2.19l-6.52-3.85C288.29,214.85,287.31,211.05,289.05,208.11z"/>
	
		<linearGradient id="SVGID_54_" gradientUnits="userSpaceOnUse" x1="283.8276" y1="-6.3512" x2="301.1447" y2="-6.3512" gradientTransform="matrix(1 0 0 -1 0 212)">
		<stop  offset="0.2495" style="stop-color:#967FE6"/>
		<stop  offset="1" style="stop-color:#8A6FE8"/>
	</linearGradient>
	<path class="st72" d="M284.43,214.51c1.47-3.08,5.15-4.4,8.24-2.92l4.95,2.36c3.08,1.47,4.4,5.15,2.92,8.24
		c-1.47,3.08-5.15,4.4-8.24,2.92l-4.95-2.36C284.29,221.29,282.96,217.6,284.43,214.51z"/>
	
		<radialGradient id="SVGID_55_" cx="30.1207" cy="486.6141" r="1.2878" gradientTransform="matrix(-5.1116 8.665 8.665 5.1116 -3779.1021 -2545.0212)" gradientUnits="userSpaceOnUse">
		<stop  offset="0" style="stop-color:#8065E0"/>
		<stop  offset="1" style="stop-color:#512BD4"/>
	</radialGradient>
	<path class="st73" d="M289.14,220.01c7.16,0,12.96-5.81,12.96-12.96c0-7.16-5.81-12.96-12.96-12.96c-7.15,0-12.96,5.81-12.96,12.96
		S281.99,220.01,289.14,220.01z"/>
	
		<linearGradient id="SVGID_56_" gradientUnits="userSpaceOnUse" x1="347.8473" y1="13.2639" x2="368.0345" y2="13.2639" gradientTransform="matrix(1 0 0 -1 0 212)">
		<stop  offset="0.2495" style="stop-color:#967FE6"/>
		<stop  offset="1" style="stop-color:#8A6FE8"/>
	</linearGradient>
	<path class="st74" d="M366.28,191.09l-0.61-0.58c-2.29-2.22-5.94-2.14-8.15,0.14l-8.06,7.59c-2.22,2.29-2.14,5.94,0.14,8.15
		l0.61,0.58c2.29,2.22,5.94,2.14,8.15-0.14l8.06-7.59C368.63,196.95,368.56,193.3,366.28,191.09z"/>
	
		<linearGradient id="SVGID_57_" gradientUnits="userSpaceOnUse" x1="353.7296" y1="6.9792" x2="371.3653" y2="6.9792" gradientTransform="matrix(1 0 0 -1 0 212)">
		<stop  offset="0.2495" style="stop-color:#967FE6"/>
		<stop  offset="1" style="stop-color:#8A6FE8"/>
	</linearGradient>
	<path class="st75" d="M369.48,197.85c-2.46-2.37-6.37-2.31-8.74,0.15l-5.27,5.45c-2.37,2.46-2.31,6.37,0.15,8.74
		c2.46,2.37,6.37,2.31,8.74-0.15l5.27-5.45C372,204.13,371.94,200.22,369.48,197.85z"/>
	
		<linearGradient id="SVGID_58_" gradientUnits="userSpaceOnUse" x1="360.0827" y1="2.6263" x2="376.5899" y2="2.6263" gradientTransform="matrix(1 0 0 -1 0 212)">
		<stop  offset="0.2495" style="stop-color:#967FE6"/>
		<stop  offset="1" style="stop-color:#8A6FE8"/>
	</linearGradient>
	<path class="st76" d="M375.08,203.54c-2.23-2.59-6.14-2.87-8.72-0.63l-4.13,3.58c-2.59,2.23-2.87,6.14-0.63,8.72
		c2.23,2.59,6.14,2.87,8.72,0.63l4.13-3.58C377.04,210.03,377.32,206.13,375.08,203.54z"/>
	
		<radialGradient id="SVGID_59_" cx="46.3179" cy="447.8241" r="1.2878" gradientTransform="matrix(7.2365 6.9889 6.9889 -7.2365 -3091.0286 3110.7158)" gradientUnits="userSpaceOnUse">
		<stop  offset="0" style="stop-color:#8065E0"/>
		<stop  offset="1" style="stop-color:#512BD4"/>
	</radialGradient>
	<path class="st77" d="M369.46,211.69c7.16,0,12.96-5.81,12.96-12.96c0-7.16-5.81-12.96-12.96-12.96s-12.96,5.81-12.96,12.96
		C356.51,205.88,362.32,211.69,369.46,211.69z"/>
	<path class="st78" d="M328.79,184.22l-0.14-1.26c-0.09-0.85-0.95-1.43-1.92-1.31l-1.21,0.14c-0.97,0.12-1.66,0.89-1.57,1.73
		l0.14,1.26L328.79,184.22z"/>
	<path class="st78" d="M318.04,185.42l-0.03-0.21c-0.09-0.82-0.71-1.44-1.37-1.37l-9.56,1.11c-0.66,0.08-1.11,0.81-1.02,1.64
		l0.03,0.21L318.04,185.42z"/>
	<path class="st78" d="M346.68,181.94l-0.03-0.21c-0.09-0.82-0.71-1.44-1.37-1.37l-9.56,1.11c-0.66,0.08-1.11,0.81-1.02,1.64
		l0.03,0.21L346.68,181.94z"/>
	<path class="st24" d="M371.69,139.48c0,6.75-1.3,13.19-3.66,19.1c-0.57,1.43-1.96,2.37-3.5,2.37h-79.06c-1.55,0-2.92-0.94-3.5-2.37
		c-2.36-5.91-3.66-12.35-3.66-19.1c0-2.76,0.22-5.47,0.64-8.11c0.28-1.82,1.88-3.13,3.71-3.13h84.68c1.84,0,3.43,1.33,3.71,3.13
		C371.47,134.02,371.69,136.73,371.69,139.48z"/>
	<path class="st79" d="M343.67,156.62c0,0-9.94-7.87-11.89-9.32s-3.64-1.53-5.42,0c-1.78,1.53-11.73,9.32-11.73,9.32H343.67z"/>
	<path class="st23" d="M371.05,131.38c-0.28-1.82-1.88-3.13-3.71-3.13h-4.35c1.84,0,3.43,1.33,3.71,3.13
		c0.42,2.64,0.64,5.34,0.64,8.11c0,3.98-0.46,7.84-1.31,11.56c-0.26,1.07-0.54,2.14-0.85,3.19c-0.44,1.48-1.96,2.37-3.5,2.37h-77.95
		c-1.44,0-2.76-0.71-3.19-2.1c-0.31-1.03-0.85-3.17-0.85-3.17c1.65,8.99,3.22,9.61,5.13,9.61h0.45h74.93h4.35
		c1.55,0,2.92-0.94,3.5-2.37c2.36-5.91,3.66-12.35,3.66-19.1C371.69,136.73,371.47,134.02,371.05,131.38z"/>
	<path class="st23" d="M304.29,149.66c2.64-0.04,4.72-3.67,4.66-8.11c-0.07-4.44-2.26-8-4.9-7.96c-2.64,0.04-4.72,3.67-4.66,8.11
		C299.46,146.14,301.65,149.7,304.29,149.66z"/>
	<path class="st23" d="M352.09,141.66c0.07-4.44-2.02-8.07-4.66-8.11c-2.64-0.04-4.83,3.53-4.9,7.96c-0.07,4.44,2.02,8.07,4.66,8.11
		C349.83,149.66,352.02,146.1,352.09,141.66z"/>
	<path class="st80" d="M300.51,145.4c0,1.13,0.43,2.16,1.11,2.96c0.77,0.84,1.69,1.31,2.67,1.3c2.37-0.04,4.29-2.97,4.61-6.79
		c-0.82-1.24-2.22-2.05-3.81-2.05C302.56,140.82,300.51,142.87,300.51,145.4z"/>
	<path class="st80" d="M352,143c-0.81-1.31-2.24-2.19-3.89-2.19c-2.52,0-4.57,2.05-4.57,4.57c0,0.91,0.27,1.75,0.73,2.47
		c0.8,1.08,1.8,1.74,2.92,1.76C349.57,149.66,351.56,146.8,352,143z"/>
</g>
</svg>
