<?xml version="1.0" encoding="utf-8"?>
<!-- Generator: Adobe Illustrator 24.3.0, SVG Export Plug-In . SVG Version: 6.00 Build 0)  -->
<svg version="1.1" id="Layer_1" xmlns="http://www.w3.org/2000/svg" xmlns:xlink="http://www.w3.org/1999/xlink" x="0px" y="0px"
	 viewBox="0 0 636 300" style="enable-background:new 0 0 636 300;" xml:space="preserve">
<style type="text/css">
	.st0{fill:#FBC977;}
	.st1{fill:#57AA9A;}
	.st2{fill:#F7B548;}
	.st3{fill:#6BA8F1;}
	.st4{fill:#BDD8F9;}
	.st5{fill:#8065E0;}
	.st6{fill:#FFFFFF;}
	.st7{fill:#1572E0;}
	.st8{fill:#B0D1F7;}
	.st9{fill:#FFD590;}
	.st10{fill:#7FD5CA;}
	.st11{fill:#D8E8FB;}
	.st12{fill:#C2E8E3;}
	.st13{fill:#FFECCD;}
	.st14{fill:#FEDEA7;}
	.st15{fill:#D1C5F4;}
	.st16{fill:#70D6E0;}
	.st17{fill:#25BACA;}
	.st18{fill:#1BA1B5;}
	.st19{fill:#8A6FE8;}
	.st20{fill:url(#SVGID_1_);}
	.st21{fill:#522CD5;}
	.st22{fill:url(#SVGID_2_);}
	.st23{fill:url(#SVGID_3_);}
	.st24{fill:url(#SVGID_4_);}
	.st25{fill:url(#SVGID_5_);}
	.st26{fill:#D8CFF7;}
	.st27{fill:#512BD4;}
	.st28{fill:url(#SVGID_6_);}
	.st29{fill:#A08BE8;}
	.st30{fill:url(#SVGID_7_);}
	.st31{fill:url(#SVGID_8_);}
	.st32{fill:url(#SVGID_9_);}
	.st33{fill:url(#SVGID_10_);}
	.st34{fill:url(#SVGID_11_);}
	.st35{fill:url(#SVGID_12_);}
	.st36{fill:#98C2F5;}
	.st37{fill:#0064DA;}
	.st38{fill:#3E8EED;}
	.st39{fill:#C7E0F4;}
	.st40{fill:#B3AFAB;}
	.st41{fill:#A7A4A0;}
	.st42{fill:#957EE6;}
	.st43{fill:#E5F0FC;}
	.st44{fill:#1DACCC;}
	.st45{fill:#76AFF2;}
	.st46{fill:#FCCF84;}
	.st47{fill:#8DBCF4;}
	.st48{fill:#E1DFDD;}
	.st49{fill:url(#SVGID_13_);}
	.st50{fill:url(#SVGID_14_);}
	.st51{fill:url(#SVGID_15_);}
	.st52{fill:url(#SVGID_16_);}
	.st53{fill:url(#SVGID_17_);}
	.st54{fill:url(#SVGID_18_);}
	.st55{fill:url(#SVGID_19_);}
	.st56{fill:url(#SVGID_20_);}
	.st57{fill:#C8C6C4;}
	.st58{fill:#605D5A;}
	.st59{fill:#797673;}
	.st60{fill:#64BFAF;}
	.st61{fill:#2CC7EA;}
	.st62{fill:url(#SVGID_21_);}
	.st63{fill:url(#SVGID_22_);}
	.st64{fill:url(#SVGID_23_);}
	.st65{fill:url(#SVGID_24_);}
	.st66{fill:url(#SVGID_25_);}
	.st67{fill:url(#SVGID_26_);}
	.st68{fill:#B6E3DE;}
	.st69{fill:#6FCFCE;}
	.st70{fill:#1FB1D1;}
	.st71{fill:url(#SVGID_27_);}
	.st72{fill:#FAC369;}
	.st73{fill:#E29E3B;}
	.st74{fill:#33D5F9;}
	.st75{fill:url(#SVGID_28_);}
	.st76{fill:url(#SVGID_29_);}
	.st77{fill:url(#SVGID_30_);}
	.st78{fill:url(#SVGID_31_);}
	.st79{fill:url(#SVGID_32_);}
	.st80{fill:url(#SVGID_33_);}
	.st81{fill:url(#SVGID_34_);}
	.st82{fill:url(#SVGID_35_);}
	.st83{fill:url(#SVGID_36_);}
	.st84{fill:url(#SVGID_37_);}
	.st85{fill:url(#SVGID_38_);}
	.st86{fill:#D0C5F3;}
	.st87{fill:url(#SVGID_39_);}
	.st88{fill:url(#SVGID_40_);}
	.st89{fill:url(#SVGID_41_);}
	.st90{fill:url(#SVGID_42_);}
	.st91{fill:#EEAB42;}
	.st92{fill:#E8A53F;}
	.st93{fill:#A3C9F6;}
	.st94{fill:url(#SVGID_43_);}
	.st95{fill:url(#SVGID_44_);}
	.st96{fill:url(#SVGID_45_);}
	.st97{fill:url(#SVGID_46_);}
	.st98{fill:url(#SVGID_47_);}
	.st99{fill:url(#SVGID_48_);}
	.st100{fill:url(#SVGID_49_);}
	.st101{fill:url(#SVGID_50_);}
	.st102{fill:#84817D;}
	.st103{fill:url(#SVGID_51_);}
	.st104{fill:url(#SVGID_52_);}
	.st105{fill:url(#SVGID_53_);}
	.st106{fill:url(#SVGID_54_);}
	.st107{fill:url(#SVGID_55_);}
	.st108{fill:url(#SVGID_56_);}
	.st109{fill:url(#SVGID_57_);}
	.st110{fill:url(#SVGID_58_);}
	.st111{fill:#BBACEF;}
	.st112{fill:url(#SVGID_59_);}
	.st113{fill:url(#SVGID_60_);}
	.st114{fill:url(#SVGID_61_);}
	.st115{fill:url(#SVGID_62_);}
	.st116{fill:url(#SVGID_63_);}
	.st117{fill:url(#SVGID_64_);}
	.st118{fill:url(#SVGID_65_);}
	.st119{fill:url(#SVGID_66_);}
	.st120{fill:url(#SVGID_67_);}
	.st121{fill:url(#SVGID_68_);}
	.st122{fill:url(#SVGID_69_);}
	.st123{fill:url(#SVGID_70_);}
	.st124{fill:url(#SVGID_71_);}
	.st125{fill:#CEDB59;}
	.st126{fill:#CCCAC7;}
	.st127{fill:#78881B;}
	.st128{fill:#9C9894;}
	.st129{fill:#EEF3C4;}
	.st130{fill:#B2C133;}
	.st131{fill:#D5E06D;}
	.st132{fill:#A4ECFC;}
	.st133{fill:#0B7891;}
	.st134{fill:#908D89;}
	.st135{fill:#DDDBDA;}
	.st136{fill:url(#SVGID_72_);}
	.st137{fill:url(#SVGID_73_);}
	.st138{fill:#56534F;}
	.st139{fill:#CAE0FA;}
	.st140{fill:#4995EE;}
	.st141{fill:#A7CBF6;}
	.st142{fill:#E86E58;}
	.st143{fill:#FAE969;}
	.st144{fill:#56A84F;}
	.st145{fill:none;stroke:#3085E9;stroke-width:2;stroke-miterlimit:10;}
	.st146{fill:#B2D5F8;}
	.st147{fill:#B2B2B2;}
	.st148{fill:url(#SVGID_74_);}
	.st149{fill:url(#SVGID_75_);}
	.st150{fill:url(#SVGID_76_);}
	.st151{fill:url(#SVGID_77_);}
	.st152{fill:url(#SVGID_78_);}
	.st153{fill:url(#SVGID_79_);}
	.st154{fill:url(#SVGID_80_);}
	.st155{fill:url(#SVGID_81_);}
	.st156{fill:url(#SVGID_82_);}
	.st157{fill:url(#SVGID_83_);}
	.st158{fill:url(#SVGID_84_);}
	.st159{fill:url(#SVGID_85_);}
	.st160{fill:url(#SVGID_86_);}
	.st161{fill:url(#SVGID_87_);}
	.st162{fill:url(#SVGID_88_);}
	.st163{fill:url(#SVGID_89_);}
	.st164{fill:#FFB900;}
	.st165{fill:#D5D3D0;}
	.st166{fill:none;stroke:#FF00FF;stroke-width:1.0976;stroke-miterlimit:10;}
	.st167{fill:url(#SVGID_90_);}
	.st168{fill:#EA7F6B;}
	.st169{fill:#22B2C3;}
	.st170{fill:#DF6551;}
	.st171{fill:#F8BB55;}
	.st172{fill:#F8B84F;}
	.st173{fill:#40C9D6;}
	.st174{fill:#CC5444;}
	.st175{fill:#CFEFEB;}
	.st176{fill:#D3E7F8;}
	.st177{fill:#81B5F3;}
	.st178{fill:#4D4D4D;}
	.st179{fill:url(#SVGID_91_);}
	.st180{fill:#2980E7;}
	.st181{fill:#CFF1F5;}
	.st182{fill:#58D0DB;}
	.st183{fill:#28C2D1;}
	.st184{fill:#9FE4EB;}
	.st185{fill:#3097D8;}
	.st186{fill:url(#SVGID_92_);}
	.st187{fill:#939393;}
	.st188{fill:url(#SVGID_93_);}
	.st189{fill:#FEDBA1;}
	.st190{fill:#FAC670;}
	.st191{fill:#625F5B;}
	.st192{fill:#D69521;}
	.st193{fill:#7F7F7F;}
	.st194{fill:#505050;}
	.st195{fill:#D2D2D2;}
	.st196{fill:#848484;}
	.st197{fill:url(#SVGID_94_);}
	.st198{fill:#444444;}
	.st199{fill:#737373;}
	.st200{fill:url(#SVGID_95_);}
	.st201{fill:#549BEF;}
	.st202{fill:#6D6A66;}
	.st203{fill:#38776B;}
	.st204{fill:#9FE0D7;}
	.st205{fill:#45897C;}
	.st206{fill:#CFECE9;}
	.st207{fill:url(#SVGID_96_);}
	.st208{fill:url(#SVGID_97_);}
	.st209{fill:url(#SVGID_98_);}
	.st210{fill:url(#SVGID_99_);}
	.st211{fill:url(#SVGID_100_);}
	.st212{fill:url(#SVGID_101_);}
	.st213{fill:url(#SVGID_102_);}
	.st214{fill:url(#SVGID_103_);}
	.st215{fill:url(#SVGID_104_);}
	.st216{fill:url(#SVGID_105_);}
	.st217{fill:url(#SVGID_106_);}
	.st218{fill:url(#SVGID_107_);}
	.st219{fill:#29C3E5;}
	.st220{fill:#60DEFA;}
	.st221{fill:#0F849E;}
	.st222{fill:#D2F6FE;}
	.st223{fill:#179BB8;}
	.st224{fill:#AFE5DE;}
	.st225{fill:#AE9CEB;}
	.st226{fill:url(#SVGID_108_);}
	.st227{fill:#D6CDF5;}
	.st228{fill:none;stroke:#D6CDF5;stroke-width:2;stroke-miterlimit:10;}
	.st229{fill:#7354DD;}
	.st230{fill:#A8B82F;}
	.st231{fill:#C9BDF2;}
	.st232{fill:#8970E2;}
	.st233{fill:url(#SVGID_109_);}
	.st234{fill:#72ACF1;}
	.st235{fill:#57CACF;}
	.st236{fill:#FAF9F8;}
	.st237{fill:#4A4844;}
	.st238{fill:#797672;}
	.st239{fill:none;stroke:#72ACF1;stroke-width:2;stroke-miterlimit:10;}
	.st240{fill:url(#SVGID_110_);}
	.st241{fill:url(#SVGID_111_);}
	.st242{fill:url(#SVGID_112_);}
	.st243{fill:#C5D43B;}
	.st244{fill:#3085E9;}
	.st245{fill:none;stroke:#FFFFFF;stroke-width:2;stroke-miterlimit:10;}
	.st246{fill:url(#SVGID_113_);}
	.st247{fill:#42403C;}
	.st248{fill:url(#SVGID_114_);stroke:#625F5B;stroke-width:3;stroke-miterlimit:10;}
	.st249{fill:#E6E4E3;}
	.st250{fill:url(#SVGID_115_);}
	.st251{fill:url(#SVGID_116_);}
	.st252{fill:#8EE8FC;}
	.st253{fill:#927BE5;}
	.st254{fill:url(#SVGID_117_);}
	.st255{fill:url(#SVGID_118_);}
	.st256{fill:url(#SVGID_119_);}
	.st257{fill:url(#SVGID_120_);}
	.st258{fill:url(#SVGID_121_);}
	.st259{fill:url(#SVGID_122_);}
	.st260{fill:url(#SVGID_123_);}
	.st261{fill:url(#SVGID_124_);}
	.st262{fill:url(#SVGID_125_);}
	.st263{fill:url(#SVGID_126_);}
	.st264{fill:url(#SVGID_127_);}
	.st265{fill:#22B5D6;}
	.st266{fill-rule:evenodd;clip-rule:evenodd;fill:#848484;}
	.st267{fill-rule:evenodd;clip-rule:evenodd;fill:#29C3E5;}
	.st268{fill-rule:evenodd;clip-rule:evenodd;fill:#0078D7;}
	.st269{fill:#BBB8B4;}
	.st270{fill:none;}
	.st271{fill:#FDC9B5;}
	.st272{fill:#EB8875;}
	.st273{fill:url(#SVGID_128_);}
	.st274{fill:url(#SVGID_129_);}
	.st275{fill:url(#SVGID_130_);}
	.st276{fill:url(#SVGID_131_);}
	.st277{fill:url(#SVGID_132_);}
	.st278{fill:url(#SVGID_133_);}
	.st279{fill:url(#SVGID_134_);}
	.st280{fill:url(#SVGID_135_);}
	.st281{fill:url(#SVGID_136_);}
	.st282{fill:url(#SVGID_137_);}
	.st283{fill:url(#SVGID_138_);}
	.st284{fill:url(#SVGID_139_);}
	.st285{fill:url(#SVGID_140_);}
	.st286{fill:url(#SVGID_141_);}
	.st287{fill:url(#SVGID_142_);}
	.st288{fill:none;stroke:#FFFFFF;stroke-width:2.2678;stroke-miterlimit:10;}
	.st289{fill:#FFEED0;}
	.st290{fill:#27BEE0;}
	.st291{fill:#BBF1FD;}
	.st292{fill:#24BADB;}
	.st293{fill:#77E3FB;}
	.st294{fill:#666666;}
	.st295{fill:#AACDF6;}
	.st296{fill:#E6E6E6;}
	.st297{fill:#7E62DF;}
	.st298{fill:url(#SVGID_143_);}
	.st299{fill:url(#SVGID_144_);}
	.st300{fill:#FCD18A;}
	.st301{fill:#D8E377;}
	.st302{fill:#DBE581;}
	.st303{fill:#81921F;}
	.st304{fill:#95A527;}
	.st305{fill-rule:evenodd;clip-rule:evenodd;fill:#A7A4A0;}
	.st306{fill:url(#SVGID_145_);}
	.st307{fill:url(#SVGID_146_);}
	.st308{fill:url(#SVGID_147_);}
	.st309{fill:#FDD490;}
	.st310{fill:#B3B3B3;}
	.st311{fill:#F09250;}
	.st312{fill:url(#SVGID_148_);}
	.st313{fill:url(#SVGID_149_);}
	.st314{fill:url(#SVGID_150_);}
	.st315{fill:url(#SVGID_151_);}
	.st316{fill:url(#SVGID_152_);}
	.st317{fill:#F2A694;}
	.st318{fill:#DC624F;}
	.st319{fill:#FDFDFD;}
	.st320{fill:#D0EDFD;}
	.st321{fill:none;stroke:#8065E0;stroke-width:3.5361;stroke-miterlimit:10;}
	.st322{fill:url(#SVGID_153_);}
	.st323{fill:url(#SVGID_154_);}
	.st324{fill:url(#SVGID_155_);}
	.st325{fill:url(#SVGID_156_);}
	.st326{fill:url(#SVGID_157_);}
	.st327{fill:url(#SVGID_158_);}
	.st328{fill:url(#SVGID_159_);}
	.st329{fill:url(#SVGID_160_);}
	.st330{fill:none;stroke:#C8C6C4;stroke-width:0.1949;stroke-miterlimit:10;}
	.st331{fill:url(#SVGID_161_);}
	.st332{fill:url(#SVGID_162_);}
	.st333{fill:url(#SVGID_163_);}
	.st334{fill:url(#SVGID_164_);}
	.st335{fill:url(#SVGID_165_);}
	.st336{fill:url(#SVGID_166_);}
	.st337{fill:url(#SVGID_167_);}
	.st338{fill:url(#SVGID_168_);}
	.st339{fill:url(#SVGID_169_);}
	.st340{fill:url(#SVGID_170_);}
	.st341{fill:url(#SVGID_171_);}
	.st342{fill:url(#SVGID_172_);}
	.st343{fill:url(#SVGID_173_);}
	.st344{fill:#0769DC;}
	.st345{fill:#60A2F0;}
	.st346{fill:#B5D5EA;}
	.st347{fill:#FFE5B9;}
	.st348{fill:#88DDE5;}
	.st349{fill:#1189A5;}
	.st350{fill:#222222;}
	.st351{fill:#00D8FF;}
	.st352{fill:url(#SVGID_174_);}
	.st353{fill:#F2F7FE;}
	.st354{fill:#DD0031;}
	.st355{fill:#C3002F;}
	.st356{fill:#EBA841;}
	.st357{fill:#ED9583;}
	.st358{fill:url(#SVGID_175_);}
	.st359{fill:#106EBE;}
	.st360{fill:url(#SVGID_176_);}
	.st361{fill:url(#SVGID_177_);}
	.st362{fill:#2B579A;}
	.st363{fill:url(#SVGID_178_);}
	.st364{fill:url(#SVGID_179_);}
	.st365{fill:url(#SVGID_180_);}
	.st366{fill:url(#SVGID_181_);}
	.st367{fill:url(#SVGID_182_);}
	.st368{fill:url(#SVGID_183_);}
	.st369{fill:url(#SVGID_184_);}
	.st370{fill:url(#SVGID_185_);}
	.st371{fill:url(#SVGID_186_);}
	.st372{fill:url(#SVGID_187_);}
	.st373{fill:url(#SVGID_188_);}
	.st374{fill:url(#SVGID_189_);}
	.st375{fill:url(#SVGID_190_);}
	.st376{fill:url(#SVGID_191_);}
	.st377{fill:#52A898;}
	.st378{fill:#BADBF9;}
	.st379{fill:#E1EFF9;}
	.st380{fill:#6FD0C3;}
	.st381{fill:#EFFAF8;}
	.st382{fill:url(#SVGID_192_);}
	.st383{fill:url(#SVGID_193_);}
	.st384{fill:url(#SVGID_194_);}
	.st385{fill:url(#SVGID_195_);}
	.st386{fill:url(#SVGID_196_);}
	.st387{fill:url(#SVGID_197_);}
	.st388{fill:url(#SVGID_198_);}
	.st389{fill:url(#SVGID_199_);}
	.st390{fill:url(#SVGID_200_);}
	.st391{fill:url(#SVGID_201_);}
	.st392{fill:url(#SVGID_202_);}
	.st393{fill:url(#SVGID_203_);}
	.st394{fill:url(#SVGID_204_);}
	.st395{fill:#C4C1BE;}
	.st396{fill:#9B86E7;}
	.st397{fill:#DF9B39;}
	.st398{fill:none;stroke:#FFFFFF;stroke-width:4;stroke-miterlimit:10;}
	.st399{fill:none;stroke:#FFFFFF;stroke-width:4;stroke-miterlimit:10;stroke-dasharray:4.2217,6.3326;}
	.st400{fill:none;stroke:#FFFFFF;stroke-width:4;stroke-miterlimit:10;stroke-dasharray:4.1698,6.2547;}
	.st401{fill:none;stroke:#FFFFFF;stroke-width:4;stroke-miterlimit:10;stroke-dasharray:4.2266,6.3399;}
	.st402{fill:none;stroke:#FFFFFF;stroke-width:4;stroke-miterlimit:10;stroke-dasharray:4.459,6.6886;}
	.st403{fill:#4ADAFA;}
	.st404{fill:#EA7B66;}
	.st405{fill:#D8604D;}
	.st406{fill:#F6B29F;}
	.st407{fill:url(#SVGID_205_);}
	.st408{fill:#FFFFFF;stroke:#C5D43B;stroke-width:2;stroke-miterlimit:10;}
	.st409{fill-rule:evenodd;clip-rule:evenodd;fill:#BDD8F9;}
	.st410{fill-rule:evenodd;clip-rule:evenodd;fill:#76AFF2;}
	.st411{fill:url(#SVGID_206_);}
	.st412{fill:url(#SVGID_207_);}
	.st413{fill:url(#SVGID_208_);}
	.st414{fill:url(#SVGID_209_);}
	.st415{fill:url(#SVGID_210_);}
	.st416{fill:url(#SVGID_211_);}
	.st417{fill:url(#SVGID_212_);}
	.st418{fill:url(#SVGID_213_);}
	.st419{fill:url(#SVGID_214_);}
	.st420{fill:url(#SVGID_215_);}
	.st421{fill:url(#SVGID_216_);}
	.st422{fill:url(#SVGID_217_);}
	.st423{fill:url(#SVGID_218_);}
	.st424{fill:url(#SVGID_219_);}
	.st425{fill:url(#SVGID_220_);}
	.st426{fill:url(#SVGID_221_);}
	.st427{fill:#EC917E;}
	.st428{fill:#B53C33;}
	.st429{fill:url(#SVGID_222_);}
	.st430{fill:#F1A18E;}
	.st431{fill:url(#SVGID_223_);}
	.st432{fill:url(#SVGID_224_);}
	.st433{fill:url(#SVGID_225_);}
	.st434{fill:url(#SVGID_226_);}
	.st435{fill:url(#SVGID_227_);}
	.st436{fill:url(#SVGID_228_);}
	.st437{fill:url(#SVGID_229_);}
	.st438{fill:url(#SVGID_230_);}
	.st439{fill:url(#SVGID_231_);}
	.st440{fill:url(#SVGID_232_);}
	.st441{fill:url(#SVGID_233_);}
	.st442{fill:url(#SVGID_234_);}
	.st443{fill:url(#SVGID_235_);}
	.st444{fill:url(#SVGID_236_);}
	.st445{fill:url(#SVGID_237_);}
	.st446{fill:url(#SVGID_238_);}
	.st447{fill:url(#SVGID_239_);}
	.st448{fill:url(#SVGID_240_);}
	.st449{fill:url(#SVGID_241_);}
	.st450{fill:url(#SVGID_242_);}
	.st451{fill:url(#SVGID_243_);}
	.st452{fill:url(#SVGID_244_);}
	.st453{fill:url(#SVGID_245_);}
	.st454{fill:url(#SVGID_246_);}
	.st455{fill:url(#SVGID_247_);}
	.st456{fill:url(#SVGID_248_);}
	.st457{fill:url(#SVGID_249_);}
	.st458{fill:url(#SVGID_250_);}
	.st459{fill:url(#SVGID_251_);}
	.st460{fill:url(#SVGID_252_);}
	.st461{fill:#1BA6C5;}
	.st462{fill:url(#SVGID_253_);}
	.st463{fill-rule:evenodd;clip-rule:evenodd;fill:#BBF1FD;}
	.st464{fill:url(#SVGID_254_);}
	.st465{fill-rule:evenodd;clip-rule:evenodd;fill:#FFFFFF;}
	.st466{fill-rule:evenodd;clip-rule:evenodd;fill:#B2B2B2;}
	.st467{fill-rule:evenodd;clip-rule:evenodd;fill:#1DACCC;}
	.st468{fill:url(#SVGID_255_);}
	.st469{fill:url(#SVGID_256_);}
	.st470{fill:url(#SVGID_257_);}
	.st471{fill:url(#SVGID_258_);}
	.st472{fill:url(#SVGID_259_);}
	.st473{fill:url(#SVGID_260_);}
	.st474{fill:url(#SVGID_261_);}
	.st475{fill:url(#SVGID_262_);}
	.st476{fill:url(#SVGID_263_);}
	.st477{fill:url(#SVGID_264_);}
	.st478{fill:url(#SVGID_265_);}
	.st479{fill:url(#SVGID_266_);}
	.st480{fill:url(#SVGID_267_);}
	.st481{fill:url(#SVGID_268_);}
	.st482{fill:url(#SVGID_269_);}
	.st483{fill:#D55D4B;}
	.st484{fill:#FDD696;}
	.st485{fill:url(#SVGID_270_);}
	.st486{fill:url(#SVGID_271_);}
	.st487{fill:url(#SVGID_272_);}
	.st488{fill:url(#SVGID_273_);}
	.st489{fill:#5F5F5F;}
	.st490{fill:#F2F6D0;}
	.st491{fill:#227BE5;}
	.st492{fill:#E8FAFE;}
	.st493{fill:url(#SVGID_274_);}
	.st494{fill:url(#SVGID_275_);}
	.st495{fill:url(#SVGID_276_);}
	.st496{fill:url(#SVGID_277_);}
	.st497{fill:url(#SVGID_278_);}
	.st498{fill:url(#SVGID_279_);}
	.st499{fill:url(#SVGID_280_);}
	.st500{fill:url(#SVGID_281_);}
	.st501{fill:url(#SVGID_282_);}
	.st502{fill:url(#SVGID_283_);}
	.st503{fill:url(#SVGID_284_);}
	.st504{fill:url(#SVGID_285_);}
	.st505{fill:url(#SVGID_286_);}
	.st506{fill:url(#SVGID_287_);}
	.st507{fill:url(#SVGID_288_);}
	.st508{fill:url(#SVGID_289_);}
	.st509{fill:#0D7E98;}
	.st510{fill:#E56B56;}
	.st511{fill:#F9BE5C;}
	.st512{fill:#CB8930;}
	.st513{fill:none;stroke:#FFFFFF;stroke-width:2.8606;stroke-miterlimit:10;}
	.st514{fill:none;stroke:#B3AFAB;stroke-width:1.4303;stroke-linecap:round;stroke-linejoin:round;stroke-miterlimit:10;}
	.st515{fill-rule:evenodd;clip-rule:evenodd;fill:#F7B548;}
	.st516{fill:url(#SVGID_290_);}
	.st517{fill:url(#SVGID_291_);}
	.st518{fill:url(#SVGID_292_);}
	.st519{fill:url(#SVGID_293_);}
	.st520{fill:url(#SVGID_294_);}
	.st521{fill:url(#SVGID_295_);}
	.st522{fill:url(#SVGID_296_);}
	.st523{fill:url(#SVGID_297_);}
	.st524{fill:url(#SVGID_298_);}
	.st525{fill:url(#SVGID_299_);}
	.st526{fill:url(#SVGID_300_);}
	.st527{fill:url(#SVGID_301_);}
	.st528{fill:url(#SVGID_302_);}
	.st529{fill:url(#SVGID_303_);}
	.st530{fill:url(#SVGID_304_);}
	.st531{fill:url(#SVGID_305_);}
	.st532{fill:url(#SVGID_306_);}
	.st533{fill:url(#SVGID_307_);}
	.st534{fill:url(#SVGID_308_);}
	.st535{fill:url(#SVGID_309_);}
	.st536{fill:url(#SVGID_310_);}
	.st537{fill:url(#SVGID_311_);}
	.st538{fill:url(#SVGID_312_);}
	.st539{fill:url(#SVGID_313_);}
	.st540{fill:url(#SVGID_314_);}
	.st541{fill:url(#SVGID_315_);}
	.st542{fill:#138FAB;}
	.st543{fill:#B1E9EE;}
	.st544{fill:none;stroke:#FF00FF;stroke-width:37.7526;stroke-miterlimit:10;}
	.st545{clip-path:url(#SVGID_317_);fill:#8065E0;}
	.st546{clip-path:url(#SVGID_317_);fill:#7F64E0;}
	.st547{clip-path:url(#SVGID_317_);fill:#7F63E0;}
	.st548{clip-path:url(#SVGID_317_);fill:#7E63DF;}
	.st549{clip-path:url(#SVGID_317_);fill:#7D62DF;}
	.st550{clip-path:url(#SVGID_317_);fill:#7D61DF;}
	.st551{clip-path:url(#SVGID_317_);fill:#7C60DF;}
	.st552{clip-path:url(#SVGID_317_);fill:#7B5FDF;}
	.st553{clip-path:url(#SVGID_317_);fill:#7B5EDF;}
	.st554{clip-path:url(#SVGID_317_);fill:#7A5DDE;}
	.st555{clip-path:url(#SVGID_317_);fill:#795CDE;}
	.st556{clip-path:url(#SVGID_317_);fill:#785BDE;}
	.st557{clip-path:url(#SVGID_317_);fill:#775ADE;}
	.st558{clip-path:url(#SVGID_317_);fill:#7659DD;}
	.st559{clip-path:url(#SVGID_317_);fill:#7658DD;}
	.st560{clip-path:url(#SVGID_317_);fill:#7557DD;}
	.st561{clip-path:url(#SVGID_317_);fill:#7456DD;}
	.st562{clip-path:url(#SVGID_317_);fill:#7355DC;}
	.st563{clip-path:url(#SVGID_317_);fill:#7254DC;}
	.st564{clip-path:url(#SVGID_317_);fill:#7153DC;}
	.st565{clip-path:url(#SVGID_317_);fill:#7051DC;}
	.st566{clip-path:url(#SVGID_317_);fill:#6F50DB;}
	.st567{clip-path:url(#SVGID_317_);fill:#6E4FDB;}
	.st568{clip-path:url(#SVGID_317_);fill:#6D4EDB;}
	.st569{clip-path:url(#SVGID_317_);fill:#6C4DDB;}
	.st570{clip-path:url(#SVGID_317_);fill:#6B4BDA;}
	.st571{clip-path:url(#SVGID_317_);fill:#6A4ADA;}
	.st572{clip-path:url(#SVGID_317_);fill:#6949DA;}
	.st573{clip-path:url(#SVGID_317_);fill:#6848DA;}
	.st574{clip-path:url(#SVGID_317_);fill:#6746D9;}
	.st575{clip-path:url(#SVGID_317_);fill:#6645D9;}
	.st576{clip-path:url(#SVGID_317_);fill:#6544D9;}
	.st577{clip-path:url(#SVGID_317_);fill:#6443D9;}
	.st578{clip-path:url(#SVGID_317_);fill:#6442D8;}
	.st579{clip-path:url(#SVGID_317_);fill:#6341D8;}
	.st580{clip-path:url(#SVGID_317_);fill:#6240D8;}
	.st581{clip-path:url(#SVGID_317_);fill:#613FD8;}
	.st582{clip-path:url(#SVGID_317_);fill:#603ED8;}
	.st583{clip-path:url(#SVGID_317_);fill:#603DD7;}
	.st584{clip-path:url(#SVGID_317_);fill:#5F3CD7;}
	.st585{clip-path:url(#SVGID_317_);fill:#5E3BD7;}
	.st586{clip-path:url(#SVGID_317_);fill:#5D3AD7;}
	.st587{clip-path:url(#SVGID_317_);fill:#5C39D7;}
	.st588{clip-path:url(#SVGID_317_);fill:#5B38D6;}
	.st589{clip-path:url(#SVGID_317_);fill:#5A37D6;}
	.st590{clip-path:url(#SVGID_317_);fill:#5A36D6;}
	.st591{clip-path:url(#SVGID_317_);fill:#5935D6;}
	.st592{clip-path:url(#SVGID_317_);fill:#5834D6;}
	.st593{clip-path:url(#SVGID_317_);fill:#5732D5;}
	.st594{clip-path:url(#SVGID_317_);fill:#5631D5;}
	.st595{clip-path:url(#SVGID_317_);fill:#5530D5;}
	.st596{clip-path:url(#SVGID_317_);fill:#542FD5;}
	.st597{clip-path:url(#SVGID_317_);fill:#542ED5;}
	.st598{clip-path:url(#SVGID_317_);fill:#532DD4;}
	.st599{clip-path:url(#SVGID_317_);fill:#522CD4;}
	.st600{clip-path:url(#SVGID_317_);fill:#512BD4;}
	.st601{fill:#63D3DE;}
	.st602{fill:url(#SVGID_318_);}
	.st603{fill:url(#SVGID_319_);}
	.st604{fill:url(#SVGID_320_);}
	.st605{fill:none;stroke:#FF00FF;stroke-width:39.6641;stroke-miterlimit:10;}
	.st606{fill:url(#SVGID_321_);}
	.st607{fill:url(#SVGID_322_);}
	.st608{fill:url(#SVGID_323_);}
	.st609{fill:url(#SVGID_324_);}
	.st610{fill:url(#SVGID_325_);}
	.st611{fill:url(#SVGID_326_);}
	.st612{fill:url(#SVGID_327_);}
	.st613{fill:url(#SVGID_328_);}
	.st614{fill:url(#SVGID_329_);}
	.st615{fill:url(#SVGID_330_);}
	.st616{fill:url(#SVGID_331_);}
	.st617{fill:#9EAE2B;}
	.st618{fill:url(#SVGID_332_);}
	.st619{fill:url(#SVGID_333_);}
	.st620{fill:url(#SVGID_334_);}
	.st621{fill:url(#SVGID_335_);}
	.st622{fill:url(#SVGID_336_);}
	.st623{fill:url(#SVGID_337_);}
	.st624{fill:url(#SVGID_338_);}
	.st625{fill:url(#SVGID_339_);}
	.st626{fill:url(#SVGID_340_);}
	.st627{fill:url(#SVGID_341_);}
	.st628{fill:url(#SVGID_342_);}
	.st629{fill:url(#SVGID_343_);}
	.st630{fill:url(#SVGID_344_);}
	.st631{fill:url(#SVGID_345_);}
	.st632{fill:url(#SVGID_346_);}
	.st633{fill:url(#SVGID_347_);}
	.st634{fill:#D8F3FE;}
	.st635{fill:#085A7E;}
	.st636{fill:#E1EA95;}
	.st637{fill:#FEE0AD;}
	.st638{fill:#8E7A6F;}
	.st639{fill:#191717;}
	.st640{fill:#F0DB4F;}
	.st641{fill:#323330;}
	.st642{fill:url(#SVGID_348_);}
	.st643{fill:url(#SVGID_349_);}
	.st644{fill:url(#SVGID_350_);}
	.st645{fill:url(#SVGID_351_);}
	.st646{fill:url(#SVGID_352_);}
	.st647{fill:url(#SVGID_353_);}
	.st648{fill:url(#SVGID_354_);}
	.st649{fill:url(#SVGID_355_);}
	.st650{fill:url(#SVGID_356_);}
	.st651{fill:url(#SVGID_357_);}
	.st652{fill:url(#SVGID_358_);}
	.st653{fill:url(#SVGID_359_);}
	.st654{fill:#8577E5;}
	.st655{fill:url(#SVGID_360_);}
	.st656{fill:#263619;}
	.st657{fill:#6E7F17;}
	.st658{fill:#EEEDEC;}
	.st659{fill:#DEE88B;}
	.st660{fill:url(#SVGID_361_);}
	.st661{fill:none;stroke:#FFFFFF;stroke-width:3.0081;stroke-linecap:round;stroke-linejoin:round;stroke-miterlimit:10;}
	.st662{fill:none;stroke:#FFFFFF;stroke-width:3.567;stroke-linecap:round;stroke-linejoin:round;stroke-miterlimit:10;}
	.st663{fill:#F7F6F6;}
	.st664{fill:#CBD94F;}
	.st665{fill:#CF5746;}
	.st666{fill:#ED8422;}
	.st667{fill-rule:evenodd;clip-rule:evenodd;fill:#A3C9F6;}
	.st668{fill:url(#SVGID_362_);}
	.st669{fill-rule:evenodd;clip-rule:evenodd;fill:#549BEF;}
	.st670{fill:#FDD99C;}
	.st671{fill:#C4832D;}
	.st672{fill:#FFF2DC;}
	.st673{fill:#1595B2;}
	.st674{fill:url(#SVGID_363_);}
	.st675{fill:url(#SVGID_364_);}
	.st676{fill:url(#SVGID_365_);}
	.st677{fill:url(#SVGID_366_);}
	.st678{fill:url(#SVGID_367_);}
	.st679{fill:url(#SVGID_368_);}
	.st680{fill:url(#SVGID_369_);}
	.st681{fill:url(#SVGID_370_);}
	.st682{fill:url(#SVGID_371_);}
	.st683{fill:url(#SVGID_372_);}
	.st684{fill:url(#SVGID_373_);}
	.st685{fill:url(#SVGID_374_);}
	.st686{fill:url(#SVGID_375_);}
	.st687{fill:#EDF7F6;}
	.st688{fill:url(#SVGID_376_);}
	.st689{fill:url(#SVGID_377_);}
	.st690{fill:#E97762;}
	.st691{fill:url(#SVGID_378_);}
	.st692{fill:url(#SVGID_379_);}
	.st693{fill:url(#SVGID_380_);}
	.st694{fill:url(#SVGID_381_);}
	.st695{fill:url(#SVGID_382_);}
	.st696{fill:url(#SVGID_383_);}
	.st697{fill:url(#SVGID_384_);}
	.st698{fill:url(#SVGID_385_);}
	.st699{fill:url(#SVGID_386_);}
	.st700{fill:url(#SVGID_387_);}
	.st701{fill:url(#SVGID_388_);}
	.st702{fill:#A2AD6D;}
	.st703{fill:#E3646A;}
	.st704{fill:#889643;}
	.st705{fill:#EE8F94;}
	.st706{fill:url(#SVGID_389_);}
	.st707{fill:url(#SVGID_390_);}
	.st708{fill:#1C77E2;}
	.st709{fill:#D18F33;}
	.st710{fill:none;stroke:#C740B6;stroke-width:2.0654;stroke-miterlimit:10;}
	.st711{fill:#E26854;}
	.st712{fill:#F9BDAA;}
	.st713{fill:url(#SVGID_391_);}
	.st714{fill:url(#SVGID_392_);}
	.st715{fill:#519F90;}
	.st716{fill:#4E9A8B;}
	.st717{fill:none;stroke:#C2E8E3;stroke-width:1.5759;stroke-miterlimit:10;}
	.st718{fill:url(#SVGID_393_);}
	.st719{fill:url(#SVGID_394_);}
	.st720{fill:url(#SVGID_395_);}
	.st721{fill:url(#SVGID_396_);}
	.st722{fill:url(#SVGID_397_);}
	.st723{fill:none;stroke:#FF00FF;stroke-width:29.9084;stroke-miterlimit:10;}
	.st724{fill:url(#SVGID_398_);}
	.st725{fill:url(#SVGID_399_);}
	.st726{fill:url(#SVGID_400_);}
	.st727{fill:url(#SVGID_401_);}
	.st728{fill:url(#SVGID_402_);}
	.st729{fill:url(#SVGID_403_);}
	.st730{fill:url(#SVGID_404_);}
	.st731{fill:url(#SVGID_405_);}
	.st732{fill:url(#SVGID_406_);}
	.st733{fill:#2B88D8;}
	.st734{fill:url(#SVGID_407_);}
	.st735{fill:url(#SVGID_408_);}
	.st736{fill:url(#SVGID_409_);}
	.st737{fill:url(#SVGID_410_);}
	.st738{fill:url(#SVGID_411_);}
	.st739{fill:url(#SVGID_412_);}
	.st740{fill:url(#SVGID_413_);}
	.st741{fill:url(#SVGID_414_);}
	.st742{fill:url(#SVGID_415_);}
	.st743{fill:url(#SVGID_416_);}
	.st744{fill:url(#SVGID_417_);}
	.st745{fill:url(#SVGID_418_);}
	.st746{fill:url(#SVGID_419_);}
	.st747{fill:url(#SVGID_420_);}
	.st748{fill:url(#SVGID_421_);}
	.st749{fill:url(#SVGID_422_);}
	.st750{fill:url(#SVGID_423_);}
	.st751{fill:#F0AE00;}
	.st752{fill:#3F3C38;}
	.st753{fill:#BBCB37;}
	.st754{fill:url(#SVGID_424_);}
	.st755{fill:url(#SVGID_425_);}
	.st756{fill:url(#SVGID_426_);}
	.st757{fill:url(#SVGID_427_);}
	.st758{fill:url(#SVGID_428_);}
	.st759{fill:url(#SVGID_429_);}
	.st760{fill:url(#SVGID_430_);}
	.st761{fill:url(#SVGID_431_);}
	.st762{fill:url(#SVGID_432_);}
	.st763{fill:url(#SVGID_433_);}
	.st764{fill:url(#SVGID_434_);}
	.st765{fill:url(#SVGID_435_);}
	.st766{fill:url(#SVGID_436_);}
	.st767{fill:url(#SVGID_437_);}
	.st768{fill:url(#SVGID_438_);}
	.st769{fill:url(#SVGID_439_);}
	.st770{fill:#F4AC99;}
	.st771{fill:url(#SVGID_440_);}
	.st772{fill:url(#SVGID_441_);}
	.st773{fill:url(#SVGID_442_);}
	.st774{fill:url(#SVGID_443_);}
	.st775{fill:url(#SVGID_444_);}
	.st776{fill:url(#SVGID_445_);}
	.st777{clip-path:url(#SVGID_447_);fill:#8065E0;}
	.st778{clip-path:url(#SVGID_447_);fill:#7F64E0;}
	.st779{clip-path:url(#SVGID_447_);fill:#7F63E0;}
	.st780{clip-path:url(#SVGID_447_);fill:#7E63DF;}
	.st781{clip-path:url(#SVGID_447_);fill:#7D62DF;}
	.st782{clip-path:url(#SVGID_447_);fill:#7D61DF;}
	.st783{clip-path:url(#SVGID_447_);fill:#7C60DF;}
	.st784{clip-path:url(#SVGID_447_);fill:#7B5FDF;}
	.st785{clip-path:url(#SVGID_447_);fill:#7B5EDF;}
	.st786{clip-path:url(#SVGID_447_);fill:#7A5DDE;}
	.st787{clip-path:url(#SVGID_447_);fill:#795CDE;}
	.st788{clip-path:url(#SVGID_447_);fill:#785BDE;}
	.st789{clip-path:url(#SVGID_447_);fill:#775ADE;}
	.st790{clip-path:url(#SVGID_447_);fill:#7659DD;}
	.st791{clip-path:url(#SVGID_447_);fill:#7658DD;}
	.st792{clip-path:url(#SVGID_447_);fill:#7557DD;}
	.st793{clip-path:url(#SVGID_447_);fill:#7456DD;}
	.st794{clip-path:url(#SVGID_447_);fill:#7355DC;}
	.st795{clip-path:url(#SVGID_447_);fill:#7254DC;}
	.st796{clip-path:url(#SVGID_447_);fill:#7153DC;}
	.st797{clip-path:url(#SVGID_447_);fill:#7051DC;}
	.st798{clip-path:url(#SVGID_447_);fill:#6F50DB;}
	.st799{clip-path:url(#SVGID_447_);fill:#6E4FDB;}
	.st800{clip-path:url(#SVGID_447_);fill:#6D4EDB;}
	.st801{clip-path:url(#SVGID_447_);fill:#6C4DDB;}
	.st802{clip-path:url(#SVGID_447_);fill:#6B4BDA;}
	.st803{clip-path:url(#SVGID_447_);fill:#6A4ADA;}
	.st804{clip-path:url(#SVGID_447_);fill:#6949DA;}
	.st805{clip-path:url(#SVGID_447_);fill:#6848DA;}
	.st806{clip-path:url(#SVGID_447_);fill:#6746D9;}
	.st807{clip-path:url(#SVGID_447_);fill:#6645D9;}
	.st808{clip-path:url(#SVGID_447_);fill:#6544D9;}
	.st809{clip-path:url(#SVGID_447_);fill:#6443D9;}
	.st810{clip-path:url(#SVGID_447_);fill:#6442D8;}
	.st811{clip-path:url(#SVGID_447_);fill:#6341D8;}
	.st812{clip-path:url(#SVGID_447_);fill:#6240D8;}
	.st813{clip-path:url(#SVGID_447_);fill:#613FD8;}
	.st814{clip-path:url(#SVGID_447_);fill:#603ED8;}
	.st815{clip-path:url(#SVGID_447_);fill:#603DD7;}
	.st816{clip-path:url(#SVGID_447_);fill:#5F3CD7;}
	.st817{clip-path:url(#SVGID_447_);fill:#5E3BD7;}
	.st818{clip-path:url(#SVGID_447_);fill:#5D3AD7;}
	.st819{clip-path:url(#SVGID_447_);fill:#5C39D7;}
	.st820{clip-path:url(#SVGID_447_);fill:#5B38D6;}
	.st821{clip-path:url(#SVGID_447_);fill:#5A37D6;}
	.st822{clip-path:url(#SVGID_447_);fill:#5A36D6;}
	.st823{clip-path:url(#SVGID_447_);fill:#5935D6;}
	.st824{clip-path:url(#SVGID_447_);fill:#5834D6;}
	.st825{clip-path:url(#SVGID_447_);fill:#5732D5;}
	.st826{clip-path:url(#SVGID_447_);fill:#5631D5;}
	.st827{clip-path:url(#SVGID_447_);fill:#5530D5;}
	.st828{clip-path:url(#SVGID_447_);fill:#542FD5;}
	.st829{clip-path:url(#SVGID_447_);fill:#542ED5;}
	.st830{clip-path:url(#SVGID_447_);fill:#532DD4;}
	.st831{clip-path:url(#SVGID_447_);fill:#522CD4;}
	.st832{clip-path:url(#SVGID_447_);fill:#512BD4;}
	.st833{fill:url(#SVGID_448_);}
	.st834{clip-path:url(#SVGID_450_);fill:#8065E0;}
	.st835{clip-path:url(#SVGID_450_);fill:#7F64E0;}
	.st836{clip-path:url(#SVGID_450_);fill:#7F63E0;}
	.st837{clip-path:url(#SVGID_450_);fill:#7E63DF;}
	.st838{clip-path:url(#SVGID_450_);fill:#7D62DF;}
	.st839{clip-path:url(#SVGID_450_);fill:#7D61DF;}
	.st840{clip-path:url(#SVGID_450_);fill:#7C60DF;}
	.st841{clip-path:url(#SVGID_450_);fill:#7B5FDF;}
	.st842{clip-path:url(#SVGID_450_);fill:#7B5EDF;}
	.st843{clip-path:url(#SVGID_450_);fill:#7A5DDE;}
	.st844{clip-path:url(#SVGID_450_);fill:#795CDE;}
	.st845{clip-path:url(#SVGID_450_);fill:#785BDE;}
	.st846{clip-path:url(#SVGID_450_);fill:#775ADE;}
	.st847{clip-path:url(#SVGID_450_);fill:#7659DD;}
	.st848{clip-path:url(#SVGID_450_);fill:#7658DD;}
	.st849{clip-path:url(#SVGID_450_);fill:#7557DD;}
	.st850{clip-path:url(#SVGID_450_);fill:#7456DD;}
	.st851{clip-path:url(#SVGID_450_);fill:#7355DC;}
	.st852{clip-path:url(#SVGID_450_);fill:#7254DC;}
	.st853{clip-path:url(#SVGID_450_);fill:#7153DC;}
	.st854{clip-path:url(#SVGID_450_);fill:#7051DC;}
	.st855{clip-path:url(#SVGID_450_);fill:#6F50DB;}
	.st856{clip-path:url(#SVGID_450_);fill:#6E4FDB;}
	.st857{clip-path:url(#SVGID_450_);fill:#6D4EDB;}
	.st858{clip-path:url(#SVGID_450_);fill:#6C4DDB;}
	.st859{clip-path:url(#SVGID_450_);fill:#6B4BDA;}
	.st860{clip-path:url(#SVGID_450_);fill:#6A4ADA;}
	.st861{clip-path:url(#SVGID_450_);fill:#6949DA;}
	.st862{clip-path:url(#SVGID_450_);fill:#6848DA;}
	.st863{clip-path:url(#SVGID_450_);fill:#6746D9;}
	.st864{clip-path:url(#SVGID_450_);fill:#6645D9;}
	.st865{clip-path:url(#SVGID_450_);fill:#6544D9;}
	.st866{clip-path:url(#SVGID_450_);fill:#6443D9;}
	.st867{clip-path:url(#SVGID_450_);fill:#6442D8;}
	.st868{clip-path:url(#SVGID_450_);fill:#6341D8;}
	.st869{clip-path:url(#SVGID_450_);fill:#6240D8;}
	.st870{clip-path:url(#SVGID_450_);fill:#613FD8;}
	.st871{clip-path:url(#SVGID_450_);fill:#603ED8;}
	.st872{clip-path:url(#SVGID_450_);fill:#603DD7;}
	.st873{clip-path:url(#SVGID_450_);fill:#5F3CD7;}
	.st874{clip-path:url(#SVGID_450_);fill:#5E3BD7;}
	.st875{clip-path:url(#SVGID_450_);fill:#5D3AD7;}
	.st876{clip-path:url(#SVGID_450_);fill:#5C39D7;}
	.st877{clip-path:url(#SVGID_450_);fill:#5B38D6;}
	.st878{clip-path:url(#SVGID_450_);fill:#5A37D6;}
	.st879{clip-path:url(#SVGID_450_);fill:#5A36D6;}
	.st880{clip-path:url(#SVGID_450_);fill:#5935D6;}
	.st881{clip-path:url(#SVGID_450_);fill:#5834D6;}
	.st882{clip-path:url(#SVGID_450_);fill:#5732D5;}
	.st883{clip-path:url(#SVGID_450_);fill:#5631D5;}
	.st884{clip-path:url(#SVGID_450_);fill:#5530D5;}
	.st885{clip-path:url(#SVGID_450_);fill:#542FD5;}
	.st886{clip-path:url(#SVGID_450_);fill:#542ED5;}
	.st887{clip-path:url(#SVGID_450_);fill:#532DD4;}
	.st888{clip-path:url(#SVGID_450_);fill:#522CD4;}
	.st889{clip-path:url(#SVGID_450_);fill:#512BD4;}
	.st890{fill:url(#SVGID_451_);}
	.st891{fill:url(#SVGID_452_);}
	.st892{fill:url(#SVGID_453_);}
	.st893{fill:url(#SVGID_454_);}
	.st894{fill:url(#SVGID_455_);}
	.st895{fill:url(#SVGID_456_);}
	.st896{fill:url(#SVGID_457_);}
	.st897{fill:url(#SVGID_458_);}
	.st898{fill:url(#SVGID_459_);}
	.st899{fill:url(#SVGID_460_);}
	.st900{fill:url(#SVGID_461_);}
	.st901{fill:url(#SVGID_462_);}
	.st902{fill:url(#SVGID_463_);}
	.st903{fill:url(#SVGID_464_);}
	.st904{fill:url(#SVGID_465_);}
	.st905{fill:url(#SVGID_466_);}
	.st906{fill:url(#SVGID_467_);}
	.st907{fill:url(#SVGID_468_);}
	.st908{fill:url(#SVGID_469_);}
	.st909{fill:#EB8470;}
	.st910{fill:url(#SVGID_470_);}
	.st911{fill:url(#SVGID_471_);}
	.st912{fill:url(#SVGID_472_);}
	.st913{fill:url(#SVGID_473_);}
	.st914{fill:url(#SVGID_474_);}
	.st915{fill:url(#SVGID_475_);}
	.st916{fill:url(#SVGID_476_);}
	.st917{fill:url(#SVGID_477_);}
	.st918{fill:url(#SVGID_478_);}
	.st919{fill:url(#SVGID_479_);}
	.st920{fill:url(#SVGID_480_);}
	.st921{fill:url(#SVGID_481_);}
	.st922{fill:url(#SVGID_482_);}
	.st923{fill:url(#SVGID_483_);}
	.st924{fill:url(#SVGID_484_);}
	.st925{fill:url(#SVGID_485_);}
	.st926{fill:url(#SVGID_486_);}
	.st927{fill:url(#SVGID_487_);}
	.st928{fill:url(#SVGID_488_);}
	.st929{fill:url(#SVGID_489_);}
	.st930{fill:url(#SVGID_490_);}
	.st931{fill:url(#SVGID_491_);}
	.st932{fill:url(#SVGID_492_);}
	.st933{fill:url(#SVGID_493_);}
	.st934{fill:url(#SVGID_494_);}
	.st935{fill:url(#SVGID_495_);}
	.st936{fill:url(#SVGID_496_);}
	.st937{fill:url(#SVGID_497_);}
	.st938{fill:url(#SVGID_498_);}
	.st939{fill:url(#SVGID_499_);}
	.st940{fill:url(#SVGID_500_);}
	.st941{fill:url(#SVGID_501_);}
	.st942{fill:url(#SVGID_502_);}
	.st943{fill:url(#SVGID_503_);}
	.st944{fill:url(#SVGID_504_);}
	.st945{fill:url(#SVGID_505_);}
	.st946{fill:url(#SVGID_506_);}
	.st947{fill:url(#SVGID_507_);}
	.st948{fill:url(#SVGID_508_);}
	.st949{fill:url(#SVGID_509_);}
	.st950{fill:url(#SVGID_510_);}
	.st951{fill:url(#SVGID_511_);}
	.st952{fill:url(#SVGID_512_);}
	.st953{fill:url(#SVGID_513_);}
	.st954{fill:url(#SVGID_514_);}
	.st955{fill:url(#SVGID_515_);}
	.st956{fill:url(#SVGID_516_);}
	.st957{fill:url(#SVGID_517_);}
	.st958{fill:url(#SVGID_518_);}
	.st959{fill:url(#SVGID_519_);}
	.st960{fill:url(#SVGID_520_);}
	.st961{fill:url(#SVGID_521_);}
	.st962{fill:url(#SVGID_522_);}
	.st963{fill:url(#SVGID_523_);}
	.st964{fill:url(#SVGID_524_);}
	.st965{fill:url(#SVGID_525_);}
	.st966{fill:url(#SVGID_526_);}
	.st967{fill:url(#SVGID_527_);}
	.st968{fill:url(#SVGID_528_);}
	.st969{fill:url(#SVGID_529_);}
	.st970{fill:url(#SVGID_530_);}
	.st971{fill:url(#SVGID_531_);}
	.st972{fill:url(#SVGID_532_);}
	.st973{fill:url(#SVGID_533_);}
	.st974{fill:url(#SVGID_534_);}
	.st975{fill:url(#SVGID_535_);}
	.st976{fill:url(#SVGID_536_);}
	.st977{fill:url(#SVGID_537_);}
	.st978{fill:url(#SVGID_538_);}
	.st979{fill:url(#SVGID_539_);}
	.st980{fill:url(#SVGID_540_);}
	.st981{fill:url(#SVGID_541_);}
	.st982{fill:url(#SVGID_542_);}
	.st983{fill:#F9C163;}
	.st984{fill:url(#SVGID_543_);}
	.st985{fill:#E6F2FC;}
	.st986{fill:url(#SVGID_544_);}
	.st987{fill:url(#SVGID_545_);}
	.st988{fill:url(#SVGID_546_);}
	.st989{fill:url(#SVGID_547_);}
	.st990{fill:url(#SVGID_548_);}
	.st991{fill:url(#SVGID_549_);}
	.st992{fill:none;stroke:#908D89;stroke-width:2;stroke-miterlimit:10;}
	.st993{fill:url(#SVGID_550_);}
	.st994{fill:url(#SVGID_551_);}
	.st995{fill:url(#SVGID_552_);}
	.st996{fill:url(#SVGID_553_);}
	.st997{fill:url(#SVGID_554_);}
	.st998{fill:url(#SVGID_555_);}
	.st999{fill:url(#SVGID_556_);}
	.st1000{fill:url(#SVGID_557_);}
	.st1001{fill:url(#SVGID_558_);}
	.st1002{fill:url(#SVGID_559_);}
	.st1003{fill:url(#SVGID_560_);}
	.st1004{fill:url(#SVGID_561_);}
	.st1005{fill:url(#SVGID_562_);}
	.st1006{fill:url(#SVGID_563_);}
	.st1007{fill:url(#SVGID_564_);}
	.st1008{fill:url(#SVGID_565_);}
	.st1009{fill:#2ECCEF;}
	.st1010{fill:url(#SVGID_566_);}
	.st1011{fill:#DDF3FF;}
	.st1012{fill:#DF972B;}
	.st1013{fill:#F2F1F0;}
	.st1014{fill:#F4F3F2;}
	.st1015{fill:#6BAFE9;}
	.st1016{fill:#E96F5F;}
	.st1017{fill:#F2D850;}
	.st1018{fill:#8DE265;}
	.st1019{fill:url(#SVGID_567_);}
	.st1020{fill:url(#SVGID_570_);}
	.st1021{fill:url(#SVGID_573_);}
</style>
<g>
	<polygon class="st201" points="498.4,143.5 498.4,175.37 483.16,175.39 498.4,190.55 498.4,266.36 550.98,262.13 550.98,144.87 	
		"/>
	<g>
		<path class="st58" d="M412.54,219.44l-222.1,8.23c-3.02,0.11-5.48-2.34-5.48-5.47V36.27c0-3.13,2.46-5.43,5.48-5.14l222.1,21.65
			c2.16,0.21,3.91,2.52,3.91,5.16v156.58C416.45,217.16,414.71,219.36,412.54,219.44z"/>
		<path class="st187" d="M283.7,59.38l-75.5-6.3c-2.78-0.23-5.04-2.78-5.04-5.7v-0.26c0-2.92,2.26-5.08,5.04-4.82l75.5,6.86
			c2.49,0.23,4.49,2.63,4.49,5.38v0.25C288.2,57.53,286.19,59.59,283.7,59.38z"/>
		<path class="st93" d="M184.96,59.71v162.5c0,3.13,2.46,5.58,5.48,5.47l222.1-8.23c2.16-0.08,3.91-2.28,3.91-4.92V77.67
			L184.96,59.71z"/>
		<polygon class="st45" points="184.96,75.38 416.45,90.87 416.45,77.67 184.96,59.71 		"/>
		<path class="st201" d="M398.43,152.36l-81.32-1.37c-1.29-0.02-2.33-1.22-2.33-2.68V95.21c0-1.46,1.04-2.58,2.33-2.5l81.32,4.92
			c1.13,0.07,2.05,1.23,2.05,2.6v49.69C400.48,151.29,399.56,152.38,398.43,152.36z"/>
		<polygon class="st513" points="206.87,149.8 304.21,151.4 304.21,92.88 206.87,87.05 		"/>
		<polygon class="st6" points="400.56,165.28 314.87,164.72 314.87,157.3 400.56,158.34 		"/>
		<path class="st59" d="M317.26,181.17c-2.63,0.02-4.78-2.41-4.78-5.4s2.15-5.42,4.78-5.41c2.62,0.01,4.75,2.43,4.75,5.4
			C322.01,178.73,319.88,181.16,317.26,181.17z M317.26,171.48c-2.09,0-3.79,1.92-3.79,4.3c0,2.37,1.7,4.29,3.79,4.28
			c2.08-0.01,3.77-1.94,3.77-4.3C321.03,173.4,319.34,171.48,317.26,171.48z"/>
		<path class="st59" d="M319.4,175.76c0,1.35-0.96,2.44-2.15,2.44c-1.19,0-2.16-1.09-2.16-2.44c0-1.35,0.97-2.44,2.16-2.44
			C318.44,173.32,319.4,174.42,319.4,175.76z"/>
		<path class="st59" d="M364.74,180.9c-2.45,0.01-4.45-2.32-4.45-5.21c0-2.88,2-5.23,4.45-5.22c2.44,0.01,4.42,2.34,4.42,5.21
			C369.16,178.54,367.18,180.88,364.74,180.9z M364.74,171.55c-1.94,0-3.53,1.86-3.53,4.14s1.58,4.14,3.53,4.13
			c1.94-0.01,3.51-1.87,3.51-4.14C368.25,173.4,366.67,171.55,364.74,171.55z"/>
		<polygon class="st45" points="354.39,178.58 325.04,178.69 325.04,172.5 354.39,172.52 		"/>
		<path class="st59" d="M222.33,181.72c-3.02,0.02-5.49-2.58-5.49-5.78s2.47-5.81,5.49-5.8c3.01,0.01,5.45,2.6,5.45,5.78
			C227.78,179.1,225.34,181.7,222.33,181.72z M222.33,171.33c-2.4,0-4.35,2.06-4.35,4.6s1.96,4.6,4.35,4.59
			c2.39-0.01,4.33-2.08,4.33-4.6S224.72,171.33,222.33,171.33z"/>
		<path class="st59" d="M224.79,175.92c0,1.44-1.1,2.61-2.47,2.62c-1.37,0-2.47-1.16-2.47-2.61c0-1.45,1.11-2.62,2.47-2.62
			C223.69,173.31,224.79,174.48,224.79,175.92z"/>
		<polygon class="st187" points="291.45,178.83 231.26,179.06 231.26,172.43 291.45,172.47 		"/>
		<path class="st59" d="M222.33,200.85c-3.02,0.06-5.49-2.5-5.49-5.71s2.47-5.84,5.49-5.87c3.01-0.03,5.45,2.53,5.45,5.71
			S225.34,200.79,222.33,200.85z M222.33,190.47c-2.4,0.03-4.35,2.12-4.35,4.66s1.96,4.57,4.35,4.53c2.39-0.04,4.33-2.13,4.33-4.66
			C226.66,192.47,224.72,190.44,222.33,190.47z"/>
		<polygon class="st187" points="291.45,197.04 231.26,198.08 231.26,191.44 291.45,190.68 		"/>
		<polygon class="st45" points="400.11,178.4 372.82,178.51 372.82,172.54 400.11,172.56 		"/>
		<polygon class="st6" points="369.28,199.03 312.71,200.16 312.71,189.22 369.28,188.55 		"/>
		<path class="st45" d="M398.63,189.78v7.09l-23.82,0.44v-7.23L398.63,189.78 M399.93,188.19l-26.48,0.31v10.45l26.48-0.53V188.19
			L399.93,188.19z"/>
		<polygon class="st59" points="369.28,199.03 359.59,199.23 359.59,188.67 369.28,188.55 		"/>
		<polyline class="st514" points="361.41,191.81 364.61,195.52 367.58,191.57 		"/>
	</g>
	<path class="st41" d="M447.26,184.52c-1.21,0.51-2.4,1.11-3.58,1.84c-1.61,0.99-3.11,2.13-4.5,3.41l2.5,6.68
		c-1.38,1.47-2.58,3.12-3.6,4.9l-6.65-0.69c-1.51,3.34-2.53,6.94-3.01,10.63l5.93,2.91c-0.13,2.44,0.05,4.91,0.56,7.31
		c-1.44,1.23-3.87,3.23-5.43,4.5c0.4,1.38,0.88,2.73,1.45,4.05c0.79,1.82,1.73,3.49,2.77,5.02l6.01-3.21
		c1.3,1.61,2.78,2.97,4.39,4.04l-1.05,7.57c2.8,1.45,5.82,2.29,8.93,2.51l3.01-7.03c1.73-0.09,3.47-0.43,5.19-1.04l3.42,5.85
		c1.23-0.57,2.45-1.25,3.65-2.05c1.63-1.08,3.13-2.33,4.5-3.7l-2.45-6.4c1.35-1.54,2.52-3.25,3.49-5.08l6,1
		c1.48-3.42,2.46-7.09,2.88-10.84c-1.74-0.72-4.19-1.74-5.56-2.35c0.11-2.15-0.03-4.32-0.42-6.45l5.14-4.1
		c-0.4-1.59-0.91-3.15-1.54-4.68c-0.78-1.88-1.71-3.62-2.76-5.2l-5.44,3.3c-1.31-1.7-2.8-3.14-4.45-4.28l1.34-7.18
		c-2.61-1.52-5.44-2.5-8.39-2.91l-2.5,6.83c-2.1-0.09-4.24,0.2-6.36,0.89L447.26,184.52z M466.15,207.53
		c2.82,6.68,0.42,15.12-5.39,18.91c-5.86,3.82-13.01,1.49-15.92-5.27c-2.93-6.79-0.44-15.38,5.52-19.12
		C456.27,198.33,463.32,200.82,466.15,207.53z"/>
	<path class="st2" d="M480.39,87.51l-86.57-6.36c-2.44-0.18-4.43,2.06-4.43,5.01v66.42c0,2.95,1.99,5.36,4.43,5.39l61.27,0.76
		l17.02,15.58v-15.37l8.29,0.1c2.11,0.03,3.82-2.16,3.82-4.89V92.72C484.21,90,482.5,87.67,480.39,87.51z"/>
	<g>
		<path class="st6" d="M447.26,101.72l-24.05-1.43c-0.92-0.05-1.67-1.02-1.67-2.16s0.75-2.01,1.67-1.95l24.05,1.51
			c0.89,0.06,1.6,1,1.6,2.11C448.86,100.91,448.14,101.77,447.26,101.72z"/>
	</g>
	<g>
		<path class="st201" d="M415.71,99.84l-11.42-0.68c-0.95-0.06-1.72-1.04-1.72-2.19s0.77-2.04,1.72-1.98l11.42,0.72
			c0.93,0.06,1.69,1.03,1.69,2.17S416.64,99.89,415.71,99.84z"/>
	</g>
	<g>
		<path class="st6" d="M436.41,110.02l-22.91-1.2c-0.94-0.05-1.7-1.02-1.7-2.16s0.76-2.03,1.7-1.98l22.91,1.27
			c0.9,0.05,1.63,1,1.63,2.12C438.05,109.2,437.32,110.07,436.41,110.02z"/>
	</g>
	<g>
		<path class="st201" d="M455.85,119.84l-27.39-1.23c-0.91-0.04-1.66-0.99-1.66-2.12c0-1.13,0.74-2.01,1.66-1.97l27.39,1.32
			c0.87,0.04,1.58,0.97,1.58,2.07S456.72,119.88,455.85,119.84z"/>
	</g>
	<g>
		<path class="st6" d="M420.72,118.26l-7.21-0.32c-0.94-0.04-1.7-1.01-1.7-2.15s0.76-2.04,1.7-1.99l7.21,0.35
			c0.92,0.04,1.67,1,1.67,2.14C422.39,117.42,421.64,118.31,420.72,118.26z"/>
	</g>
	<g>
		<path class="st6" d="M469.81,129.17l-16.02-0.6c-0.88-0.03-1.59-0.96-1.59-2.07s0.71-1.98,1.59-1.94l16.02,0.65
			c0.85,0.03,1.54,0.95,1.54,2.04S470.66,129.2,469.81,129.17z"/>
	</g>
	<g>
		<path class="st6" d="M446.96,128.31l-23.44-0.88c-0.92-0.03-1.67-0.98-1.67-2.12c0-1.14,0.75-2.03,1.67-1.99l23.44,0.96
			c0.89,0.04,1.6,0.97,1.6,2.08C448.56,127.47,447.84,128.35,446.96,128.31z"/>
	</g>
	<g>
		<path class="st201" d="M442.16,137.04l-29.29-0.88c-0.94-0.03-1.7-0.98-1.7-2.13s0.76-2.05,1.7-2.02l29.29,0.98
			c0.89,0.03,1.62,0.96,1.62,2.08C443.78,136.18,443.05,137.07,442.16,137.04z"/>
	</g>
	<g>
		<path class="st201" d="M450.83,146.14l-26.69-0.61c-0.92-0.02-1.67-0.96-1.67-2.1c0-1.14,0.75-2.04,1.67-2.01l26.69,0.7
			c0.88,0.02,1.59,0.94,1.59,2.05S451.71,146.16,450.83,146.14z"/>
	</g>
	<polygon class="st58" points="498.4,158.85 550.98,159.52 550.98,144.87 498.4,143.5 	"/>
	<g>
		<path class="st2" d="M527.94,173.88l-18.42,0.01c-0.8,0-1.44-0.86-1.44-1.91s0.65-1.91,1.44-1.91l18.42,0.06
			c0.77,0,1.39,0.85,1.39,1.88S528.71,173.88,527.94,173.88z"/>
	</g>
	<g>
		<path class="st6" d="M533.63,182.96l-18.23,0.15c-0.79,0.01-1.43-0.84-1.43-1.89c0-1.05,0.64-1.91,1.43-1.91l18.23-0.09
			c0.76,0,1.38,0.83,1.38,1.86C535.01,182.12,534.39,182.96,533.63,182.96z"/>
	</g>
	<g>
		<path class="st6" d="M540.27,191.94l-18.01,0.3c-0.78,0.01-1.41-0.82-1.41-1.87c0-1.05,0.63-1.9,1.41-1.91l18.01-0.24
			c0.75-0.01,1.36,0.81,1.36,1.84S541.03,191.93,540.27,191.94z"/>
	</g>
	<g>
		<path class="st2" d="M527.94,201.28l-18.42,0.46c-0.8,0.02-1.44-0.82-1.44-1.88s0.65-1.93,1.44-1.94l18.42-0.39
			c0.77-0.02,1.39,0.81,1.39,1.85S528.71,201.26,527.94,201.28z"/>
	</g>
	<g>
		<path class="st6" d="M527.94,210.41l-18.42,0.61c-0.8,0.03-1.44-0.81-1.44-1.87s0.65-1.93,1.44-1.96l18.42-0.54
			c0.77-0.02,1.39,0.8,1.39,1.84S528.71,210.39,527.94,210.41z"/>
	</g>
	<g>
		<path class="st2" d="M533.5,219.32l-18.24,0.75c-0.79,0.03-1.43-0.79-1.43-1.85c0-1.05,0.64-1.93,1.43-1.96l18.24-0.69
			c0.76-0.03,1.38,0.78,1.38,1.82C534.88,218.43,534.26,219.29,533.5,219.32z"/>
	</g>
	<g>
		<path class="st6" d="M533.63,228.4l-18.23,0.9c-0.79,0.04-1.43-0.78-1.43-1.83c0-1.05,0.64-1.93,1.43-1.97l18.23-0.83
			c0.76-0.03,1.38,0.77,1.38,1.81C535.01,227.5,534.39,228.37,533.63,228.4z"/>
	</g>
	<g>
		<path class="st6" d="M540.27,237.11l-18.01,1.03c-0.78,0.04-1.41-0.77-1.41-1.81c0-1.05,0.63-1.93,1.41-1.97l18.01-0.97
			c0.75-0.04,1.36,0.76,1.36,1.78S541.03,237.07,540.27,237.11z"/>
	</g>
	<g>
		<polygon class="st243" points="242.13,256.46 85.02,265.71 85.02,160.38 242.13,161.69 		"/>
		<g>
			<path class="st6" d="M152.52,226.57l-30.95-12.62v-3.19l30.95-16.01v4.75l-25.09,12.45l25.09,9.81V226.57z"/>
			<path class="st6" d="M178.48,187.46l-16.8,46.44l-5.19,0.21l16.91-46.6L178.48,187.46z"/>
			<path class="st6" d="M182.27,220.8l23.36-10.77l-23.36-11.05v-4.65l28.57,14.26v3l-28.57,13.93V220.8z"/>
		</g>
	</g>
</g>
</svg>
