<?xml version="1.0" encoding="utf-8"?>
<!-- Generator: Adobe Illustrator 24.3.0, SVG Export Plug-In . SVG Version: 6.00 Build 0)  -->
<svg version="1.1" id="Layer_1" xmlns="http://www.w3.org/2000/svg" xmlns:xlink="http://www.w3.org/1999/xlink" x="0px" y="0px"
	 viewBox="0 0 636 300" style="enable-background:new 0 0 636 300;" xml:space="preserve">
<style type="text/css">
	.st0{fill:url(#SVGID_1_);}
	.st1{fill:#B3AFAB;}
	.st2{fill:#625F5B;}
	.st3{fill:#AACDF6;}
	.st4{fill:#9C9894;}
	.st5{fill:#CCCAC7;}
	.st6{fill:#FFFFFF;}
	.st7{fill:#84817D;}
	.st8{fill:#F7B548;}
	.st9{fill:#E6E6E6;}
	.st10{fill:#E86E58;}
	.st11{fill:#FDC9B5;}
	.st12{fill:#797672;}
	.st13{fill:#666666;}
	.st14{fill:#908D89;}
	.st15{fill:#29C3E5;}
	.st16{fill:#1FB1D1;}
	.st17{fill:#F8B84F;}
	.st18{fill:#EEEDEC;}
	.st19{fill:#179BB8;}
	.st20{fill:#C5D43B;}
	.st21{fill:#9EAE2B;}
	.st22{fill:#797673;}
	.st23{fill:#6BA8F1;}
	.st24{fill:#605D5A;}
	.st25{fill:#E1EA95;}
</style>
<g>
	<radialGradient id="SVGID_1_" cx="353.9903" cy="356.4046" r="200.513" gradientUnits="userSpaceOnUse">
		<stop  offset="0.1159" style="stop-color:#FFFFFF"/>
		<stop  offset="0.9695" style="stop-color:#B8D6F7"/>
	</radialGradient>
	<path class="st0" d="M586.81,212.28c-1.85-24.43-21.67-42.84-44.27-41.12c-0.58,0.04-1.15,0.11-1.71,0.18
		c-4.2-18.9-19.75-32.73-37.87-33.34C490.91,74.97,437.05,29.55,376.29,34.16c-22.5,1.71-43.03,10.06-60.08,23.16
		c-3.57-2.42-11.81-6.26-20.45-4.29c-8.86,2.02-13.68,6.84-17.4,12.43c-11.97-8.86-33.4-10.27-46.98-7.41
		c-31.49,6.63-53.09,30.92-58.81,70.37c-2.4-0.22-4.84-0.24-7.31-0.05c-21.79,1.65-38.89,19.04-42.63,41.16
		c-1.36-0.01-2.73,0.02-4.11,0.13c-18.66,1.42-34.36,12.81-43.02,29.01c-2.46,4.76-4.19,9.36-5.32,13.78
		c-0.14,0.55-0.26,1.11-0.39,1.67c-0.09,0.4-0.18,0.8-0.26,1.19c-0.14,0.68-0.26,1.36-0.37,2.04c-0.06,0.37-0.12,0.75-0.18,1.12
		c-0.08,0.51-0.15,1.03-0.21,1.55c-2.56,21.87,8.76,38.33,14.71,45.35c84.38-9.86,264.15-27.92,501.35-35.41
		C586.96,224.57,587.28,218.47,586.81,212.28z"/>
	<g>
		<path class="st1" d="M238.35,102.32l-77.97-2.74c-1.79-0.06-3.22-1.52-3.19-3.25l0.77-52.68c0.03-1.73,1.49-3.03,3.28-2.91
			l77.76,5.23c1.63,0.11,2.94,1.53,2.92,3.18l-0.57,50.28C241.32,101.09,239.98,102.38,238.35,102.32z"/>
		<path class="st2" d="M240.85,102.41l-79.81-2.81c-1.21-0.04-2.19-1.03-2.17-2.21l0.8-54.63c0.02-1.17,1.01-2.06,2.23-1.98
			l79.59,5.35c1.11,0.07,1.99,1.04,1.98,2.16l-0.59,52.15C242.87,101.57,241.96,102.45,240.85,102.41z"/>
		<path class="st3" d="M238.34,96.93l-74.41-2.85c-0.44-0.02-0.78-0.37-0.78-0.8l0.7-48.16c0.01-0.42,0.36-0.74,0.8-0.71l74.24,4.85
			c0.4,0.03,0.72,0.37,0.72,0.78l-0.53,46.18C239.07,96.63,238.74,96.95,238.34,96.93z"/>
		<path class="st4" d="M265.58,107.33c0.01-0.69,0-1.43,0-1.67c0-0.19-23.35-1.44-23.35-1.44l-82.52-5.03l-0.02,1.46
			c0,0,0.01,0.76,0.83,1.08c0.82,0.32,22.86,3.41,22.86,3.41c1.4,0.29,2.89,0.53,4.13,0.57l77.44,2.25
			C265.46,107.99,265.59,107.75,265.58,107.33z"/>
		<path class="st5" d="M265.14,105.83l-77.27-2.43c-1.24-0.04-2.8-0.29-4.67-0.58l-23.53-3.69l82.59,2.92l23.02,3.28
			C265.77,105.52,265.67,105.84,265.14,105.83z"/>
		<g>
			<path class="st6" d="M190.29,59.23c-0.74,0.15-1.48,0.36-2.22,0.62c-1,0.35-1.94,0.79-2.81,1.3l1.25,3.42
				c-0.88,0.6-1.66,1.31-2.32,2.08l-3.93-0.86c-1.01,1.49-1.75,3.14-2.16,4.88l3.42,1.89c-0.16,1.17-0.14,2.38,0.07,3.58
				c-0.9,0.48-2.42,1.23-3.38,1.72c0.19,0.7,0.42,1.39,0.72,2.08c0.41,0.95,0.9,1.83,1.47,2.66l3.7-1.04
				c0.72,0.89,1.56,1.68,2.48,2.34l-0.9,3.59c1.63,0.95,3.42,1.64,5.28,2.02l2.07-3.16c1.05,0.11,2.12,0.1,3.19-0.05l1.88,3.18
				c0.77-0.17,1.55-0.39,2.3-0.68c1.04-0.39,2-0.86,2.9-1.41l-1.28-3.37c0.89-0.64,1.67-1.37,2.33-2.19l3.67,1.02
				c1.04-1.56,1.78-3.28,2.17-5.1c-1.05-0.5-2.53-1.21-3.36-1.63c0.14-1.05,0.14-2.13-0.03-3.21l3.32-1.59
				c-0.19-0.81-0.45-1.63-0.79-2.43c-0.42-0.99-0.93-1.92-1.52-2.78l-3.47,1.18c-0.74-0.94-1.61-1.76-2.57-2.46l1.08-3.41
				c-1.54-0.94-3.24-1.65-5.02-2.07l-1.76,3.14c-1.27-0.21-2.58-0.23-3.88-0.06L190.29,59.23z M200.93,71.94
				c1.49,3.51-0.28,7.45-3.96,8.8c-3.7,1.36-7.93-0.4-9.44-3.93c-1.51-3.54,0.29-7.5,4.01-8.83
				C195.24,66.65,199.44,68.42,200.93,71.94z"/>
			<path class="st7" d="M214.01,52.83c-0.4,0.08-0.8,0.19-1.19,0.33c-0.54,0.19-1.04,0.43-1.51,0.71l0.68,1.87
				c-0.47,0.33-0.89,0.71-1.25,1.13l-2.11-0.48c-0.54,0.81-0.94,1.71-1.16,2.65l1.83,1.04c-0.09,0.64-0.08,1.29,0.04,1.95
				c-0.48,0.26-1.3,0.66-1.81,0.92c0.1,0.38,0.23,0.76,0.39,1.14c0.22,0.52,0.48,1,0.79,1.46l1.99-0.55
				c0.39,0.49,0.84,0.92,1.34,1.29l-0.48,1.95c0.88,0.53,1.84,0.91,2.85,1.13l1.12-1.72c0.57,0.07,1.15,0.07,1.72-0.01l1.02,1.75
				c0.42-0.09,0.84-0.21,1.25-0.36c0.56-0.21,1.09-0.46,1.57-0.76l-0.69-1.85c0.48-0.34,0.9-0.74,1.26-1.19l2,0.58
				c0.57-0.85,0.97-1.79,1.18-2.79c-0.57-0.28-1.38-0.68-1.83-0.91c0.08-0.58,0.07-1.17-0.02-1.76l1.81-0.86
				c-0.1-0.45-0.25-0.9-0.43-1.34c-0.23-0.55-0.51-1.06-0.83-1.53l-1.89,0.64c-0.4-0.52-0.87-0.97-1.4-1.35l0.58-1.87
				c-0.84-0.52-1.76-0.91-2.72-1.15l-0.95,1.71c-0.69-0.12-1.39-0.13-2.1-0.04L214.01,52.83z M219.77,59.82
				c0.81,1.93-0.15,4.08-2.14,4.8c-2,0.72-4.28-0.26-5.1-2.19c-0.82-1.94,0.15-4.09,2.16-4.81
				C216.68,56.9,218.96,57.89,219.77,59.82z"/>
		</g>
	</g>
	<g>
		<path class="st7" d="M535.58,111.61c0.13,13.27-10.05,24.21-23.08,24.44c-13.44,0.23-24.74-10.95-24.86-24.98
			c-0.12-14.02,10.97-24.94,24.4-24.4C525.07,87.18,535.45,98.34,535.58,111.61z"/>
		<g>
			<path class="st8" d="M524.15,105.4c-0.07-6.88-5.49-12.63-12.2-12.85c-6.82-0.23-12.38,5.32-12.32,12.4
				c0.03,2.81,0.95,5.4,2.46,7.53l-0.01,0c5.28,6.91,5.57,12.58,5.57,12.58l2.68-0.01l3.85-0.02l2.64-0.01c0,0-0.05-5.31,4.93-12.04
				l-0.02,0C523.27,110.88,524.18,108.26,524.15,105.4z"/>
			<path class="st6" d="M521.1,103.5c-0.12-0.23-0.39-0.32-0.61-0.2c-1.06,0.58-2.46,1.01-4.05,1.29l0.2-1.74
				c0.03-0.26-0.15-0.5-0.4-0.54c-0.25-0.04-0.48,0.14-0.51,0.4l-0.24,2.02c-1.11,0.14-2.29,0.21-3.49,0.19
				c-1.05-0.02-2.07-0.11-3.05-0.25l-0.29-2.11c-0.04-0.26-0.27-0.45-0.52-0.42c-0.25,0.03-0.43,0.26-0.4,0.52l0.25,1.85
				c-1.66-0.31-3.15-0.78-4.34-1.39c-0.23-0.12-0.51-0.03-0.63,0.21c-0.11,0.24-0.01,0.52,0.22,0.64c1.33,0.69,3.02,1.2,4.88,1.52
				l2.82,20.77c0.03,0.24,0.23,0.41,0.46,0.41c0.02,0,0.04,0,0.06,0c0.25-0.04,0.43-0.27,0.39-0.53l-2.78-20.5
				c0.95,0.13,1.93,0.21,2.93,0.22c1.17,0.02,2.3-0.04,3.37-0.17L513,126.13c-0.03,0.26,0.15,0.5,0.4,0.53c0.02,0,0.04,0,0.06,0
				c0.23,0,0.42-0.18,0.45-0.42l2.41-20.68c1.79-0.29,3.38-0.77,4.6-1.44C521.14,104.01,521.22,103.73,521.1,103.5z"/>
			<g>
				<polygon class="st1" points="516.81,124.99 507.64,125.03 507.71,132.13 509.33,132.1 510.04,133.46 514.57,133.39 
					515.25,132.03 516.88,132.01 				"/>
				<g>
					
						<rect x="507.68" y="129.45" transform="matrix(0.9999 -0.0104 0.0104 0.9999 -1.3172 5.3165)" class="st9" width="9.17" height="0.6"/>
					<polygon class="st9" points="516.84,127.64 507.67,127.71 507.66,127.1 516.84,127.04 					"/>
				</g>
			</g>
		</g>
	</g>
	<g>
		<g>
			<path class="st10" d="M523.9,162.56l-37.57,1.17c-2.43,0.08-4.4,2.03-4.4,4.36l-0.04,22.89c0,2.34,1.96,4.46,4.39,4.36l12.16-0.8
				l-0.01,7.79l8.79-8.15l16.68-1.13c2.37-0.1,4.29-2.04,4.29-4.34l-0.01-22.12C528.19,164.29,526.27,162.48,523.9,162.56z"/>
			<path class="st11" d="M516.51,169.87c-4.33-5.53-11.37-0.38-12.01,2c-0.64-2.34-7.58-6.97-12.09-1.2
				c-7.56,9.67,11.82,19.7,12.07,19.8c0,0,0,0.01,0,0.01s0.01,0,0.01,0c0,0,0.01,0,0.01,0s0,0,0-0.01
				C504.75,190.34,523.78,179.16,516.51,169.87z"/>
		</g>
		<g>
			<path class="st6" d="M491.21,148.67l-39.63,0.74c-2.47,0.07-4.49,2.03-4.49,4.38l0.09,25.14c-0.01,2.36,2,4.19,4.47,4.1
				l18.28-0.66l7.94,6.68l0.01-6.97l13.29-0.62c2.42-0.09,4.38-2.04,4.38-4.37l0.02-24.35
				C495.58,150.44,493.63,148.61,491.21,148.67z"/>
			<path class="st8" d="M460.72,166.2c0,1.42-1.21,2.61-2.7,2.66c-1.49,0.05-2.7-1.07-2.7-2.49c0-1.42,1.22-2.61,2.71-2.66
				C459.52,163.66,460.72,164.78,460.72,166.2z"/>
			<path class="st8" d="M470.11,165.9c0,1.42-1.21,2.6-2.69,2.65c-1.48,0.05-2.68-1.06-2.68-2.48c0-1.42,1.21-2.6,2.69-2.65
				C468.92,163.37,470.11,164.48,470.11,165.9z"/>
			<path class="st8" d="M479.45,165.6c0,1.41-1.2,2.59-2.67,2.64c-1.48,0.05-2.67-1.06-2.67-2.47c0-1.41,1.2-2.6,2.68-2.64
				C478.26,163.09,479.45,164.19,479.45,165.6z"/>
		</g>
	</g>
	<g>
		<g>
			<g>
				<path class="st2" d="M313.38,218.88l11.8,0.59l67.7,3.41l0,1.52c0.01,0.36-0.24,0.74-0.71,0.75l-57.88,1.81
					c-0.08,0-0.17-0.01-0.25-0.03l-20.13-5.73c-0.39-0.11-0.55-0.42-0.53-0.72l-0.01,0L313.38,218.88z"/>
				<path class="st7" d="M334.28,225.35l57.87-1.75c0.81-0.02,1-1.14,0.23-1.37l-18.62-5.57c-0.08-0.02-0.15-0.03-0.23-0.03
					l-59.37,1.49c-0.9,0.02-1.11,1.2-0.25,1.44l20.13,5.75C334.12,225.34,334.2,225.35,334.28,225.35z"/>
				<polygon class="st2" points="349.86,195.01 341.98,221.08 338.6,220.26 346.22,195.05 				"/>
				<polygon class="st12" points="341.93,221.08 366.83,220.4 374.29,194.75 349.65,195.01 				"/>
			</g>
			<path class="st1" d="M432.58,199.66l-153.12,2.2c-1.76,0.03-3.18-1.25-3.18-2.85l0.26-101.31c0-1.6,1.43-2.81,3.19-2.72
				l152.91,8.09c1.43,0.08,2.59,1.3,2.59,2.74l-0.04,91.21C435.17,198.46,434.01,199.64,432.58,199.66z"/>
			<path class="st2" d="M434.62,199.63l-152.66,2.19c-1.75,0.03-3.17-1.25-3.17-2.85l0.25-101.15c0-1.59,1.43-2.81,3.18-2.72
				l152.45,8.07c1.43,0.08,2.58,1.3,2.58,2.73l-0.04,91.08C437.21,198.43,436.05,199.61,434.62,199.63z"/>
			<path class="st13" d="M431.18,121.61l0.01-9.85c0-1.44-1.16-2.66-2.6-2.73l-139-6.76c-1.73-0.08-3.14,1.13-3.15,2.72l-0.03,10.84
				L431.18,121.61z"/>
			<g>
				<polygon class="st14" points="403.75,115.79 319.51,112.16 319.52,108.6 403.75,112.43 				"/>
				<path class="st14" d="M296.74,109.44c0,1.1-1.01,1.96-2.25,1.9c-1.24-0.05-2.25-0.99-2.25-2.1c0-1.11,1.01-1.96,2.25-1.9
					C295.74,107.4,296.74,108.34,296.74,109.44z"/>
				<path class="st14" d="M305.21,109.82c0,1.1-1,1.95-2.22,1.89c-1.23-0.05-2.22-0.99-2.22-2.09c0-1.1,1-1.95,2.23-1.89
					C304.22,107.79,305.21,108.72,305.21,109.82z"/>
				<path class="st14" d="M313.59,110.19c0,1.09-0.99,1.94-2.2,1.88c-1.22-0.05-2.2-0.98-2.2-2.08c0-1.1,0.99-1.94,2.21-1.88
					C312.61,108.17,313.59,109.1,313.59,110.19z"/>
			</g>
			<path class="st15" d="M286.41,115.82l-0.18,76.26c0,1.59,1.4,2.86,3.14,2.85l139.17-1.4c1.44-0.01,2.61-1.2,2.61-2.64l0.04-69.28
				L286.41,115.82z"/>
			<path class="st16" d="M286.41,115.82l-0.18,76.26c0,1.59,1.4,2.86,3.14,2.85l35.09-0.35l0.15-77.23L286.41,115.82z"/>
			<g>
				<path class="st17" d="M348.28,129.06l-15.21-0.5c-0.89-0.03-1.61-0.73-1.61-1.57c0-0.84,0.72-1.49,1.61-1.46l15.21,0.53
					c0.87,0.03,1.57,0.72,1.57,1.55C349.85,128.44,349.15,129.09,348.28,129.06z"/>
			</g>
			<g>
				<path class="st18" d="M395.57,137.5l-29.05-0.82c-0.85-0.02-1.54-0.71-1.54-1.52c0-0.82,0.69-1.46,1.54-1.43l29.05,0.88
					c0.82,0.02,1.48,0.69,1.48,1.49C397.05,136.9,396.38,137.53,395.57,137.5z"/>
			</g>
			<g>
				<path class="st6" d="M358.31,136.45l-15.68-0.44c-0.88-0.02-1.59-0.72-1.59-1.55c0-0.83,0.71-1.48,1.59-1.46l15.68,0.47
					c0.86,0.03,1.55,0.71,1.55,1.53C359.87,135.83,359.17,136.48,358.31,136.45z"/>
			</g>
			<g>
				<path class="st18" d="M411.44,144.77l-31.52-0.74c-0.84-0.02-1.51-0.69-1.51-1.5s0.68-1.45,1.51-1.43l31.52,0.8
					c0.8,0.02,1.45,0.68,1.45,1.47C412.88,144.16,412.23,144.79,411.44,144.77z"/>
			</g>
			<path class="st14" d="M371.43,143.83l-19.34-0.46c-0.87-0.02-1.57-0.71-1.57-1.53c0-0.83,0.71-1.48,1.57-1.45l19.33,0.49
				c0.84,0.02,1.53,0.7,1.52,1.51S372.27,143.85,371.43,143.83z"/>
			<path class="st14" d="M417.32,151.7l-21.97-0.41c-0.82-0.02-1.48-0.68-1.48-1.48c0-0.8,0.67-1.44,1.48-1.42l21.97,0.46
				c0.79,0.02,1.43,0.67,1.43,1.46C418.76,151.08,418.11,151.71,417.32,151.7z"/>
			<g>
				<path class="st19" d="M387.25,151.13l-35.17-0.66c-0.87-0.02-1.57-0.7-1.57-1.52c0-0.83,0.71-1.48,1.57-1.46l35.16,0.73
					c0.83,0.02,1.49,0.68,1.49,1.49C388.74,150.51,388.07,151.15,387.25,151.13z"/>
			</g>
			<g>
				<path class="st18" d="M383.68,158.05c-0.83-0.01-1.5-0.68-1.5-1.49c0-0.81,0.67-1.45,1.51-1.44l27.01,0.4c0,0,0,0,0,0
					c0.8,0.01,1.45,0.67,1.45,1.46s-0.65,1.43-1.45,1.42L383.68,158.05C383.68,158.05,383.68,158.05,383.68,158.05z"/>
			</g>
			<path class="st14" d="M376.72,157.91l-15.3-0.22c-0.86-0.01-1.55-0.69-1.55-1.51c0-0.82,0.7-1.48,1.55-1.46l15.3,0.25
				c0.84,0.01,1.52,0.68,1.51,1.49C378.24,157.28,377.56,157.92,376.72,157.91z"/>
			<path class="st14" d="M418.21,165.29l-37.06-0.35c-0.83-0.01-1.51-0.67-1.51-1.48c0-0.81,0.68-1.46,1.51-1.45l37.06,0.43
				c0.79,0.01,1.43,0.66,1.43,1.44C419.65,164.66,419.01,165.3,418.21,165.29z"/>
			<g>
				<path class="st19" d="M372.47,164.85l-11.05-0.1c-0.86-0.01-1.55-0.68-1.55-1.5c0-0.82,0.7-1.48,1.55-1.47l11.05,0.13
					c0.84,0.01,1.52,0.68,1.52,1.49C373.99,164.21,373.31,164.86,372.47,164.85z"/>
			</g>
			<g>
				<path class="st18" d="M404.36,172.01l-40.04-0.19c-0.85,0-1.54-0.67-1.54-1.49c0-0.82,0.69-1.48,1.55-1.47l40.04,0.27
					c0.81,0.01,1.46,0.66,1.46,1.45C405.82,171.37,405.17,172.02,404.36,172.01z"/>
			</g>
			<g>
				<path class="st17" d="M355.87,171.78l-13.29-0.06c-0.88,0-1.59-0.68-1.59-1.51c0-0.83,0.71-1.5,1.59-1.49l13.29,0.09
					c0.86,0.01,1.56,0.68,1.56,1.5C357.43,171.12,356.73,171.78,355.87,171.78z"/>
			</g>
			<g>
				<path class="st18" d="M394.31,178.87l-14.65,0c-0.84,0-1.51-0.66-1.51-1.47c0-0.81,0.68-1.47,1.52-1.47l14.65,0.03
					c0.82,0,1.48,0.65,1.48,1.45S395.12,178.87,394.31,178.87z"/>
			</g>
			<g>
				<path class="st19" d="M372.24,178.86l-20.2,0c-0.87,0-1.57-0.67-1.57-1.5c0-0.83,0.71-1.49,1.57-1.49l20.2,0.04
					c0.84,0,1.53,0.66,1.52,1.48S373.08,178.86,372.24,178.86z"/>
			</g>
			<g>
				<g>
					<polygon class="st13" points="308.29,127.74 294.52,127.29 294.53,124.19 308.29,124.67 					"/>
				</g>
				<g>
					<polygon class="st13" points="316.03,135.26 302.4,134.88 302.41,131.79 316.04,132.2 					"/>
				</g>
				<g>
					<polygon class="st13" points="316.02,142.52 302.39,142.2 302.39,139.12 316.02,139.46 					"/>
				</g>
				<g>
					<polygon class="st13" points="316,149.79 302.37,149.53 302.38,146.44 316.01,146.73 					"/>
				</g>
				<g>
					<polygon class="st13" points="315.99,157.05 302.35,156.86 302.36,153.77 315.99,153.99 					"/>
				</g>
				<g>
					<polygon class="st13" points="308.21,164.24 294.44,164.11 294.45,161.01 308.22,161.17 					"/>
				</g>
				<g>
					<polygon class="st13" points="315.96,171.59 302.32,171.52 302.33,168.43 315.96,168.53 					"/>
				</g>
				<g>
					<polygon class="st13" points="315.94,178.86 302.31,178.85 302.31,175.77 315.95,175.79 					"/>
				</g>
			</g>
		</g>
		<g>
			<polygon class="st20" points="389.67,66.06 389.61,117.21 426.03,118.74 426.06,68.84 			"/>
			<g>
				<path class="st21" d="M390.58,60.98l-4.05-0.32c-1.34-0.11-2.43,0.92-2.43,2.28l-0.06,52c0,1.37,1.09,2.53,2.43,2.58l4.06,0.17
					L390.58,60.98z"/>
				<path class="st21" d="M464.39,66.88l-40.13-3.21l-0.03,55.42l40.16,1.67c1.2,0.05,2.18-0.96,2.18-2.25l0-49.11
					C466.57,68.1,465.59,66.98,464.39,66.88z"/>
			</g>
			<path class="st6" d="M465.75,72.52l0-3.3c0-1.23-0.95-2.3-2.12-2.4l-75.77-6.05c-1.3-0.1-2.36,0.87-2.36,2.17l0,3.49
				L465.75,72.52z"/>
			<g>
				<polygon class="st7" points="409.6,75.47 396.5,74.54 396.5,72.9 409.6,73.84 				"/>
			</g>
			<g>
				<polygon class="st7" points="409.6,81.12 396.49,80.24 396.49,78.6 409.6,79.49 				"/>
			</g>
			<g>
				<polygon class="st7" points="409.59,86.77 396.49,85.94 396.49,84.3 409.6,85.15 				"/>
			</g>
			<g>
				<polygon class="st7" points="409.59,92.32 396.48,91.54 396.48,89.9 409.59,90.7 				"/>
			</g>
			<g>
				<polygon class="st7" points="409.58,97.98 396.47,97.25 396.48,95.61 409.59,96.35 				"/>
			</g>
			<g>
				<polygon class="st7" points="409.58,103.63 396.47,102.96 396.47,101.31 409.58,102.01 				"/>
			</g>
			<g>
				<polygon class="st13" points="429.92,76.91 428.47,76.81 428.47,75.2 429.92,75.31 				"/>
			</g>
			<g>
				<polygon class="st13" points="429.92,82.49 428.46,82.39 428.46,80.78 429.92,80.88 				"/>
			</g>
			<g>
				<polygon class="st13" points="429.91,88.06 428.46,87.97 428.46,86.36 429.91,86.46 				"/>
			</g>
			<g>
				<polygon class="st13" points="429.91,93.64 428.46,93.55 428.46,91.94 429.91,92.03 				"/>
			</g>
			<g>
				<polygon class="st13" points="429.91,99.21 428.45,99.13 428.45,97.52 429.91,97.61 				"/>
			</g>
			<g>
				<polygon class="st13" points="429.9,104.79 428.45,104.71 428.45,103.11 429.91,103.18 				"/>
			</g>
			<g>
				<polygon class="st13" points="429.9,110.37 428.45,110.3 428.45,108.69 429.9,108.76 				"/>
			</g>
			<polygon class="st13" points="460.47,79.08 433.14,77.14 433.14,75.54 460.47,77.51 			"/>
			<polygon class="st20" points="451.88,78.47 446.95,78.12 446.96,76.54 451.88,76.89 			"/>
			<polygon class="st13" points="449.13,89.28 433.14,88.26 433.14,86.66 449.13,87.69 			"/>
			<polygon class="st13" points="460.47,95.45 433.13,93.83 433.13,92.23 460.47,93.88 			"/>
			<polygon class="st13" points="453.35,100.51 433.13,99.39 433.13,97.79 453.35,98.93 			"/>
			<polygon class="st13" points="456.61,106.17 433.13,104.95 433.13,103.35 456.61,104.59 			"/>
			<polygon class="st13" points="460.46,111.83 433.13,110.52 433.13,108.92 460.46,110.25 			"/>
			<polygon class="st20" points="446.63,89.12 441.19,88.77 441.19,87.18 446.63,87.53 			"/>
			<polygon class="st20" points="442.26,94.37 437.91,94.11 437.91,92.51 442.26,92.78 			"/>
			<polygon class="st20" points="453.35,100.51 448.7,100.25 448.7,98.67 453.35,98.93 			"/>
			<polygon class="st13" points="442.52,110.97 437.68,110.74 437.68,109.14 442.52,109.38 			"/>
			<polygon class="st20" points="454.42,95.09 450.15,94.84 450.15,93.26 454.43,93.51 			"/>
			<polygon class="st20" points="446.71,111.17 441.91,110.94 441.91,109.35 446.71,109.58 			"/>
			<path class="st22" d="M468.99,63.53l-86.59-7.15c-1.45-0.12-2.63,0.93-2.63,2.33l-0.07,59.13c0,1.41,1.18,2.6,2.63,2.66
				l86.67,3.42c1.28,0.05,2.32-0.98,2.32-2.31V66.12C471.32,64.8,470.28,63.64,468.99,63.53z M465.84,118.31
				c0,0.67-0.53,1.2-1.19,1.17l-77.49-3.29c-0.73-0.03-1.32-0.63-1.32-1.35l0.06-52.41c0-0.71,0.59-1.24,1.32-1.18l77.43,6.16
				c0.66,0.05,1.19,0.64,1.19,1.31L465.84,118.31z"/>
		</g>
	</g>
	<g>
		<path class="st23" d="M263.22,167.61l-60.35,0.4c-2.43,0.02-4.38-1.82-4.34-4.11l0.67-38.35c0.04-2.28,2.05-4.08,4.47-4.02
			l60.19,1.4c2.24,0.05,4.02,1.86,3.99,4.03l-0.51,36.65C267.3,165.82,265.46,167.6,263.22,167.61z"/>
		<path class="st2" d="M267.78,131.45l0.08-6c0.02-1.33-1.07-2.44-2.44-2.47l-63.46-1.48c-1.49-0.03-2.72,1.07-2.75,2.47l-0.11,6.27
			L267.78,131.45z"/>
		<path class="st14" d="M207.05,126.3c-0.02,0.94-0.84,1.69-1.85,1.67c-1.01-0.02-1.81-0.8-1.8-1.75c0.02-0.95,0.85-1.7,1.86-1.67
			C206.27,124.58,207.07,125.36,207.05,126.3z"/>
		<path class="st14" d="M213.55,126.43c-0.02,0.94-0.84,1.69-1.84,1.67c-1-0.02-1.8-0.8-1.78-1.74c0.02-0.94,0.84-1.69,1.84-1.67
			C212.77,124.72,213.57,125.49,213.55,126.43z"/>
		<path class="st14" d="M220,126.57c-0.02,0.94-0.83,1.68-1.82,1.66c-0.99-0.02-1.78-0.79-1.77-1.73c0.02-0.94,0.83-1.68,1.82-1.66
			C219.22,124.85,220.01,125.63,220,126.57z"/>
		<g>
			<path class="st6" d="M226.27,155.37l-14.38-6.07l0.02-1.4l14.59-6.71l-0.03,2.11l-11.85,5.2l11.69,4.73L226.27,155.37z"/>
			<path class="st6" d="M238.93,138.21l-8.37,20.6l-2.47,0l8.4-20.63L238.93,138.21z"/>
			<path class="st6" d="M240.54,153.26l11.45-4.52l-11.3-5.31l0.03-2.09l13.85,6.82l-0.02,1.37l-14.04,5.86L240.54,153.26z"/>
		</g>
	</g>
	<g>
		<path class="st24" d="M213.19,215.48l-32.75,2.09c-0.93,0.12-1.69-0.57-1.69-1.53l-0.18-70.4c0-0.96,0.75-1.76,1.68-1.79
			l33.01-0.63c0.85-0.02,1.54,0.7,1.54,1.61l-0.08,68.8C214.72,214.54,214.04,215.37,213.19,215.48z"/>
		<path class="st7" d="M214.15,215.48l-32.75,2.09c-0.93,0.12-1.69-0.57-1.69-1.53l-0.18-70.4c0-0.96,0.75-1.76,1.68-1.79
			l33.01-0.63c0.85-0.02,1.54,0.7,1.54,1.61l-0.08,68.8C215.69,214.54,215,215.37,214.15,215.48z"/>
		<path class="st20" d="M212.76,208.43l-29.82,1.65c-0.36,0.04-0.66-0.23-0.66-0.61l-0.15-57.68c0-0.38,0.29-0.69,0.66-0.71
			l30.02-0.45c0.34-0.01,0.61,0.27,0.61,0.63l-0.05,56.44C213.37,208.06,213.1,208.39,212.76,208.43z"/>
		<ellipse class="st6" cx="188.41" cy="167.73" rx="3.38" ry="3.72"/>
		<ellipse class="st6" cx="188.41" cy="179.57" rx="3.38" ry="3.72"/>
		<ellipse class="st6" cx="188.41" cy="191.4" rx="3.38" ry="3.72"/>
		<g>
			<path class="st25" d="M195.58,166.31c-0.58,0-1.05-0.43-1.05-0.98c-0.01-0.54,0.46-0.99,1.04-1l13.74-0.45c0,0,0.01,0,0.01,0
				c0.58,0,1.05,0.43,1.05,0.98c0.01,0.54-0.46,0.99-1.04,1l-13.74,0.45C195.59,166.31,195.58,166.31,195.58,166.31z"/>
		</g>
		<g>
			<path class="st25" d="M195.58,170.25c-0.58,0-1.05-0.43-1.05-0.98c-0.01-0.54,0.46-0.99,1.04-1l13.74-0.45c0,0,0.01,0,0.01,0
				c0.58,0,1.05,0.43,1.05,0.98c0.01,0.54-0.46,0.99-1.04,1l-13.74,0.45C195.59,170.25,195.58,170.25,195.58,170.25z"/>
		</g>
		<g>
			<path class="st25" d="M195.58,178.14c-0.58,0-1.05-0.43-1.05-0.98c-0.01-0.54,0.46-0.99,1.04-1l13.81-0.6c0,0,0.01,0,0.01,0
				c0.58,0,1.05,0.43,1.05,0.98c0.01,0.54-0.46,0.99-1.04,1l-13.81,0.6C195.59,178.14,195.58,178.14,195.58,178.14z"/>
		</g>
		<g>
			<path class="st25" d="M195.58,182.09c-0.58,0-1.05-0.43-1.05-0.98c-0.01-0.54,0.46-0.99,1.04-1l13.81-0.6c0,0,0.01,0,0.01,0
				c0.58,0,1.05,0.43,1.05,0.98c0.01,0.54-0.46,0.99-1.04,1l-13.81,0.6C195.59,182.09,195.58,182.09,195.58,182.09z"/>
		</g>
		<g>
			<path class="st25" d="M195.58,189.98c-0.58,0-1.05-0.43-1.05-0.98c-0.01-0.54,0.46-0.99,1.04-1l13.81-0.64c0,0,0.01,0,0.01,0
				c0.58,0,1.05,0.43,1.05,0.98c0.01,0.54-0.46,0.99-1.04,1l-13.81,0.64C195.59,189.98,195.58,189.98,195.58,189.98z"/>
		</g>
		<g>
			<path class="st25" d="M195.58,193.93c-0.58,0-1.05-0.43-1.05-0.98c-0.01-0.54,0.46-0.99,1.04-1l13.75-0.7c0,0,0.01,0,0.01,0
				c0.58,0,1.05,0.43,1.05,0.98c0.01,0.54-0.46,0.99-1.04,1l-13.75,0.7C195.59,193.93,195.58,193.93,195.58,193.93z"/>
		</g>
	</g>
</g>
</svg>
