<?xml version="1.0" encoding="utf-8"?>
<!-- Generator: Adobe Illustrator 24.2.1, SVG Export Plug-In . SVG Version: 6.00 Build 0)  -->
<svg version="1.1" xmlns="http://www.w3.org/2000/svg" xmlns:xlink="http://www.w3.org/1999/xlink" x="0px" y="0px"
	 viewBox="0 0 636 300" style="enable-background:new 0 0 636 300;" xml:space="preserve">
<style type="text/css">
	.st0{fill:#F6F6F6;}
	.st1{fill:#C7E0F4;}
	.st2{fill:#B3AFAB;}
	.st3{fill:#928E8B;}
	.st4{fill:#605D5A;}
	.st5{fill:#33312D;}
	.st6{fill:#5C2D91;}
	.st7{fill:#C8C6C4;}
	.st8{fill:#FFFFFF;}
	.st9{fill:#9A9793;}
	.st10{fill:#6E66DF;}
	.st11{fill:#A7CBF6;}
	.st12{fill:#72ACF1;}
	.st13{fill:#797673;}
	.st14{fill:none;stroke:#FAF9F8;stroke-width:2;stroke-miterlimit:10;}
	.st15{fill:#E1DFDD;}
	.st16{fill:#D2D2D2;}
</style>
<g id="Layer_2">
</g>
<g id="Layer_3">
	<g>
		<rect x="133.77" y="20.52" class="st0" width="359.43" height="240.87"/>
		<rect x="224.53" y="166.15" class="st1" width="268.66" height="95.24"/>
		<rect x="136.37" y="49.27" class="st2" width="105.54" height="208.64"/>
		<rect x="133.77" y="20.52" class="st3" width="359.43" height="29.77"/>
		<path class="st4" d="M489.45,14.41H137.76c-5.49,0-9.98,4.49-9.98,9.98v248.36h371.66V24.39
			C499.44,18.9,494.94,14.41,489.45,14.41z M487.08,253.03H140.5V30.88h346.58V253.03z"/>
		<path class="st5" d="M529.89,284.23c-11.11,0-416.47,0-430.82,0s-16.72-14.35-16.72-14.35h464.26
			C546.61,270,541,284.23,529.89,284.23z"/>
		<path class="st6" d="M410.75,92.02c-4.42,27.69-28.21,48.12-56.24,48.32c-2.75,0.11-5.5-0.06-8.22-0.5
			c-11.71-1.99-20.44-11.88-20.95-23.75c0.1-13.51,11.13-24.39,24.64-24.29c13.24,0.09,24,10.71,24.28,23.94
			c0.1,4.05-1.65,7.62-5.26,7.71c-3.86,0-5.67-2.75-5.67-6.46v-10.31c0-3.47-2.79-6.29-6.26-6.32h-8.64
			c-8.31-0.06-15.09,6.63-15.14,14.94s6.63,15.09,14.94,15.14c4.32,0.03,8.44-1.8,11.32-5.02l0.3-0.45l0.3,0.5
			c2.11,2.87,5.52,4.49,9.07,4.32c6.49-0.47,11.42-6.03,11.11-12.53c0.03-2.68-0.27-5.36-0.89-7.97
			c-3.58-16.47-19.84-26.92-36.31-23.34c-14.08,3.06-24.1,15.55-24.04,29.95c0.2,16.62,13.51,30.1,30.12,30.52
			c0,0,2.26,0.2,4.81,0.15c12.4-0.08,24.52-3.7,34.94-10.42c0.15-0.1,0.3,0.1,0.2,0.25c-10.27,11.06-24.88,17.03-39.95,16.34
			c-19.91,0.36-36.34-15.48-36.7-35.39c-0.01-0.53-0.01-1.07,0.01-1.6c0-11.76,5.56-22.84,14.98-29.88
			c6.25-4.6,13.8-7.09,21.56-7.12h11.6c9.16-0.01,17.89-3.86,24.07-10.63c0.17-0.19,0.47-0.2,0.65-0.03
			c0.11,0.1,0.16,0.24,0.15,0.38c-0.49,5.21-2.23,10.23-5.06,14.63c-0.12,0.22-0.04,0.49,0.18,0.61c0.1,0.05,0.21,0.07,0.32,0.04
			c10.86-2.45,19.9-9.91,24.38-20.1c0.18-0.29,0.56-0.38,0.85-0.21c0.08,0.05,0.16,0.12,0.21,0.21
			C410.93,72.39,412.46,82.36,410.75,92.02z M348.39,106.39c-4.96,0-8.97,4.02-8.97,8.97s4.02,8.97,8.97,8.97s8.97-4.02,8.97-8.97
			v-8.37c-0.02-0.33-0.28-0.6-0.62-0.62L348.39,106.39z"/>
		<path class="st7" d="M359.83,44.63H156.79c-2.47,0-4.47-2-4.47-4.47v-0.2c0-2.47,2-4.47,4.47-4.47h203.04c2.47,0,4.47,2,4.47,4.47
			v0.2C364.31,42.62,362.3,44.63,359.83,44.63z"/>
		<circle class="st8" cx="176.38" cy="85.53" r="23.67"/>
		<rect x="207.41" y="71.04" class="st9" width="17.01" height="3.37"/>
		<rect x="207.41" y="79.1" class="st9" width="23.27" height="3.37"/>
		<rect x="207.41" y="87.15" class="st9" width="14.7" height="3.37"/>
		<rect x="207.41" y="95.21" class="st9" width="20.63" height="3.37"/>
		<path class="st10" d="M228.34,125.1h-73.05c-1.98,0-3.59-1.61-3.59-3.59v-1.72c0-1.98,1.61-3.59,3.59-3.59h73.05
			c1.98,0,3.59,1.61,3.59,3.59v1.72C231.93,123.49,230.32,125.1,228.34,125.1z"/>
		<g>
			<circle class="st1" cx="160.31" cy="142.85" r="8.63"/>
			<rect x="174.97" y="136.7" class="st9" width="52.77" height="3.37"/>
			<rect x="174.97" y="144.75" class="st9" width="31.77" height="3.37"/>
			<circle class="st1" cx="160.31" cy="168.63" r="8.63"/>
			<rect x="174.97" y="162.47" class="st9" width="42.86" height="3.37"/>
			<rect x="174.97" y="170.53" class="st9" width="35.6" height="3.37"/>
		</g>
		<g>
			<path class="st11" d="M371.52,204.68H264.87c-4.71,0-8.53-3.82-8.53-8.53v-11.26c0-4.71,3.82-8.53,8.53-8.53h106.65
				c4.71,0,8.53,3.82,8.53,8.53v11.26C380.05,200.86,376.23,204.68,371.52,204.68z"/>
			<path class="st0" d="M265.78,225.39h-6.34c-1.61,0-2.92-1.31-2.92-2.92v-6.34c0-1.61,1.31-2.92,2.92-2.92h6.34
				c1.61,0,2.92,1.31,2.92,2.92v6.34C268.7,224.08,267.39,225.39,265.78,225.39z"/>
			<path class="st0" d="M265.78,243.92h-6.34c-1.61,0-2.92-1.31-2.92-2.92v-6.34c0-1.61,1.31-2.92,2.92-2.92h6.34
				c1.61,0,2.92,1.31,2.92,2.92V241C268.7,242.61,267.39,243.92,265.78,243.92z"/>
			<path class="st12" d="M324.2,221.76h-44.77c-1.6,0-2.9-1.3-2.9-2.9v-0.04c0-1.6,1.3-2.9,2.9-2.9h44.77c1.6,0,2.9,1.3,2.9,2.9
				v0.04C327.1,220.46,325.8,221.76,324.2,221.76z"/>
			<path class="st12" d="M341.24,240.19h-61.81c-1.6,0-2.9-1.3-2.9-2.9v-0.04c0-1.6,1.3-2.9,2.9-2.9h61.81c1.6,0,2.9,1.3,2.9,2.9
				v0.04C344.14,238.89,342.84,240.19,341.24,240.19z"/>
			<g>
				<path class="st13" d="M261.74,223.32c-0.23,0-0.45-0.1-0.6-0.27l-2.29-2.57c-0.3-0.33-0.27-0.84,0.07-1.14
					c0.33-0.3,0.84-0.27,1.14,0.07l1.65,1.85l3.56-4.52c0.28-0.35,0.78-0.41,1.13-0.13c0.35,0.28,0.41,0.78,0.13,1.13l-4.16,5.27
					c-0.15,0.19-0.37,0.3-0.61,0.31C261.75,223.32,261.74,223.32,261.74,223.32z"/>
			</g>
			<path class="st10" d="M374.36,225.69h-14.61c-3.29,0-5.96-2.67-5.96-5.96l0,0c0-3.29,2.67-5.96,5.96-5.96h14.61
				c3.29,0,5.96,2.67,5.96,5.96l0,0C380.32,223.03,377.65,225.69,374.36,225.69z"/>
			<path class="st10" d="M374.36,244.35h-14.61c-3.29,0-5.96-2.67-5.96-5.96v0c0-3.29,2.67-5.96,5.96-5.96h14.61
				c3.29,0,5.96,2.67,5.96,5.96v0C380.32,241.68,377.65,244.35,374.36,244.35z"/>
		</g>
		<g>
			<path class="st1" d="M193.01,241.66h-98.1c-4.68,0-8.47-3.79-8.47-8.47v-40.74c0-4.68,3.79-8.47,8.47-8.47h98.1
				c4.68,0,8.47,3.79,8.47,8.47v40.74C201.47,237.87,197.68,241.66,193.01,241.66z"/>
			<rect x="96.44" y="192.32" class="st8" width="6.41" height="6.41"/>
			<rect x="96.44" y="210.04" class="st8" width="6.41" height="6.41"/>
			<rect x="96.44" y="227.76" class="st8" width="6.41" height="6.41"/>
			<rect x="113.17" y="193.74" class="st2" width="55.28" height="3.37"/>
			<rect x="113.17" y="211.76" class="st2" width="78.61" height="3.37"/>
			<rect x="113.17" y="229.44" class="st2" width="49.41" height="3.37"/>
			<line class="st14" x1="86.41" y1="204" x2="201.47" y2="204"/>
			<line class="st14" x1="86.41" y1="222.53" x2="201.47" y2="222.53"/>
		</g>
		<g>
			<path class="st15" d="M557.1,211.52H452.16c-0.77,0-1.4-0.63-1.4-1.4l0.86-117.56c0-0.77,0.63-1.4,1.4-1.4H557.1
				c0.77,0,1.4,0.63,1.4,1.4v117.56C558.5,210.89,557.87,211.52,557.1,211.52z"/>
			<path class="st8" d="M547.02,114.73h-84.77c-2.36,0-4.27-1.91-4.27-4.27v-7.99c0-2.36,1.91-4.27,4.27-4.27h84.77
				c2.36,0,4.27,1.91,4.27,4.27v7.99C551.29,112.82,549.38,114.73,547.02,114.73z"/>
			<path class="st11" d="M473.52,98.2H459.7c-0.95,0-1.72,0.77-1.72,1.72v13.09c0,0.95,0.77,1.72,1.72,1.72h13.82V98.2z"/>
			<path class="st8" d="M547.57,179.19H461.7c-2.05,0-3.72-1.67-3.72-3.72v-52.94c0-2.05,1.67-3.72,3.72-3.72h85.87
				c2.05,0,3.72,1.67,3.72,3.72v52.94C551.29,177.53,549.63,179.19,547.57,179.19z"/>
			<path class="st8" d="M547.62,183.33h-85.98c-2.03,0-3.67,1.64-3.67,3.67v12.74c0,2.03,1.64,3.67,3.67,3.67h85.98
				c2.03,0,3.67-1.64,3.67-3.67v-12.74C551.29,184.97,549.65,183.33,547.62,183.33z"/>
			<circle class="st16" cx="481.12" cy="106.32" r="3.61"/>
			<path class="st11" d="M472.04,173.64h-5.66c-0.78,0-1.41-0.63-1.41-1.41v-26.61c0-0.78,0.63-1.41,1.41-1.41h5.66
				c0.78,0,1.41,0.63,1.41,1.41v26.61C473.45,173.01,472.82,173.64,472.04,173.64z"/>
			<path class="st10" d="M486.17,173.64h-5.66c-0.78,0-1.41-0.63-1.41-1.41v-18.25c0-0.78,0.63-1.41,1.41-1.41h5.66
				c0.78,0,1.41,0.63,1.41,1.41v18.25C487.57,173.01,486.94,173.64,486.17,173.64z"/>
			<path class="st11" d="M500.29,173.64h-5.66c-0.78,0-1.41-0.63-1.41-1.41V142.7c0-0.78,0.63-1.41,1.41-1.41h5.66
				c0.78,0,1.41,0.63,1.41,1.41v29.53C501.7,173.01,501.07,173.64,500.29,173.64z"/>
			<path class="st10" d="M514.41,173.64h-5.66c-0.78,0-1.41-0.63-1.41-1.41v-35.17c0-0.78,0.63-1.41,1.41-1.41h5.66
				c0.78,0,1.41,0.63,1.41,1.41v35.17C515.82,173.01,515.19,173.64,514.41,173.64z"/>
			<path class="st11" d="M528.54,173.64h-5.66c-0.78,0-1.41-0.63-1.41-1.41v-46.17c0-0.78,0.63-1.41,1.41-1.41h5.66
				c0.78,0,1.41,0.63,1.41,1.41v46.17C529.95,173.01,529.32,173.64,528.54,173.64z"/>
			<path class="st10" d="M542.66,173.64h-5.66c-0.78,0-1.41-0.63-1.41-1.41v-26.61c0-0.78,0.63-1.41,1.41-1.41h5.66
				c0.78,0,1.41,0.63,1.41,1.41v26.61C544.07,173.01,543.44,173.64,542.66,173.64z"/>
			<path class="st16" d="M527.3,194.56h-44.77c-1.6,0-2.9-1.3-2.9-2.9v-0.04c0-1.6,1.3-2.9,2.9-2.9h44.77c1.6,0,2.9,1.3,2.9,2.9
				v0.04C530.2,193.26,528.9,194.56,527.3,194.56z"/>
			<path class="st16" d="M539.1,109.06h-44.77c-1.6,0-2.9-1.3-2.9-2.9v-0.04c0-1.6,1.3-2.9,2.9-2.9h44.77c1.6,0,2.9,1.3,2.9,2.9
				v0.04C542,107.77,540.7,109.06,539.1,109.06z"/>
		</g>
	</g>
</g>
</svg>
