<svg xmlns="http://www.w3.org/2000/svg" viewBox="0 0 636 300"><title>swimlane-blazor-shared-libraries</title><line x1="288.5" y1="138.5" x2="288.5" y2="247.5" fill="none" stroke="#d2d2d2" stroke-miterlimit="10" stroke-width="2"/><line x1="235.5" y1="138.5" x2="235.5" y2="247.5" fill="none" stroke="#d2d2d2" stroke-miterlimit="10" stroke-width="2"/><line x1="361.5" y1="138.5" x2="361.5" y2="247.5" fill="none" stroke="#d2d2d2" stroke-miterlimit="10" stroke-width="2"/><line x1="423.5" y1="138.5" x2="423.5" y2="247.5" fill="none" stroke="#d2d2d2" stroke-miterlimit="10" stroke-width="2"/><rect x="209.5" y="3.5" width="238" height="144" rx="3.857" fill="#d2d2d2"/><path d="M443.639,3.5H336.727l81.792,144h25.12a3.861,3.861,0,0,0,3.861-3.861V7.361A3.861,3.861,0,0,0,443.639,3.5Z" fill="#e6e6e6"/><path d="M447.5,26.5V7.361A3.861,3.861,0,0,0,443.639,3.5H213.361A3.861,3.861,0,0,0,209.5,7.361V26.5Z" fill="#737373"/><path d="M443.639,3.5H336.815l13.064,23H447.5V7.361A3.861,3.861,0,0,0,443.639,3.5Z" fill="#939393"/><rect x="234.5" y="10.5" width="9" height="9" fill="#d2d2d2"/><rect x="217.5" y="10.5" width="9" height="9" fill="#d2d2d2"/><rect x="429.5" y="10.5" width="9" height="9" fill="#d2d2d2"/><rect x="250.5" y="10.5" width="171" height="9" fill="#fff"/><rect x="250.5" y="10.5" width="9" height="9" fill="#d2d2d2"/><path d="M376.6,65.382a55.758,55.758,0,0,1-54.676,46.972,40.5,40.5,0,0,1-7.992-.485,24.492,24.492,0,0,1-20.369-23.088,23.784,23.784,0,0,1,47.561-.336c.1,3.942-1.608,7.4-5.118,7.5-3.75,0-5.508-2.676-5.508-6.282V79.643a6.137,6.137,0,0,0-6.09-6.143h-8.4a14.621,14.621,0,1,0,10.8,24.365l.294-.438.294.486a10.343,10.343,0,0,0,8.82,4.2,11.658,11.658,0,0,0,10.8-12.186,31.71,31.71,0,0,0-.87-7.745,29.675,29.675,0,0,0-58.672,6.426,30.047,30.047,0,0,0,29.285,29.675s2.2.2,4.68.143a63.335,63.335,0,0,0,33.965-10.133c.144-.1.288.1.192.246A49.854,49.854,0,0,1,316.76,124.42a35.045,35.045,0,0,1-35.669-35.957,36.267,36.267,0,0,1,14.568-29.045A35.523,35.523,0,0,1,316.616,52.5H327.89a31.72,31.72,0,0,0,23.4-10.331.438.438,0,0,1,.238-.136.447.447,0,0,1,.479.209.453.453,0,0,1,.062.269,31.8,31.8,0,0,1-4.919,14.225.431.431,0,0,0-.053.244.44.44,0,0,0,.29.379.437.437,0,0,0,.248.013,34.088,34.088,0,0,0,23.7-19.542.623.623,0,0,1,.219-.211.6.6,0,0,1,.589,0,.615.615,0,0,1,.219.211A43.2,43.2,0,0,1,376.6,65.382Zm-59.87,14.136a8.769,8.769,0,1,0,8.768,8.768V80.1a.632.632,0,0,0-.6-.6Z" fill="#8867c8"/><polygon points="361.006 225.818 331.5 245.159 331.5 278.759 361.429 297.394 391.5 278.618 391.5 245.441 361.006 225.818" fill="#ed8422"/><polygon points="361.547 261.949 331.5 245.036 331.5 278.715 361.5 297.394 361.547 261.949" fill="#fda84c"/><polygon points="331.5 245.4 361.23 263.911 390.886 245.394 360.818 226.045 331.5 245.263 331.5 245.4" fill="#fcc74f"/><rect x="409.5" y="211.5" width="81" height="61" rx="4.055" fill="#edac28"/><path d="M486.165,272.727a4.326,4.326,0,0,0,4.335-4.317V227.5h-81v40.882a4.354,4.354,0,0,0,4.363,4.345" fill="#8867c8"/><rect x="427.5" y="227.5" width="4" height="45" fill="#5c2d91"/><rect x="474.5" y="216.5" width="7" height="5" fill="#d2d2d2"/><rect x="459.5" y="216.5" width="7" height="5" fill="#d2d2d2"/><path d="M451.881,257.1,439.3,251.21l-.015-1.486,12.456-6.663.028,2.664-9.112,4.637v.056l9.2,4.03Z" fill="#d2d2d2"/><path d="M465.843,238.219l-9.48,23.547-2.96.03,9.439-23.547Z" fill="#d2d2d2"/><path d="M480.251,250.708l-12.463,6.145-.026-2.651,9.131-4.174v-.085l-9.219-4.45-.027-2.665,12.589,6.4Z" fill="#d2d2d2"/><path d="M151.5,235.717v53.454a1.21,1.21,0,0,0,1.271,1.329h38.675c.191-.646.713-.752,1.09-.278s.449,2.278,1.452,2.278h11.438c1.2,0,1.035-2.067,1.643-2.3a.761.761,0,0,1,.9.3H248.26a1.273,1.273,0,0,0,.476-.093,1.224,1.224,0,0,0,.4-.263,1.207,1.207,0,0,0,.363-.861V235.717a1.207,1.207,0,0,0-.363-.861,1.233,1.233,0,0,0-.4-.263,1.264,1.264,0,0,0-.478-.093H152.741a1.273,1.273,0,0,0-.476.093,1.224,1.224,0,0,0-.4.263,1.2,1.2,0,0,0-.364.861Z" fill="#939393"/><path d="M244.5,280.5h-88v6h88Z" fill="#505050"/><path d="M199.5,286.827s-.937-6.327-8.88-6.327H156.5v-52h35.523c7.284,0,7.477,6.327,7.477,6.327Z" fill="#a9d4ee"/><path d="M191.5,236.5h-26v2h26Z" fill="#60ace5"/><path d="M191.5,242.5h-26v2h26Z" fill="#60ace5"/><path d="M191.5,248.5h-26v2h26Z" fill="#60ace5"/><path d="M191.5,254.5h-26v2h26Z" fill="#60ace5"/><path d="M191.5,260.5h-26v2h26Z" fill="#60ace5"/><path d="M191.5,266.5h-26v2h26Z" fill="#60ace5"/><path d="M191.5,272.5h-26v2h26Z" fill="#60ace5"/><path d="M199.5,286.827s.951-6.327,9.035-6.327H244.5v-52H207.113c-7.413,0-7.613,6.327-7.613,6.327Z" fill="#a9d4ee"/><path d="M209.5,238.5h26v-2h-26Z" fill="#60ace5"/><path d="M209.5,244.5h26v-2h-26Z" fill="#60ace5"/><path d="M209.5,250.5h26v-2h-26Z" fill="#60ace5"/><path d="M209.5,256.5h26v-2h-26Z" fill="#60ace5"/><path d="M209.5,262.5h26v-2h-26Z" fill="#60ace5"/><path d="M209.5,268.5h26v-2h-26Z" fill="#60ace5"/><path d="M209.5,274.5h26v-2h-26Z" fill="#60ace5"/><path d="M216.5,253.636,212,252.4l-4.5,1.24V226.5h9Z" fill="#8867c8"/><path d="M200.5,235.5h-1v52h1Z" fill="#939393"/><rect x="265.5" y="247.5" width="48" height="10" fill="#d2d2d2"/><path d="M268.555,247.5H314.5v-62H265.64a2.14,2.14,0,0,0-2.14,2.14V250.5h.754C264.5,249.426,265.379,247.5,268.555,247.5Z" fill="#9c80e0"/><path d="M269.5,185.5h-3.86a2.14,2.14,0,0,0-2.14,2.14V250.5h.754c.245-1.074,1.125-3,4.3-3h.945Z" fill="#7155b7"/><path d="M314.5,256.5H267.468a1.968,1.968,0,0,1-1.968-1.968v-5.064a1.968,1.968,0,0,1,1.968-1.968H314.5v-2H267.468a3.969,3.969,0,0,0-3.968,3.968v5.064a3.967,3.967,0,0,0,3.968,3.968H314.5Z" fill="#8867c8"/><polygon points="280.5 261.875 276.5 259.875 272.5 261.875 272.5 250.5 280.5 250.5 280.5 261.875" fill="#ed8422"/><rect x="275.5" y="193.5" width="33" height="16" fill="#a9d4ee"/></svg>