<?xml version="1.0" encoding="utf-8"?>
<!-- Generator: Adobe Illustrator 23.0.4, SVG Export Plug-In . SVG Version: 6.00 Build 0)  -->
<svg version="1.1" id="Layer_1" xmlns="http://www.w3.org/2000/svg" xmlns:xlink="http://www.w3.org/1999/xlink" x="0px" y="0px"
	 viewBox="0 0 636 300" style="enable-background:new 0 0 636 300;" xml:space="preserve">
<style type="text/css">
	
		.st0{fill:none;stroke:#939393;stroke-width:1.5;stroke-linecap:round;stroke-linejoin:round;stroke-miterlimit:10;stroke-dasharray:3,5;}
	.st1{fill:#3097D8;}
	.st2{fill:#737373;}
	.st3{fill:#82B941;}
	.st4{fill:#2F75BB;}
	.st5{fill:#EDAC28;}
	.st6{fill:#FFFFFF;}
	.st7{fill:#C5C5C5;}
	.st8{fill:#939393;}
	.st9{fill:#69AFE5;}
	.st10{fill:#8FC6E5;}
	.st11{fill:#767576;}
</style>
<g>
	<line class="st0" x1="78" y1="145.95" x2="220.69" y2="145.95"/>
	<line class="st0" x1="353.14" y1="145.95" x2="492.53" y2="145.95"/>
	<line class="st0" x1="313.91" y1="107.92" x2="428.05" y2="107.92"/>
	<line class="st0" x1="334.12" y1="183.99" x2="563.86" y2="183.99"/>
	<path class="st1" d="M353.51,140.18c-2.53-3.79-26.56-45.53-29.51-50.58c-2.95-5.06-7.17-6.74-12.65-6.74c-1.38,0-4.41,0-8.39,0
		c-11.03,0-31.24,0-43.04,0c-3.98,0-7.01,0-8.39,0c-5.48,0-9.7,1.69-12.65,6.74c-2.95,5.06-26.98,46.79-29.51,50.58
		s-2.53,8.43,1.69,16.02s25.29,44.68,27.82,49.32c2.53,4.64,6.32,7.38,12.65,7.38c1.41,0,4.73,0,9.02,0c14.94,0,41.77,0,41.77,0
		c4.3,0,7.61,0,9.02,0c6.32,0,10.12-2.74,12.65-7.38c2.53-4.64,23.61-41.73,27.82-49.32S356.04,143.97,353.51,140.18z M314.25,181.7
		h-13.91l-18.82-32.63l-18.82,32.63H248.8l18.97-33.83l-18.97-33.83h14.12l18.61,32.62l18.61-32.62h14.12l-18.97,33.83L314.25,181.7
		z"/>
	<g>
		<path class="st2" d="M441.27,96.49c-0.46,0-0.85-0.16-1.17-0.47c-0.32-0.31-0.48-0.71-0.48-1.19c0-0.48,0.16-0.88,0.48-1.2
			c0.32-0.32,0.71-0.48,1.17-0.48c0.47,0,0.87,0.16,1.2,0.48c0.33,0.32,0.49,0.72,0.49,1.2c0,0.46-0.16,0.85-0.49,1.17
			C442.13,96.33,441.74,96.49,441.27,96.49z M442.52,116.56h-2.56v-16h2.56V116.56z"/>
		<path class="st2" d="M457.08,116.93c-3.18,0-5.72-1.05-7.63-3.14c-1.91-2.09-2.87-4.82-2.87-8.17c0-3.6,0.97-6.48,2.92-8.62
			c1.95-2.15,4.6-3.22,7.95-3.22c3.09,0,5.59,1.04,7.48,3.12c1.89,2.08,2.84,4.81,2.84,8.17c0,3.66-0.97,6.55-2.91,8.67
			S460.33,116.93,457.08,116.93z M457.27,96.15c-2.35,0-4.27,0.85-5.73,2.55c-1.47,1.7-2.2,3.93-2.2,6.69
			c0,2.76,0.72,4.98,2.15,6.66c1.43,1.68,3.3,2.52,5.6,2.52c2.46,0,4.4-0.8,5.81-2.41c1.42-1.6,2.12-3.85,2.12-6.73
			c0-2.96-0.69-5.24-2.06-6.86C461.58,96.96,459.68,96.15,457.27,96.15z"/>
		<path class="st2" d="M471.13,115.65v-3.09c0.35,0.31,0.78,0.59,1.27,0.84c0.49,0.25,1.02,0.46,1.56,0.63s1.1,0.3,1.65,0.4
			c0.55,0.09,1.06,0.14,1.53,0.14c1.61,0,2.82-0.3,3.62-0.9c0.8-0.6,1.2-1.46,1.2-2.59c0-0.6-0.13-1.13-0.4-1.58
			c-0.27-0.45-0.63-0.86-1.1-1.23c-0.47-0.37-1.02-0.72-1.66-1.06c-0.64-0.34-1.33-0.7-2.07-1.07c-0.78-0.4-1.51-0.8-2.19-1.2
			c-0.68-0.41-1.27-0.85-1.77-1.34c-0.5-0.49-0.89-1.04-1.18-1.66c-0.29-0.62-0.43-1.35-0.43-2.18c0-1.02,0.22-1.91,0.67-2.66
			c0.45-0.75,1.04-1.38,1.77-1.87c0.73-0.49,1.56-0.85,2.49-1.09c0.93-0.24,1.88-0.36,2.85-0.36c2.21,0,3.82,0.27,4.83,0.8v2.95
			c-1.32-0.92-3.02-1.38-5.09-1.38c-0.57,0-1.15,0.06-1.72,0.18c-0.57,0.12-1.08,0.32-1.53,0.59c-0.45,0.27-0.81,0.62-1.09,1.05
			c-0.28,0.43-0.42,0.95-0.42,1.56c0,0.57,0.11,1.07,0.32,1.48c0.21,0.42,0.53,0.8,0.95,1.14c0.42,0.34,0.92,0.68,1.52,1
			c0.6,0.32,1.29,0.68,2.07,1.06c0.8,0.4,1.56,0.81,2.28,1.25s1.35,0.92,1.89,1.45c0.54,0.53,0.97,1.12,1.29,1.77
			c0.32,0.65,0.48,1.39,0.48,2.22c0,1.1-0.22,2.04-0.65,2.8c-0.43,0.77-1.02,1.39-1.75,1.87c-0.73,0.48-1.58,0.83-2.54,1.04
			c-0.96,0.21-1.97,0.32-3.03,0.32c-0.35,0-0.79-0.03-1.31-0.09c-0.52-0.06-1.05-0.14-1.59-0.25c-0.54-0.11-1.05-0.24-1.54-0.41
			C471.81,116.03,471.42,115.85,471.13,115.65z"/>
	</g>
	<g>
		<path class="st3" d="M531.17,121.08l2.52-4.71c0.14-0.26,0.04-0.61-0.21-0.74c-0.08-0.04-0.17-0.08-0.25-0.08
			c-0.19,0-0.37,0.09-0.47,0.27l-2.53,4.67c-1.95-0.91-4.12-1.41-6.41-1.41c-2.28,0-4.44,0.5-6.38,1.4l-2.52-4.67
			c-0.14-0.26-0.46-0.35-0.72-0.22c-0.26,0.14-0.35,0.46-0.21,0.72l2.51,4.74c-4.42,2.44-7.17,6.97-7.5,12.45h30.5
			C539.16,128.04,535.58,123.53,531.17,121.08z M516.82,127.59c-0.82,0-1.49-0.67-1.49-1.49c0-0.82,0.67-1.49,1.49-1.49
			s1.49,0.67,1.49,1.49C518.31,126.92,517.64,127.59,516.82,127.59z M530.85,127.59c-0.82,0-1.49-0.67-1.49-1.49
			c0-0.82,0.67-1.49,1.49-1.49c0.82,0,1.49,0.67,1.49,1.49C532.34,126.92,531.67,127.59,530.85,127.59z"/>
		<path class="st3" d="M507.99,137.15c0-1.87-1.62-3.25-3.43-3.25c-1.81,0-3.43,1.56-3.43,3.12v14.61c0,1.57,1.62,3.07,3.43,3.07
			c1.81,0,3.43-1.51,3.43-3.31V137.15z"/>
		<path class="st3" d="M547.73,137.15c0-1.86-1.62-3.25-3.43-3.25s-3.43,1.56-3.43,3.12v14.61c0,1.57,1.62,3.07,3.43,3.07
			s3.43-1.51,3.43-3.31V137.15z"/>
		<path class="st3" d="M509.36,134.89v21.55c0,2.76,1.19,4.48,4.43,4.48h2.29l0.01,7.09c0.11,1.57,1.68,2.95,3.49,2.95
			s3.49-1.63,3.49-3.42v-5.66l4.58,0.02l-0.04,5.9c0.11,1.57,1.41,3.06,3.21,3.06s3.21-1.52,3.21-3.32v-6.62h1.18
			c2.02,0,4.3-0.8,4.3-4.48v-21.55H509.36z"/>
	</g>
	<g>
		<polygon class="st4" points="591.11,182.07 591.11,165.01 573.33,167.34 573.33,182.07 		"/>
		<polygon class="st4" points="593.21,182.07 616.54,182.07 616.54,161.67 593.21,164.73 		"/>
		<polygon class="st4" points="593.21,183.99 593.21,201.55 616.54,204.76 616.54,183.99 		"/>
		<polygon class="st4" points="591.11,183.99 573.34,183.99 573.45,198.83 591.11,201.26 		"/>
	</g>
	<path class="st0" d="M65.5,42.98h51.51c7.73,0,13.99,6.26,13.99,13.99v183.77c0,8.69-7.05,15.74-15.74,15.74H77"/>
	<g>
		<path class="st5" d="M72.72,35.86c0-11.87-9.83-21.44-21.8-21.02c-10.46,0.37-19.21,8.66-20.17,19.08
			c-0.27,2.97,0.09,5.81,0.94,8.43c0.01,0.02,0.01,0.04,0.02,0.06c3.23,9.85,14.88,27.57,18.73,33.28c0.6,0.89,1.9,0.89,2.5,0
			C56.82,70,68.56,52.27,71.79,42.42c0.46-1.4,0.68-2.65,0.72-3.79C72.63,37.72,72.72,36.8,72.72,35.86z"/>
		<circle class="st6" cx="51.69" cy="35.86" r="8.07"/>
	</g>
	<g>
		<path class="st7" d="M68.79,126l-2.5-7.21c-0.43-1.24-1.6-2.07-2.91-2.07h-23.4c-1.31,0-2.48,0.83-2.91,2.07l-2.5,7.21
			c-0.43,1.24-1.6,2.07-2.91,2.07h-8.24c-1.7,0-3.08,1.38-3.08,3.08v32.91c0,1.7,1.38,3.08,3.08,3.08H80.2
			c1.7,0,3.08-1.38,3.08-3.08v-32.91c0-1.7-1.38-3.08-3.08-3.08h-8.5C70.39,128.07,69.22,127.24,68.79,126z"/>
		<path class="st8" d="M20.34,134.04v30.03c0,1.7,1.38,3.08,3.08,3.08H80.2c1.7,0,3.08-1.38,3.08-3.08v-30.03H20.34z"/>
		<circle class="st6" cx="51.69" cy="145.97" r="14.74"/>
		<circle class="st9" cx="51.69" cy="145.97" r="9.56"/>
	</g>
	<g>
		<path class="st10" d="M80.8,285.17H29.38c-1.86,0-3.37-1.51-3.37-3.37v-62.65c0-1.86,1.51-3.37,3.37-3.37H80.8
			c1.86,0,3.37,1.51,3.37,3.37v62.65C84.17,283.66,82.66,285.17,80.8,285.17z"/>
		<g>
			<path class="st5" d="M45.98,265.44l1.17-8.06c0.19-1.26,0.83-2.41,1.8-3.24s2.21-1.27,3.48-1.26h13.55
				c1.27,0,2.49,0.45,3.45,1.28c0.96,0.83,1.59,1.97,1.77,3.22l1.16,8.06H45.98z"/>
			<path class="st6" d="M55.36,251.87v-3.92h7.62v3.92c0,0.13,0.03,0.27,0.08,0.39c0.05,0.12,0.13,0.24,0.23,0.33
				c0.1,0.09,0.21,0.17,0.34,0.22c0.13,0.05,0.26,0.08,0.4,0.08h0.77c0,1.45-0.6,2.85-1.66,3.88c-1.06,1.03-2.5,1.61-4,1.61
				c-1.5,0-2.94-0.58-4-1.61c-1.06-1.03-1.66-2.42-1.66-3.88h0.82c0.14,0,0.27-0.03,0.4-0.08c0.13-0.05,0.24-0.13,0.34-0.22
				c0.1-0.09,0.17-0.21,0.23-0.33C55.34,252.14,55.36,252,55.36,251.87z"/>
			<path class="st5" d="M51.64,253.34h1.54c0.01,1.07,0.33,2.11,0.91,3c0.59,0.89,1.41,1.6,2.39,2.03l-1.08,6.18h-5.41v0.9h-4.02
				l1.13-7.77c0.18-1.12,0.73-2.15,1.55-2.93C49.46,253.96,50.51,253.47,51.64,253.34z"/>
			<path class="st11" d="M49.63,241.4c0.13,1.76,0.78,3.44,1.87,4.83c1.09,1.39,2.56,2.43,4.24,2.98c1.68,0.55,3.48,0.59,5.18,0.12
				c1.7-0.47,3.22-1.44,4.37-2.78c1.15-1.34,1.88-2.99,2.09-4.74c0.21-1.75-0.1-3.53-0.89-5.1c-0.8-1.58-2.04-2.88-3.58-3.75
				c-1.54-0.87-3.3-1.26-5.06-1.13c-1.17,0.09-2.31,0.4-3.36,0.93c-1.05,0.53-1.98,1.26-2.74,2.15c-0.76,0.89-1.35,1.92-1.71,3.03
				C49.68,239.06,49.54,240.23,49.63,241.4z"/>
			<path class="st6" d="M61.35,250.97c3.15-0.28,5.47-3.65,5.25-6.86l-0.55-7.58l-12.44,0.95l0.55,7.58
				C54.44,249.09,58.2,251.19,61.35,250.97z"/>
			<path class="st11" d="M63.23,235.87c0,0-2.21,5.26-9.34,5.7l-0.77-4.93L63.23,235.87z"/>
			<path class="st11" d="M62.18,235.98l3.21-0.28l0.77,0.83l0.17,0.72l0.28,3.38C61.9,239.35,62.18,235.98,62.18,235.98z"/>
			<path class="st11" d="M48.25,234.49c0.06,0.8,0.36,1.57,0.86,2.2c0.5,0.63,1.17,1.11,1.94,1.36c0.77,0.25,1.59,0.27,2.36,0.05
				c0.78-0.22,1.47-0.66,1.99-1.27c0.53-0.61,0.86-1.36,0.95-2.16c0.1-0.8-0.05-1.61-0.41-2.33c-0.36-0.72-0.93-1.31-1.63-1.71
				c-0.7-0.4-1.5-0.58-2.31-0.52c-0.53,0.04-1.06,0.19-1.53,0.43c-0.48,0.24-0.9,0.58-1.25,0.98c-0.35,0.41-0.61,0.88-0.78,1.39
				C48.27,233.42,48.21,233.95,48.25,234.49z"/>
		</g>
		<path class="st9" d="M34.58,215.78h-5.19c-1.86,0-3.37,1.51-3.37,3.37v62.65c0,1.86,1.51,3.37,3.37,3.37h5.19V215.78z"/>
		<g>
			<path class="st7" d="M27.85,226.01h-6.72c-0.93,0-1.68-0.75-1.68-1.68l0,0c0-0.93,0.75-1.68,1.68-1.68h6.72
				c0.93,0,1.68,0.75,1.68,1.68l0,0C29.53,225.26,28.78,226.01,27.85,226.01z"/>
			<path class="st7" d="M29.53,234.56L29.53,234.56c0,0.93-0.75,1.68-1.68,1.68h-6.72c-0.93,0-1.68-0.75-1.68-1.68l0,0
				c0-0.93,0.75-1.68,1.68-1.68h6.72C28.78,232.88,29.53,233.64,29.53,234.56z"/>
			<path class="st7" d="M29.53,244.8L29.53,244.8c0,0.93-0.75,1.68-1.68,1.68h-6.72c-0.93,0-1.68-0.75-1.68-1.68l0,0
				c0-0.93,0.75-1.68,1.68-1.68h6.72C28.78,243.12,29.53,243.87,29.53,244.8z"/>
			<path class="st7" d="M29.53,255.03L29.53,255.03c0,0.93-0.75,1.68-1.68,1.68h-6.72c-0.93,0-1.68-0.75-1.68-1.68v0
				c0-0.93,0.75-1.68,1.68-1.68h6.72C28.78,253.35,29.53,254.1,29.53,255.03z"/>
			<path class="st7" d="M29.53,265.26L29.53,265.26c0,0.93-0.75,1.68-1.68,1.68h-6.72c-0.93,0-1.68-0.75-1.68-1.68l0,0
				c0-0.93,0.75-1.68,1.68-1.68h6.72C28.78,263.58,29.53,264.33,29.53,265.26z"/>
			<path class="st7" d="M27.85,277.17h-6.72c-0.93,0-1.68-0.75-1.68-1.68l0,0c0-0.93,0.75-1.68,1.68-1.68h6.72
				c0.93,0,1.68,0.75,1.68,1.68l0,0C29.53,276.42,28.78,277.17,27.85,277.17z"/>
		</g>
	</g>
</g>
</svg>
