<?xml version="1.0" encoding="utf-8"?>
<!-- Generator: Adobe Illustrator 24.3.0, SVG Export Plug-In . SVG Version: 6.00 Build 0)  -->
<svg version="1.1" id="Layer_1" xmlns="http://www.w3.org/2000/svg" xmlns:xlink="http://www.w3.org/1999/xlink" x="0px" y="0px"
	 viewBox="0 0 636 300" style="enable-background:new 0 0 636 300;" xml:space="preserve">
<style type="text/css">
	.st0{fill:#FBC977;}
	.st1{fill:#57AA9A;}
	.st2{fill:#F7B548;}
	.st3{fill:#6BA8F1;}
	.st4{fill:#BDD8F9;}
	.st5{fill:#8065E0;}
	.st6{fill:#FFFFFF;}
	.st7{fill:#1572E0;}
	.st8{fill:#B0D1F7;}
	.st9{fill:#FFD590;}
	.st10{fill:#7FD5CA;}
	.st11{fill:#D8E8FB;}
	.st12{fill:#C2E8E3;}
	.st13{fill:#FFECCD;}
	.st14{fill:#FEDEA7;}
	.st15{fill:#D1C5F4;}
	.st16{fill:#70D6E0;}
	.st17{fill:#25BACA;}
	.st18{fill:#1BA1B5;}
	.st19{fill:#8A6FE8;}
	.st20{fill:url(#SVGID_1_);}
	.st21{fill:#522CD5;}
	.st22{fill:url(#SVGID_2_);}
	.st23{fill:url(#SVGID_3_);}
	.st24{fill:url(#SVGID_4_);}
	.st25{fill:url(#SVGID_5_);}
	.st26{fill:#D8CFF7;}
	.st27{fill:#512BD4;}
	.st28{fill:url(#SVGID_6_);}
	.st29{fill:#A08BE8;}
	.st30{fill:url(#SVGID_7_);}
	.st31{fill:url(#SVGID_8_);}
	.st32{fill:url(#SVGID_9_);}
	.st33{fill:url(#SVGID_10_);}
	.st34{fill:url(#SVGID_11_);}
	.st35{fill:url(#SVGID_12_);}
	.st36{fill:#98C2F5;}
	.st37{fill:#0064DA;}
	.st38{fill:#3E8EED;}
	.st39{fill:#C7E0F4;}
	.st40{fill:#B3AFAB;}
	.st41{fill:#A7A4A0;}
	.st42{fill:#957EE6;}
	.st43{fill:#E5F0FC;}
	.st44{fill:#1DACCC;}
	.st45{fill:#76AFF2;}
	.st46{fill:#FCCF84;}
	.st47{fill:#8DBCF4;}
	.st48{fill:#E1DFDD;}
	.st49{fill:url(#SVGID_13_);}
	.st50{fill:url(#SVGID_14_);}
	.st51{fill:url(#SVGID_15_);}
	.st52{fill:url(#SVGID_16_);}
	.st53{fill:url(#SVGID_17_);}
	.st54{fill:url(#SVGID_18_);}
	.st55{fill:url(#SVGID_19_);}
	.st56{fill:url(#SVGID_20_);}
	.st57{fill:#C8C6C4;}
	.st58{fill:#605D5A;}
	.st59{fill:#797673;}
	.st60{fill:#64BFAF;}
	.st61{fill:#2CC7EA;}
	.st62{fill:url(#SVGID_21_);}
	.st63{fill:url(#SVGID_22_);}
	.st64{fill:url(#SVGID_23_);}
	.st65{fill:url(#SVGID_24_);}
	.st66{fill:url(#SVGID_25_);}
	.st67{fill:url(#SVGID_26_);}
	.st68{fill:#B6E3DE;}
	.st69{fill:#6FCFCE;}
	.st70{fill:#1FB1D1;}
	.st71{fill:url(#SVGID_27_);}
	.st72{fill:#FAC369;}
	.st73{fill:#E29E3B;}
	.st74{fill:#33D5F9;}
	.st75{fill:url(#SVGID_28_);}
	.st76{fill:url(#SVGID_29_);}
	.st77{fill:url(#SVGID_30_);}
	.st78{fill:url(#SVGID_31_);}
	.st79{fill:url(#SVGID_32_);}
	.st80{fill:url(#SVGID_33_);}
	.st81{fill:url(#SVGID_34_);}
	.st82{fill:url(#SVGID_35_);}
	.st83{fill:url(#SVGID_36_);}
	.st84{fill:url(#SVGID_37_);}
	.st85{fill:url(#SVGID_38_);}
	.st86{fill:#D0C5F3;}
	.st87{fill:url(#SVGID_39_);}
	.st88{fill:url(#SVGID_40_);}
	.st89{fill:url(#SVGID_41_);}
	.st90{fill:url(#SVGID_42_);}
	.st91{fill:#EEAB42;}
	.st92{fill:#E8A53F;}
	.st93{fill:#A3C9F6;}
	.st94{fill:url(#SVGID_43_);}
	.st95{fill:url(#SVGID_44_);}
	.st96{fill:url(#SVGID_45_);}
	.st97{fill:url(#SVGID_46_);}
	.st98{fill:url(#SVGID_47_);}
	.st99{fill:url(#SVGID_48_);}
	.st100{fill:url(#SVGID_49_);}
	.st101{fill:url(#SVGID_50_);}
	.st102{fill:#84817D;}
	.st103{fill:url(#SVGID_51_);}
	.st104{fill:url(#SVGID_52_);}
	.st105{fill:url(#SVGID_53_);}
	.st106{fill:url(#SVGID_54_);}
	.st107{fill:url(#SVGID_55_);}
	.st108{fill:url(#SVGID_56_);}
	.st109{fill:url(#SVGID_57_);}
	.st110{fill:url(#SVGID_58_);}
	.st111{fill:#BBACEF;}
	.st112{fill:url(#SVGID_59_);}
	.st113{fill:url(#SVGID_60_);}
	.st114{fill:url(#SVGID_61_);}
	.st115{fill:url(#SVGID_62_);}
	.st116{fill:url(#SVGID_63_);}
	.st117{fill:url(#SVGID_64_);}
	.st118{fill:url(#SVGID_65_);}
	.st119{fill:url(#SVGID_66_);}
	.st120{fill:url(#SVGID_67_);}
	.st121{fill:url(#SVGID_68_);}
	.st122{fill:url(#SVGID_69_);}
	.st123{fill:url(#SVGID_70_);}
	.st124{fill:url(#SVGID_71_);}
	.st125{fill:#CEDB59;}
	.st126{fill:#CCCAC7;}
	.st127{fill:#78881B;}
	.st128{fill:#9C9894;}
	.st129{fill:#EEF3C4;}
	.st130{fill:#B2C133;}
	.st131{fill:#D5E06D;}
	.st132{fill:#A4ECFC;}
	.st133{fill:#0B7891;}
	.st134{fill:#908D89;}
	.st135{fill:#DDDBDA;}
	.st136{fill:url(#SVGID_72_);}
	.st137{fill:url(#SVGID_73_);}
	.st138{fill:#56534F;}
	.st139{fill:#CAE0FA;}
	.st140{fill:#4995EE;}
	.st141{fill:#A7CBF6;}
	.st142{fill:#E86E58;}
	.st143{fill:#FAE969;}
	.st144{fill:#56A84F;}
	.st145{fill:none;stroke:#3085E9;stroke-width:2;stroke-miterlimit:10;}
	.st146{fill:#B2D5F8;}
	.st147{fill:#B2B2B2;}
	.st148{fill:url(#SVGID_74_);}
	.st149{fill:url(#SVGID_75_);}
	.st150{fill:url(#SVGID_76_);}
	.st151{fill:url(#SVGID_77_);}
	.st152{fill:url(#SVGID_78_);}
	.st153{fill:url(#SVGID_79_);}
	.st154{fill:url(#SVGID_80_);}
	.st155{fill:url(#SVGID_81_);}
	.st156{fill:url(#SVGID_82_);}
	.st157{fill:url(#SVGID_83_);}
	.st158{fill:url(#SVGID_84_);}
	.st159{fill:url(#SVGID_85_);}
	.st160{fill:url(#SVGID_86_);}
	.st161{fill:url(#SVGID_87_);}
	.st162{fill:url(#SVGID_88_);}
	.st163{fill:url(#SVGID_89_);}
	.st164{fill:#FFB900;}
	.st165{fill:#D5D3D0;}
	.st166{fill:none;stroke:#FF00FF;stroke-width:1.0976;stroke-miterlimit:10;}
	.st167{fill:url(#SVGID_90_);}
	.st168{fill:#EA7F6B;}
	.st169{fill:#22B2C3;}
	.st170{fill:#DF6551;}
	.st171{fill:#F8BB55;}
	.st172{fill:#F8B84F;}
	.st173{fill:#40C9D6;}
	.st174{fill:#CC5444;}
	.st175{fill:#CFEFEB;}
	.st176{fill:#D3E7F8;}
	.st177{fill:#81B5F3;}
	.st178{fill:#4D4D4D;}
	.st179{fill:url(#SVGID_91_);}
	.st180{fill:#2980E7;}
	.st181{fill:#CFF1F5;}
	.st182{fill:#58D0DB;}
	.st183{fill:#28C2D1;}
	.st184{fill:#9FE4EB;}
	.st185{fill:#3097D8;}
	.st186{fill:url(#SVGID_92_);}
	.st187{fill:#939393;}
	.st188{fill:url(#SVGID_93_);}
	.st189{fill:#FEDBA1;}
	.st190{fill:#FAC670;}
	.st191{fill:#625F5B;}
	.st192{fill:#D69521;}
	.st193{fill:#7F7F7F;}
	.st194{fill:#505050;}
	.st195{fill:#D2D2D2;}
	.st196{fill:#848484;}
	.st197{fill:url(#SVGID_94_);}
	.st198{fill:#444444;}
	.st199{fill:#737373;}
	.st200{fill:url(#SVGID_95_);}
	.st201{fill:#549BEF;}
	.st202{fill:#6D6A66;}
	.st203{fill:#38776B;}
	.st204{fill:#9FE0D7;}
	.st205{fill:#45897C;}
	.st206{fill:#CFECE9;}
	.st207{fill:url(#SVGID_96_);}
	.st208{fill:url(#SVGID_97_);}
	.st209{fill:url(#SVGID_98_);}
	.st210{fill:url(#SVGID_99_);}
	.st211{fill:url(#SVGID_100_);}
	.st212{fill:url(#SVGID_101_);}
	.st213{fill:url(#SVGID_102_);}
	.st214{fill:url(#SVGID_103_);}
	.st215{fill:url(#SVGID_104_);}
	.st216{fill:url(#SVGID_105_);}
	.st217{fill:url(#SVGID_106_);}
	.st218{fill:url(#SVGID_107_);}
	.st219{fill:#29C3E5;}
	.st220{fill:#60DEFA;}
	.st221{fill:#0F849E;}
	.st222{fill:#D2F6FE;}
	.st223{fill:#179BB8;}
	.st224{fill:#AFE5DE;}
	.st225{fill:#AE9CEB;}
	.st226{fill:url(#SVGID_108_);}
	.st227{fill:#D6CDF5;}
	.st228{fill:none;stroke:#D6CDF5;stroke-width:2;stroke-miterlimit:10;}
	.st229{fill:#7354DD;}
	.st230{fill:#A8B82F;}
	.st231{fill:#C9BDF2;}
	.st232{fill:#8970E2;}
	.st233{fill:url(#SVGID_109_);}
	.st234{fill:#72ACF1;}
	.st235{fill:#57CACF;}
	.st236{fill:#FAF9F8;}
	.st237{fill:#4A4844;}
	.st238{fill:#797672;}
	.st239{fill:none;stroke:#72ACF1;stroke-width:2;stroke-miterlimit:10;}
	.st240{fill:url(#SVGID_110_);}
	.st241{fill:url(#SVGID_111_);}
	.st242{fill:url(#SVGID_112_);}
	.st243{fill:#C5D43B;}
	.st244{fill:#3085E9;}
	.st245{fill:none;stroke:#FFFFFF;stroke-width:2;stroke-miterlimit:10;}
	.st246{fill:url(#SVGID_113_);}
	.st247{fill:#42403C;}
	.st248{fill:url(#SVGID_114_);stroke:#625F5B;stroke-width:3;stroke-miterlimit:10;}
	.st249{fill:#E6E4E3;}
	.st250{fill:url(#SVGID_115_);}
	.st251{fill:url(#SVGID_116_);}
	.st252{fill:#8EE8FC;}
	.st253{fill:#927BE5;}
	.st254{fill:url(#SVGID_117_);}
	.st255{fill:url(#SVGID_118_);}
	.st256{fill:url(#SVGID_119_);}
	.st257{fill:url(#SVGID_120_);}
	.st258{fill:url(#SVGID_121_);}
	.st259{fill:url(#SVGID_122_);}
	.st260{fill:url(#SVGID_123_);}
	.st261{fill:url(#SVGID_124_);}
	.st262{fill:url(#SVGID_125_);}
	.st263{fill:url(#SVGID_126_);}
	.st264{fill:url(#SVGID_127_);}
	.st265{fill:#22B5D6;}
	.st266{fill-rule:evenodd;clip-rule:evenodd;fill:#848484;}
	.st267{fill-rule:evenodd;clip-rule:evenodd;fill:#29C3E5;}
	.st268{fill-rule:evenodd;clip-rule:evenodd;fill:#0078D7;}
	.st269{fill:#BBB8B4;}
	.st270{fill:none;}
	.st271{fill:#FDC9B5;}
	.st272{fill:#EB8875;}
	.st273{fill:url(#SVGID_128_);}
	.st274{fill:url(#SVGID_129_);}
	.st275{fill:url(#SVGID_130_);}
	.st276{fill:url(#SVGID_131_);}
	.st277{fill:url(#SVGID_132_);}
	.st278{fill:url(#SVGID_133_);}
	.st279{fill:url(#SVGID_134_);}
	.st280{fill:url(#SVGID_135_);}
	.st281{fill:url(#SVGID_136_);}
	.st282{fill:url(#SVGID_137_);}
	.st283{fill:url(#SVGID_138_);}
	.st284{fill:url(#SVGID_139_);}
	.st285{fill:url(#SVGID_140_);}
	.st286{fill:url(#SVGID_141_);}
	.st287{fill:url(#SVGID_142_);}
	.st288{fill:none;stroke:#FFFFFF;stroke-width:2.2678;stroke-miterlimit:10;}
	.st289{fill:#FFEED0;}
	.st290{fill:#27BEE0;}
	.st291{fill:#BBF1FD;}
	.st292{fill:#24BADB;}
	.st293{fill:#77E3FB;}
	.st294{fill:#666666;}
	.st295{fill:#AACDF6;}
	.st296{fill:#E6E6E6;}
	.st297{fill:#7E62DF;}
	.st298{fill:url(#SVGID_143_);}
	.st299{fill:url(#SVGID_144_);}
	.st300{fill:#FCD18A;}
	.st301{fill:#D8E377;}
	.st302{fill:#DBE581;}
	.st303{fill:#81921F;}
	.st304{fill:#95A527;}
	.st305{fill-rule:evenodd;clip-rule:evenodd;fill:#A7A4A0;}
	.st306{fill:url(#SVGID_145_);}
	.st307{fill:url(#SVGID_146_);}
	.st308{fill:url(#SVGID_147_);}
	.st309{fill:#FDD490;}
	.st310{fill:#B3B3B3;}
	.st311{fill:#F09250;}
	.st312{fill:url(#SVGID_148_);}
	.st313{fill:url(#SVGID_149_);}
	.st314{fill:url(#SVGID_150_);}
	.st315{fill:url(#SVGID_151_);}
	.st316{fill:url(#SVGID_152_);}
	.st317{fill:#F2A694;}
	.st318{fill:#DC624F;}
	.st319{fill:#FDFDFD;}
	.st320{fill:#D0EDFD;}
	.st321{fill:none;stroke:#8065E0;stroke-width:3.5361;stroke-miterlimit:10;}
	.st322{fill:url(#SVGID_153_);}
	.st323{fill:url(#SVGID_154_);}
	.st324{fill:url(#SVGID_155_);}
	.st325{fill:url(#SVGID_156_);}
	.st326{fill:url(#SVGID_157_);}
	.st327{fill:url(#SVGID_158_);}
	.st328{fill:url(#SVGID_159_);}
	.st329{fill:url(#SVGID_160_);}
	.st330{fill:none;stroke:#C8C6C4;stroke-width:0.1949;stroke-miterlimit:10;}
	.st331{fill:url(#SVGID_161_);}
	.st332{fill:url(#SVGID_162_);}
	.st333{fill:url(#SVGID_163_);}
	.st334{fill:url(#SVGID_164_);}
	.st335{fill:url(#SVGID_165_);}
	.st336{fill:url(#SVGID_166_);}
	.st337{fill:url(#SVGID_167_);}
	.st338{fill:url(#SVGID_168_);}
	.st339{fill:url(#SVGID_169_);}
	.st340{fill:url(#SVGID_170_);}
	.st341{fill:url(#SVGID_171_);}
	.st342{fill:url(#SVGID_172_);}
	.st343{fill:url(#SVGID_173_);}
	.st344{fill:#0769DC;}
	.st345{fill:#60A2F0;}
	.st346{fill:#B5D5EA;}
	.st347{fill:#FFE5B9;}
	.st348{fill:#88DDE5;}
	.st349{fill:#1189A5;}
	.st350{fill:#222222;}
	.st351{fill:#00D8FF;}
	.st352{fill:url(#SVGID_174_);}
	.st353{fill:#F2F7FE;}
	.st354{fill:#DD0031;}
	.st355{fill:#C3002F;}
	.st356{fill:#EBA841;}
	.st357{fill:#ED9583;}
	.st358{fill:url(#SVGID_175_);}
	.st359{fill:#106EBE;}
	.st360{fill:url(#SVGID_176_);}
	.st361{fill:url(#SVGID_177_);}
	.st362{fill:#2B579A;}
	.st363{fill:url(#SVGID_178_);}
	.st364{fill:url(#SVGID_179_);}
	.st365{fill:url(#SVGID_180_);}
	.st366{fill:url(#SVGID_181_);}
	.st367{fill:url(#SVGID_182_);}
	.st368{fill:url(#SVGID_183_);}
	.st369{fill:url(#SVGID_184_);}
	.st370{fill:url(#SVGID_185_);}
	.st371{fill:url(#SVGID_186_);}
	.st372{fill:url(#SVGID_187_);}
	.st373{fill:url(#SVGID_188_);}
	.st374{fill:url(#SVGID_189_);}
	.st375{fill:url(#SVGID_190_);}
	.st376{fill:url(#SVGID_191_);}
	.st377{fill:#52A898;}
	.st378{fill:#BADBF9;}
	.st379{fill:#E1EFF9;}
	.st380{fill:#6FD0C3;}
	.st381{fill:#EFFAF8;}
	.st382{fill:url(#SVGID_192_);}
	.st383{fill:url(#SVGID_193_);}
	.st384{fill:url(#SVGID_194_);}
	.st385{fill:url(#SVGID_195_);}
	.st386{fill:url(#SVGID_196_);}
	.st387{fill:url(#SVGID_197_);}
	.st388{fill:url(#SVGID_198_);}
	.st389{fill:url(#SVGID_199_);}
	.st390{fill:url(#SVGID_200_);}
	.st391{fill:url(#SVGID_201_);}
	.st392{fill:url(#SVGID_202_);}
	.st393{fill:url(#SVGID_203_);}
	.st394{fill:url(#SVGID_204_);}
	.st395{fill:#C4C1BE;}
	.st396{fill:#9B86E7;}
	.st397{fill:#DF9B39;}
	.st398{fill:none;stroke:#FFFFFF;stroke-width:4;stroke-miterlimit:10;}
	.st399{fill:none;stroke:#FFFFFF;stroke-width:4;stroke-miterlimit:10;stroke-dasharray:4.2217,6.3326;}
	.st400{fill:none;stroke:#FFFFFF;stroke-width:4;stroke-miterlimit:10;stroke-dasharray:4.1698,6.2547;}
	.st401{fill:none;stroke:#FFFFFF;stroke-width:4;stroke-miterlimit:10;stroke-dasharray:4.2266,6.3399;}
	.st402{fill:none;stroke:#FFFFFF;stroke-width:4;stroke-miterlimit:10;stroke-dasharray:4.459,6.6886;}
	.st403{fill:#4ADAFA;}
	.st404{fill:#EA7B66;}
	.st405{fill:#D8604D;}
	.st406{fill:#F6B29F;}
	.st407{fill:url(#SVGID_205_);}
	.st408{fill:#FFFFFF;stroke:#C5D43B;stroke-width:2;stroke-miterlimit:10;}
	.st409{fill-rule:evenodd;clip-rule:evenodd;fill:#BDD8F9;}
	.st410{fill-rule:evenodd;clip-rule:evenodd;fill:#76AFF2;}
	.st411{fill:url(#SVGID_206_);}
	.st412{fill:url(#SVGID_207_);}
	.st413{fill:url(#SVGID_208_);}
	.st414{fill:url(#SVGID_209_);}
	.st415{fill:url(#SVGID_210_);}
	.st416{fill:url(#SVGID_211_);}
	.st417{fill:url(#SVGID_212_);}
	.st418{fill:url(#SVGID_213_);}
	.st419{fill:url(#SVGID_214_);}
	.st420{fill:url(#SVGID_215_);}
	.st421{fill:url(#SVGID_216_);}
	.st422{fill:url(#SVGID_217_);}
	.st423{fill:url(#SVGID_218_);}
	.st424{fill:url(#SVGID_219_);}
	.st425{fill:url(#SVGID_220_);}
	.st426{fill:url(#SVGID_221_);}
	.st427{fill:#EC917E;}
	.st428{fill:#B53C33;}
	.st429{fill:url(#SVGID_222_);}
	.st430{fill:#F1A18E;}
	.st431{fill:url(#SVGID_223_);}
	.st432{fill:url(#SVGID_224_);}
	.st433{fill:url(#SVGID_225_);}
	.st434{fill:url(#SVGID_226_);}
	.st435{fill:url(#SVGID_227_);}
	.st436{fill:url(#SVGID_228_);}
	.st437{fill:url(#SVGID_229_);}
	.st438{fill:url(#SVGID_230_);}
	.st439{fill:url(#SVGID_231_);}
	.st440{fill:url(#SVGID_232_);}
	.st441{fill:url(#SVGID_233_);}
	.st442{fill:url(#SVGID_234_);}
	.st443{fill:url(#SVGID_235_);}
	.st444{fill:url(#SVGID_236_);}
	.st445{fill:url(#SVGID_237_);}
	.st446{fill:url(#SVGID_238_);}
	.st447{fill:url(#SVGID_239_);}
	.st448{fill:url(#SVGID_240_);}
	.st449{fill:url(#SVGID_241_);}
	.st450{fill:url(#SVGID_242_);}
	.st451{fill:url(#SVGID_243_);}
	.st452{fill:url(#SVGID_244_);}
	.st453{fill:url(#SVGID_245_);}
	.st454{fill:url(#SVGID_246_);}
	.st455{fill:url(#SVGID_247_);}
	.st456{fill:url(#SVGID_248_);}
	.st457{fill:url(#SVGID_249_);}
	.st458{fill:url(#SVGID_250_);}
	.st459{fill:url(#SVGID_251_);}
	.st460{fill:url(#SVGID_252_);}
	.st461{fill:#1BA6C5;}
	.st462{fill:url(#SVGID_253_);}
	.st463{fill-rule:evenodd;clip-rule:evenodd;fill:#BBF1FD;}
	.st464{fill:url(#SVGID_254_);}
	.st465{fill-rule:evenodd;clip-rule:evenodd;fill:#FFFFFF;}
	.st466{fill-rule:evenodd;clip-rule:evenodd;fill:#B2B2B2;}
	.st467{fill-rule:evenodd;clip-rule:evenodd;fill:#1DACCC;}
	.st468{fill:url(#SVGID_255_);}
	.st469{fill:url(#SVGID_256_);}
	.st470{fill:url(#SVGID_257_);}
	.st471{fill:url(#SVGID_258_);}
	.st472{fill:url(#SVGID_259_);}
	.st473{fill:url(#SVGID_260_);}
	.st474{fill:url(#SVGID_261_);}
	.st475{fill:url(#SVGID_262_);}
	.st476{fill:url(#SVGID_263_);}
	.st477{fill:url(#SVGID_264_);}
	.st478{fill:url(#SVGID_265_);}
	.st479{fill:url(#SVGID_266_);}
	.st480{fill:url(#SVGID_267_);}
	.st481{fill:url(#SVGID_268_);}
	.st482{fill:url(#SVGID_269_);}
	.st483{fill:#D55D4B;}
	.st484{fill:#FDD696;}
	.st485{fill:url(#SVGID_270_);}
	.st486{fill:url(#SVGID_271_);}
	.st487{fill:url(#SVGID_272_);}
	.st488{fill:url(#SVGID_273_);}
	.st489{fill:#5F5F5F;}
	.st490{fill:#F2F6D0;}
	.st491{fill:#227BE5;}
	.st492{fill:#E8FAFE;}
	.st493{fill:url(#SVGID_274_);}
	.st494{fill:url(#SVGID_275_);}
	.st495{fill:url(#SVGID_276_);}
	.st496{fill:url(#SVGID_277_);}
	.st497{fill:url(#SVGID_278_);}
	.st498{fill:url(#SVGID_279_);}
	.st499{fill:url(#SVGID_280_);}
	.st500{fill:url(#SVGID_281_);}
	.st501{fill:url(#SVGID_282_);}
	.st502{fill:url(#SVGID_283_);}
	.st503{fill:url(#SVGID_284_);}
	.st504{fill:url(#SVGID_285_);}
	.st505{fill:url(#SVGID_286_);}
	.st506{fill:url(#SVGID_287_);}
	.st507{fill:url(#SVGID_288_);}
	.st508{fill:url(#SVGID_289_);}
	.st509{fill:#0D7E98;}
	.st510{fill:#E56B56;}
	.st511{fill:#F9BE5C;}
	.st512{fill:#CB8930;}
	.st513{fill:none;stroke:#FFFFFF;stroke-width:2.8606;stroke-miterlimit:10;}
	.st514{fill:none;stroke:#B3AFAB;stroke-width:1.4303;stroke-linecap:round;stroke-linejoin:round;stroke-miterlimit:10;}
	.st515{fill-rule:evenodd;clip-rule:evenodd;fill:#F7B548;}
	.st516{fill:url(#SVGID_290_);}
	.st517{fill:url(#SVGID_291_);}
	.st518{fill:url(#SVGID_292_);}
	.st519{fill:url(#SVGID_293_);}
	.st520{fill:url(#SVGID_294_);}
	.st521{fill:url(#SVGID_295_);}
	.st522{fill:url(#SVGID_296_);}
	.st523{fill:url(#SVGID_297_);}
	.st524{fill:url(#SVGID_298_);}
	.st525{fill:url(#SVGID_299_);}
	.st526{fill:url(#SVGID_300_);}
	.st527{fill:url(#SVGID_301_);}
	.st528{fill:url(#SVGID_302_);}
	.st529{fill:url(#SVGID_303_);}
	.st530{fill:url(#SVGID_304_);}
	.st531{fill:url(#SVGID_305_);}
	.st532{fill:url(#SVGID_306_);}
	.st533{fill:url(#SVGID_307_);}
	.st534{fill:url(#SVGID_308_);}
	.st535{fill:url(#SVGID_309_);}
	.st536{fill:url(#SVGID_310_);}
	.st537{fill:url(#SVGID_311_);}
	.st538{fill:url(#SVGID_312_);}
	.st539{fill:url(#SVGID_313_);}
	.st540{fill:url(#SVGID_314_);}
	.st541{fill:url(#SVGID_315_);}
	.st542{fill:#138FAB;}
	.st543{fill:#B1E9EE;}
	.st544{fill:none;stroke:#FF00FF;stroke-width:37.7526;stroke-miterlimit:10;}
	.st545{clip-path:url(#SVGID_317_);fill:#8065E0;}
	.st546{clip-path:url(#SVGID_317_);fill:#7F64E0;}
	.st547{clip-path:url(#SVGID_317_);fill:#7F63E0;}
	.st548{clip-path:url(#SVGID_317_);fill:#7E63DF;}
	.st549{clip-path:url(#SVGID_317_);fill:#7D62DF;}
	.st550{clip-path:url(#SVGID_317_);fill:#7D61DF;}
	.st551{clip-path:url(#SVGID_317_);fill:#7C60DF;}
	.st552{clip-path:url(#SVGID_317_);fill:#7B5FDF;}
	.st553{clip-path:url(#SVGID_317_);fill:#7B5EDF;}
	.st554{clip-path:url(#SVGID_317_);fill:#7A5DDE;}
	.st555{clip-path:url(#SVGID_317_);fill:#795CDE;}
	.st556{clip-path:url(#SVGID_317_);fill:#785BDE;}
	.st557{clip-path:url(#SVGID_317_);fill:#775ADE;}
	.st558{clip-path:url(#SVGID_317_);fill:#7659DD;}
	.st559{clip-path:url(#SVGID_317_);fill:#7658DD;}
	.st560{clip-path:url(#SVGID_317_);fill:#7557DD;}
	.st561{clip-path:url(#SVGID_317_);fill:#7456DD;}
	.st562{clip-path:url(#SVGID_317_);fill:#7355DC;}
	.st563{clip-path:url(#SVGID_317_);fill:#7254DC;}
	.st564{clip-path:url(#SVGID_317_);fill:#7153DC;}
	.st565{clip-path:url(#SVGID_317_);fill:#7051DC;}
	.st566{clip-path:url(#SVGID_317_);fill:#6F50DB;}
	.st567{clip-path:url(#SVGID_317_);fill:#6E4FDB;}
	.st568{clip-path:url(#SVGID_317_);fill:#6D4EDB;}
	.st569{clip-path:url(#SVGID_317_);fill:#6C4DDB;}
	.st570{clip-path:url(#SVGID_317_);fill:#6B4BDA;}
	.st571{clip-path:url(#SVGID_317_);fill:#6A4ADA;}
	.st572{clip-path:url(#SVGID_317_);fill:#6949DA;}
	.st573{clip-path:url(#SVGID_317_);fill:#6848DA;}
	.st574{clip-path:url(#SVGID_317_);fill:#6746D9;}
	.st575{clip-path:url(#SVGID_317_);fill:#6645D9;}
	.st576{clip-path:url(#SVGID_317_);fill:#6544D9;}
	.st577{clip-path:url(#SVGID_317_);fill:#6443D9;}
	.st578{clip-path:url(#SVGID_317_);fill:#6442D8;}
	.st579{clip-path:url(#SVGID_317_);fill:#6341D8;}
	.st580{clip-path:url(#SVGID_317_);fill:#6240D8;}
	.st581{clip-path:url(#SVGID_317_);fill:#613FD8;}
	.st582{clip-path:url(#SVGID_317_);fill:#603ED8;}
	.st583{clip-path:url(#SVGID_317_);fill:#603DD7;}
	.st584{clip-path:url(#SVGID_317_);fill:#5F3CD7;}
	.st585{clip-path:url(#SVGID_317_);fill:#5E3BD7;}
	.st586{clip-path:url(#SVGID_317_);fill:#5D3AD7;}
	.st587{clip-path:url(#SVGID_317_);fill:#5C39D7;}
	.st588{clip-path:url(#SVGID_317_);fill:#5B38D6;}
	.st589{clip-path:url(#SVGID_317_);fill:#5A37D6;}
	.st590{clip-path:url(#SVGID_317_);fill:#5A36D6;}
	.st591{clip-path:url(#SVGID_317_);fill:#5935D6;}
	.st592{clip-path:url(#SVGID_317_);fill:#5834D6;}
	.st593{clip-path:url(#SVGID_317_);fill:#5732D5;}
	.st594{clip-path:url(#SVGID_317_);fill:#5631D5;}
	.st595{clip-path:url(#SVGID_317_);fill:#5530D5;}
	.st596{clip-path:url(#SVGID_317_);fill:#542FD5;}
	.st597{clip-path:url(#SVGID_317_);fill:#542ED5;}
	.st598{clip-path:url(#SVGID_317_);fill:#532DD4;}
	.st599{clip-path:url(#SVGID_317_);fill:#522CD4;}
	.st600{clip-path:url(#SVGID_317_);fill:#512BD4;}
	.st601{fill:#63D3DE;}
	.st602{fill:url(#SVGID_318_);}
	.st603{fill:url(#SVGID_319_);}
	.st604{fill:url(#SVGID_320_);}
	.st605{fill:none;stroke:#FF00FF;stroke-width:39.6641;stroke-miterlimit:10;}
	.st606{fill:url(#SVGID_321_);}
	.st607{fill:url(#SVGID_322_);}
	.st608{fill:url(#SVGID_323_);}
	.st609{fill:url(#SVGID_324_);}
	.st610{fill:url(#SVGID_325_);}
	.st611{fill:url(#SVGID_326_);}
	.st612{fill:url(#SVGID_327_);}
	.st613{fill:url(#SVGID_328_);}
	.st614{fill:url(#SVGID_329_);}
	.st615{fill:url(#SVGID_330_);}
	.st616{fill:url(#SVGID_331_);}
	.st617{fill:#9EAE2B;}
	.st618{fill:url(#SVGID_332_);}
	.st619{fill:url(#SVGID_333_);}
	.st620{fill:url(#SVGID_334_);}
	.st621{fill:url(#SVGID_335_);}
	.st622{fill:url(#SVGID_336_);}
	.st623{fill:url(#SVGID_337_);}
	.st624{fill:url(#SVGID_338_);}
	.st625{fill:url(#SVGID_339_);}
	.st626{fill:url(#SVGID_340_);}
	.st627{fill:url(#SVGID_341_);}
	.st628{fill:url(#SVGID_342_);}
	.st629{fill:url(#SVGID_343_);}
	.st630{fill:url(#SVGID_344_);}
	.st631{fill:url(#SVGID_345_);}
	.st632{fill:url(#SVGID_346_);}
	.st633{fill:url(#SVGID_347_);}
	.st634{fill:#D8F3FE;}
	.st635{fill:#085A7E;}
	.st636{fill:#E1EA95;}
	.st637{fill:#FEE0AD;}
	.st638{fill:#8E7A6F;}
	.st639{fill:#191717;}
	.st640{fill:#F0DB4F;}
	.st641{fill:#323330;}
	.st642{fill:url(#SVGID_348_);}
	.st643{fill:url(#SVGID_349_);}
	.st644{fill:url(#SVGID_350_);}
	.st645{fill:url(#SVGID_351_);}
	.st646{fill:url(#SVGID_352_);}
	.st647{fill:url(#SVGID_353_);}
	.st648{fill:url(#SVGID_354_);}
	.st649{fill:url(#SVGID_355_);}
	.st650{fill:url(#SVGID_356_);}
	.st651{fill:url(#SVGID_357_);}
	.st652{fill:url(#SVGID_358_);}
	.st653{fill:url(#SVGID_359_);}
	.st654{fill:#8577E5;}
	.st655{fill:url(#SVGID_360_);}
	.st656{fill:#263619;}
	.st657{fill:#6E7F17;}
	.st658{fill:#EEEDEC;}
	.st659{fill:#DEE88B;}
	.st660{fill:url(#SVGID_361_);}
	.st661{fill:none;stroke:#FFFFFF;stroke-width:3.0081;stroke-linecap:round;stroke-linejoin:round;stroke-miterlimit:10;}
	.st662{fill:none;stroke:#FFFFFF;stroke-width:3.567;stroke-linecap:round;stroke-linejoin:round;stroke-miterlimit:10;}
	.st663{fill:#F7F6F6;}
	.st664{fill:#CBD94F;}
	.st665{fill:#CF5746;}
	.st666{fill:#ED8422;}
	.st667{fill-rule:evenodd;clip-rule:evenodd;fill:#A3C9F6;}
	.st668{fill:url(#SVGID_362_);}
	.st669{fill-rule:evenodd;clip-rule:evenodd;fill:#549BEF;}
	.st670{fill:#FDD99C;}
	.st671{fill:#C4832D;}
	.st672{fill:#FFF2DC;}
	.st673{fill:#1595B2;}
	.st674{fill:url(#SVGID_363_);}
	.st675{fill:url(#SVGID_364_);}
	.st676{fill:url(#SVGID_365_);}
	.st677{fill:url(#SVGID_366_);}
	.st678{fill:url(#SVGID_367_);}
	.st679{fill:url(#SVGID_368_);}
	.st680{fill:url(#SVGID_369_);}
	.st681{fill:url(#SVGID_370_);}
	.st682{fill:url(#SVGID_371_);}
	.st683{fill:url(#SVGID_372_);}
	.st684{fill:url(#SVGID_373_);}
	.st685{fill:url(#SVGID_374_);}
	.st686{fill:url(#SVGID_375_);}
	.st687{fill:#EDF7F6;}
	.st688{fill:url(#SVGID_376_);}
	.st689{fill:url(#SVGID_377_);}
	.st690{fill:#E97762;}
	.st691{fill:url(#SVGID_378_);}
	.st692{fill:url(#SVGID_379_);}
	.st693{fill:url(#SVGID_380_);}
	.st694{fill:url(#SVGID_381_);}
	.st695{fill:url(#SVGID_382_);}
	.st696{fill:url(#SVGID_383_);}
	.st697{fill:url(#SVGID_384_);}
	.st698{fill:url(#SVGID_385_);}
	.st699{fill:url(#SVGID_386_);}
	.st700{fill:url(#SVGID_387_);}
	.st701{fill:url(#SVGID_388_);}
	.st702{fill:#A2AD6D;}
	.st703{fill:#E3646A;}
	.st704{fill:#889643;}
	.st705{fill:#EE8F94;}
	.st706{fill:url(#SVGID_389_);}
	.st707{fill:url(#SVGID_390_);}
	.st708{fill:#1C77E2;}
	.st709{fill:#D18F33;}
	.st710{fill:none;stroke:#C740B6;stroke-width:2.0654;stroke-miterlimit:10;}
	.st711{fill:#E26854;}
	.st712{fill:#F9BDAA;}
	.st713{fill:url(#SVGID_391_);}
	.st714{fill:url(#SVGID_392_);}
	.st715{fill:#519F90;}
	.st716{fill:#4E9A8B;}
	.st717{fill:none;stroke:#C2E8E3;stroke-width:1.5759;stroke-miterlimit:10;}
	.st718{fill:url(#SVGID_393_);}
	.st719{fill:url(#SVGID_394_);}
	.st720{fill:url(#SVGID_395_);}
	.st721{fill:url(#SVGID_396_);}
	.st722{fill:url(#SVGID_397_);}
	.st723{fill:none;stroke:#FF00FF;stroke-width:29.9084;stroke-miterlimit:10;}
	.st724{fill:url(#SVGID_398_);}
	.st725{fill:url(#SVGID_399_);}
	.st726{fill:url(#SVGID_400_);}
	.st727{fill:url(#SVGID_401_);}
	.st728{fill:url(#SVGID_402_);}
	.st729{fill:url(#SVGID_403_);}
	.st730{fill:url(#SVGID_404_);}
	.st731{fill:url(#SVGID_405_);}
	.st732{fill:url(#SVGID_406_);}
	.st733{fill:#2B88D8;}
	.st734{fill:url(#SVGID_407_);}
	.st735{fill:url(#SVGID_408_);}
	.st736{fill:url(#SVGID_409_);}
	.st737{fill:url(#SVGID_410_);}
	.st738{fill:url(#SVGID_411_);}
	.st739{fill:url(#SVGID_412_);}
	.st740{fill:url(#SVGID_413_);}
	.st741{fill:url(#SVGID_414_);}
	.st742{fill:url(#SVGID_415_);}
	.st743{fill:url(#SVGID_416_);}
	.st744{fill:url(#SVGID_417_);}
	.st745{fill:url(#SVGID_418_);}
	.st746{fill:url(#SVGID_419_);}
	.st747{fill:url(#SVGID_420_);}
	.st748{fill:url(#SVGID_421_);}
	.st749{fill:url(#SVGID_422_);}
	.st750{fill:url(#SVGID_423_);}
	.st751{fill:#F0AE00;}
	.st752{fill:#3F3C38;}
	.st753{fill:#BBCB37;}
	.st754{fill:url(#SVGID_424_);}
	.st755{fill:url(#SVGID_425_);}
	.st756{fill:url(#SVGID_426_);}
	.st757{fill:url(#SVGID_427_);}
	.st758{fill:url(#SVGID_428_);}
	.st759{fill:url(#SVGID_429_);}
	.st760{fill:url(#SVGID_430_);}
	.st761{fill:url(#SVGID_431_);}
	.st762{fill:url(#SVGID_432_);}
	.st763{fill:url(#SVGID_433_);}
	.st764{fill:url(#SVGID_434_);}
	.st765{fill:url(#SVGID_435_);}
	.st766{fill:url(#SVGID_436_);}
	.st767{fill:url(#SVGID_437_);}
	.st768{fill:url(#SVGID_438_);}
	.st769{fill:url(#SVGID_439_);}
	.st770{fill:#F4AC99;}
	.st771{fill:url(#SVGID_440_);}
	.st772{fill:url(#SVGID_441_);}
	.st773{fill:url(#SVGID_442_);}
	.st774{fill:url(#SVGID_443_);}
	.st775{fill:url(#SVGID_444_);}
	.st776{fill:url(#SVGID_445_);}
	.st777{clip-path:url(#SVGID_447_);fill:#8065E0;}
	.st778{clip-path:url(#SVGID_447_);fill:#7F64E0;}
	.st779{clip-path:url(#SVGID_447_);fill:#7F63E0;}
	.st780{clip-path:url(#SVGID_447_);fill:#7E63DF;}
	.st781{clip-path:url(#SVGID_447_);fill:#7D62DF;}
	.st782{clip-path:url(#SVGID_447_);fill:#7D61DF;}
	.st783{clip-path:url(#SVGID_447_);fill:#7C60DF;}
	.st784{clip-path:url(#SVGID_447_);fill:#7B5FDF;}
	.st785{clip-path:url(#SVGID_447_);fill:#7B5EDF;}
	.st786{clip-path:url(#SVGID_447_);fill:#7A5DDE;}
	.st787{clip-path:url(#SVGID_447_);fill:#795CDE;}
	.st788{clip-path:url(#SVGID_447_);fill:#785BDE;}
	.st789{clip-path:url(#SVGID_447_);fill:#775ADE;}
	.st790{clip-path:url(#SVGID_447_);fill:#7659DD;}
	.st791{clip-path:url(#SVGID_447_);fill:#7658DD;}
	.st792{clip-path:url(#SVGID_447_);fill:#7557DD;}
	.st793{clip-path:url(#SVGID_447_);fill:#7456DD;}
	.st794{clip-path:url(#SVGID_447_);fill:#7355DC;}
	.st795{clip-path:url(#SVGID_447_);fill:#7254DC;}
	.st796{clip-path:url(#SVGID_447_);fill:#7153DC;}
	.st797{clip-path:url(#SVGID_447_);fill:#7051DC;}
	.st798{clip-path:url(#SVGID_447_);fill:#6F50DB;}
	.st799{clip-path:url(#SVGID_447_);fill:#6E4FDB;}
	.st800{clip-path:url(#SVGID_447_);fill:#6D4EDB;}
	.st801{clip-path:url(#SVGID_447_);fill:#6C4DDB;}
	.st802{clip-path:url(#SVGID_447_);fill:#6B4BDA;}
	.st803{clip-path:url(#SVGID_447_);fill:#6A4ADA;}
	.st804{clip-path:url(#SVGID_447_);fill:#6949DA;}
	.st805{clip-path:url(#SVGID_447_);fill:#6848DA;}
	.st806{clip-path:url(#SVGID_447_);fill:#6746D9;}
	.st807{clip-path:url(#SVGID_447_);fill:#6645D9;}
	.st808{clip-path:url(#SVGID_447_);fill:#6544D9;}
	.st809{clip-path:url(#SVGID_447_);fill:#6443D9;}
	.st810{clip-path:url(#SVGID_447_);fill:#6442D8;}
	.st811{clip-path:url(#SVGID_447_);fill:#6341D8;}
	.st812{clip-path:url(#SVGID_447_);fill:#6240D8;}
	.st813{clip-path:url(#SVGID_447_);fill:#613FD8;}
	.st814{clip-path:url(#SVGID_447_);fill:#603ED8;}
	.st815{clip-path:url(#SVGID_447_);fill:#603DD7;}
	.st816{clip-path:url(#SVGID_447_);fill:#5F3CD7;}
	.st817{clip-path:url(#SVGID_447_);fill:#5E3BD7;}
	.st818{clip-path:url(#SVGID_447_);fill:#5D3AD7;}
	.st819{clip-path:url(#SVGID_447_);fill:#5C39D7;}
	.st820{clip-path:url(#SVGID_447_);fill:#5B38D6;}
	.st821{clip-path:url(#SVGID_447_);fill:#5A37D6;}
	.st822{clip-path:url(#SVGID_447_);fill:#5A36D6;}
	.st823{clip-path:url(#SVGID_447_);fill:#5935D6;}
	.st824{clip-path:url(#SVGID_447_);fill:#5834D6;}
	.st825{clip-path:url(#SVGID_447_);fill:#5732D5;}
	.st826{clip-path:url(#SVGID_447_);fill:#5631D5;}
	.st827{clip-path:url(#SVGID_447_);fill:#5530D5;}
	.st828{clip-path:url(#SVGID_447_);fill:#542FD5;}
	.st829{clip-path:url(#SVGID_447_);fill:#542ED5;}
	.st830{clip-path:url(#SVGID_447_);fill:#532DD4;}
	.st831{clip-path:url(#SVGID_447_);fill:#522CD4;}
	.st832{clip-path:url(#SVGID_447_);fill:#512BD4;}
	.st833{fill:url(#SVGID_448_);}
	.st834{clip-path:url(#SVGID_450_);fill:#8065E0;}
	.st835{clip-path:url(#SVGID_450_);fill:#7F64E0;}
	.st836{clip-path:url(#SVGID_450_);fill:#7F63E0;}
	.st837{clip-path:url(#SVGID_450_);fill:#7E63DF;}
	.st838{clip-path:url(#SVGID_450_);fill:#7D62DF;}
	.st839{clip-path:url(#SVGID_450_);fill:#7D61DF;}
	.st840{clip-path:url(#SVGID_450_);fill:#7C60DF;}
	.st841{clip-path:url(#SVGID_450_);fill:#7B5FDF;}
	.st842{clip-path:url(#SVGID_450_);fill:#7B5EDF;}
	.st843{clip-path:url(#SVGID_450_);fill:#7A5DDE;}
	.st844{clip-path:url(#SVGID_450_);fill:#795CDE;}
	.st845{clip-path:url(#SVGID_450_);fill:#785BDE;}
	.st846{clip-path:url(#SVGID_450_);fill:#775ADE;}
	.st847{clip-path:url(#SVGID_450_);fill:#7659DD;}
	.st848{clip-path:url(#SVGID_450_);fill:#7658DD;}
	.st849{clip-path:url(#SVGID_450_);fill:#7557DD;}
	.st850{clip-path:url(#SVGID_450_);fill:#7456DD;}
	.st851{clip-path:url(#SVGID_450_);fill:#7355DC;}
	.st852{clip-path:url(#SVGID_450_);fill:#7254DC;}
	.st853{clip-path:url(#SVGID_450_);fill:#7153DC;}
	.st854{clip-path:url(#SVGID_450_);fill:#7051DC;}
	.st855{clip-path:url(#SVGID_450_);fill:#6F50DB;}
	.st856{clip-path:url(#SVGID_450_);fill:#6E4FDB;}
	.st857{clip-path:url(#SVGID_450_);fill:#6D4EDB;}
	.st858{clip-path:url(#SVGID_450_);fill:#6C4DDB;}
	.st859{clip-path:url(#SVGID_450_);fill:#6B4BDA;}
	.st860{clip-path:url(#SVGID_450_);fill:#6A4ADA;}
	.st861{clip-path:url(#SVGID_450_);fill:#6949DA;}
	.st862{clip-path:url(#SVGID_450_);fill:#6848DA;}
	.st863{clip-path:url(#SVGID_450_);fill:#6746D9;}
	.st864{clip-path:url(#SVGID_450_);fill:#6645D9;}
	.st865{clip-path:url(#SVGID_450_);fill:#6544D9;}
	.st866{clip-path:url(#SVGID_450_);fill:#6443D9;}
	.st867{clip-path:url(#SVGID_450_);fill:#6442D8;}
	.st868{clip-path:url(#SVGID_450_);fill:#6341D8;}
	.st869{clip-path:url(#SVGID_450_);fill:#6240D8;}
	.st870{clip-path:url(#SVGID_450_);fill:#613FD8;}
	.st871{clip-path:url(#SVGID_450_);fill:#603ED8;}
	.st872{clip-path:url(#SVGID_450_);fill:#603DD7;}
	.st873{clip-path:url(#SVGID_450_);fill:#5F3CD7;}
	.st874{clip-path:url(#SVGID_450_);fill:#5E3BD7;}
	.st875{clip-path:url(#SVGID_450_);fill:#5D3AD7;}
	.st876{clip-path:url(#SVGID_450_);fill:#5C39D7;}
	.st877{clip-path:url(#SVGID_450_);fill:#5B38D6;}
	.st878{clip-path:url(#SVGID_450_);fill:#5A37D6;}
	.st879{clip-path:url(#SVGID_450_);fill:#5A36D6;}
	.st880{clip-path:url(#SVGID_450_);fill:#5935D6;}
	.st881{clip-path:url(#SVGID_450_);fill:#5834D6;}
	.st882{clip-path:url(#SVGID_450_);fill:#5732D5;}
	.st883{clip-path:url(#SVGID_450_);fill:#5631D5;}
	.st884{clip-path:url(#SVGID_450_);fill:#5530D5;}
	.st885{clip-path:url(#SVGID_450_);fill:#542FD5;}
	.st886{clip-path:url(#SVGID_450_);fill:#542ED5;}
	.st887{clip-path:url(#SVGID_450_);fill:#532DD4;}
	.st888{clip-path:url(#SVGID_450_);fill:#522CD4;}
	.st889{clip-path:url(#SVGID_450_);fill:#512BD4;}
	.st890{fill:url(#SVGID_451_);}
	.st891{fill:url(#SVGID_452_);}
	.st892{fill:url(#SVGID_453_);}
	.st893{fill:url(#SVGID_454_);}
	.st894{fill:url(#SVGID_455_);}
	.st895{fill:url(#SVGID_456_);}
	.st896{fill:url(#SVGID_457_);}
	.st897{fill:url(#SVGID_458_);}
	.st898{fill:url(#SVGID_459_);}
	.st899{fill:url(#SVGID_460_);}
	.st900{fill:url(#SVGID_461_);}
	.st901{fill:url(#SVGID_462_);}
	.st902{fill:url(#SVGID_463_);}
	.st903{fill:url(#SVGID_464_);}
	.st904{fill:url(#SVGID_465_);}
	.st905{fill:url(#SVGID_466_);}
	.st906{fill:url(#SVGID_467_);}
	.st907{fill:url(#SVGID_468_);}
	.st908{fill:url(#SVGID_469_);}
	.st909{fill:#EB8470;}
	.st910{fill:url(#SVGID_470_);}
	.st911{fill:url(#SVGID_471_);}
	.st912{fill:url(#SVGID_472_);}
	.st913{fill:url(#SVGID_473_);}
	.st914{fill:url(#SVGID_474_);}
	.st915{fill:url(#SVGID_475_);}
	.st916{fill:url(#SVGID_476_);}
	.st917{fill:url(#SVGID_477_);}
	.st918{fill:url(#SVGID_478_);}
	.st919{fill:url(#SVGID_479_);}
	.st920{fill:url(#SVGID_480_);}
	.st921{fill:url(#SVGID_481_);}
	.st922{fill:url(#SVGID_482_);}
	.st923{fill:url(#SVGID_483_);}
	.st924{fill:url(#SVGID_484_);}
	.st925{fill:url(#SVGID_485_);}
	.st926{fill:url(#SVGID_486_);}
	.st927{fill:url(#SVGID_487_);}
	.st928{fill:url(#SVGID_488_);}
	.st929{fill:url(#SVGID_489_);}
	.st930{fill:url(#SVGID_490_);}
	.st931{fill:url(#SVGID_491_);}
	.st932{fill:url(#SVGID_492_);}
	.st933{fill:url(#SVGID_493_);}
	.st934{fill:url(#SVGID_494_);}
	.st935{fill:url(#SVGID_495_);}
	.st936{fill:url(#SVGID_496_);}
	.st937{fill:url(#SVGID_497_);}
	.st938{fill:url(#SVGID_498_);}
	.st939{fill:url(#SVGID_499_);}
	.st940{fill:url(#SVGID_500_);}
	.st941{fill:url(#SVGID_501_);}
	.st942{fill:url(#SVGID_502_);}
	.st943{fill:url(#SVGID_503_);}
	.st944{fill:url(#SVGID_504_);}
	.st945{fill:url(#SVGID_505_);}
	.st946{fill:url(#SVGID_506_);}
	.st947{fill:url(#SVGID_507_);}
	.st948{fill:url(#SVGID_508_);}
	.st949{fill:url(#SVGID_509_);}
	.st950{fill:url(#SVGID_510_);}
	.st951{fill:url(#SVGID_511_);}
	.st952{fill:url(#SVGID_512_);}
	.st953{fill:url(#SVGID_513_);}
	.st954{fill:url(#SVGID_514_);}
	.st955{fill:url(#SVGID_515_);}
	.st956{fill:url(#SVGID_516_);}
	.st957{fill:url(#SVGID_517_);}
	.st958{fill:url(#SVGID_518_);}
	.st959{fill:url(#SVGID_519_);}
	.st960{fill:url(#SVGID_520_);}
	.st961{fill:url(#SVGID_521_);}
	.st962{fill:url(#SVGID_522_);}
	.st963{fill:url(#SVGID_523_);}
	.st964{fill:url(#SVGID_524_);}
	.st965{fill:url(#SVGID_525_);}
	.st966{fill:url(#SVGID_526_);}
	.st967{fill:url(#SVGID_527_);}
	.st968{fill:url(#SVGID_528_);}
	.st969{fill:url(#SVGID_529_);}
	.st970{fill:url(#SVGID_530_);}
	.st971{fill:url(#SVGID_531_);}
	.st972{fill:url(#SVGID_532_);}
	.st973{fill:url(#SVGID_533_);}
	.st974{fill:url(#SVGID_534_);}
	.st975{fill:url(#SVGID_535_);}
	.st976{fill:url(#SVGID_536_);}
	.st977{fill:url(#SVGID_537_);}
	.st978{fill:url(#SVGID_538_);}
	.st979{fill:url(#SVGID_539_);}
	.st980{fill:url(#SVGID_540_);}
	.st981{fill:url(#SVGID_541_);}
	.st982{fill:url(#SVGID_542_);}
	.st983{fill:#F9C163;}
	.st984{fill:url(#SVGID_543_);}
	.st985{fill:#E6F2FC;}
	.st986{fill:url(#SVGID_544_);}
	.st987{fill:url(#SVGID_545_);}
	.st988{fill:url(#SVGID_546_);}
	.st989{fill:url(#SVGID_547_);}
	.st990{fill:url(#SVGID_548_);}
	.st991{fill:url(#SVGID_549_);}
	.st992{fill:none;stroke:#908D89;stroke-width:2;stroke-miterlimit:10;}
	.st993{fill:url(#SVGID_550_);}
	.st994{fill:url(#SVGID_551_);}
	.st995{fill:url(#SVGID_552_);}
	.st996{fill:url(#SVGID_553_);}
	.st997{fill:url(#SVGID_554_);}
	.st998{fill:url(#SVGID_555_);}
	.st999{fill:url(#SVGID_556_);}
	.st1000{fill:url(#SVGID_557_);}
	.st1001{fill:url(#SVGID_558_);}
	.st1002{fill:url(#SVGID_559_);}
	.st1003{fill:url(#SVGID_560_);}
	.st1004{fill:url(#SVGID_561_);}
	.st1005{fill:url(#SVGID_562_);}
	.st1006{fill:url(#SVGID_563_);}
	.st1007{fill:url(#SVGID_564_);}
	.st1008{fill:url(#SVGID_565_);}
	.st1009{fill:#2ECCEF;}
	.st1010{fill:url(#SVGID_566_);}
	.st1011{fill:#DDF3FF;}
	.st1012{fill:#DF972B;}
	.st1013{fill:#F2F1F0;}
	.st1014{fill:#F4F3F2;}
	.st1015{fill:#6BAFE9;}
	.st1016{fill:#E96F5F;}
	.st1017{fill:#F2D850;}
	.st1018{fill:#8DE265;}
	.st1019{fill:url(#SVGID_567_);}
	.st1020{fill:url(#SVGID_570_);}
	.st1021{fill:url(#SVGID_573_);}
</style>
<g>
	<polygon class="st47" points="202.48,223.87 82.8,216.93 81.88,116.5 201.71,110.42 	"/>
	<path class="st102" d="M184.24,136.06l-88.65,2.36c-2.05,0.05-3.72-2.27-3.75-5.2v0c-0.03-2.93,1.61-5.36,3.66-5.44l88.67-3.37
		c2.47-0.09,4.49,2.45,4.52,5.68v0C188.69,133.33,186.7,136,184.24,136.06z"/>
	<path class="st102" d="M184.4,159.11l-88.63,0.37c-2.05,0.01-3.72-2.35-3.75-5.28v0c-0.03-2.92,1.61-5.32,3.65-5.35l88.64-1.37
		c2.47-0.04,4.49,2.55,4.51,5.77v0C188.86,156.47,186.87,159.1,184.4,159.11z"/>
	<path class="st11" d="M120.6,126.83l-25.11,0.95c-2.05,0.08-3.68,2.51-3.66,5.44c0.03,2.93,1.7,5.25,3.75,5.2l25.11-0.67
		L120.6,126.83z"/>
	<polygon class="st11" points="113.82,148.56 113.91,159.4 144.1,159.27 144.01,148.1 	"/>
	<path class="st4" d="M100.51,184.52l-4.57-0.1c-1.05-0.02-1.91-1.26-1.92-2.76l-0.06-6.49c-0.01-1.5,0.83-2.71,1.88-2.7l4.57,0.04
		c1.06,0.01,1.94,1.25,1.95,2.76l0.06,6.55C102.43,183.34,101.57,184.54,100.51,184.52z"/>
	<g>
		<polygon class="st102" points="133.9,181.17 108.84,180.71 108.81,177.66 133.88,178.04 		"/>
	</g>
	<path class="st4" d="M100.68,204.13l-4.57-0.2c-1.05-0.05-1.91-1.3-1.92-2.79l-0.06-6.49c-0.01-1.5,0.83-2.69,1.88-2.66l4.57,0.14
		c1.06,0.03,1.94,1.28,1.95,2.8l0.06,6.54C102.6,202.99,101.75,204.17,100.68,204.13z"/>
	<g>
		<polygon class="st102" points="134.07,201.47 109.01,200.49 108.98,197.45 134.04,198.35 		"/>
	</g>
	<path class="st4" d="M150.82,185.65l-5.07-0.11c-1.16-0.03-2.12-1.33-2.13-2.91l-0.05-6.83c-0.01-1.58,0.92-2.85,2.08-2.84
		l5.07,0.05c1.18,0.01,2.15,1.31,2.16,2.91l0.05,6.9C152.94,184.41,152,185.68,150.82,185.65z"/>
	<g>
		<polygon class="st102" points="187.95,182.15 160.07,181.64 160.04,178.43 187.92,178.85 		"/>
	</g>
	<path class="st4" d="M150.98,206.3l-5.07-0.22c-1.16-0.05-2.12-1.37-2.13-2.95l-0.05-6.83c-0.01-1.58,0.92-2.83,2.08-2.79
		l5.07,0.15c1.18,0.04,2.15,1.36,2.16,2.95l0.05,6.89C153.11,205.11,152.16,206.35,150.98,206.3z"/>
	<g>
		<polygon class="st102" points="188.1,203.58 160.23,202.49 160.2,199.29 188.07,200.29 		"/>
	</g>
	<g>
		<path class="st2" d="M292.79,184.59l-121.22-2.27c-2.58-0.05-4.69-2.85-4.72-6.26L165.99,61.2c-0.03-3.43,2.04-6.43,4.63-6.71
			l121.44-13.07c3.27-0.35,5.94,2.51,5.96,6.38l0.65,129.91C298.69,181.57,296.05,184.65,292.79,184.59z"/>
		<polygon class="st397" points="238.87,62.24 176.61,68.07 176.56,60.74 238.82,54.46 		"/>
		<polygon class="st397" points="298.38,119.2 166.46,124.31 166.62,144.64 298.49,142.19 		"/>
		<polygon class="st46" points="298.51,145.58 166.64,147.64 166.79,167.95 298.62,168.55 		"/>
		<polygon class="st6" points="166.29,101.22 166.44,121.57 298.36,116.1 298.25,93.08 		"/>
		<polygon class="st46" points="166.12,78.11 166.27,98.48 298.23,89.98 298.12,66.94 		"/>
		<g>
			<polygon class="st40" points="246.29,84.32 196.78,87.92 196.76,84.58 246.27,80.82 			"/>
			<path class="st397" d="M187.68,87.38c0.03,3.97-2.41,7.35-5.43,7.55c-3,0.2-5.45-2.82-5.48-6.75c-0.03-3.93,2.37-7.31,5.37-7.55
				C185.16,80.39,187.65,83.41,187.68,87.38z"/>
		</g>
		<g>
			<polygon class="st40" points="273.2,107.47 196.94,111.29 196.92,107.95 273.18,103.88 			"/>
			<path class="st46" d="M187.84,110.56c0.03,3.97-2.41,7.29-5.43,7.42c-3,0.13-5.45-2.94-5.48-6.86c-0.03-3.92,2.37-7.25,5.37-7.42
				C185.33,103.52,187.81,106.59,187.84,110.56z"/>
		</g>
		<g>
			<polygon class="st102" points="258.99,132.93 197.11,134.65 197.08,131.31 258.97,129.4 			"/>
			<path class="st2" d="M188,133.71c0.03,3.96-2.41,7.23-5.43,7.29c-3,0.07-5.45-3.06-5.47-6.98c-0.03-3.92,2.37-7.19,5.37-7.29
				C185.49,126.62,187.98,129.74,188,133.71z"/>
		</g>
		<g>
			<polygon class="st40" points="246.73,157.72 197.27,157.98 197.24,154.65 246.71,154.23 			"/>
			<path class="st397" d="M188.17,156.84c0.03,3.96-2.41,7.17-5.43,7.16c-3,0-5.44-3.18-5.47-7.1c-0.03-3.92,2.37-7.13,5.37-7.17
				C185.66,149.7,188.14,152.88,188.17,156.84z"/>
		</g>
	</g>
	<g>
		<path class="st142" d="M545.12,257.33L341.1,243.5c-4.58-0.31-8.29-4.75-8.31-9.92l-0.15-34.04c-0.02-5.18,3.65-9.29,8.24-9.19
			l204.22,4.66c6.36,0.15,11.56,5.26,11.56,11.43v40.52C556.67,253.12,551.47,257.76,545.12,257.33z"/>
		<path class="st2" d="M377.8,191.2l-36.91-0.84c-4.59-0.1-8.26,4.01-8.24,9.19l0.15,34.04c0.02,5.17,3.73,9.61,8.31,9.92l36.88,2.5
			L377.8,191.2z"/>
		<path class="st6" d="M349.68,201.64c-0.65,0.24-1.3,0.53-1.93,0.87c-0.86,0.47-1.66,1.03-2.4,1.65l1.35,3.51
			c-0.73,0.72-1.37,1.53-1.91,2.41l-3.5-0.56c-0.78,1.65-1.3,3.45-1.54,5.31l3.1,1.71c-0.06,1.25,0.04,2.51,0.31,3.77
			c-0.75,0.57-2.02,1.47-2.83,2.05c0.21,0.72,0.46,1.43,0.77,2.13c0.42,0.97,0.91,1.87,1.46,2.7l3.17-1.34
			c0.7,0.9,1.49,1.68,2.36,2.32l-0.55,3.86c1.51,0.92,3.15,1.54,4.85,1.84l1.64-3.5c0.96,0.05,1.93-0.03,2.89-0.25l1.94,3.3
			c0.7-0.23,1.39-0.51,2.07-0.86c0.93-0.48,1.79-1.05,2.57-1.71l-1.42-3.57c0.77-0.75,1.45-1.6,2-2.53l3.5,0.85
			c0.87-1.77,1.44-3.71,1.68-5.73c-1.03-0.47-2.47-1.13-3.27-1.52c0.06-1.16-0.02-2.33-0.26-3.5l3-2.02
			c-0.24-0.87-0.54-1.74-0.92-2.59c-0.46-1.04-1.01-2.01-1.63-2.9l-3.15,1.61c-0.75-0.95-1.62-1.76-2.55-2.42l0.75-3.79
			c-1.49-0.87-3.09-1.46-4.75-1.74l-1.38,3.54c-1.16-0.1-2.34,0-3.51,0.3L349.68,201.64z M360.22,214.31
			c1.62,3.68,0.27,8.07-3.01,9.79c-3.26,1.71-7.18,0.13-8.77-3.52c-1.59-3.64-0.27-7.99,2.96-9.73
			C354.65,209.11,358.61,210.65,360.22,214.31z"/>
		<path class="st174" d="M417.85,220.61c0.02,9.31-7.02,16.44-15.62,15.94c-8.49-0.5-15.31-8.26-15.34-17.35
			c-0.03-9.09,6.75-16.24,15.24-15.97C410.73,203.52,417.82,211.3,417.85,220.61z"/>
		<path class="st271" d="M403.98,208.71l-0.89,8.98l8.49-2.18l0.57,4.2l-8.14,0.34l5.31,7.71l-3.67,1.96l-3.76-8.44l-3.35,8.06
			l-3.7-2.33l5.06-7.15l-7.91-1.06l0.59-4.09l8.21,2.87l-0.93-9.03L403.98,208.71z"/>
		<path class="st271" d="M437.08,231l-3.13-0.17l-0.03-13.16c0-1.57,0.03-2.82,0.1-3.73c-0.2,0.22-0.45,0.45-0.75,0.71
			c-0.3,0.26-1.29,1.07-2.97,2.44l-1.56-2.14l5.68-4.49l2.61,0.1L437.08,231z"/>
		<path class="st271" d="M471.84,232.84l-13.82-0.73l0-2.53l5.21-5.14c1.55-1.56,2.58-2.66,3.08-3.32c0.51-0.66,0.87-1.29,1.11-1.88
			c0.23-0.59,0.35-1.23,0.35-1.92c0-0.95-0.28-1.7-0.84-2.27c-0.55-0.57-1.32-0.87-2.3-0.91c-0.78-0.03-1.53,0.09-2.26,0.35
			c-0.73,0.27-1.56,0.76-2.51,1.5l-1.76-2.27c1.12-0.93,2.21-1.58,3.28-1.95c1.06-0.37,2.2-0.53,3.41-0.49
			c1.9,0.07,3.43,0.63,4.58,1.7c1.15,1.06,1.73,2.46,1.74,4.18c0,0.95-0.16,1.84-0.49,2.68c-0.33,0.84-0.84,1.69-1.53,2.56
			c-0.68,0.87-1.82,2.04-3.42,3.5l-3.53,3.34l0,0.14l9.71,0.49L471.84,232.84z"/>
		<path class="st271" d="M503.25,217.94c0,1.36-0.4,2.48-1.19,3.35c-0.8,0.87-1.91,1.43-3.35,1.68l0,0.12
			c1.72,0.29,3.02,0.89,3.89,1.78c0.87,0.9,1.3,2.06,1.3,3.48c0,2.07-0.73,3.63-2.2,4.67c-1.46,1.04-3.54,1.49-6.22,1.35
			c-2.36-0.13-4.35-0.61-5.96-1.47l0-3.04c0.9,0.49,1.85,0.88,2.86,1.18c1.01,0.29,1.98,0.47,2.91,0.51
			c1.66,0.08,2.9-0.16,3.72-0.73c0.82-0.57,1.23-1.51,1.23-2.8c0-1.14-0.46-2.01-1.37-2.59c-0.91-0.58-2.34-0.91-4.27-1l-1.85-0.08
			l0-2.79l1.88,0.08c3.41,0.15,5.12-0.96,5.12-3.33c0-0.92-0.3-1.64-0.9-2.16c-0.6-0.52-1.48-0.81-2.64-0.85
			c-0.81-0.03-1.59,0.05-2.34,0.25c-0.75,0.2-1.63,0.61-2.65,1.23l-1.67-2.45c1.94-1.36,4.21-2,6.79-1.91
			c2.16,0.08,3.85,0.61,5.07,1.58C502.64,215,503.25,216.31,503.25,217.94z"/>
		<path class="st271" d="M538.75,231.57l-3.06-0.15l0,4.8l-3.54-0.19l0-4.79l-10.22-0.51l0-2.7l10.22-14.03l3.54,0.13l0.01,14.34
			l3.06,0.14L538.75,231.57z M532.15,228.31l0-5.51c0-1.96,0.05-3.57,0.15-4.82l-0.12,0c-0.29,0.65-0.74,1.43-1.35,2.35l-5.56,7.66
			L532.15,228.31z"/>
	</g>
	<g>
		<path class="st74" d="M439.61,176.58l-151.52-1.56c-2.98-0.03-5.4-2.92-5.42-6.44l-0.55-103.6c-0.02-3.54,2.38-6.64,5.36-6.92
			l151.83-14.17c3.87-0.36,7.02,2.64,7.03,6.7l0.25,118.74C446.61,173.37,443.47,176.62,439.61,176.58z"/>
		<path class="st102" d="M446.39,69.85l-0.04-19.27c-0.01-4.06-3.17-7.06-7.03-6.7L287.49,58.05c-2.99,0.28-5.38,3.38-5.36,6.92
			l0.09,16.81L446.39,69.85z"/>
		<path class="st202" d="M439.31,43.89l-79.97,7.46l0.09,24.82l86.95-6.32l-0.04-19.27C446.34,46.52,443.18,43.52,439.31,43.89z"/>
		<polygon class="st290" points="421.8,109.25 302.01,114.39 301.93,97.29 421.75,90.36 		"/>
		<polygon class="st6" points="328.33,113.26 302.01,114.39 301.93,97.29 328.25,95.77 		"/>
		<polygon class="st290" points="421.87,135.63 302.13,138.26 302.05,121.18 421.82,116.76 		"/>
		<polygon class="st6" points="328.44,137.68 302.13,138.26 302.05,121.18 328.36,120.21 		"/>
		<path class="st102" d="M369.47,165.02l45.26,0.06c4.08,0.01,7.39-3.52,7.38-7.88l-0.01-2.98c-0.01-4.36-3.35-7.85-7.42-7.8
			l-45.27,0.61c-3.76,0.05-6.79,3.46-6.77,7.62l0.01,2.84C362.66,161.64,365.7,165.01,369.47,165.02z"/>
	</g>
	<path class="st4" d="M91.85,132.88c0,0.12-0.02,0.23-0.02,0.35c0.03,2.93,1.7,5.25,3.75,5.2l25.11-0.67l-0.05-5.82L91.85,132.88z"
		/>
	<polygon class="st4" points="113.86,153.84 113.91,159.4 144.1,159.27 144.06,153.54 	"/>
</g>
</svg>
