<svg xmlns="http://www.w3.org/2000/svg" xmlns:xlink="http://www.w3.org/1999/xlink" viewBox="0 0 636 300"><defs><clipPath id="a"><rect x="43" y="92" width="550" height="116.814" fill="none"/></clipPath></defs><title>swimlane-brand-microsoft</title><g clip-path="url(#a)"><path d="M271.417,115.351V185.44H259.224V130.5h-.2l-21.8,54.937h-8.082L206.815,130.5h-.148V185.44H195.4V115.351h17.484l20.179,51.957h.295l21.3-51.957Zm10.2,5.328a6.44,6.44,0,0,1,2.13-4.912,7.2,7.2,0,0,1,5.069-1.98,7.1,7.1,0,0,1,5.192,2.028,6.6,6.6,0,0,1,2.058,4.868,6.342,6.342,0,0,1-2.114,4.838,7.283,7.283,0,0,1-5.144,1.947,7.152,7.152,0,0,1-5.118-1.978,6.395,6.395,0,0,1-2.073-4.811ZM294.692,135.2V185.44H282.84V135.2Zm35.951,41.643a16.365,16.365,0,0,0,5.826-1.222,24.41,24.41,0,0,0,5.878-3.225v11a23.8,23.8,0,0,1-6.44,2.443,35.171,35.171,0,0,1-7.909.831,23.915,23.915,0,0,1-25.028-24.926,28.618,28.618,0,0,1,7.1-19.967q7.1-7.845,20.13-7.844a27.61,27.61,0,0,1,6.734.855,22.527,22.527,0,0,1,5.411,1.979V148.1a24.2,24.2,0,0,0-5.608-3.1,16.245,16.245,0,0,0-5.852-1.1,14.875,14.875,0,0,0-11.314,4.543,17.091,17.091,0,0,0-4.31,12.269,16.309,16.309,0,0,0,4.139,11.876,14.96,14.96,0,0,0,11.241,4.254Zm45.448-42.473a14.99,14.99,0,0,1,2.548.2,10.638,10.638,0,0,1,1.91.487v11.973a10.409,10.409,0,0,0-2.718-1.3,13.487,13.487,0,0,0-4.334-.61,9.211,9.211,0,0,0-7.375,3.672q-3.011,3.665-3.011,11.29v25.367H351.258V135.2h11.853v7.918h.195a13.871,13.871,0,0,1,4.9-6.427,13.315,13.315,0,0,1,7.888-2.321Zm5.1,26.685q0-12.464,7.052-19.745t19.591-7.283q11.8,0,18.441,7.014t6.637,18.94q0,12.219-7.053,19.453t-19.2,7.233q-11.706,0-18.586-6.866T381.192,161.05Zm12.343-.389q0,7.87,3.576,12.023a12.761,12.761,0,0,0,10.243,4.154,11.947,11.947,0,0,0,9.844-4.154q3.38-4.156,3.38-12.317,0-8.112-3.5-12.244a12.174,12.174,0,0,0-9.82-4.129,12.426,12.426,0,0,0-10.114,4.325q-3.61,4.326-3.607,12.342Zm57.008-12.269a5.066,5.066,0,0,0,1.616,3.985,27.719,27.719,0,0,0,7.153,3.639,24.229,24.229,0,0,1,9.966,6.379,13.213,13.213,0,0,1,2.865,8.578,13.781,13.781,0,0,1-5.461,11.388q-5.46,4.3-14.767,4.3a35.544,35.544,0,0,1-6.929-.758,30.949,30.949,0,0,1-6.442-1.929V172.342a29.167,29.167,0,0,0,6.956,3.569,20.393,20.393,0,0,0,6.758,1.323,12.068,12.068,0,0,0,5.928-1.125,4.019,4.019,0,0,0,1.908-3.764,5.218,5.218,0,0,0-1.982-4.13,29.432,29.432,0,0,0-7.519-3.894,23.263,23.263,0,0,1-9.306-6.157,13.482,13.482,0,0,1-2.743-8.7,13.745,13.745,0,0,1,5.413-11.169,21.626,21.626,0,0,1,14.033-4.38,33.957,33.957,0,0,1,5.926.585,26.275,26.275,0,0,1,5.486,1.517v11.24a25.381,25.381,0,0,0-5.486-2.688,18.335,18.335,0,0,0-6.22-1.124,9.087,9.087,0,0,0-5.266,1.32,4.178,4.178,0,0,0-1.887,3.628Zm26.692,12.655q0-12.463,7.053-19.745t19.59-7.283q11.8,0,18.44,7.014t6.636,18.94q0,12.217-7.052,19.453t-19.2,7.232q-11.706,0-18.588-6.866t-6.88-18.742Zm12.343-.39q0,7.87,3.577,12.024a12.766,12.766,0,0,0,10.242,4.154,11.947,11.947,0,0,0,9.844-4.154q3.376-4.157,3.379-12.317,0-8.112-3.5-12.245a12.179,12.179,0,0,0-9.819-4.129,12.435,12.435,0,0,0-10.115,4.326q-3.608,4.327-3.606,12.345Zm78.7-15.787H550.624v40.56H538.618V144.87h-8.425V135.2h8.425v-6.989a17.365,17.365,0,0,1,5.167-12.979,18.139,18.139,0,0,1,13.248-5.059,29.393,29.393,0,0,1,3.821.22,15.239,15.239,0,0,1,2.939.659v10.221a12.268,12.268,0,0,0-2.058-.83,10.714,10.714,0,0,0-3.378-.487,7.162,7.162,0,0,0-5.731,2.322,10.23,10.23,0,0,0-2.008,6.866V135.2h17.651V123.905l11.9-3.617V135.2h12v9.678h-12v23.509a9.9,9.9,0,0,0,1.69,6.55,6.761,6.761,0,0,0,5.314,1.906,7.961,7.961,0,0,0,2.475-.487,11.609,11.609,0,0,0,2.521-1.173v9.775a13.921,13.921,0,0,1-3.747,1.173,25.56,25.56,0,0,1-5.167.537q-7.492,0-11.24-3.981t-3.748-12.006Z" fill="#737373"/><path d="M98.864,91.992H43.232v55.516H98.864Z" fill="#f25022"/><path d="M160.287,91.992H104.656v55.516h55.631Z" fill="#7fba00"/><path d="M98.864,153.285H43.232V208.8H98.864Z" fill="#00a4ef"/><path d="M160.287,153.285H104.656V208.8h55.631Z" fill="#ffb900"/></g></svg>