<?xml version="1.0" encoding="utf-8"?>
<!-- Generator: Adobe Illustrator 24.3.0, SVG Export Plug-In . SVG Version: 6.00 Build 0)  -->
<svg version="1.1" id="Layer_1" xmlns="http://www.w3.org/2000/svg" xmlns:xlink="http://www.w3.org/1999/xlink" x="0px" y="0px"
	 viewBox="0 0 636 300" style="enable-background:new 0 0 636 300;" xml:space="preserve">
<style type="text/css">
	.st0{fill:#FBC977;}
	.st1{fill:#57AA9A;}
	.st2{fill:#F7B548;}
	.st3{fill:#6BA8F1;}
	.st4{fill:#BDD8F9;}
	.st5{fill:#8065E0;}
	.st6{fill:#FFFFFF;}
	.st7{fill:#1572E0;}
	.st8{fill:#B0D1F7;}
	.st9{fill:#FFD590;}
	.st10{fill:#7FD5CA;}
	.st11{fill:#D8E8FB;}
	.st12{fill:#C2E8E3;}
	.st13{fill:#FFECCD;}
	.st14{fill:#FEDEA7;}
	.st15{fill:#D1C5F4;}
	.st16{fill:#70D6E0;}
	.st17{fill:#25BACA;}
	.st18{fill:#1BA1B5;}
	.st19{fill:#8A6FE8;}
	.st20{fill:url(#SVGID_1_);}
	.st21{fill:#522CD5;}
	.st22{fill:url(#SVGID_2_);}
	.st23{fill:url(#SVGID_3_);}
	.st24{fill:url(#SVGID_4_);}
	.st25{fill:url(#SVGID_5_);}
	.st26{fill:#D8CFF7;}
	.st27{fill:#512BD4;}
	.st28{fill:url(#SVGID_6_);}
	.st29{fill:#A08BE8;}
	.st30{fill:url(#SVGID_7_);}
	.st31{fill:url(#SVGID_8_);}
	.st32{fill:url(#SVGID_9_);}
	.st33{fill:url(#SVGID_10_);}
	.st34{fill:url(#SVGID_11_);}
	.st35{fill:url(#SVGID_12_);}
	.st36{fill:#98C2F5;}
	.st37{fill:#0064DA;}
	.st38{fill:#3E8EED;}
	.st39{fill:#C7E0F4;}
	.st40{fill:#B3AFAB;}
	.st41{fill:#A7A4A0;}
	.st42{fill:#957EE6;}
	.st43{fill:#E5F0FC;}
	.st44{fill:#1DACCC;}
	.st45{fill:#76AFF2;}
	.st46{fill:#FCCF84;}
	.st47{fill:#8DBCF4;}
	.st48{fill:#E1DFDD;}
	.st49{fill:url(#SVGID_13_);}
	.st50{fill:url(#SVGID_14_);}
	.st51{fill:url(#SVGID_15_);}
	.st52{fill:url(#SVGID_16_);}
	.st53{fill:url(#SVGID_17_);}
	.st54{fill:url(#SVGID_18_);}
	.st55{fill:url(#SVGID_19_);}
	.st56{fill:url(#SVGID_20_);}
	.st57{fill:#C8C6C4;}
	.st58{fill:#605D5A;}
	.st59{fill:#797673;}
	.st60{fill:#64BFAF;}
	.st61{fill:#2CC7EA;}
	.st62{fill:url(#SVGID_21_);}
	.st63{fill:url(#SVGID_22_);}
	.st64{fill:url(#SVGID_23_);}
	.st65{fill:url(#SVGID_24_);}
	.st66{fill:url(#SVGID_25_);}
	.st67{fill:url(#SVGID_26_);}
	.st68{fill:#B6E3DE;}
	.st69{fill:#6FCFCE;}
	.st70{fill:#1FB1D1;}
	.st71{fill:url(#SVGID_27_);}
	.st72{fill:#FAC369;}
	.st73{fill:#E29E3B;}
	.st74{fill:#33D5F9;}
	.st75{fill:url(#SVGID_28_);}
	.st76{fill:url(#SVGID_29_);}
	.st77{fill:url(#SVGID_30_);}
	.st78{fill:url(#SVGID_31_);}
	.st79{fill:url(#SVGID_32_);}
	.st80{fill:url(#SVGID_33_);}
	.st81{fill:url(#SVGID_34_);}
	.st82{fill:url(#SVGID_35_);}
	.st83{fill:url(#SVGID_36_);}
	.st84{fill:url(#SVGID_37_);}
	.st85{fill:url(#SVGID_38_);}
	.st86{fill:#D0C5F3;}
	.st87{fill:url(#SVGID_39_);}
	.st88{fill:url(#SVGID_40_);}
	.st89{fill:url(#SVGID_41_);}
	.st90{fill:url(#SVGID_42_);}
	.st91{fill:#EEAB42;}
	.st92{fill:#E8A53F;}
	.st93{fill:#A3C9F6;}
	.st94{fill:url(#SVGID_43_);}
	.st95{fill:url(#SVGID_44_);}
	.st96{fill:url(#SVGID_45_);}
	.st97{fill:url(#SVGID_46_);}
	.st98{fill:url(#SVGID_47_);}
	.st99{fill:url(#SVGID_48_);}
	.st100{fill:url(#SVGID_49_);}
	.st101{fill:url(#SVGID_50_);}
	.st102{fill:#84817D;}
	.st103{fill:url(#SVGID_51_);}
	.st104{fill:url(#SVGID_52_);}
	.st105{fill:url(#SVGID_53_);}
	.st106{fill:url(#SVGID_54_);}
	.st107{fill:url(#SVGID_55_);}
	.st108{fill:url(#SVGID_56_);}
	.st109{fill:url(#SVGID_57_);}
	.st110{fill:url(#SVGID_58_);}
	.st111{fill:#BBACEF;}
	.st112{fill:url(#SVGID_59_);}
	.st113{fill:url(#SVGID_60_);}
	.st114{fill:url(#SVGID_61_);}
	.st115{fill:url(#SVGID_62_);}
	.st116{fill:url(#SVGID_63_);}
	.st117{fill:url(#SVGID_64_);}
	.st118{fill:url(#SVGID_65_);}
	.st119{fill:url(#SVGID_66_);}
	.st120{fill:url(#SVGID_67_);}
	.st121{fill:url(#SVGID_68_);}
	.st122{fill:url(#SVGID_69_);}
	.st123{fill:url(#SVGID_70_);}
	.st124{fill:url(#SVGID_71_);}
	.st125{fill:#CEDB59;}
	.st126{fill:#CCCAC7;}
	.st127{fill:#78881B;}
	.st128{fill:#9C9894;}
	.st129{fill:#EEF3C4;}
	.st130{fill:#B2C133;}
	.st131{fill:#D5E06D;}
	.st132{fill:#A4ECFC;}
	.st133{fill:#0B7891;}
	.st134{fill:#908D89;}
	.st135{fill:#DDDBDA;}
	.st136{fill:url(#SVGID_72_);}
	.st137{fill:url(#SVGID_73_);}
	.st138{fill:#56534F;}
	.st139{fill:#CAE0FA;}
	.st140{fill:#4995EE;}
	.st141{fill:#A7CBF6;}
	.st142{fill:#E86E58;}
	.st143{fill:#FAE969;}
	.st144{fill:#56A84F;}
	.st145{fill:none;stroke:#3085E9;stroke-width:2;stroke-miterlimit:10;}
	.st146{fill:#B2D5F8;}
	.st147{fill:#B2B2B2;}
	.st148{fill:url(#SVGID_74_);}
	.st149{fill:url(#SVGID_75_);}
	.st150{fill:url(#SVGID_76_);}
	.st151{fill:url(#SVGID_77_);}
	.st152{fill:url(#SVGID_78_);}
	.st153{fill:url(#SVGID_79_);}
	.st154{fill:url(#SVGID_80_);}
	.st155{fill:url(#SVGID_81_);}
	.st156{fill:url(#SVGID_82_);}
	.st157{fill:url(#SVGID_83_);}
	.st158{fill:url(#SVGID_84_);}
	.st159{fill:url(#SVGID_85_);}
	.st160{fill:url(#SVGID_86_);}
	.st161{fill:url(#SVGID_87_);}
	.st162{fill:url(#SVGID_88_);}
	.st163{fill:url(#SVGID_89_);}
	.st164{fill:#FFB900;}
	.st165{fill:#D5D3D0;}
	.st166{fill:none;stroke:#FF00FF;stroke-width:1.0976;stroke-miterlimit:10;}
	.st167{fill:url(#SVGID_90_);}
	.st168{fill:#EA7F6B;}
	.st169{fill:#22B2C3;}
	.st170{fill:#DF6551;}
	.st171{fill:#F8BB55;}
	.st172{fill:#F8B84F;}
	.st173{fill:#40C9D6;}
	.st174{fill:#CC5444;}
	.st175{fill:#CFEFEB;}
	.st176{fill:#D3E7F8;}
	.st177{fill:#81B5F3;}
	.st178{fill:#4D4D4D;}
	.st179{fill:url(#SVGID_91_);}
	.st180{fill:#2980E7;}
	.st181{fill:#CFF1F5;}
	.st182{fill:#58D0DB;}
	.st183{fill:#28C2D1;}
	.st184{fill:#9FE4EB;}
	.st185{fill:#3097D8;}
	.st186{fill:url(#SVGID_92_);}
	.st187{fill:#939393;}
	.st188{fill:url(#SVGID_93_);}
	.st189{fill:#FEDBA1;}
	.st190{fill:#FAC670;}
	.st191{fill:#625F5B;}
	.st192{fill:#D69521;}
	.st193{fill:#7F7F7F;}
	.st194{fill:#505050;}
	.st195{fill:#D2D2D2;}
	.st196{fill:#848484;}
	.st197{fill:url(#SVGID_94_);}
	.st198{fill:#444444;}
	.st199{fill:#737373;}
	.st200{fill:url(#SVGID_95_);}
	.st201{fill:#549BEF;}
	.st202{fill:#6D6A66;}
	.st203{fill:#38776B;}
	.st204{fill:#9FE0D7;}
	.st205{fill:#45897C;}
	.st206{fill:#CFECE9;}
	.st207{fill:url(#SVGID_96_);}
	.st208{fill:url(#SVGID_97_);}
	.st209{fill:url(#SVGID_98_);}
	.st210{fill:url(#SVGID_99_);}
	.st211{fill:url(#SVGID_100_);}
	.st212{fill:url(#SVGID_101_);}
	.st213{fill:url(#SVGID_102_);}
	.st214{fill:url(#SVGID_103_);}
	.st215{fill:url(#SVGID_104_);}
	.st216{fill:url(#SVGID_105_);}
	.st217{fill:url(#SVGID_106_);}
	.st218{fill:url(#SVGID_107_);}
	.st219{fill:#29C3E5;}
	.st220{fill:#60DEFA;}
	.st221{fill:#0F849E;}
	.st222{fill:#D2F6FE;}
	.st223{fill:#179BB8;}
	.st224{fill:#AFE5DE;}
	.st225{fill:#AE9CEB;}
	.st226{fill:url(#SVGID_108_);}
	.st227{fill:#D6CDF5;}
	.st228{fill:none;stroke:#D6CDF5;stroke-width:2;stroke-miterlimit:10;}
	.st229{fill:#7354DD;}
	.st230{fill:#A8B82F;}
	.st231{fill:#C9BDF2;}
	.st232{fill:#8970E2;}
	.st233{fill:url(#SVGID_109_);}
	.st234{fill:#72ACF1;}
	.st235{fill:#57CACF;}
	.st236{fill:#FAF9F8;}
	.st237{fill:#4A4844;}
	.st238{fill:#797672;}
	.st239{fill:none;stroke:#72ACF1;stroke-width:2;stroke-miterlimit:10;}
	.st240{fill:url(#SVGID_110_);}
	.st241{fill:url(#SVGID_111_);}
	.st242{fill:url(#SVGID_112_);}
	.st243{fill:#C5D43B;}
	.st244{fill:#3085E9;}
	.st245{fill:none;stroke:#FFFFFF;stroke-width:2;stroke-miterlimit:10;}
	.st246{fill:url(#SVGID_113_);}
	.st247{fill:#42403C;}
	.st248{fill:url(#SVGID_114_);stroke:#625F5B;stroke-width:3;stroke-miterlimit:10;}
	.st249{fill:#E6E4E3;}
	.st250{fill:url(#SVGID_115_);}
	.st251{fill:url(#SVGID_116_);}
	.st252{fill:#8EE8FC;}
	.st253{fill:#927BE5;}
	.st254{fill:url(#SVGID_117_);}
	.st255{fill:url(#SVGID_118_);}
	.st256{fill:url(#SVGID_119_);}
	.st257{fill:url(#SVGID_120_);}
	.st258{fill:url(#SVGID_121_);}
	.st259{fill:url(#SVGID_122_);}
	.st260{fill:url(#SVGID_123_);}
	.st261{fill:url(#SVGID_124_);}
	.st262{fill:url(#SVGID_125_);}
	.st263{fill:url(#SVGID_126_);}
	.st264{fill:url(#SVGID_127_);}
	.st265{fill:#22B5D6;}
	.st266{fill-rule:evenodd;clip-rule:evenodd;fill:#848484;}
	.st267{fill-rule:evenodd;clip-rule:evenodd;fill:#29C3E5;}
	.st268{fill-rule:evenodd;clip-rule:evenodd;fill:#0078D7;}
	.st269{fill:#BBB8B4;}
	.st270{fill:none;}
	.st271{fill:#FDC9B5;}
	.st272{fill:#EB8875;}
	.st273{fill:url(#SVGID_128_);}
	.st274{fill:url(#SVGID_129_);}
	.st275{fill:url(#SVGID_130_);}
	.st276{fill:url(#SVGID_131_);}
	.st277{fill:url(#SVGID_132_);}
	.st278{fill:url(#SVGID_133_);}
	.st279{fill:url(#SVGID_134_);}
	.st280{fill:url(#SVGID_135_);}
	.st281{fill:url(#SVGID_136_);}
	.st282{fill:url(#SVGID_137_);}
	.st283{fill:url(#SVGID_138_);}
	.st284{fill:url(#SVGID_139_);}
	.st285{fill:url(#SVGID_140_);}
	.st286{fill:url(#SVGID_141_);}
	.st287{fill:url(#SVGID_142_);}
	.st288{fill:none;stroke:#FFFFFF;stroke-width:2.2678;stroke-miterlimit:10;}
	.st289{fill:#FFEED0;}
	.st290{fill:#27BEE0;}
	.st291{fill:#BBF1FD;}
	.st292{fill:#24BADB;}
	.st293{fill:#77E3FB;}
	.st294{fill:#666666;}
	.st295{fill:#AACDF6;}
	.st296{fill:#E6E6E6;}
	.st297{fill:#7E62DF;}
	.st298{fill:url(#SVGID_143_);}
	.st299{fill:url(#SVGID_144_);}
	.st300{fill:#FCD18A;}
	.st301{fill:#D8E377;}
	.st302{fill:#DBE581;}
	.st303{fill:#81921F;}
	.st304{fill:#95A527;}
	.st305{fill-rule:evenodd;clip-rule:evenodd;fill:#A7A4A0;}
	.st306{fill:url(#SVGID_145_);}
	.st307{fill:url(#SVGID_146_);}
	.st308{fill:url(#SVGID_147_);}
	.st309{fill:#FDD490;}
	.st310{fill:#B3B3B3;}
	.st311{fill:#F09250;}
	.st312{fill:url(#SVGID_148_);}
	.st313{fill:url(#SVGID_149_);}
	.st314{fill:url(#SVGID_150_);}
	.st315{fill:url(#SVGID_151_);}
	.st316{fill:url(#SVGID_152_);}
	.st317{fill:#F2A694;}
	.st318{fill:#DC624F;}
	.st319{fill:#FDFDFD;}
	.st320{fill:#D0EDFD;}
	.st321{fill:none;stroke:#8065E0;stroke-width:3.5361;stroke-miterlimit:10;}
	.st322{fill:url(#SVGID_153_);}
	.st323{fill:url(#SVGID_154_);}
	.st324{fill:url(#SVGID_155_);}
	.st325{fill:url(#SVGID_156_);}
	.st326{fill:url(#SVGID_157_);}
	.st327{fill:url(#SVGID_158_);}
	.st328{fill:url(#SVGID_159_);}
	.st329{fill:url(#SVGID_160_);}
	.st330{fill:none;stroke:#C8C6C4;stroke-width:0.1949;stroke-miterlimit:10;}
	.st331{fill:url(#SVGID_161_);}
	.st332{fill:url(#SVGID_162_);}
	.st333{fill:url(#SVGID_163_);}
	.st334{fill:url(#SVGID_164_);}
	.st335{fill:url(#SVGID_165_);}
	.st336{fill:url(#SVGID_166_);}
	.st337{fill:url(#SVGID_167_);}
	.st338{fill:url(#SVGID_168_);}
	.st339{fill:url(#SVGID_169_);}
	.st340{fill:url(#SVGID_170_);}
	.st341{fill:url(#SVGID_171_);}
	.st342{fill:url(#SVGID_172_);}
	.st343{fill:url(#SVGID_173_);}
	.st344{fill:#0769DC;}
	.st345{fill:#60A2F0;}
	.st346{fill:#B5D5EA;}
	.st347{fill:#FFE5B9;}
	.st348{fill:#88DDE5;}
	.st349{fill:#1189A5;}
	.st350{fill:#222222;}
	.st351{fill:#00D8FF;}
	.st352{fill:url(#SVGID_174_);}
	.st353{fill:#F2F7FE;}
	.st354{fill:#DD0031;}
	.st355{fill:#C3002F;}
	.st356{fill:#EBA841;}
	.st357{fill:#ED9583;}
	.st358{fill:url(#SVGID_175_);}
	.st359{fill:#106EBE;}
	.st360{fill:url(#SVGID_176_);}
	.st361{fill:url(#SVGID_177_);}
	.st362{fill:#2B579A;}
	.st363{fill:url(#SVGID_178_);}
	.st364{fill:url(#SVGID_179_);}
	.st365{fill:url(#SVGID_180_);}
	.st366{fill:url(#SVGID_181_);}
	.st367{fill:url(#SVGID_182_);}
	.st368{fill:url(#SVGID_183_);}
	.st369{fill:url(#SVGID_184_);}
	.st370{fill:url(#SVGID_185_);}
	.st371{fill:url(#SVGID_186_);}
	.st372{fill:url(#SVGID_187_);}
	.st373{fill:url(#SVGID_188_);}
	.st374{fill:url(#SVGID_189_);}
	.st375{fill:url(#SVGID_190_);}
	.st376{fill:url(#SVGID_191_);}
	.st377{fill:#52A898;}
	.st378{fill:#BADBF9;}
	.st379{fill:#E1EFF9;}
	.st380{fill:#6FD0C3;}
	.st381{fill:#EFFAF8;}
	.st382{fill:url(#SVGID_192_);}
	.st383{fill:url(#SVGID_193_);}
	.st384{fill:url(#SVGID_194_);}
	.st385{fill:url(#SVGID_195_);}
	.st386{fill:url(#SVGID_196_);}
	.st387{fill:url(#SVGID_197_);}
	.st388{fill:url(#SVGID_198_);}
	.st389{fill:url(#SVGID_199_);}
	.st390{fill:url(#SVGID_200_);}
	.st391{fill:url(#SVGID_201_);}
	.st392{fill:url(#SVGID_202_);}
	.st393{fill:url(#SVGID_203_);}
	.st394{fill:url(#SVGID_204_);}
	.st395{fill:#C4C1BE;}
	.st396{fill:#9B86E7;}
	.st397{fill:#DF9B39;}
	.st398{fill:none;stroke:#FFFFFF;stroke-width:4;stroke-miterlimit:10;}
	.st399{fill:none;stroke:#FFFFFF;stroke-width:4;stroke-miterlimit:10;stroke-dasharray:4.2217,6.3326;}
	.st400{fill:none;stroke:#FFFFFF;stroke-width:4;stroke-miterlimit:10;stroke-dasharray:4.1698,6.2547;}
	.st401{fill:none;stroke:#FFFFFF;stroke-width:4;stroke-miterlimit:10;stroke-dasharray:4.2266,6.3399;}
	.st402{fill:none;stroke:#FFFFFF;stroke-width:4;stroke-miterlimit:10;stroke-dasharray:4.459,6.6886;}
	.st403{fill:#4ADAFA;}
	.st404{fill:#EA7B66;}
	.st405{fill:#D8604D;}
	.st406{fill:#F6B29F;}
	.st407{fill:url(#SVGID_205_);}
	.st408{fill:#FFFFFF;stroke:#C5D43B;stroke-width:2;stroke-miterlimit:10;}
	.st409{fill-rule:evenodd;clip-rule:evenodd;fill:#BDD8F9;}
	.st410{fill-rule:evenodd;clip-rule:evenodd;fill:#76AFF2;}
	.st411{fill:url(#SVGID_206_);}
	.st412{fill:url(#SVGID_207_);}
	.st413{fill:url(#SVGID_208_);}
	.st414{fill:url(#SVGID_209_);}
	.st415{fill:url(#SVGID_210_);}
	.st416{fill:url(#SVGID_211_);}
	.st417{fill:url(#SVGID_212_);}
	.st418{fill:url(#SVGID_213_);}
	.st419{fill:url(#SVGID_214_);}
	.st420{fill:url(#SVGID_215_);}
	.st421{fill:url(#SVGID_216_);}
	.st422{fill:url(#SVGID_217_);}
	.st423{fill:url(#SVGID_218_);}
	.st424{fill:url(#SVGID_219_);}
	.st425{fill:url(#SVGID_220_);}
	.st426{fill:url(#SVGID_221_);}
	.st427{fill:#EC917E;}
	.st428{fill:#B53C33;}
	.st429{fill:url(#SVGID_222_);}
	.st430{fill:#F1A18E;}
	.st431{fill:url(#SVGID_223_);}
	.st432{fill:url(#SVGID_224_);}
	.st433{fill:url(#SVGID_225_);}
	.st434{fill:url(#SVGID_226_);}
	.st435{fill:url(#SVGID_227_);}
	.st436{fill:url(#SVGID_228_);}
	.st437{fill:url(#SVGID_229_);}
	.st438{fill:url(#SVGID_230_);}
	.st439{fill:url(#SVGID_231_);}
	.st440{fill:url(#SVGID_232_);}
	.st441{fill:url(#SVGID_233_);}
	.st442{fill:url(#SVGID_234_);}
	.st443{fill:url(#SVGID_235_);}
	.st444{fill:url(#SVGID_236_);}
	.st445{fill:url(#SVGID_237_);}
	.st446{fill:url(#SVGID_238_);}
	.st447{fill:url(#SVGID_239_);}
	.st448{fill:url(#SVGID_240_);}
	.st449{fill:url(#SVGID_241_);}
	.st450{fill:url(#SVGID_242_);}
	.st451{fill:url(#SVGID_243_);}
	.st452{fill:url(#SVGID_244_);}
	.st453{fill:url(#SVGID_245_);}
	.st454{fill:url(#SVGID_246_);}
	.st455{fill:url(#SVGID_247_);}
	.st456{fill:url(#SVGID_248_);}
	.st457{fill:url(#SVGID_249_);}
	.st458{fill:url(#SVGID_250_);}
	.st459{fill:url(#SVGID_251_);}
	.st460{fill:url(#SVGID_252_);}
	.st461{fill:#1BA6C5;}
	.st462{fill:url(#SVGID_253_);}
	.st463{fill-rule:evenodd;clip-rule:evenodd;fill:#BBF1FD;}
	.st464{fill:url(#SVGID_254_);}
	.st465{fill-rule:evenodd;clip-rule:evenodd;fill:#FFFFFF;}
	.st466{fill-rule:evenodd;clip-rule:evenodd;fill:#B2B2B2;}
	.st467{fill-rule:evenodd;clip-rule:evenodd;fill:#1DACCC;}
	.st468{fill:url(#SVGID_255_);}
	.st469{fill:url(#SVGID_256_);}
	.st470{fill:url(#SVGID_257_);}
	.st471{fill:url(#SVGID_258_);}
	.st472{fill:url(#SVGID_259_);}
	.st473{fill:url(#SVGID_260_);}
	.st474{fill:url(#SVGID_261_);}
	.st475{fill:url(#SVGID_262_);}
	.st476{fill:url(#SVGID_263_);}
	.st477{fill:url(#SVGID_264_);}
	.st478{fill:url(#SVGID_265_);}
	.st479{fill:url(#SVGID_266_);}
	.st480{fill:url(#SVGID_267_);}
	.st481{fill:url(#SVGID_268_);}
	.st482{fill:url(#SVGID_269_);}
	.st483{fill:#D55D4B;}
	.st484{fill:#FDD696;}
	.st485{fill:url(#SVGID_270_);}
	.st486{fill:url(#SVGID_271_);}
	.st487{fill:url(#SVGID_272_);}
	.st488{fill:url(#SVGID_273_);}
	.st489{fill:#5F5F5F;}
	.st490{fill:#F2F6D0;}
	.st491{fill:#227BE5;}
	.st492{fill:#E8FAFE;}
	.st493{fill:url(#SVGID_274_);}
	.st494{fill:url(#SVGID_275_);}
	.st495{fill:url(#SVGID_276_);}
	.st496{fill:url(#SVGID_277_);}
	.st497{fill:url(#SVGID_278_);}
	.st498{fill:url(#SVGID_279_);}
	.st499{fill:url(#SVGID_280_);}
	.st500{fill:url(#SVGID_281_);}
	.st501{fill:url(#SVGID_282_);}
	.st502{fill:url(#SVGID_283_);}
	.st503{fill:url(#SVGID_284_);}
	.st504{fill:url(#SVGID_285_);}
	.st505{fill:url(#SVGID_286_);}
	.st506{fill:url(#SVGID_287_);}
	.st507{fill:url(#SVGID_288_);}
	.st508{fill:url(#SVGID_289_);}
	.st509{fill:#0D7E98;}
	.st510{fill:#E56B56;}
	.st511{fill:#F9BE5C;}
	.st512{fill:#CB8930;}
	.st513{fill:none;stroke:#FFFFFF;stroke-width:2.8606;stroke-miterlimit:10;}
	.st514{fill:none;stroke:#B3AFAB;stroke-width:1.4303;stroke-linecap:round;stroke-linejoin:round;stroke-miterlimit:10;}
	.st515{fill-rule:evenodd;clip-rule:evenodd;fill:#F7B548;}
	.st516{fill:url(#SVGID_290_);}
	.st517{fill:url(#SVGID_291_);}
	.st518{fill:url(#SVGID_292_);}
	.st519{fill:url(#SVGID_293_);}
	.st520{fill:url(#SVGID_294_);}
	.st521{fill:url(#SVGID_295_);}
	.st522{fill:url(#SVGID_296_);}
	.st523{fill:url(#SVGID_297_);}
	.st524{fill:url(#SVGID_298_);}
	.st525{fill:url(#SVGID_299_);}
	.st526{fill:url(#SVGID_300_);}
	.st527{fill:url(#SVGID_301_);}
	.st528{fill:url(#SVGID_302_);}
	.st529{fill:url(#SVGID_303_);}
	.st530{fill:url(#SVGID_304_);}
	.st531{fill:url(#SVGID_305_);}
	.st532{fill:url(#SVGID_306_);}
	.st533{fill:url(#SVGID_307_);}
	.st534{fill:url(#SVGID_308_);}
	.st535{fill:url(#SVGID_309_);}
	.st536{fill:url(#SVGID_310_);}
	.st537{fill:url(#SVGID_311_);}
	.st538{fill:url(#SVGID_312_);}
	.st539{fill:url(#SVGID_313_);}
	.st540{fill:url(#SVGID_314_);}
	.st541{fill:url(#SVGID_315_);}
	.st542{fill:#138FAB;}
	.st543{fill:#B1E9EE;}
	.st544{fill:none;stroke:#FF00FF;stroke-width:37.7526;stroke-miterlimit:10;}
	.st545{clip-path:url(#SVGID_317_);fill:#8065E0;}
	.st546{clip-path:url(#SVGID_317_);fill:#7F64E0;}
	.st547{clip-path:url(#SVGID_317_);fill:#7F63E0;}
	.st548{clip-path:url(#SVGID_317_);fill:#7E63DF;}
	.st549{clip-path:url(#SVGID_317_);fill:#7D62DF;}
	.st550{clip-path:url(#SVGID_317_);fill:#7D61DF;}
	.st551{clip-path:url(#SVGID_317_);fill:#7C60DF;}
	.st552{clip-path:url(#SVGID_317_);fill:#7B5FDF;}
	.st553{clip-path:url(#SVGID_317_);fill:#7B5EDF;}
	.st554{clip-path:url(#SVGID_317_);fill:#7A5DDE;}
	.st555{clip-path:url(#SVGID_317_);fill:#795CDE;}
	.st556{clip-path:url(#SVGID_317_);fill:#785BDE;}
	.st557{clip-path:url(#SVGID_317_);fill:#775ADE;}
	.st558{clip-path:url(#SVGID_317_);fill:#7659DD;}
	.st559{clip-path:url(#SVGID_317_);fill:#7658DD;}
	.st560{clip-path:url(#SVGID_317_);fill:#7557DD;}
	.st561{clip-path:url(#SVGID_317_);fill:#7456DD;}
	.st562{clip-path:url(#SVGID_317_);fill:#7355DC;}
	.st563{clip-path:url(#SVGID_317_);fill:#7254DC;}
	.st564{clip-path:url(#SVGID_317_);fill:#7153DC;}
	.st565{clip-path:url(#SVGID_317_);fill:#7051DC;}
	.st566{clip-path:url(#SVGID_317_);fill:#6F50DB;}
	.st567{clip-path:url(#SVGID_317_);fill:#6E4FDB;}
	.st568{clip-path:url(#SVGID_317_);fill:#6D4EDB;}
	.st569{clip-path:url(#SVGID_317_);fill:#6C4DDB;}
	.st570{clip-path:url(#SVGID_317_);fill:#6B4BDA;}
	.st571{clip-path:url(#SVGID_317_);fill:#6A4ADA;}
	.st572{clip-path:url(#SVGID_317_);fill:#6949DA;}
	.st573{clip-path:url(#SVGID_317_);fill:#6848DA;}
	.st574{clip-path:url(#SVGID_317_);fill:#6746D9;}
	.st575{clip-path:url(#SVGID_317_);fill:#6645D9;}
	.st576{clip-path:url(#SVGID_317_);fill:#6544D9;}
	.st577{clip-path:url(#SVGID_317_);fill:#6443D9;}
	.st578{clip-path:url(#SVGID_317_);fill:#6442D8;}
	.st579{clip-path:url(#SVGID_317_);fill:#6341D8;}
	.st580{clip-path:url(#SVGID_317_);fill:#6240D8;}
	.st581{clip-path:url(#SVGID_317_);fill:#613FD8;}
	.st582{clip-path:url(#SVGID_317_);fill:#603ED8;}
	.st583{clip-path:url(#SVGID_317_);fill:#603DD7;}
	.st584{clip-path:url(#SVGID_317_);fill:#5F3CD7;}
	.st585{clip-path:url(#SVGID_317_);fill:#5E3BD7;}
	.st586{clip-path:url(#SVGID_317_);fill:#5D3AD7;}
	.st587{clip-path:url(#SVGID_317_);fill:#5C39D7;}
	.st588{clip-path:url(#SVGID_317_);fill:#5B38D6;}
	.st589{clip-path:url(#SVGID_317_);fill:#5A37D6;}
	.st590{clip-path:url(#SVGID_317_);fill:#5A36D6;}
	.st591{clip-path:url(#SVGID_317_);fill:#5935D6;}
	.st592{clip-path:url(#SVGID_317_);fill:#5834D6;}
	.st593{clip-path:url(#SVGID_317_);fill:#5732D5;}
	.st594{clip-path:url(#SVGID_317_);fill:#5631D5;}
	.st595{clip-path:url(#SVGID_317_);fill:#5530D5;}
	.st596{clip-path:url(#SVGID_317_);fill:#542FD5;}
	.st597{clip-path:url(#SVGID_317_);fill:#542ED5;}
	.st598{clip-path:url(#SVGID_317_);fill:#532DD4;}
	.st599{clip-path:url(#SVGID_317_);fill:#522CD4;}
	.st600{clip-path:url(#SVGID_317_);fill:#512BD4;}
	.st601{fill:#63D3DE;}
	.st602{fill:url(#SVGID_318_);}
	.st603{fill:url(#SVGID_319_);}
	.st604{fill:url(#SVGID_320_);}
	.st605{fill:none;stroke:#FF00FF;stroke-width:39.6641;stroke-miterlimit:10;}
	.st606{fill:url(#SVGID_321_);}
	.st607{fill:url(#SVGID_322_);}
	.st608{fill:url(#SVGID_323_);}
	.st609{fill:url(#SVGID_324_);}
	.st610{fill:url(#SVGID_325_);}
	.st611{fill:url(#SVGID_326_);}
	.st612{fill:url(#SVGID_327_);}
	.st613{fill:url(#SVGID_328_);}
	.st614{fill:url(#SVGID_329_);}
	.st615{fill:url(#SVGID_330_);}
	.st616{fill:url(#SVGID_331_);}
	.st617{fill:#9EAE2B;}
	.st618{fill:url(#SVGID_332_);}
	.st619{fill:url(#SVGID_333_);}
	.st620{fill:url(#SVGID_334_);}
	.st621{fill:url(#SVGID_335_);}
	.st622{fill:url(#SVGID_336_);}
	.st623{fill:url(#SVGID_337_);}
	.st624{fill:url(#SVGID_338_);}
	.st625{fill:url(#SVGID_339_);}
	.st626{fill:url(#SVGID_340_);}
	.st627{fill:url(#SVGID_341_);}
	.st628{fill:url(#SVGID_342_);}
	.st629{fill:url(#SVGID_343_);}
	.st630{fill:url(#SVGID_344_);}
	.st631{fill:url(#SVGID_345_);}
	.st632{fill:url(#SVGID_346_);}
	.st633{fill:url(#SVGID_347_);}
	.st634{fill:#D8F3FE;}
	.st635{fill:#085A7E;}
	.st636{fill:#E1EA95;}
	.st637{fill:#FEE0AD;}
	.st638{fill:#8E7A6F;}
	.st639{fill:#191717;}
	.st640{fill:#F0DB4F;}
	.st641{fill:#323330;}
	.st642{fill:url(#SVGID_348_);}
	.st643{fill:url(#SVGID_349_);}
	.st644{fill:url(#SVGID_350_);}
	.st645{fill:url(#SVGID_351_);}
	.st646{fill:url(#SVGID_352_);}
	.st647{fill:url(#SVGID_353_);}
	.st648{fill:url(#SVGID_354_);}
	.st649{fill:url(#SVGID_355_);}
	.st650{fill:url(#SVGID_356_);}
	.st651{fill:url(#SVGID_357_);}
	.st652{fill:url(#SVGID_358_);}
	.st653{fill:url(#SVGID_359_);}
	.st654{fill:#8577E5;}
	.st655{fill:url(#SVGID_360_);}
	.st656{fill:#263619;}
	.st657{fill:#6E7F17;}
	.st658{fill:#EEEDEC;}
	.st659{fill:#DEE88B;}
	.st660{fill:url(#SVGID_361_);}
	.st661{fill:none;stroke:#FFFFFF;stroke-width:3.0081;stroke-linecap:round;stroke-linejoin:round;stroke-miterlimit:10;}
	.st662{fill:none;stroke:#FFFFFF;stroke-width:3.567;stroke-linecap:round;stroke-linejoin:round;stroke-miterlimit:10;}
	.st663{fill:#F7F6F6;}
	.st664{fill:#CBD94F;}
	.st665{fill:#CF5746;}
	.st666{fill:#ED8422;}
	.st667{fill-rule:evenodd;clip-rule:evenodd;fill:#A3C9F6;}
	.st668{fill:url(#SVGID_362_);}
	.st669{fill-rule:evenodd;clip-rule:evenodd;fill:#549BEF;}
	.st670{fill:#FDD99C;}
	.st671{fill:#C4832D;}
	.st672{fill:#FFF2DC;}
	.st673{fill:#1595B2;}
	.st674{fill:url(#SVGID_363_);}
	.st675{fill:url(#SVGID_364_);}
	.st676{fill:url(#SVGID_365_);}
	.st677{fill:url(#SVGID_366_);}
	.st678{fill:url(#SVGID_367_);}
	.st679{fill:url(#SVGID_368_);}
	.st680{fill:url(#SVGID_369_);}
	.st681{fill:url(#SVGID_370_);}
	.st682{fill:url(#SVGID_371_);}
	.st683{fill:url(#SVGID_372_);}
	.st684{fill:url(#SVGID_373_);}
	.st685{fill:url(#SVGID_374_);}
	.st686{fill:url(#SVGID_375_);}
	.st687{fill:#EDF7F6;}
	.st688{fill:url(#SVGID_376_);}
	.st689{fill:url(#SVGID_377_);}
	.st690{fill:#E97762;}
	.st691{fill:url(#SVGID_378_);}
	.st692{fill:url(#SVGID_379_);}
	.st693{fill:url(#SVGID_380_);}
	.st694{fill:url(#SVGID_381_);}
	.st695{fill:url(#SVGID_382_);}
	.st696{fill:url(#SVGID_383_);}
	.st697{fill:url(#SVGID_384_);}
	.st698{fill:url(#SVGID_385_);}
	.st699{fill:url(#SVGID_386_);}
	.st700{fill:url(#SVGID_387_);}
	.st701{fill:url(#SVGID_388_);}
	.st702{fill:#A2AD6D;}
	.st703{fill:#E3646A;}
	.st704{fill:#889643;}
	.st705{fill:#EE8F94;}
	.st706{fill:url(#SVGID_389_);}
	.st707{fill:url(#SVGID_390_);}
	.st708{fill:#1C77E2;}
	.st709{fill:#D18F33;}
	.st710{fill:none;stroke:#C740B6;stroke-width:2.0654;stroke-miterlimit:10;}
	.st711{fill:#E26854;}
	.st712{fill:#F9BDAA;}
	.st713{fill:url(#SVGID_391_);}
	.st714{fill:url(#SVGID_392_);}
	.st715{fill:#519F90;}
	.st716{fill:#4E9A8B;}
	.st717{fill:none;stroke:#C2E8E3;stroke-width:1.5759;stroke-miterlimit:10;}
	.st718{fill:url(#SVGID_393_);}
	.st719{fill:url(#SVGID_394_);}
	.st720{fill:url(#SVGID_395_);}
	.st721{fill:url(#SVGID_396_);}
	.st722{fill:url(#SVGID_397_);}
	.st723{fill:none;stroke:#FF00FF;stroke-width:29.9084;stroke-miterlimit:10;}
	.st724{fill:url(#SVGID_398_);}
	.st725{fill:url(#SVGID_399_);}
	.st726{fill:url(#SVGID_400_);}
	.st727{fill:url(#SVGID_401_);}
	.st728{fill:url(#SVGID_402_);}
	.st729{fill:url(#SVGID_403_);}
	.st730{fill:url(#SVGID_404_);}
	.st731{fill:url(#SVGID_405_);}
	.st732{fill:url(#SVGID_406_);}
	.st733{fill:#2B88D8;}
	.st734{fill:url(#SVGID_407_);}
	.st735{fill:url(#SVGID_408_);}
	.st736{fill:url(#SVGID_409_);}
	.st737{fill:url(#SVGID_410_);}
	.st738{fill:url(#SVGID_411_);}
	.st739{fill:url(#SVGID_412_);}
	.st740{fill:url(#SVGID_413_);}
	.st741{fill:url(#SVGID_414_);}
	.st742{fill:url(#SVGID_415_);}
	.st743{fill:url(#SVGID_416_);}
	.st744{fill:url(#SVGID_417_);}
	.st745{fill:url(#SVGID_418_);}
	.st746{fill:url(#SVGID_419_);}
	.st747{fill:url(#SVGID_420_);}
	.st748{fill:url(#SVGID_421_);}
	.st749{fill:url(#SVGID_422_);}
	.st750{fill:url(#SVGID_423_);}
	.st751{fill:#F0AE00;}
	.st752{fill:#3F3C38;}
	.st753{fill:#BBCB37;}
	.st754{fill:url(#SVGID_424_);}
	.st755{fill:url(#SVGID_425_);}
	.st756{fill:url(#SVGID_426_);}
	.st757{fill:url(#SVGID_427_);}
	.st758{fill:url(#SVGID_428_);}
	.st759{fill:url(#SVGID_429_);}
	.st760{fill:url(#SVGID_430_);}
	.st761{fill:url(#SVGID_431_);}
	.st762{fill:url(#SVGID_432_);}
	.st763{fill:url(#SVGID_433_);}
	.st764{fill:url(#SVGID_434_);}
	.st765{fill:url(#SVGID_435_);}
	.st766{fill:url(#SVGID_436_);}
	.st767{fill:url(#SVGID_437_);}
	.st768{fill:url(#SVGID_438_);}
	.st769{fill:url(#SVGID_439_);}
	.st770{fill:#F4AC99;}
	.st771{fill:url(#SVGID_440_);}
	.st772{fill:url(#SVGID_441_);}
	.st773{fill:url(#SVGID_442_);}
	.st774{fill:url(#SVGID_443_);}
	.st775{fill:url(#SVGID_444_);}
	.st776{fill:url(#SVGID_445_);}
	.st777{clip-path:url(#SVGID_447_);fill:#8065E0;}
	.st778{clip-path:url(#SVGID_447_);fill:#7F64E0;}
	.st779{clip-path:url(#SVGID_447_);fill:#7F63E0;}
	.st780{clip-path:url(#SVGID_447_);fill:#7E63DF;}
	.st781{clip-path:url(#SVGID_447_);fill:#7D62DF;}
	.st782{clip-path:url(#SVGID_447_);fill:#7D61DF;}
	.st783{clip-path:url(#SVGID_447_);fill:#7C60DF;}
	.st784{clip-path:url(#SVGID_447_);fill:#7B5FDF;}
	.st785{clip-path:url(#SVGID_447_);fill:#7B5EDF;}
	.st786{clip-path:url(#SVGID_447_);fill:#7A5DDE;}
	.st787{clip-path:url(#SVGID_447_);fill:#795CDE;}
	.st788{clip-path:url(#SVGID_447_);fill:#785BDE;}
	.st789{clip-path:url(#SVGID_447_);fill:#775ADE;}
	.st790{clip-path:url(#SVGID_447_);fill:#7659DD;}
	.st791{clip-path:url(#SVGID_447_);fill:#7658DD;}
	.st792{clip-path:url(#SVGID_447_);fill:#7557DD;}
	.st793{clip-path:url(#SVGID_447_);fill:#7456DD;}
	.st794{clip-path:url(#SVGID_447_);fill:#7355DC;}
	.st795{clip-path:url(#SVGID_447_);fill:#7254DC;}
	.st796{clip-path:url(#SVGID_447_);fill:#7153DC;}
	.st797{clip-path:url(#SVGID_447_);fill:#7051DC;}
	.st798{clip-path:url(#SVGID_447_);fill:#6F50DB;}
	.st799{clip-path:url(#SVGID_447_);fill:#6E4FDB;}
	.st800{clip-path:url(#SVGID_447_);fill:#6D4EDB;}
	.st801{clip-path:url(#SVGID_447_);fill:#6C4DDB;}
	.st802{clip-path:url(#SVGID_447_);fill:#6B4BDA;}
	.st803{clip-path:url(#SVGID_447_);fill:#6A4ADA;}
	.st804{clip-path:url(#SVGID_447_);fill:#6949DA;}
	.st805{clip-path:url(#SVGID_447_);fill:#6848DA;}
	.st806{clip-path:url(#SVGID_447_);fill:#6746D9;}
	.st807{clip-path:url(#SVGID_447_);fill:#6645D9;}
	.st808{clip-path:url(#SVGID_447_);fill:#6544D9;}
	.st809{clip-path:url(#SVGID_447_);fill:#6443D9;}
	.st810{clip-path:url(#SVGID_447_);fill:#6442D8;}
	.st811{clip-path:url(#SVGID_447_);fill:#6341D8;}
	.st812{clip-path:url(#SVGID_447_);fill:#6240D8;}
	.st813{clip-path:url(#SVGID_447_);fill:#613FD8;}
	.st814{clip-path:url(#SVGID_447_);fill:#603ED8;}
	.st815{clip-path:url(#SVGID_447_);fill:#603DD7;}
	.st816{clip-path:url(#SVGID_447_);fill:#5F3CD7;}
	.st817{clip-path:url(#SVGID_447_);fill:#5E3BD7;}
	.st818{clip-path:url(#SVGID_447_);fill:#5D3AD7;}
	.st819{clip-path:url(#SVGID_447_);fill:#5C39D7;}
	.st820{clip-path:url(#SVGID_447_);fill:#5B38D6;}
	.st821{clip-path:url(#SVGID_447_);fill:#5A37D6;}
	.st822{clip-path:url(#SVGID_447_);fill:#5A36D6;}
	.st823{clip-path:url(#SVGID_447_);fill:#5935D6;}
	.st824{clip-path:url(#SVGID_447_);fill:#5834D6;}
	.st825{clip-path:url(#SVGID_447_);fill:#5732D5;}
	.st826{clip-path:url(#SVGID_447_);fill:#5631D5;}
	.st827{clip-path:url(#SVGID_447_);fill:#5530D5;}
	.st828{clip-path:url(#SVGID_447_);fill:#542FD5;}
	.st829{clip-path:url(#SVGID_447_);fill:#542ED5;}
	.st830{clip-path:url(#SVGID_447_);fill:#532DD4;}
	.st831{clip-path:url(#SVGID_447_);fill:#522CD4;}
	.st832{clip-path:url(#SVGID_447_);fill:#512BD4;}
	.st833{fill:url(#SVGID_448_);}
	.st834{clip-path:url(#SVGID_450_);fill:#8065E0;}
	.st835{clip-path:url(#SVGID_450_);fill:#7F64E0;}
	.st836{clip-path:url(#SVGID_450_);fill:#7F63E0;}
	.st837{clip-path:url(#SVGID_450_);fill:#7E63DF;}
	.st838{clip-path:url(#SVGID_450_);fill:#7D62DF;}
	.st839{clip-path:url(#SVGID_450_);fill:#7D61DF;}
	.st840{clip-path:url(#SVGID_450_);fill:#7C60DF;}
	.st841{clip-path:url(#SVGID_450_);fill:#7B5FDF;}
	.st842{clip-path:url(#SVGID_450_);fill:#7B5EDF;}
	.st843{clip-path:url(#SVGID_450_);fill:#7A5DDE;}
	.st844{clip-path:url(#SVGID_450_);fill:#795CDE;}
	.st845{clip-path:url(#SVGID_450_);fill:#785BDE;}
	.st846{clip-path:url(#SVGID_450_);fill:#775ADE;}
	.st847{clip-path:url(#SVGID_450_);fill:#7659DD;}
	.st848{clip-path:url(#SVGID_450_);fill:#7658DD;}
	.st849{clip-path:url(#SVGID_450_);fill:#7557DD;}
	.st850{clip-path:url(#SVGID_450_);fill:#7456DD;}
	.st851{clip-path:url(#SVGID_450_);fill:#7355DC;}
	.st852{clip-path:url(#SVGID_450_);fill:#7254DC;}
	.st853{clip-path:url(#SVGID_450_);fill:#7153DC;}
	.st854{clip-path:url(#SVGID_450_);fill:#7051DC;}
	.st855{clip-path:url(#SVGID_450_);fill:#6F50DB;}
	.st856{clip-path:url(#SVGID_450_);fill:#6E4FDB;}
	.st857{clip-path:url(#SVGID_450_);fill:#6D4EDB;}
	.st858{clip-path:url(#SVGID_450_);fill:#6C4DDB;}
	.st859{clip-path:url(#SVGID_450_);fill:#6B4BDA;}
	.st860{clip-path:url(#SVGID_450_);fill:#6A4ADA;}
	.st861{clip-path:url(#SVGID_450_);fill:#6949DA;}
	.st862{clip-path:url(#SVGID_450_);fill:#6848DA;}
	.st863{clip-path:url(#SVGID_450_);fill:#6746D9;}
	.st864{clip-path:url(#SVGID_450_);fill:#6645D9;}
	.st865{clip-path:url(#SVGID_450_);fill:#6544D9;}
	.st866{clip-path:url(#SVGID_450_);fill:#6443D9;}
	.st867{clip-path:url(#SVGID_450_);fill:#6442D8;}
	.st868{clip-path:url(#SVGID_450_);fill:#6341D8;}
	.st869{clip-path:url(#SVGID_450_);fill:#6240D8;}
	.st870{clip-path:url(#SVGID_450_);fill:#613FD8;}
	.st871{clip-path:url(#SVGID_450_);fill:#603ED8;}
	.st872{clip-path:url(#SVGID_450_);fill:#603DD7;}
	.st873{clip-path:url(#SVGID_450_);fill:#5F3CD7;}
	.st874{clip-path:url(#SVGID_450_);fill:#5E3BD7;}
	.st875{clip-path:url(#SVGID_450_);fill:#5D3AD7;}
	.st876{clip-path:url(#SVGID_450_);fill:#5C39D7;}
	.st877{clip-path:url(#SVGID_450_);fill:#5B38D6;}
	.st878{clip-path:url(#SVGID_450_);fill:#5A37D6;}
	.st879{clip-path:url(#SVGID_450_);fill:#5A36D6;}
	.st880{clip-path:url(#SVGID_450_);fill:#5935D6;}
	.st881{clip-path:url(#SVGID_450_);fill:#5834D6;}
	.st882{clip-path:url(#SVGID_450_);fill:#5732D5;}
	.st883{clip-path:url(#SVGID_450_);fill:#5631D5;}
	.st884{clip-path:url(#SVGID_450_);fill:#5530D5;}
	.st885{clip-path:url(#SVGID_450_);fill:#542FD5;}
	.st886{clip-path:url(#SVGID_450_);fill:#542ED5;}
	.st887{clip-path:url(#SVGID_450_);fill:#532DD4;}
	.st888{clip-path:url(#SVGID_450_);fill:#522CD4;}
	.st889{clip-path:url(#SVGID_450_);fill:#512BD4;}
	.st890{fill:url(#SVGID_451_);}
	.st891{fill:url(#SVGID_452_);}
	.st892{fill:url(#SVGID_453_);}
	.st893{fill:url(#SVGID_454_);}
	.st894{fill:url(#SVGID_455_);}
	.st895{fill:url(#SVGID_456_);}
	.st896{fill:url(#SVGID_457_);}
	.st897{fill:url(#SVGID_458_);}
	.st898{fill:url(#SVGID_459_);}
	.st899{fill:url(#SVGID_460_);}
	.st900{fill:url(#SVGID_461_);}
	.st901{fill:url(#SVGID_462_);}
	.st902{fill:url(#SVGID_463_);}
	.st903{fill:url(#SVGID_464_);}
	.st904{fill:url(#SVGID_465_);}
	.st905{fill:url(#SVGID_466_);}
	.st906{fill:url(#SVGID_467_);}
	.st907{fill:url(#SVGID_468_);}
	.st908{fill:url(#SVGID_469_);}
	.st909{fill:#EB8470;}
	.st910{fill:url(#SVGID_470_);}
	.st911{fill:url(#SVGID_471_);}
	.st912{fill:url(#SVGID_472_);}
	.st913{fill:url(#SVGID_473_);}
	.st914{fill:url(#SVGID_474_);}
	.st915{fill:url(#SVGID_475_);}
	.st916{fill:url(#SVGID_476_);}
	.st917{fill:url(#SVGID_477_);}
	.st918{fill:url(#SVGID_478_);}
	.st919{fill:url(#SVGID_479_);}
	.st920{fill:url(#SVGID_480_);}
	.st921{fill:url(#SVGID_481_);}
	.st922{fill:url(#SVGID_482_);}
	.st923{fill:url(#SVGID_483_);}
	.st924{fill:url(#SVGID_484_);}
	.st925{fill:url(#SVGID_485_);}
	.st926{fill:url(#SVGID_486_);}
	.st927{fill:url(#SVGID_487_);}
	.st928{fill:url(#SVGID_488_);}
	.st929{fill:url(#SVGID_489_);}
	.st930{fill:url(#SVGID_490_);}
	.st931{fill:url(#SVGID_491_);}
	.st932{fill:url(#SVGID_492_);}
	.st933{fill:url(#SVGID_493_);}
	.st934{fill:url(#SVGID_494_);}
	.st935{fill:url(#SVGID_495_);}
	.st936{fill:url(#SVGID_496_);}
	.st937{fill:url(#SVGID_497_);}
	.st938{fill:url(#SVGID_498_);}
	.st939{fill:url(#SVGID_499_);}
	.st940{fill:url(#SVGID_500_);}
	.st941{fill:url(#SVGID_501_);}
	.st942{fill:url(#SVGID_502_);}
	.st943{fill:url(#SVGID_503_);}
	.st944{fill:url(#SVGID_504_);}
	.st945{fill:url(#SVGID_505_);}
	.st946{fill:url(#SVGID_506_);}
	.st947{fill:url(#SVGID_507_);}
	.st948{fill:url(#SVGID_508_);}
	.st949{fill:url(#SVGID_509_);}
	.st950{fill:url(#SVGID_510_);}
	.st951{fill:url(#SVGID_511_);}
	.st952{fill:url(#SVGID_512_);}
	.st953{fill:url(#SVGID_513_);}
	.st954{fill:url(#SVGID_514_);}
	.st955{fill:url(#SVGID_515_);}
	.st956{fill:url(#SVGID_516_);}
	.st957{fill:url(#SVGID_517_);}
	.st958{fill:url(#SVGID_518_);}
	.st959{fill:url(#SVGID_519_);}
	.st960{fill:url(#SVGID_520_);}
	.st961{fill:url(#SVGID_521_);}
	.st962{fill:url(#SVGID_522_);}
	.st963{fill:url(#SVGID_523_);}
	.st964{fill:url(#SVGID_524_);}
	.st965{fill:url(#SVGID_525_);}
	.st966{fill:url(#SVGID_526_);}
	.st967{fill:url(#SVGID_527_);}
	.st968{fill:url(#SVGID_528_);}
	.st969{fill:url(#SVGID_529_);}
	.st970{fill:url(#SVGID_530_);}
	.st971{fill:url(#SVGID_531_);}
	.st972{fill:url(#SVGID_532_);}
	.st973{fill:url(#SVGID_533_);}
	.st974{fill:url(#SVGID_534_);}
	.st975{fill:url(#SVGID_535_);}
	.st976{fill:url(#SVGID_536_);}
	.st977{fill:url(#SVGID_537_);}
	.st978{fill:url(#SVGID_538_);}
	.st979{fill:url(#SVGID_539_);}
	.st980{fill:url(#SVGID_540_);}
	.st981{fill:url(#SVGID_541_);}
	.st982{fill:url(#SVGID_542_);}
	.st983{fill:#F9C163;}
	.st984{fill:url(#SVGID_543_);}
	.st985{fill:#E6F2FC;}
	.st986{fill:url(#SVGID_544_);}
	.st987{fill:url(#SVGID_545_);}
	.st988{fill:url(#SVGID_546_);}
	.st989{fill:url(#SVGID_547_);}
	.st990{fill:url(#SVGID_548_);}
	.st991{fill:url(#SVGID_549_);}
	.st992{fill:none;stroke:#908D89;stroke-width:2;stroke-miterlimit:10;}
	.st993{fill:url(#SVGID_550_);}
	.st994{fill:url(#SVGID_551_);}
	.st995{fill:url(#SVGID_552_);}
	.st996{fill:url(#SVGID_553_);}
	.st997{fill:url(#SVGID_554_);}
	.st998{fill:url(#SVGID_555_);}
	.st999{fill:url(#SVGID_556_);}
	.st1000{fill:url(#SVGID_557_);}
	.st1001{fill:url(#SVGID_558_);}
	.st1002{fill:url(#SVGID_559_);}
	.st1003{fill:url(#SVGID_560_);}
	.st1004{fill:url(#SVGID_561_);}
	.st1005{fill:url(#SVGID_562_);}
	.st1006{fill:url(#SVGID_563_);}
	.st1007{fill:url(#SVGID_564_);}
	.st1008{fill:url(#SVGID_565_);}
	.st1009{fill:#2ECCEF;}
	.st1010{fill:url(#SVGID_566_);}
	.st1011{fill:#DDF3FF;}
	.st1012{fill:#DF972B;}
	.st1013{fill:#F2F1F0;}
	.st1014{fill:#F4F3F2;}
	.st1015{fill:#6BAFE9;}
	.st1016{fill:#E96F5F;}
	.st1017{fill:#F2D850;}
	.st1018{fill:#8DE265;}
	.st1019{fill:url(#SVGID_567_);}
	.st1020{fill:url(#SVGID_570_);}
	.st1021{fill:url(#SVGID_573_);}
</style>
<g>
	<path class="st40" d="M457.27,123.76V46.2c0-1.77-1.09-3.3-2.45-3.42l-93.44-8.13c-1.58-0.14-2.86,1.31-2.86,3.23v84.09
		L457.27,123.76z"/>
	<g>
		<path class="st202" d="M459.27,123.76V46.2c0-1.77-1.09-3.3-2.45-3.42l-93.44-8.13c-1.58-0.14-2.86,1.31-2.86,3.23v84.09
			L459.27,123.76z"/>
		<polygon class="st134" points="375.45,113.58 366.4,113.36 366.4,42.04 375.45,42.78 		"/>
		<polygon class="st219" points="454.78,115.57 375.45,113.58 375.45,42.78 454.78,49.23 		"/>
		<polygon class="st2" points="372.88,55.97 368.35,55.65 368.35,50.11 372.88,50.45 		"/>
		<polygon class="st2" points="372.88,63.85 368.35,63.56 368.35,58.02 372.88,58.33 		"/>
		<polygon class="st2" points="372.88,70.95 368.35,70.68 368.35,65.14 372.88,65.43 		"/>
		<polygon class="st2" points="372.88,78.83 368.35,78.59 368.35,73.06 372.88,73.31 		"/>
		<polygon class="st2" points="372.88,85.93 368.35,85.71 368.35,80.18 372.88,80.41 		"/>
		<polygon class="st2" points="372.88,93.81 368.35,93.63 368.35,88.09 372.88,88.29 		"/>
	</g>
	<g>
		<g>
			<path class="st6" d="M428.14,71l-24.23-1.27c-5.24-0.27-9.5-4.49-9.5-9.43v0c0.01-4.94,4.29-8.67,9.53-8.34l24.26,1.53
				c5.06,0.32,9.13,4.48,9.1,9.29v0C437.3,67.58,433.2,71.26,428.14,71z"/>
			<g>
				<path class="st2" d="M411.26,65.63l-8.66-4.07l0-0.83l8.68-3.56l0,1.26l-7.05,2.74l7.04,3.18L411.26,65.63z"/>
				<path class="st2" d="M418.77,55.76l-4.9,12.05l-1.49-0.08l4.9-12.07L418.77,55.76z"/>
				<path class="st2" d="M419.85,64.83l6.93-2.35l-6.91-3.54l0-1.26l8.48,4.52l0,0.82l-8.5,3.07L419.85,64.83z"/>
			</g>
		</g>
		<g>
			<g>
				<polygon class="st6" points="432.78,77.84 389.15,75.73 389.15,73.81 432.79,75.97 				"/>
			</g>
			<g>
				<polygon class="st6" points="385.1,75.54 382.85,75.43 382.85,73.5 385.1,73.61 				"/>
			</g>
			<g>
				<polygon class="st6" points="446.4,84.07 394.9,81.75 394.9,79.84 446.41,82.21 				"/>
			</g>
			<g>
				<polygon class="st6" points="385.1,81.31 382.85,81.21 382.85,79.28 385.1,79.39 				"/>
			</g>
			<g>
				<polygon class="st6" points="423.11,88.66 402.16,87.79 402.16,85.89 423.11,86.78 				"/>
			</g>
			<g>
				<polygon class="st6" points="385.1,87.08 382.85,86.99 382.85,85.06 385.1,85.16 				"/>
			</g>
			<g>
				<polygon class="st6" points="445.6,95.16 394.88,93.22 394.89,91.31 445.61,93.31 				"/>
			</g>
			<g>
				<polygon class="st6" points="385.1,92.85 382.85,92.76 382.85,90.84 385.1,90.93 				"/>
			</g>
			<g>
				<polygon class="st6" points="420.57,99.84 402.14,99.2 402.14,97.3 420.58,97.96 				"/>
			</g>
			<g>
				<polygon class="st6" points="385.1,98.61 382.85,98.53 382.85,96.61 385.1,96.69 				"/>
			</g>
			<g>
				<polygon class="st6" points="429.72,105.76 409.88,105.14 409.89,103.25 429.73,103.9 				"/>
			</g>
			<g>
				<polygon class="st6" points="385.1,104.36 382.85,104.29 382.85,102.37 385.1,102.44 				"/>
			</g>
		</g>
	</g>
	<g>
		<path class="st40" d="M268.9,153.81V49.04c0-2.38-1.71-4.44-3.82-4.59L114.74,33.37c-2.61-0.19-4.73,1.81-4.73,4.47
			c0,0,0,106.89,0,109.34c0,2.44,1.99,3.67,1.99,3.67L268.9,153.81z"/>
		<polygon class="st196" points="195.09,45.58 192.58,45.4 192.58,42.7 195.09,42.88 		"/>
		<path class="st266" d="M118.41,135.33c0,1.28,1.11,2.43,2.36,2.43l139.32,0.67c1.11,0.01,2-1,2-2.24V55.9c0-1.24-0.9-2.31-2-2.38
			l-139.1-9.29c-1.42-0.09-2.57,1.01-2.57,2.46v88.23"/>
		<path class="st266" d="M210.85,116.87L210.85,116.87c0.13,0,0.13,0,0.13,0l0,0L210.85,116.87z M209.96,116.92"/>
		<g>
			<path class="st191" d="M270.9,153.81V49.04c0-2.38-1.71-4.44-3.82-4.59L116.74,33.37c-2.61-0.19-4.73,1.81-4.73,4.47v114.6
				L270.9,153.81z"/>
			<polygon class="st40" points="197.09,45.58 194.58,45.4 194.58,42.7 197.09,42.88 			"/>
			<path class="st515" d="M120.41,135.33c0,1.28,1.11,2.43,2.36,2.43l139.32,0.67c1.11,0.01,2-1,2-2.24V55.9c0-1.24-0.9-2.31-2-2.38
				l-139.1-9.29c-1.42-0.09-2.57,1.01-2.57,2.46v88.23"/>
			<path class="st268" d="M212.85,116.87L212.85,116.87c0.13,0,0.13,0,0.13,0l0,0L212.85,116.87z M211.96,116.92"/>
		</g>
		<path class="st128" d="M112,150.93v2.1c0,0.73,0.52,1.34,1.24,1.47l66.53,11.38c1.8,0.3,5.39,0.59,7.24,0.56l159.78-2.16
			l-0.19-3.56l-216.17-9.25L112,150.93z"/>
		<path class="st126" d="M112,150.67l69.14,10.98c2.52,0.4,5.11,0.58,7.69,0.56l158.52-1.57l-77.07-10.46L112,150.67z"/>
		<g>
			<g>
				<path class="st6" d="M184.16,86.94l-17.12-8.56v-1.75l17.12-7.27v2.62l-13.9,5.59l13.9,6.71V86.94z"/>
				<path class="st6" d="M198.7,66.6l-9.43,24.89l-2.9-0.17l9.47-24.95L198.7,66.6z"/>
				<path class="st6" d="M200.84,85.33l13.25-4.77l-13.25-7.37v-2.59l16.23,9.42v1.68l-16.23,6.25V85.33z"/>
			</g>
			<g>
				<g>
					<path class="st6" d="M230.96,105.82l-75.71-3.57c-0.98-0.05-1.78-0.86-1.78-1.82s0.8-1.7,1.78-1.65l75.71,3.78
						c0.87,0.04,1.57,0.81,1.57,1.71C232.53,105.16,231.83,105.86,230.96,105.82z"/>
				</g>
				<g>
					<path class="st6" d="M230.96,113.98l-75.71-3.06c-0.98-0.04-1.78-0.85-1.78-1.81s0.8-1.7,1.78-1.66l75.71,3.26
						c0.87,0.04,1.57,0.8,1.57,1.7C232.53,113.31,231.83,114.01,230.96,113.98z"/>
				</g>
				<g>
					<path class="st6" d="M230.96,122.14l-75.71-2.54c-0.98-0.03-1.78-0.84-1.78-1.8s0.8-1.71,1.78-1.67l75.71,2.75
						c0.87,0.03,1.57,0.79,1.57,1.69C232.53,121.46,231.83,122.17,230.96,122.14z"/>
				</g>
			</g>
		</g>
	</g>
	<path class="st128" d="M360.53,121.83v1.3c0,0.45,0.31,0.83,0.73,0.91l44.49,9.09c1.06,0.19,3.16,0.36,4.25,0.35l93.37,0.72
		c0.21,0,0.38-0.12,0.38-0.26v-2.53c0-0.16-0.17-0.29-0.4-0.3l-126.76-7.26L360.53,121.83z"/>
	<path class="st126" d="M360.69,121.87l45.68,8.29c1.48,0.25,3,0.36,4.52,0.35l92.57,0.61l-44.27-7.45L360.69,121.87z"/>
	<path class="st40" d="M400.78,102.22l-171.01-5.96c-4.02-0.14-7.3,3.35-7.3,7.79v124.99v1.49v14.52c0,3.8,2.81,6.68,6.26,6.41
		l172.07-11.43c2.64-0.2,4.77-3.04,4.77-6.35v-12.62l0.78-111.65C406.35,105.54,403.86,102.32,400.78,102.22z"/>
	<path class="st269" d="M297.97,241.47l-4,21.94c-0.38,4.72,3.19,8.91,7.78,10.13l12.2,4.96c4.91,1.48,9.51,1.69,13.66,1.19
		l39.01-4.34c3.93-0.17,3.65-3.84-1.52-4.31l-24.4-2.83c-3.84-0.43-7.46-3.47-6.74-7.53l4-23.22L297.97,241.47z"/>
	<path class="st191" d="M408.13,221.05l0.78-111.65c0-3.86-2.49-7.08-5.57-7.18l-171.01-5.96c-4.02-0.14-7.3,3.35-7.3,7.79v126.48
		c0,0.64,0.47,1.12,1.05,1.09l181.26-9.51C407.78,222.07,408.13,221.61,408.13,221.05z"/>
	<path class="st135" d="M225.02,229.03v16.02c0,3.81,2.81,6.68,6.26,6.41l172.07-11.43c2.64-0.2,4.77-3.04,4.77-6.35v-13.92
		L225.02,229.03z"/>
	<path class="st57" d="M325.83,232.41c0,2.03-1.4,3.78-3.13,3.9c-1.73,0.12-3.14-1.44-3.14-3.48c0-2.04,1.41-3.79,3.14-3.9
		C324.43,228.82,325.83,230.38,325.83,232.41z"/>
	<polygon class="st47" points="400.43,213.28 234.14,220.61 234.14,107.7 401.21,112.16 	"/>
	<polygon class="st39" points="401.21,111.39 234.14,106.83 234.14,111.2 401.21,115.24 	"/>
	<path class="st244" d="M369.41,205.27l-97.76,3.69c-0.81,0.04-1.47,0.82-1.47,1.74v7.71l100.5-4.51v-7.14
		C370.68,205.91,370.11,205.24,369.41,205.27z"/>
	<path class="st47" d="M299.46,215.03l-3.27,0.17c-0.38,0.02-0.68-0.32-0.68-0.75v-3.79c0-0.43,0.3-0.8,0.68-0.82l3.27-0.16
		c0.37-0.02,0.68,0.32,0.68,0.75v3.77C300.14,214.65,299.84,215.01,299.46,215.03z"/>
	<path class="st47" d="M290.5,212.92c0,1.57-1.11,2.91-2.49,2.98c-1.38,0.07-2.5-1.15-2.5-2.73s1.12-2.92,2.5-2.98
		C289.39,210.12,290.5,211.34,290.5,212.92z"/>
	<path class="st47" d="M310.13,211.79c0,1.55-1.08,2.87-2.41,2.94c-1.34,0.07-2.42-1.14-2.42-2.69c0-1.56,1.09-2.87,2.42-2.94
		C309.05,209.04,310.13,210.24,310.13,211.79z"/>
	<path class="st47" d="M320.04,211.43c0,1.54-1.06,2.84-2.38,2.91c-1.32,0.07-2.39-1.13-2.39-2.67s1.07-2.85,2.39-2.91
		C318.98,208.7,320.04,209.89,320.04,211.43z"/>
	<path class="st47" d="M328.72,213.95l-3.13,0.16c-0.36,0.02-0.65-0.31-0.65-0.73v-3.7c0-0.42,0.29-0.78,0.65-0.8l3.13-0.15
		c0.36-0.02,0.65,0.31,0.65,0.73v3.69C329.36,213.58,329.07,213.93,328.72,213.95z"/>
	<path class="st47" d="M346.96,213.1l-3.04,0.16c-0.35,0.02-0.63-0.31-0.63-0.72v-3.65c0-0.42,0.28-0.77,0.63-0.79l3.04-0.15
		c0.35-0.02,0.63,0.31,0.63,0.72v3.64C347.59,212.73,347.31,213.08,346.96,213.1z"/>
	<polygon class="st47" points="280.29,215.9 275.52,216.15 275.52,210.72 280.29,210.48 	"/>
	<path class="st47" d="M365.71,211.93l-2.96,0.15c-0.34,0.02-0.61-0.3-0.61-0.71v-3.6c0-0.41,0.27-0.76,0.61-0.77l2.96-0.14
		c0.34-0.02,0.61,0.3,0.61,0.71v3.59C366.32,211.56,366.04,211.91,365.71,211.93z"/>
	<path class="st47" d="M338.46,210.66c0,1.52-1.03,2.8-2.31,2.87c-1.28,0.07-2.32-1.11-2.32-2.64c0-1.52,1.04-2.81,2.32-2.87
		C337.42,207.96,338.46,209.14,338.46,210.66z"/>
	<path class="st47" d="M357.19,210.01c0,1.5-1,2.76-2.25,2.83c-1.24,0.07-2.25-1.1-2.25-2.6c0-1.5,1.01-2.77,2.25-2.83
		C356.19,207.35,357.19,208.51,357.19,210.01z"/>
	<g>
		<g>
			<path class="st6" d="M351.81,131.82l-105.08-3.11c-1.23-0.04-2.23-0.96-2.23-2.07s1-1.97,2.23-1.93l105.08,3.41
				c1.05,0.03,1.9,0.89,1.9,1.9C353.71,131.05,352.86,131.85,351.81,131.82z"/>
		</g>
		<g>
			<path class="st6" d="M337.02,140.45l-78.2-1.77c-1.21-0.03-2.19-0.94-2.19-2.03s0.98-1.96,2.19-1.93l78.2,1.99
				c1.08,0.03,1.95,0.88,1.95,1.91S338.09,140.47,337.02,140.45z"/>
		</g>
		<g>
			<path class="st6" d="M371.45,150.06l-101.76-1.59c-1.19-0.02-2.16-0.91-2.16-2s0.97-1.95,2.16-1.93l101.76,1.89
				c1.02,0.02,1.84,0.85,1.84,1.85C373.29,149.27,372.47,150.07,371.45,150.06z"/>
		</g>
		<g>
			<path class="st6" d="M326.6,158.49l-44.1-0.38c-1.17-0.01-2.12-0.89-2.12-1.97c0-1.08,0.95-1.94,2.12-1.92l44.1,0.51
				c1.09,0.01,1.98,0.86,1.98,1.9C328.58,157.67,327.69,158.5,326.6,158.49z"/>
		</g>
		<g>
			<path class="st6" d="M363.45,167.7l-103.1-0.17c-1.21,0-2.19-0.89-2.19-1.98s0.98-1.98,2.19-1.97l103.1,0.47
				c1.03,0,1.87,0.83,1.87,1.83C365.32,166.88,364.48,167.7,363.45,167.7z"/>
		</g>
		<g>
			<path class="st6" d="M319.37,176.82l-47.18,0.25c-1.19,0.01-2.15-0.87-2.15-1.95s0.96-1.97,2.15-1.97l47.18-0.11
				c1.11,0,2,0.84,2,1.88S320.48,176.81,319.37,176.82z"/>
		</g>
		<g>
			<path class="st6" d="M331.01,185.86l-48.7,0.6c-1.17,0.01-2.12-0.85-2.12-1.92c0-1.08,0.95-1.96,2.12-1.97l48.7-0.46
				c1.09-0.01,1.96,0.82,1.96,1.85S332.09,185.85,331.01,185.86z"/>
		</g>
		<g>
			<path class="st46" d="M285.84,129.86l-19.68-0.58c-1.2-0.04-2.17-0.95-2.17-2.04c0-1.09,0.97-1.94,2.17-1.9l19.68,0.64
				c1.16,0.04,2.1,0.94,2.1,2.01S287.01,129.9,285.84,129.86z"/>
		</g>
		<g>
			<path class="st46" d="M315.17,139.95l-31.38-0.71c-1.17-0.03-2.12-0.92-2.12-1.99c0-1.08,0.95-1.92,2.12-1.89l31.38,0.8
				c1.11,0.03,2.01,0.9,2.01,1.95S316.28,139.98,315.17,139.95z"/>
		</g>
		<g>
			<path class="st46" d="M325.77,149.34l-20.52-0.32c-1.13-0.02-2.05-0.89-2.05-1.95s0.92-1.9,2.05-1.88l20.52,0.38
				c1.09,0.02,1.98,0.88,1.98,1.92C327.75,148.53,326.86,149.36,325.77,149.34z"/>
		</g>
		<g>
			<path class="st46" d="M304.96,167.6l-21.48-0.04c-1.17,0-2.12-0.88-2.12-1.95c0-1.08,0.95-1.94,2.12-1.94l21.48,0.1
				c1.13,0.01,2.04,0.86,2.04,1.92C307.01,166.75,306.09,167.6,304.96,167.6z"/>
		</g>
		<g>
			<path class="st201" d="M304.54,130.42l-19.13-0.57c-1.16-0.03-2.11-0.93-2.11-2.01s0.95-1.91,2.11-1.88l19.13,0.62
				c1.13,0.04,2.05,0.92,2.05,1.98S305.67,130.45,304.54,130.42z"/>
		</g>
		<g>
			<g>
				<path class="st201" d="M323.14,167.63l-20.89-0.04c-1.14,0-2.06-0.86-2.06-1.92c0-1.06,0.92-1.92,2.06-1.91l20.89,0.1
					c1.1,0.01,1.99,0.85,1.99,1.89S324.23,167.63,323.14,167.63z"/>
			</g>
		</g>
		<g>
			<path class="st46" d="M320.49,185.99l-13.24,0.16c-1.13,0.01-2.04-0.83-2.04-1.89s0.92-1.92,2.04-1.93l13.24-0.12
				c1.1-0.01,2,0.83,2,1.87S321.59,185.98,320.49,185.99z"/>
		</g>
		<g>
			<path class="st6" d="M323,195.13l-23,0.44c-1.14,0.02-2.07-0.82-2.07-1.88s0.93-1.94,2.07-1.96l23-0.38
				c1.1-0.02,1.99,0.81,1.99,1.85C324.98,194.25,324.1,195.11,323,195.13z"/>
		</g>
		<g>
			<polygon class="st244" points="391.99,189.1 336.01,189.97 336.01,158.84 391.99,159.32 			"/>
			<g>
				<path class="st6" d="M358.67,181.47l-13.99-5.85v-1.39l13.99-6.76v2.09l-11.36,5.25l11.36,4.56V181.47z"/>
				<path class="st6" d="M370.61,164.42l-7.75,20.4l-2.38,0.03l7.78-20.44L370.61,164.42z"/>
				<path class="st6" d="M372.37,179.26l10.94-4.56l-10.94-5.13v-2.07l13.4,6.6v1.35l-13.4,5.91V179.26z"/>
			</g>
		</g>
	</g>
	<g>
		<path class="st58" d="M515.64,184.2l-35.52,0.63c-2.47-0.02-4.46-2.06-4.46-4.57v-77.85c0-2.59,2.12-4.67,4.67-4.56l35.52,1.46
			c2.41,0.1,4.31,2.11,4.31,4.56v75.76C520.16,182.17,518.13,184.22,515.64,184.2z"/>
		<path class="st58" d="M517.64,184.2l-35.52,0.63c-2.47-0.02-4.46-2.06-4.46-4.57v-77.85c0-2.59,2.12-4.67,4.67-4.56l35.52,1.46
			c2.41,0.1,4.31,2.11,4.31,4.56v75.76C522.16,182.17,520.13,184.22,517.64,184.2z"/>
		<path class="st38" d="M516.81,181.08l-33.84,0.65c-1.33-0.01-2.41-1.11-2.41-2.47V103.3c0-1.4,1.15-2.52,2.53-2.47l33.84,1.39
			c1.3,0.05,2.33,1.14,2.33,2.47v73.92C519.26,179.98,518.16,181.08,516.81,181.08z"/>
		<circle class="st295" cx="489.33" cy="130.47" r="5.85"/>
		<g>
			<path class="st295" d="M514.98,142.44C514.98,142.44,514.97,142.44,514.98,142.44l-29.55-0.21c-0.61,0-1.1-0.5-1.1-1.11
				c0-0.61,0.5-1.1,1.1-1.1c0,0,0.01,0,0.01,0l29.54,0.21c0.61,0,1.1,0.5,1.1,1.11C516.08,141.95,515.58,142.44,514.98,142.44z"/>
		</g>
		<g>
			<path class="st295" d="M514.87,149.01C514.87,149.01,514.87,149.01,514.87,149.01l-29.45-0.15c-0.61,0-1.1-0.5-1.1-1.11
				c0-0.61,0.5-1.1,1.1-1.1c0,0,0,0,0.01,0l29.44,0.15c0.61,0,1.1,0.5,1.1,1.11C515.97,148.52,515.48,149.01,514.87,149.01z"/>
		</g>
		<g>
			<path class="st295" d="M485.43,155.47c-0.61,0-1.1-0.49-1.1-1.1c0-0.61,0.49-1.1,1.1-1.11l25.54-0.1c0,0,0,0,0,0
				c0.61,0,1.1,0.49,1.1,1.1c0,0.61-0.49,1.1-1.1,1.11L485.43,155.47C485.44,155.47,485.44,155.47,485.43,155.47z"/>
		</g>
		<path class="st243" d="M519.26,120.32v-15.63c0-1.32-1.03-2.41-2.33-2.47l-33.84-1.39c-1.38-0.06-2.53,1.06-2.53,2.47v16.56
			L519.26,120.32z"/>
		<path class="st6" d="M519.26,110.09v-5.4c0-1.32-1.03-2.41-2.33-2.47l-33.84-1.39c-1.38-0.06-2.53,1.06-2.53,2.47v5.39
			L519.26,110.09z"/>
	</g>
</g>
</svg>
