<?xml version="1.0" encoding="UTF-8"?> <!-- Generator: Adobe Illustrator 24.0.1, SVG Export Plug-In . SVG Version: 6.00 Build 0) --> <svg xmlns="http://www.w3.org/2000/svg" xmlns:xlink="http://www.w3.org/1999/xlink" id="Layer_1" x="0px" y="0px" viewBox="0 0 300 300" style="enable-background:new 0 0 300 300;" xml:space="preserve"> <style type="text/css"> .st0{fill:#737373;} .st1{fill:#1386AA;} .st2{fill:#00BCF2;} .st3{fill:#BB9167;} .st4{fill:#F3F3F3;} .st5{fill:#ED8422;} .st6{fill:#FFFFFF;} .st7{fill:#FDA84C;} .st8{fill:#939393;} .st9{fill:#D2D2D2;} .st10{fill:#B2B2B2;} .st11{fill:none;stroke:#D2D2D2;stroke-width:1.244;stroke-miterlimit:10;} .st12{fill:#505050;} .st13{fill:#09538F;} .st14{fill:#0078D7;} .st15{fill:#E6E6E6;} .st16{fill:#C2C2C2;} .st17{fill:#AB845F;} </style> <title>MSC17-cloud-010</title> <path class="st0" d="M110.5,254.8l-0.6-12.7h-0.8v-2.5h-0.5v-16.2h-4.5v8.7h-3.5c-2.4,0-4.3,1.9-4.3,4.4v1.1 c-0.9,1.3-1.5,2.8-1.7,4.4c0,0.3,0.2,0.5,0.4,0.5c0,0,0,0,0,0h3.8c0.3,0,0.5-0.2,0.5-0.5c0,0,0,0,0,0c-0.2-1.6-0.8-3.1-1.7-4.4v-1.1 c0-1.6,1.3-2.9,3-3h3.5v6.2h-0.5v2.5h-0.8l-0.6,12.7h1.3v7.2h5.6v-7.2L110.5,254.8z"></path> <path class="st1" d="M56.4,269.4h170.1c1.2,0,2.3-1,2.3-2.2c0-1.2-1-2.3-2.2-2.3c0,0-0.1,0-0.1,0H56.4c-1.2,0-2.3,1-2.3,2.2 C54.1,268.3,55.1,269.3,56.4,269.4C56.3,269.4,56.4,269.4,56.4,269.4"></path> <path class="st2" d="M238.9,51.9c-2.2,0-4.4,0.4-6.5,1.3c0-0.2,0-0.4,0-0.6c0-18.4-14.9-33.3-33.3-33.3c-15.2,0-28.4,10.3-32.3,24.9 c-9-10.7-25-12-35.7-3s-12,25-3,35.7c4.8,5.7,11.9,9,19.4,9h91.4c9.4-0.1,16.9-7.7,16.9-17.1C255.7,59.5,248.2,52,238.9,51.9"></path> <path d="M124.4,267.5c-0.3-1-0.8-1.8-1.6-2.5l-0.8-6.9h-7.3l-0.2,0.3c-1,1.5-2.2,3.5-3.1,5c-0.8,1.4-1.3,3-1.3,4.6l-0.1,1.3h14.4 v-1.3C124.5,267.9,124.5,267.7,124.4,267.5"></path> <path class="st3" d="M163.2,100.9l5.1-15.9l8.9-3.6l4.7,2.2l-0.6,0.7c-0.6,0.7-1.6,1-2.4,0.7l-1.7-0.6l-3.3,1.9l-0.2,4.1 c-0.1,2.1-0.8,4.2-2,5.9l-3.4,7.3L163.2,100.9z"></path> <polygon class="st4" points="162.9,100.7 164.2,97.6 170.2,100.7 168.1,105.1 "></polygon> <path class="st5" d="M181,74.8l-1.8,0c-1.9,0-3.6,1.2-4.1,3l-3.5,15.6l34.8-0.1l3.5-15.6c0.4-1.7-0.9-3-2.8-3L181,74.8"></path> <rect x="180.6" y="71" transform="matrix(0.9997 -2.354232e-02 2.354232e-02 0.9997 -1.8563 4.596)" class="st6" width="27.3" height="20.3"></rect> <path class="st7" d="M188.3,71.6l-0.7-1.9c-0.1-0.4-0.5-0.6-0.9-0.6l-7.5,0c-0.4,0-0.8,0.3-0.9,0.7l-0.7,2c-0.1,0.4-0.5,0.7-0.9,0.7 l-1.8,0c-1.9,0-3.4,1.6-3.4,3.4c0,0,0,0,0,0l0.1,17.8l34.8-0.1l-0.1-17.8c0-1.9-1.6-3.4-3.4-3.4l-13.7,0 C188.8,72.2,188.5,72,188.3,71.6"></path> <path class="st3" d="M169.7,99.1l6.9-3.3c0.6-0.3,1-0.8,1.3-1.4l1.5-4.2l-0.9-0.2c-0.9-0.2-1.8,0.2-2.2,1l-0.9,1.3l-4.7-0.4 L169.7,99.1z"></path> <polygon class="st8" points="164.2,269.4 161.1,269.4 159.2,203.3 166.2,203.3 "></polygon> <polygon class="st9" points="160.6,256.6 164.1,262.4 153.2,261.3 149.6,255.8 158.4,254.7 "></polygon> <path class="st10" d="M106.3,254.1c0,0-17.7,0.5-28.2,4.5c-0.7,0.3-1.2,1.1-0.9,1.9l0.5,1.6c9.4-2,19-3,28.7-2.9L106.3,254.1z"></path> <polygon class="st10" points="77.6,262 82.4,262 82.4,259.1 78.3,260.5 "></polygon> <path class="st0" d="M82.4,262.8V262h-4.8v4.9h1.7c0.4,1.8,2.2,2.8,3.9,2.4c1.8-0.4,2.8-2.2,2.4-3.9C85.3,263.9,84,262.8,82.4,262.8 "></path> <polygon class="st9" points="134.9,262 130.1,262 130.1,259.1 134.3,260.5 "></polygon> <path class="st0" d="M134.9,262.8V262h-4.8v4.9h1.7c0.4,1.8,2.2,2.8,3.9,2.4c1.8-0.4,2.8-2.2,2.4-3.9 C137.8,263.9,136.5,262.8,134.9,262.8"></path> <path d="M153.2,261.3c-0.8,2.6-1.3,5.3-1.5,8h24.8c0,0-0.8-5.8-6.8-5.8s-7.1-5.8-7.1-5.8l0,0c-1.4,0.6-2.5,1.8-3,3.3l-0.1,0.3 L153.2,261.3z"></path> <path class="st6" d="M85.6,211.5l-5.1-43.1c-0.1-0.7,0.2-1.4,0.6-1.9l0.2-0.2c0.9-1,2.2-1.4,3.5-1.3c11.2,1.5,22.5,1.4,33.6-0.3 l10,62H88.3c-3.4,0-6.2-2.8-6.2-6.2c0-0.9,0.2-1.8,0.6-2.6L85.6,211.5z"></path> <path class="st9" d="M124.9,210.2v-1.1H87.8c0.2-3.2,0.1-6.5-0.3-9.7l-1-8.9c2.8,0.2,11.4,0.9,20.5,0.9c5.4,0.1,10.9-0.3,16.2-1 l-0.2-1.1c-12.9,1.9-32.6,0.4-36.7,0.1l-0.9-7.9c2.3,0.2,11.1,0.9,20.7,0.9c5.4,0.1,10.8-0.3,16.2-1l-0.2-1.1 c-13.4,2-34.1,0.3-36.8,0l-0.8-7.5c2.7,0.2,10.7,0.9,19.4,0.9c5.3,0.1,10.6-0.3,15.9-1l-0.2-1.1c-12.8,1.9-31.3,0.4-35.3,0.1 l-0.7-6.6c-1,0-2,0.5-2.6,1.3c-0.4,0.5-0.7,1.2-0.6,1.9l2.9,33.6c0.4,4.8,0.1,9.7-1,14.4l-1.2,5.2c-0.7,3.1,1.3,6.2,4.4,6.9 c0.4,0.1,0.8,0.1,1.3,0.1H108c2.2,0,4.3,0.5,6.3,1.5l1,0.5c0.7,0.4,1.6,0.2,2.1-0.4c0.6-0.7,0.6-1.7-0.1-2.4 c-0.1-0.1-0.2-0.1-0.3-0.2c-2.9-1.9-6.3-2.8-9.7-2.8h-1.1v-0.1L88,224.7c-1.3,0-2.3-1-2.3-2.3c0-0.2,0-0.4,0.1-0.5l0.5-2.2h37v-1.1 H86.5c0.6-2.8,1-5.6,1.2-8.4L124.9,210.2z"></path> <path class="st11" d="M86.2,199.6c0,0,20.1,0.5,37.6,0"></path> <path d="M130.1,212.3l18.1,10.2c2,1.1,3.5,3,4.1,5.2l8.3,28.9c-1.9,2-10,6.3-10,6.3L139,235.9l-3.2-1c-11-3.6-20.7-10.2-28-19.2 l8-14.1L130.1,212.3z"></path> <path class="st9" d="M134.5,258.5c-10.5-3.9-28.2-4.5-28.2-4.5l-7.2,3.2c-1,0.4-1.5,1.5-1.3,2.5l0.3,1.5h4.6v-1l3.6-1.3 c9.6,0,19.2,0.9,28.7,2.9l0.5-1.6C135.6,259.6,135.2,258.8,134.5,258.5"></path> <path class="st12" d="M112.7,206.9l-18.6-3.6l-3.5,7.3c0,6.8,4.5,12.7,11.1,14.5l19.8,6c-7.8,11.7-9.6,27.5-9.6,27.5 c3.2,1.8,6.8,2.8,10.5,2.9c5-8.3,10.1-20.3,16.6-29.5c2.1-3,2.1-6.9-0.6-9.3C129.4,214.9,112.7,206.9,112.7,206.9"></path> <path d="M95.9,221.7c0,0,14.7,6.4,23.8-9.6c0-4.4-3.3-1.7-3.3-1.7l-20.9,8.6L95.9,221.7z"></path> <path class="st12" d="M162.6,99.5l-2.7,6.1c-8.7,19.9-22.2,37.3-39.4,50.6l-0.7-0.8l-16.5,2c-5.3,0.7-9.5,5-9.9,10.3l-4.6,54.7 c0,0,25.6,0.8,35.2-14.7c1.2,1,2.6,2.4,2.6,2.4c1.5,1.2,3.2,2.3,5,3.2l-2.8-10.8c-0.4-1.9-0.5-16.6-0.5-26.9c0-1.9-0.2-3.8-0.6-5.7 l11.5-11.7c11.2-11.4,20.1-24.7,26.4-39.3l5.8-13.4L162.6,99.5z"></path> <path class="st0" d="M95.9,171.7l9.1,19.1c0.7,1.7,2.4,2.7,4.2,2.7l25.8-0.2l2.8-7.1l-23.9-1.6l-6-16c-0.8-2-2.2-3.8-4-5.1 c-2.4-1.8-5.8-1.2-7.6,1.2c-0.2,0.3-0.5,0.7-0.6,1.1C94.9,167.6,94.9,169.8,95.9,171.7"></path> <path d="M121.5,231.1c1.3-1.7,2.8-3.3,4.5-4.7C121.5,225.7,121.1,229.5,121.5,231.1"></path> <polygon class="st0" points="102.7,262.8 102.7,261.3 98.1,261.3 98.1,262.8 96.9,262.8 96.9,269.4 103.7,269.4 103.7,262.8 "></polygon> <polygon class="st0" points="166.2,203.3 165.5,225.6 159.7,219.2 159.2,203.3 "></polygon> <rect x="100.4" y="193.2" class="st13" width="124.8" height="10.1"></rect> <rect x="47.4" y="193.2" class="st14" width="53.1" height="10.1"></rect> <polygon class="st15" points="117,269.4 113.9,269.4 112,203.3 118.9,203.3 "></polygon> <polygon class="st8" points="64.4,269.4 61.3,269.4 59.4,203.3 66.3,203.3 "></polygon> <polygon class="st15" points="211.2,269.4 208.1,269.4 206.2,203.3 213.1,203.3 "></polygon> <path class="st16" d="M189,166.3c-0.7-0.4-1.4-0.7-2.2-0.7h-40.4c-1.6,0-3.1,1-3.7,2.5l-8.6,21.8c-0.2,0.5-0.7,0.9-1.3,0.9h-23.4 v2.3h26l46.1-2.8l0.4-0.9l7.6-22.8L189,166.3z"></path> <path class="st9" d="M133.2,193.2h47.3l1.1-2.8h-45l-0.3,0.7C135.8,192.4,134.6,193.2,133.2,193.2"></path> <path class="st9" d="M189.1,166.5H148c-1.3,0-2.5,0.8-3,2l-8.1,20.9h45l8.3-21.2c0.2-0.6-0.1-1.3-0.7-1.6 C189.4,166.6,189.3,166.5,189.1,166.5"></path> <polygon class="st6" points="164.6,178.9 165.3,177.1 162.7,177.1 162,178.9 "></polygon> <polygon class="st6" points="165.3,178.9 167.6,178.9 168.3,177.1 166,177.1 "></polygon> <polygon class="st6" points="164.4,179.5 161.8,179.5 161.1,181.2 163.7,181.2 "></polygon> <polygon class="st6" points="165,179.5 164.4,181.2 166.7,181.2 167.4,179.5 "></polygon> <polygon class="st0" points="59.4,203.3 66.1,210 66.3,203.3 "></polygon> <polygon class="st0" points="124,164 127.5,163.9 122.5,154.3 108.5,153.9 107.2,157.1 109.7,164.5 114.1,163.8 110.8,166 121.4,183.5 120.6,179.9 126.2,165.6 "></polygon> <path class="st4" d="M122.5,154.3l-12.2-1.3l-0.2,1.4l-0.4-0.3l0.3,0.8l0,0.3l0.2,0.2l3,7.8l1.9-2.7l1.4,2.3 c0.7,1.5,1.3,3.1,1.6,4.7l2.1,10.2l1.9-17.6l3.4,2.2L122.5,154.3z"></path> <path class="st3" d="M127.7,145.5L125,134c-1.5-6.3-7.8-10.1-14.1-8.6c-6.3,1.5-10.1,7.8-8.6,14.1l0,0l1,4c-1.2-0.2-2.3,0.5-2.6,1.7 c-0.1,0.4-0.1,0.8,0.1,1.1l0.8,2.4c0.5,1.6,2.2,2.6,3.9,2.3c2.5,4.8,7.9,7.3,13.1,6l2.6-0.6C125.9,155.2,128.9,150.3,127.7,145.5 C127.7,145.5,127.7,145.5,127.7,145.5"></path> <path class="st17" d="M127.7,145.5l-1.9-7.8l-2.6-0.1c-1.8,0.5-2.9,2.1-2.2,3.9l1.7,3.7c0.3,0.6-0.1,1.3-0.7,1.6c0,0-0.1,0-0.1,0 l-1.1,0.3c-0.5,0.1-0.8,0.6-0.7,1.1c0,0.1,0.1,0.2,0.1,0.2c0.9,1.6,2.2,4.8,0.8,8l-2.6,0.6c-2.5,0.6-5,0.4-7.4-0.6l4.4,2.8l3.6,5.6 l2.8-8.8C126.4,154.5,128.8,150,127.7,145.5"></path> <path d="M114.4,142.2c0.2,0.7-0.2,1.4-0.9,1.5c-0.7,0.2-1.4-0.2-1.5-0.9c-0.2-0.7,0.2-1.4,0.9-1.5h0 C113.5,141.1,114.2,141.5,114.4,142.2"></path> <path d="M125.1,140.2c0.2,0.7-0.2,1.4-0.9,1.5c-0.7,0.2-1.4-0.2-1.5-0.9c-0.2-0.7,0.2-1.4,0.9-1.5h0 C124.2,139.1,124.9,139.5,125.1,140.2"></path> <path d="M110.3,141.6c-0.3,0-0.5-0.2-0.5-0.5c0-0.1,0-0.2,0.1-0.3c1-1.3,2.6-1.9,4.3-1.8c0.3,0,0.4,0.3,0.4,0.6 c0,0.2-0.3,0.4-0.5,0.4c-1.3-0.1-2.6,0.4-3.4,1.4C110.6,141.5,110.5,141.6,110.3,141.6"></path> <path d="M121.8,138.4c-0.3,0-0.5-0.2-0.5-0.5c0-0.1,0.1-0.3,0.2-0.4c1.3-0.9,3-1.2,4.5-0.7c0.3,0.1,0.4,0.4,0.3,0.6 s-0.4,0.4-0.6,0.3c-1.2-0.4-2.5-0.2-3.6,0.6C122,138.4,121.9,138.4,121.8,138.4"></path> <path d="M120,125.3c-4.2-2.9-11.5-2.4-11.5-2.4l1.2,1.6c0,0-5,0.5-7.2,3.1c1.6-0.1,2,0.3,2,0.3s-4.2,1.6-3.6,7 c0.3,2.9,0.9,5.7,1.8,8.4c1.1,0,2,0.7,2.2,1.7l0.3,1.3l0.6,0.6l1.9-1.2l-1.7-3.8c-1-2.2-0.5-4.8,1.3-6.5l1.5-1.4 c0.9-0.9,2.2-1.3,3.4-1.1l2.7,0.4c0.5,0.1,1.1,0.1,1.6-0.1l0.6-0.1c1.2-0.3,2.1-1,2.7-2.1l1.2-2.3l2,0.8 C122.9,129.8,121.9,126.6,120,125.3"></path> <path class="st17" d="M105.4,148.8c-0.5-0.3-0.7-1-0.4-1.6c0,0,0-0.1,0.1-0.1l0.2-0.2l0.1,0l-0.2-1c-0.2-0.9-1.1-1.4-2-1.2 s-1.4,1.1-1.2,2c0,0,0,0.1,0,0.1l0.6,1.8c0.4,1.3,1.7,2,3,1.7l0.5-0.1l-0.1-0.6C105.9,149.2,105.7,148.9,105.4,148.8"></path> <path class="st6" d="M117.1,150.5l7.1-2.3C124.2,148.2,122.7,154.1,117.1,150.5"></path> </svg> 