<?xml version="1.0" encoding="UTF-8"?> <svg xmlns="http://www.w3.org/2000/svg" viewBox="0 0 636 300"><defs><style>.a{fill:#b2b2b2}.b{fill:#231f20}.c{fill:#479cdf}.d{fill:#395b71}.e{fill:#8fc3ec}.f{fill:#fff}.g,.s{fill:none;stroke-miterlimit:10}.g{stroke:#fff;stroke-width:2px}.h{fill:#b3d6f2}.i{fill:#a6a6a6}.j{fill:#69afe5}.k{fill:#2e2e2e}.l{fill:#106ebe}.m{fill:#767576}.n{fill:#474747}.o{fill:#2488d8}.p{fill:#00b294}.q{fill:#ffa940}.r{fill:#acacac}.s{stroke:#757575;stroke-width:.63px}</style></defs><title>swimlane-xamarin</title><path class="a" d="M339.148 264.5h225.017a5.678 5.678 0 0 0 5.613-4.3 5.568 5.568 0 0 0-5.592-6.7H339.169a5.678 5.678 0 0 0-5.613 4.3 5.568 5.568 0 0 0 5.592 6.7z"></path><path class="a" d="M71.814 259.5h325.017a5.678 5.678 0 0 0 5.613-4.3 5.568 5.568 0 0 0-5.592-6.7H71.836a5.679 5.679 0 0 0-5.613 4.3 5.569 5.569 0 0 0 5.591 6.7z"></path><path class="b" d="M404.091 242.5V43.485a7.985 7.985 0 0 0-7.985-7.985h-282.03a7.985 7.985 0 0 0-7.985 7.985V242.5h298z"></path><path class="c" d="M116.091 49.5h278v178h-278z"></path><path class="b" d="M428.375 251.5H83.149c-11.507 0-13.387-11-13.387-11h372s-4.462 11-13.387 11z"></path><path class="d" d="M253.091 43.5h5v4h-5z"></path><path class="e" d="M394.091 49.5H269.82l124.271 121.439V49.5zM127.091 68.5h142v135h-142z"></path><path class="f" d="M190.077 167.5h-33.984a4 4 0 0 1-4-4v-70a4 4 0 0 1 4-4h34a4 4 0 0 1 4 4v70a4.008 4.008 0 0 1-4.016 4zM248.089 167.5h-34a4 4 0 0 1-4-4v-70a4 4 0 0 1 4-4h34a4 4 0 0 1 4 4v70a4 4 0 0 1-4 4z"></path><path class="g" d="M143.091 91.5v75"></path><path class="f" d="M140.091 96.038l3.501-3.502 3.499 3.502v-2.972l-3.499-3.5-3.501 3.5v2.972zM140.091 162.116l3.501 3.501 3.499-3.501v2.972l-3.499 3.499-3.501-3.499v-2.972z"></path><path class="g" d="M154.091 175.5h38"></path><path class="f" d="M158.413 178.5l-3.502-3.501 3.502-3.499h-2.972l-3.5 3.499 3.5 3.501h2.972zM187.544 178.5l3.502-3.501-3.502-3.499h2.972l3.5 3.499-3.5 3.501h-2.972z"></path><circle class="e" cx="172.978" cy="160.687" r="3.284"></circle><path class="e" d="M187.005 145.5h-28.876a3.5 3.5 0 0 0-3.5 3.5 3.5 3.5 0 0 0 3.5 3.5h28.876a3.5 3.5 0 0 0 3.5-3.5 3.5 3.5 0 0 0-3.5-3.5zM154.091 98.5h37v36h-37zM175.852 94.5h-7.389a.979.979 0 0 0-.821.914 1.385 1.385 0 0 0 .821 1.086h7.389a1.385 1.385 0 0 0 .821-1.086.979.979 0 0 0-.821-.914zM213.091 98.5h37v57h-37z"></path><path class="g" d="M194.091 149.5h6.987a3.013 3.013 0 0 0 3.013-3.013v-36.974a3.013 3.013 0 0 1 3.009-3.013h13.987"></path><circle class="f" cx="221.214" cy="106.498" r="2.512"></circle><path class="h" d="M268.091 68.5h118v135h-118z"></path><path class="i" d="M284.091 77.5h77v3h-77z"></path><path class="j" d="M284.091 87.5h7v3h-7zM295.091 87.5h29v3h-29z"></path><path class="i" d="M327.091 87.5h29v3h-29z"></path><path class="j" d="M303.091 113.5h12v3h-12z"></path><path class="i" d="M319.091 113.5h45v3h-45z"></path><path class="j" d="M313.091 120.5h13v3h-13z"></path><path class="i" d="M329.091 120.5h13v3h-13z"></path><path class="j" d="M295.091 93.5h24v3h-24z"></path><path class="i" d="M322.091 93.5h29v3h-29z"></path><path class="j" d="M295.091 107.5h24v3h-24z"></path><path class="i" d="M322.091 107.5h16v3h-16z"></path><path class="j" d="M295.091 100.5h12v3h-12z"></path><path class="i" d="M310.091 100.5h48v3h-48z"></path><path class="j" d="M284.091 132.5h7v3h-7zM295.091 132.5h29v3h-29z"></path><path class="i" d="M327.091 132.5h29v3h-29z"></path><path class="j" d="M303.091 158.5h12v3h-12z"></path><path class="i" d="M319.091 158.5h45v3h-45z"></path><path class="j" d="M313.091 165.5h13v3h-13z"></path><path class="i" d="M329.091 165.5h13v3h-13z"></path><path class="j" d="M295.091 139.5h24v3h-24z"></path><path class="i" d="M322.091 139.5h29v3h-29z"></path><path class="j" d="M295.091 152.5h24v3h-24z"></path><path class="i" d="M322.091 152.5h16v3h-16z"></path><path class="j" d="M295.091 145.5h12v3h-12z"></path><path class="i" d="M310.091 145.5h48v3h-48z"></path><path class="j" d="M293.091 171.5h7v3h-7zM303.091 171.5h29v3h-29z"></path><path class="i" d="M335.091 171.5h29v3h-29z"></path><path class="j" d="M303.091 178.5h24v3h-24z"></path><path class="i" d="M330.091 178.5h29v3h-29z"></path><path class="j" d="M303.091 185.5h12v3h-12z"></path><path class="i" d="M318.091 185.5h48v3h-48z"></path><path class="k" d="M396.406 260.5h-38.629a11.686 11.686 0 0 1-11.686-11.686V145.186a11.686 11.686 0 0 1 11.686-11.686h38.628a11.686 11.686 0 0 1 11.686 11.686v103.628a11.686 11.686 0 0 1-11.685 11.686z"></path><path class="l" d="M350.091 150.5h54v94h-54z"></path><circle class="m" cx="377.186" cy="140.07" r="1.091"></circle><circle class="n" cx="376.845" cy="252.466" r="5.18"></circle><path class="m" d="M382.5 146.5h-11.04a1.23 1.23 0 0 1-1.1-1.182c0-.61.494-1.1 1.1-.818h11.04c.609-.286 1.1.209 1.1.818a1.23 1.23 0 0 1-1.1 1.182z"></path><path class="o" d="M404.091 191.982V149.5h-46.399l46.399 42.482z"></path><path class="f" d="M352.091 198.5h49v10h-49zM352.091 211.5h49v10h-49z"></path><path class="p" d="M352.091 224.5h49v11h-49z"></path><circle class="p" cx="357.552" cy="186.278" r="2.803"></circle><circle class="i" cx="377.257" cy="186.278" r="2.803"></circle><path class="j" d="M359.091 168.5h37v2h-37z"></path><circle class="i" cx="396.141" cy="186.278" r="2.803"></circle><path class="q" d="M350.091 150.5h54v14h-54z"></path><path class="k" d="M550.28 258.494c-4.078.985-11.009 1.912-23.381 1.912s-21.512-.962-24.986-1.922-5.821-3.2-5.821-6.726V139.967c0-3.6 2.217-5.762 5.977-6.366a185.848 185.848 0 0 1 24.674-1.652 135.816 135.816 0 0 1 23.379 1.645c4.029.685 5.97 2.924 5.97 6.515v111.66c-.001 3.526-1.734 5.74-5.812 6.725z"></path><path class="l" d="M498.091 150.5h54v93h-54z"></path><ellipse class="m" cx="525.503" cy="138.046" rx="1.177" ry="1.262"></ellipse><ellipse class="m" cx="506.892" cy="139.044" rx=".944" ry="1.013"></ellipse><path class="o" d="M553.091 200.338V150.5h-50.756l50.756 49.838z"></path><path class="k" d="M479.406 259.5h-55.63a3.685 3.685 0 0 1-3.685-3.685v-118.63a3.685 3.685 0 0 1 3.685-3.685h55.63a3.685 3.685 0 0 1 3.685 3.685v118.63a3.685 3.685 0 0 1-3.685 3.685z"></path><path class="k" d="M420.091 242.5v13.982a3.018 3.018 0 0 0 3.018 3.018h56.964a3.018 3.018 0 0 0 3.018-3.018V242.5h-63z"></path><path class="l" d="M424.091 150.5h54v92h-54z"></path><circle class="r" cx="431.883" cy="249.372" r="1.725"></circle><circle class="r" cx="470.172" cy="249.372" r="1.725"></circle><path class="r" d="M452.091 251.039l-3-.418v-2.754l3-.334v3.506z"></path><path class="o" d="M478.091 194.764V150.5h-48.345l48.345 44.264z"></path><path class="s" d="M460.07 141h-15.4c-.945.519-1.711-.247-1.711-1.192a1.865 1.865 0 0 1 1.712-1.808h15.4a1.865 1.865 0 0 1 1.711 1.808c-.001.945-.767 1.711-1.712 1.192z"></path><path class="f" d="M427.091 198.5h49v10h-49zM427.091 211.5h49v10h-49z"></path><path class="p" d="M427.091 224.5h49v11h-49z"></path><circle class="p" cx="432.266" cy="186.278" r="2.803"></circle><circle class="i" cx="451.971" cy="186.278" r="2.803"></circle><path class="j" d="M433.091 168.5h37v2h-37z"></path><circle class="i" cx="470.855" cy="186.278" r="2.803"></circle><path class="q" d="M424.091 150.5h54v14h-54z"></path><path class="f" d="M501.091 198.5h49v10h-49zM501.091 211.5h49v10h-49z"></path><path class="p" d="M501.091 224.5h49v11h-49z"></path><circle class="p" cx="506.159" cy="186.278" r="2.803"></circle><circle class="i" cx="525.865" cy="186.278" r="2.803"></circle><path class="j" d="M507.091 168.5h37v2h-37z"></path><circle class="i" cx="544.748" cy="186.278" r="2.803"></circle><path class="q" d="M498.091 150.5h54v14h-54z"></path></svg> 